<svg width="17" height="17" viewBox="0 0 17 17" fill="none" xmlns="http://www.w3.org/2000/svg">
	<path d="M9.96632 1.94286C11.1182 13.4573 10.5575 15.6133 10.5575 15.6133C10.5575 15.6133 8.86044 16.7977 8.16802 15.6693C8.16802 15.6693 7.22734 15.9949 7.60712 1.77976C7.69144 0.82825 8.10912 0.410269 8.86248 0.523378C9.61797 0.636071 9.98576 1.10838 9.96632 1.94286Z" fill="#F9BF6F"/>
	<path d="M2.49885 7.61435C13.9365 5.85671 16.1191 6.30296 16.1191 6.30296C16.1191 6.30296 17.3913 7.93514 16.3011 8.68611C16.3011 8.68611 16.6758 9.60831 2.46041 9.97886C1.50578 9.94485 1.06635 9.54979 1.13956 8.79152C1.21225 8.03113 1.6645 7.63895 2.49885 7.61435Z" fill="#F9BF6F"/>
</svg>