<svg id="Layer_1" data-name="Layer 1" xmlns="http://www.w3.org/2000/svg" viewBox="0 0 841.89 841.89"><defs><style>.cls-1{fill:#231f20;}</style></defs><path class="cls-1" d="M396.23,306.06a1.31,1.31,0,0,1,1.31,1.32V380.2l-11.78-12.31-25.67-26.41a1.32,1.32,0,0,0-2.26.92v36.35a1.32,1.32,0,0,1-1.32,1.32H345.64a1.32,1.32,0,0,1-1.32-1.32V306.06l11.79,12.31,25.67,26.41a1.32,1.32,0,0,0,2.26-.92V307.38a1.32,1.32,0,0,1,1.32-1.32Zm-12.19,0h0Z"/><path class="cls-1" d="M469.57,315.06a39.3,39.3,0,1,1-27.8-11.52A38.6,38.6,0,0,1,469.57,315.06Zm-27.8,2A26,26,0,1,0,460,324.73,25.53,25.53,0,0,0,441.77,317.05Z"/><path class="cls-1" d="M537,306.06a1.47,1.47,0,0,1,1.47,1.47V380.2l-11.78-12.31-25.42-26.14a1.47,1.47,0,0,0-2.52,1V378.6a1.47,1.47,0,0,1-1.47,1.47H486.66a1.46,1.46,0,0,1-1.46-1.47V306.06L497,318.37l25.41,26.14a1.47,1.47,0,0,0,2.52-1v-36a1.47,1.47,0,0,1,1.47-1.47Zm-12,0h0Z"/><path class="cls-1" d="M581.32,343.51a1,1,0,0,1,1-1h40v.13c0,11-3.58,20.52-10.86,27.8a40.08,40.08,0,0,1-28.6,11.79,37.86,37.86,0,0,1-27.8-11.52,39.32,39.32,0,0,1,0-55.61,39.49,39.49,0,0,1,45.68-7.28A37.74,37.74,0,0,1,614.2,319a1.07,1.07,0,0,1-.24,1.48l-9.32,6.73a1,1,0,0,1-1.43-.22,26.49,26.49,0,0,0-8.52-7,24.74,24.74,0,0,0-11.79-2.91,25.28,25.28,0,0,0-18.13,7.68,25.75,25.75,0,0,0,18.13,43.95,26.82,26.82,0,0,0,18.94-7.81,26,26,0,0,0,2.54-3,1,1,0,0,0-.83-1.67l-21.2-.24a1,1,0,0,1-1-1Z"/><path class="cls-1" d="M650.07,355.46a2.94,2.94,0,0,1-1.21,4,3,3,0,1,1-2.81-5.22A3,3,0,0,1,650.07,355.46Z"/><path class="cls-1" d="M665.19,365.77a3,3,0,1,1-3-3A3,3,0,0,1,665.19,365.77Z"/><path class="cls-1" d="M693.32,315.06a39.32,39.32,0,1,0,11.52,27.8A38.59,38.59,0,0,0,693.32,315.06Zm-7.57,27.21-20.64,9.45-.68,9.11a5.41,5.41,0,1,1-5.16.41l-.41-6.65-6,2.75a5.42,5.42,0,1,1-2.07-4.75l7.67-4.85-1.34-22.63a8.7,8.7,0,0,1,8.71-9.23l1.91,0-2,27.26,23.16-14.59.89,1.66A8.7,8.7,0,0,1,685.75,342.27Z"/><path class="cls-1" d="M711.85,307.38l19,39.5a1.39,1.39,0,0,0,2.5,0l18.77-39.49a1.39,1.39,0,0,1,1.25-.79h11.76a1.38,1.38,0,0,1,1.25,2l-28.18,59.05-6.09,12.84-6.22-12.84-28.31-59a1.39,1.39,0,0,1,1.25-2H710.6A1.41,1.41,0,0,1,711.85,307.38Z"/><path class="cls-1" d="M346.06,472.87a1.22,1.22,0,0,1-1.16-1.63l20.47-57.81,4.45-12.58a1.23,1.23,0,0,1,2.26-.13l5.74,11.92,15.75,32.7,15.89-32.7,5.74-11.92a1.23,1.23,0,0,1,2.26.13l4.44,12.58,20.48,57.81a1.22,1.22,0,0,1-1.16,1.63h-11.7a1.21,1.21,0,0,1-1.15-.81l-12.94-36.28a1.23,1.23,0,0,0-2.24-.15l-19.62,37.24L374,435.64a1.22,1.22,0,0,0-2.24.16l-12.81,36.26a1.22,1.22,0,0,1-1.15.81Z"/><path class="cls-1" d="M461.34,429.19h17a1.57,1.57,0,0,1,1.57,1.57v10.36a1.57,1.57,0,0,1-1.57,1.57h-17a1.57,1.57,0,0,0-1.57,1.57v13.41a1.58,1.58,0,0,0,1.57,1.57h25.44v13.63H447.84a1.57,1.57,0,0,1-1.57-1.57V399.78a1.57,1.57,0,0,1,1.57-1.57h38.94v13.5H461.34a1.57,1.57,0,0,0-1.57,1.57v14.33A1.58,1.58,0,0,0,461.34,429.19Z"/><path class="cls-1" d="M505.19,398.34h.06l8.54.13a37.2,37.2,0,0,1,26.35,10.86A36.76,36.76,0,0,1,551,435.67a37,37,0,0,1-37.2,37.2H493.56a1.88,1.88,0,0,1-1.88-1.87V400.21a1.88,1.88,0,0,1,1.88-1.87Zm0,0,0,15.51V457.5a1.87,1.87,0,0,0,1.87,1.87h6.73A23.59,23.59,0,0,0,530.47,419a23.17,23.17,0,0,0-16.68-7h-6.73A1.87,1.87,0,0,0,505.19,413.85Z"/><path class="cls-1" d="M570.72,399.53v72.16a1.18,1.18,0,0,1-1.19,1.18H558.41a1.18,1.18,0,0,1-1.19-1.18V399.53a1.19,1.19,0,0,1,1.19-1.19h11.12A1.19,1.19,0,0,1,570.72,399.53Z"/><path class="cls-1" d="M624.92,455.93h-25a1,1,0,0,0-.88.56l-7.42,15.82a1,1,0,0,1-.89.56H578.1a1,1,0,0,1-.89-1.4l28.6-60.56,5.21-11a1,1,0,0,1,1.77,0l5.33,10.88L648,471.46a1,1,0,0,1-.88,1.41H634.48a1,1,0,0,1-.88-.54l-7.8-15.85A1,1,0,0,0,624.92,455.93Zm-18-12.71h10.66a1,1,0,0,0,.88-1.41l-5.43-11.17a1,1,0,0,0-1.77,0l-5.23,11.17A1,1,0,0,0,607,443.22Z"/><path class="cls-1" d="M269.36,494a122.87,122.87,0,0,0,51.47-100.25c-.1-66.39-53.76-121.33-120.13-122.92A123.11,123.11,0,1,0,197.19,517v0H764.8a2.55,2.55,0,0,0,2.54-2.55V496.51A2.55,2.55,0,0,0,764.8,494ZM249.89,327.87a24.74,24.74,0,1,1-27.74,27.76A24.76,24.76,0,0,1,249.89,327.87ZM243.44,416a24.74,24.74,0,1,1-21.29,21.3A24.76,24.76,0,0,1,243.44,416ZM139.46,465a24.74,24.74,0,1,1,27.74-27.76A24.76,24.76,0,0,1,139.46,465Zm6.45-88.11a24.74,24.74,0,1,1,21.29-21.3A24.77,24.77,0,0,1,145.91,376.93Zm36.71,20.17a15.11,15.11,0,1,1,14.75,14.36A15.26,15.26,0,0,1,182.62,397.1Z"/></svg>