<svg viewBox="0 0 14 13" fill="none" xmlns="http://www.w3.org/2000/svg">
	<path d="M7.875 1.17871C7.875 0.695462 7.48325 0.303711 7 0.303711C6.51675 0.303711 6.125 0.695462 6.125 1.17871H7.875ZM6.38128 11.7974C6.72299 12.1391 7.27701 12.1391 7.61872 11.7974L13.1872 6.22896C13.5289 5.88725 13.5289 5.33324 13.1872 4.99153C12.8455 4.64982 12.2915 4.64982 11.9497 4.99153L7 9.94127L2.05025 4.99153C1.70854 4.64982 1.15452 4.64982 0.812816 4.99153C0.471107 5.33324 0.471107 5.88725 0.812816 6.22896L6.38128 11.7974ZM6.125 1.17871L6.125 11.1787H7.875L7.875 1.17871H6.125Z" fill="#212121"/>
</svg>