<?xml version="1.0" standalone="no"?>
<!DOCTYPE svg PUBLIC "-//W3C//DTD SVG 1.1//EN" "http://www.w3.org/Graphics/SVG/1.1/DTD/svg11.dtd" >
<svg xmlns="http://www.w3.org/2000/svg" xmlns:xlink="http://www.w3.org/1999/xlink" version="1.1">
<metadata>
Created by FontForge 20170731 at Wed Nov 17 17:50:37 2021
 By Aleksey,,,
Copyright (c) 2018 by Timo Gaessner. All rights reserved.
</metadata>
<defs>
<font id="Maison-Bold" horiz-adv-x="1269" >
  <font-face 
    font-family="Maison Bold"
    font-weight="700"
    font-stretch="normal"
    units-per-em="2048"
    panose-1="2 11 8 4 3 0 0 0 0 4"
    ascent="1546"
    descent="-502"
    x-height="1085"
    cap-height="1434"
    bbox="-1167 -659 4491 2220"
    underline-thickness="204"
    underline-position="-450"
    unicode-range="U+000D-FEFF"
  />
<missing-glyph horiz-adv-x="1404" 
d="M102 -10v866q0 127 45.5 238t125 190t190.5 124.5t237 45.5q128 0 240 -45.5t191.5 -124.5t125.5 -190t46 -238v-866h-58l-133 133l-139 -133l-129 133l-146 -133l-141 133l-129 -133l-137 133l-135 -133h-54zM307 614l129 129l131 -129l29 29l-131 129l131 131l-29 29
l-131 -131l-129 131l-28 -29l129 -131l-129 -129zM840 614l129 129l131 -129l28 29l-131 129l131 131l-28 29l-131 -131l-129 131l-29 -29l129 -131l-129 -129z" />
    <glyph glyph-name="fi" unicode="fi" horiz-adv-x="1323" 
d="M1200 1085v-1085h-287v829h-397v-829h-287v829h-229v256h229v93q0 151 88.5 239t243.5 88q132 0 260 -61l-82 -232q-86 37 -143 37q-38 0 -59 -24t-21 -70v-70h684zM907 1499h299v-291h-299v291z" />
    <glyph glyph-name="fl" unicode="fl" horiz-adv-x="1323" 
d="M913 1434h287v-1434h-287v829h-397v-829h-287v829h-229v256h229v93q0 151 88.5 239t243.5 88q132 0 260 -61l-82 -232q-86 37 -143 37q-38 0 -59 -24t-21 -70v-70h397v349z" />
    <glyph glyph-name="W_W_W" unicode="WWW" horiz-adv-x="4552" 
d="M4207 1434h284l-284 -1434h-283l-324 975l-321 -975h-238l-323 975l-322 -975h-237l-324 975l-322 -975h-237l-324 975l-321 -975h-283l-287 1434h287l189 -930l311 932h209l338 -1004l336 1004h208l338 -1004l336 1004h209l338 -1004l336 1004h209l313 -934z" />
    <glyph glyph-name="f_f_i" unicode="ffi" horiz-adv-x="2048" 
d="M1925 1085v-1085h-287v829h-397v-829h-287v829h-438v-829h-287v829h-229v256h229v93q0 151 88.5 239t243.5 88q148 0 311 -88l-102 -221q-106 53 -174 53q-38 0 -59 -24t-21 -70v-70h438v103q0 150 88 233.5t244 83.5q132 0 260 -61l-82 -232q-86 37 -143 37
q-38 0 -59 -24t-21 -70v-70h684zM1632 1499h299v-291h-299v291z" />
    <glyph glyph-name="f_f_l" unicode="ffl" horiz-adv-x="2048" 
d="M1638 1434h287v-1434h-287v829h-397v-829h-287v829h-438v-829h-287v829h-229v256h229v93q0 151 88.5 239t243.5 88q148 0 311 -88l-102 -221q-106 53 -174 53q-38 0 -59 -24t-21 -70v-70h438v103q0 150 88 233.5t244 83.5q132 0 260 -61l-82 -232q-86 37 -143 37
q-38 0 -59 -24t-21 -70v-70h397v349z" />
    <glyph glyph-name="w_w_w" unicode="www" horiz-adv-x="3545" 
d="M3281 1085h264l-280 -1085h-302l-194 649l-197 -649h-272l-195 649l-196 -649h-273l-194 649l-197 -649h-272l-195 649l-196 -649h-301l-281 1085h264l180 -720l220 720h227l217 -720l219 720h227l218 -720l219 720h227l217 -720l219 720h228l217 -720z" />
    <glyph glyph-name=".notdef" horiz-adv-x="1404" 
d="M102 -10v866q0 127 45.5 238t125 190t190.5 124.5t237 45.5q128 0 240 -45.5t191.5 -124.5t125.5 -190t46 -238v-866h-58l-133 133l-139 -133l-129 133l-146 -133l-141 133l-129 -133l-137 133l-135 -133h-54zM307 614l129 129l131 -129l29 29l-131 129l131 131l-29 29
l-131 -131l-129 131l-28 -29l129 -131l-129 -129zM840 614l129 129l131 -129l28 29l-131 129l131 131l-28 29l-131 -131l-129 131l-29 -29l129 -131l-129 -129z" />
    <glyph glyph-name=".null" horiz-adv-x="0" 
 />
    <glyph glyph-name="nonmarkingreturn" horiz-adv-x="682" 
 />
    <glyph glyph-name="CR" unicode="&#xd;" horiz-adv-x="655" 
 />
    <glyph glyph-name="space" unicode=" " horiz-adv-x="532" 
 />
    <glyph glyph-name="exclam" unicode="!" horiz-adv-x="702" 
d="M209 477v957h297v-957h-297zM184 0v330h334v-330h-334z" />
    <glyph glyph-name="quotedbl" unicode="&#x22;" horiz-adv-x="974" 
d="M133 891l-31 543h297l-30 -543h-236zM606 891l-31 543h297l-30 -543h-236z" />
    <glyph glyph-name="numbersign" unicode="#" horiz-adv-x="1331" 
d="M1229 848h-223l-17 -262h205v-238h-221l-25 -348h-256l25 348h-152l-24 -348h-256l24 348h-207v238h224l16 262h-205v237h221l25 349h256l-25 -349h152l25 349h256l-25 -349h207v-237zM733 586l17 262h-152l-16 -262h151z" />
    <glyph glyph-name="dollar" unicode="$" horiz-adv-x="1320" 
d="M1208 414q1 -171 -100 -284.5t-281 -147.5v-248h-297v252q-177 38 -293 164.5t-145 312.5l285 57q21 -128 100 -201t205 -73q109 0 170 43t61 121q0 46 -32 81t-84.5 56.5t-119.5 44.5t-136.5 43t-136.5 54.5t-119.5 77.5t-84.5 113t-32 160q0 157 97.5 267.5
t256.5 144.5v238h297v-250q140 -40 236 -147t123 -261l-285 -57q-20 103 -86.5 158t-157.5 55q-76 0 -131 -39.5t-55 -104.5q0 -40 32 -71t84 -50t119 -41.5t136.5 -43.5t136.5 -57t119.5 -81.5t85 -119t32.5 -166.5z" />
    <glyph glyph-name="percent" unicode="%" horiz-adv-x="1978" 
d="M1233 1528l229 -107l-733 -1542l-233 96zM453 555q-170 0 -260.5 115t-90.5 334t90.5 333.5t260.5 114.5q169 0 259.5 -114.5t90.5 -333.5t-90.5 -334t-259.5 -115zM453 786q57 0 79.5 46.5t22.5 171.5q0 126 -23 171.5t-79 45.5q-58 0 -80.5 -45.5t-22.5 -171.5
t22.5 -172t80.5 -46zM1526 -18q-169 0 -258.5 114.5t-89.5 333.5t89.5 334t258.5 115q171 0 260.5 -115t89.5 -334t-89.5 -333.5t-260.5 -114.5zM1526 213q57 0 79.5 45.5t22.5 171.5q0 127 -22.5 172t-79.5 45t-79 -46t-22 -171q0 -124 22 -170.5t79 -46.5z" />
    <glyph glyph-name="ampersand" unicode="&#x26;" horiz-adv-x="1331" 
d="M1290 369l-104 -238q-10 4 -137 57q-171 -219 -469 -219q-222 0 -360 113t-138 303q0 210 201 354q-101 151 -101 322q0 177 118 290t302 113q178 0 291.5 -103t118.5 -267q5 -119 -70 -212.5t-254 -189.5q92 -71 232 -149q39 106 65 245l268 -59q-40 -185 -88 -307
q16 -7 125 -53zM602 1219q-70 0 -111.5 -42.5t-41.5 -111.5q0 -97 61 -191q145 85 190 127.5t45 100.5q0 53 -39.5 85t-103.5 32zM580 227q140 0 221 84q-215 118 -348 236q-95 -74 -95 -162q0 -73 59.5 -115.5t162.5 -42.5z" />
    <glyph glyph-name="quotesingle" unicode="'" horiz-adv-x="501" 
d="M133 891l-31 543h297l-30 -543h-236z" />
    <glyph glyph-name="parenleft" unicode="(" horiz-adv-x="716" 
d="M506 -471q-212 245 -308 496.5t-96 564.5t96 564.5t308 496.5l211 -166q-171 -222 -244.5 -429t-73.5 -466t73.5 -466t244.5 -429z" />
    <glyph glyph-name="parenright" unicode=")" horiz-adv-x="716" 
d="M211 -471l-211 166q170 221 243.5 428.5t73.5 466.5t-73.5 466.5t-243.5 428.5l211 166q212 -244 307.5 -495.5t95.5 -565.5t-95.5 -565.5t-307.5 -495.5z" />
    <glyph glyph-name="asterisk" unicode="*" horiz-adv-x="1163" 
d="M420 524l-217 156l172 227l-273 82l84 254l269 -94l-6 285h266l-6 -285l268 94l84 -254l-273 -82l173 -227l-218 -156l-161 234z" />
    <glyph glyph-name="plus" unicode="+" 
d="M1188 834v-277h-404v-416h-297v416h-405v277h405v413h297v-413h404z" />
    <glyph glyph-name="comma" unicode="," horiz-adv-x="593" 
d="M117 -336v180q74 15 100.5 49t26.5 107h-142v358h390v-301q0 -175 -95 -276.5t-280 -116.5z" />
    <glyph glyph-name="hyphen" unicode="-" horiz-adv-x="880" 
d="M102 481v277h676v-277h-676z" />
    <glyph glyph-name="period" unicode="." horiz-adv-x="575" 
d="M102 0v367h371v-367h-371z" />
    <glyph glyph-name="slash" unicode="/" horiz-adv-x="1187" 
d="M831 1530l254 -113l-727 -1544l-256 109z" />
    <glyph glyph-name="zero" unicode="0" horiz-adv-x="1196" 
d="M598 -31q-258 0 -397.5 188t-139.5 539q0 350 139.5 537.5t397.5 187.5q257 0 397 -187.5t140 -537.5q0 -352 -139.5 -539.5t-397.5 -187.5zM598 236q128 0 189 111.5t61 348.5q0 236 -61 347.5t-189 111.5t-189 -112t-61 -347q0 -237 60.5 -348.5t189.5 -111.5z" />
    <glyph glyph-name="one" unicode="1" horiz-adv-x="919" 
d="M428 0v1010q-63 -53 -142 -93t-212 -81l-74 262q171 54 271 118t196 175h248v-1391h-287z" />
    <glyph glyph-name="two" unicode="2" horiz-adv-x="1208" 
d="M1126 954q0 -103 -32.5 -185t-86.5 -136t-120.5 -96t-137.5 -73.5t-133.5 -59.5t-114 -63t-73.5 -75h659v-266h-976v150q0 92 25 167.5t67 127t97 93t115.5 71.5t120.5 57t115 55t97 60.5t67 78.5t25 103q0 84 -63.5 138t-164.5 54q-108 0 -176.5 -65t-68.5 -170
q0 -78 34 -168l-272 -80q-47 133 -47 246q0 220 148.5 361.5t381.5 141.5q223 0 368.5 -132.5t145.5 -334.5z" />
    <glyph glyph-name="three" unicode="3" horiz-adv-x="1126" 
d="M680 860q73 -8 137 -36.5t115.5 -77.5t81.5 -125.5t30 -171.5q0 -207 -142.5 -343.5t-360.5 -136.5q-228 0 -373.5 130.5t-167.5 357.5l283 41q24 -262 258 -262q100 0 158.5 60t58.5 163q0 95 -61 149t-167 54h-235v198l367 264h-572v267h928v-287z" />
    <glyph glyph-name="four" unicode="4" horiz-adv-x="1224" 
d="M729 0v254h-668v268q205 211 317 414t154 455h297q-36 -255 -152.5 -489t-270.5 -382h323v314h287v-314h168v-266h-168v-254h-287z" />
    <glyph glyph-name="five" unicode="5" horiz-adv-x="1208" 
d="M670 924q207 0 342 -135t135 -334q0 -207 -153 -346.5t-373 -139.5q-209 0 -348.5 108.5t-190.5 289.5l270 86q61 -217 269 -217q102 0 170.5 62t68.5 157q0 96 -63.5 160.5t-173.5 64.5q-126 0 -246 -117l-264 64l137 764h780v-267h-541l-47 -260q99 60 228 60z" />
    <glyph glyph-name="six" unicode="6" horiz-adv-x="1175" 
d="M672 895q201 0 332 -129t131 -324q0 -196 -142.5 -334.5t-343.5 -138.5q-272 0 -419.5 166t-147.5 473q0 338 209 556.5t579 256.5l43 -264q-220 -25 -358 -116.5t-180 -245.5q109 100 297 100zM625 236q98 0 160.5 57.5t62.5 148.5q0 90 -61.5 146.5t-161.5 56.5
q-96 0 -160 -58t-64 -145q0 -89 63.5 -147.5t160.5 -58.5z" />
    <glyph glyph-name="seven" unicode="7" horiz-adv-x="1075" 
d="M20 1391h1035v-332q-257 -288 -360 -519t-115 -540h-322q9 186 65.5 389t166.5 403.5t253 331.5h-436v-206h-287v473z" />
    <glyph glyph-name="eight" unicode="8" horiz-adv-x="1148" 
d="M874 741q93 -55 148 -147.5t55 -198.5q0 -119 -65 -216.5t-180.5 -153.5t-256.5 -56q-216 0 -359.5 122t-143.5 304q0 106 55 199.5t147 146.5q-165 103 -165 289q0 163 135 277t331 114q195 0 330 -114t135 -277q0 -182 -166 -289zM575 1157q-83 0 -131.5 -43.5
t-48.5 -118.5q0 -77 47.5 -119t132.5 -42t133 42.5t48 118.5q0 72 -50 117t-131 45zM575 236q100 0 159 52t59 138t-59 137t-159 51t-158.5 -51t-58.5 -137q0 -88 58.5 -139t158.5 -51z" />
    <glyph glyph-name="nine" unicode="9" horiz-adv-x="1175" 
d="M553 1421q243 0 392 -164.5t149 -431.5q0 -748 -756 -856l-39 264q198 32 325 123.5t173 233.5q-106 -92 -289 -92q-208 0 -337.5 126t-129.5 324q0 133 66.5 241.5t184 170t261.5 61.5zM551 745q98 0 161.5 57t63.5 146q0 92 -63 149.5t-162 57.5t-161 -58t-62 -149
q0 -97 58 -150t165 -53z" />
    <glyph glyph-name="colon" unicode=":" horiz-adv-x="579" 
d="M106 705v366h371v-366h-371zM102 0v367h371v-367h-371z" />
    <glyph glyph-name="semicolon" unicode=";" horiz-adv-x="593" 
d="M102 705v366h371v-366h-371zM117 -336v180q74 15 100.5 49t26.5 107h-142v358h390v-301q0 -175 -95 -276.5t-280 -116.5z" />
    <glyph glyph-name="less" unicode="&#x3c;" 
d="M956 100l-794 465v262l794 465l148 -241l-633 -355l633 -354z" />
    <glyph glyph-name="equal" unicode="=" 
d="M184 795v297h901v-297h-901zM184 303v297h901v-297h-901z" />
    <glyph glyph-name="greater" unicode="&#x3e;" 
d="M311 100l-147 242l633 354l-633 355l147 241l795 -465v-262z" />
    <glyph glyph-name="question" unicode="?" 
d="M479 477v279q230 66 321 124t91 140q0 75 -61 121.5t-158 46.5q-138 0 -219.5 -76.5t-98.5 -228.5l-293 37q20 250 187 397t424 147q223 0 369.5 -125.5t146.5 -318.5q0 -148 -98 -244.5t-324 -169.5v-129h-287zM449 0v330h333v-330h-333z" />
    <glyph glyph-name="at" unicode="@" horiz-adv-x="1433" 
d="M653 690q100 23 127 36t27 38q0 28 -24 44.5t-62 16.5q-41 0 -70 -28t-35 -72l-192 29q10 108 97.5 181t205.5 73q133 0 209 -69t76 -187v-271q0 -53 45 -53q43 0 61.5 58t18.5 190q0 235 -107.5 371.5t-292.5 136.5q-198 0 -319 -158t-121 -412q0 -275 119.5 -422
t341.5 -147q178 0 358 107l86 -162q-201 -123 -444 -123q-309 0 -482.5 197t-173.5 550q0 218 78.5 388t223.5 265t333 95q270 0 432 -187t162 -499q0 -428 -274 -428q-110 0 -162 90q-74 -90 -211 -90q-121 0 -191.5 60.5t-70.5 164.5q0 88 54 138.5t177 78.5zM807 600
q-15 -25 -96 -53q-54 -20 -69 -32.5t-15 -35.5q0 -49 73 -49q43 0 75 29t32 67v74z" />
    <glyph glyph-name="A" unicode="A" horiz-adv-x="1443" 
d="M1137 0l-125 311h-582l-125 -311h-305l588 1434h266l590 -1434h-307zM535 571h372l-186 463z" />
    <glyph glyph-name="B" unicode="B" horiz-adv-x="1300" 
d="M1032 768q110 -48 174 -139t64 -207q0 -187 -143 -304.5t-371 -117.5h-613v1434h600q197 0 330 -110t133 -273q0 -91 -46.5 -165.5t-127.5 -117.5zM440 1157v-274h295q87 0 132.5 35.5t45.5 103.5q0 135 -178 135h-295zM750 276q107 0 164 46.5t57 132.5q0 83 -57 127.5
t-164 44.5h-310v-351h310z" />
    <glyph glyph-name="C" unicode="C" horiz-adv-x="1320" 
d="M690 -31q-292 0 -460.5 204t-168.5 544t168.5 543.5t460.5 203.5q238 0 396 -137.5t190 -370.5l-287 -43q-24 132 -103.5 203.5t-195.5 71.5q-159 0 -244.5 -126t-85.5 -345t85.5 -345t244.5 -126q118 0 198.5 73t104.5 218l287 -37q-32 -251 -190.5 -391t-399.5 -140z
" />
    <glyph glyph-name="D" unicode="D" horiz-adv-x="1376" 
d="M143 1434h504q312 0 490 -190.5t178 -526.5t-178 -526.5t-490 -190.5h-504v1434zM618 276q204 0 302 110t98 331t-98 330.5t-302 109.5h-178v-881h178z" />
    <glyph glyph-name="E" unicode="E" horiz-adv-x="1161" 
d="M143 0v1434h957v-277h-658v-295h490v-266h-490v-320h658v-276h-957z" />
    <glyph glyph-name="F" unicode="F" horiz-adv-x="1140" 
d="M143 0v1434h957v-277h-658v-336h490v-276h-490v-545h-299z" />
    <glyph glyph-name="G" unicode="G" horiz-adv-x="1396" 
d="M645 764h639v-764h-184l-31 109q-146 -140 -379 -140q-292 0 -460.5 204t-168.5 544t168.5 543.5t460.5 203.5q238 0 396 -137.5t190 -370.5l-287 -43q-24 132 -103.5 203.5t-195.5 71.5q-159 0 -244.5 -126t-85.5 -345t85.5 -345t244.5 -126q130 0 214.5 68.5
t90.5 183.5h-350v266z" />
    <glyph glyph-name="H" unicode="H" horiz-adv-x="1380" 
d="M143 1434h299v-557h496v557h299v-1434h-299v600h-496v-600h-299v1434z" />
    <glyph glyph-name="I" unicode="I" horiz-adv-x="585" 
d="M143 0v1434h299v-1434h-299z" />
    <glyph glyph-name="J" unicode="J" horiz-adv-x="954" 
d="M41 1434h780v-861q0 -258 -171.5 -415.5t-459.5 -157.5h-149v276h147q334 0 334 310v571h-481v277z" />
    <glyph glyph-name="K" unicode="K" horiz-adv-x="1374" 
d="M993 0l-413 594l-138 -156v-438h-299v1434h299v-600l510 600h391l-555 -625l586 -809h-381z" />
    <glyph glyph-name="L" unicode="L" horiz-adv-x="1169" 
d="M143 1434h299v-1158h686v-276h-985v1434z" />
    <glyph glyph-name="M" unicode="M" horiz-adv-x="1648" 
d="M1184 1434h321v-1434h-291v963l-344 -609h-94l-342 609v-963h-291v1434h324l354 -658z" />
    <glyph glyph-name="N" unicode="N" horiz-adv-x="1380" 
d="M940 1434h297v-1434h-317l-480 920v-920h-297v1434h316l481 -920v920z" />
    <glyph glyph-name="O" unicode="O" horiz-adv-x="1380" 
d="M690 -31q-292 0 -460.5 204t-168.5 544t168.5 543.5t460.5 203.5t460.5 -203.5t168.5 -543.5t-168.5 -544t-460.5 -204zM690 246q159 0 244.5 126t85.5 345t-85.5 345t-244.5 126t-244.5 -126t-85.5 -345t85.5 -345t244.5 -126z" />
    <glyph glyph-name="P" unicode="P" horiz-adv-x="1314" 
d="M143 0v1434h650q212 0 346.5 -127.5t134.5 -327.5q0 -195 -143.5 -325t-358.5 -130h-330v-524h-299zM442 801h328q92 0 149.5 50t57.5 128q0 83 -55 130.5t-152 47.5h-328v-356z" />
    <glyph glyph-name="Q" unicode="Q" horiz-adv-x="1402" 
d="M1331 207l-41 -238q-146 18 -256 99q-148 -99 -344 -99q-292 0 -460.5 204t-168.5 544t168.5 543.5t460.5 203.5t460.5 -203.5t168.5 -543.5q0 -275 -115 -469q46 -32 127 -41zM360 717q0 -219 85.5 -345t244.5 -126q91 0 156 41q-46 69 -104.5 105.5t-147.5 51.5l68 232
q230 -48 321 -205q37 104 37 246q0 219 -85.5 345t-244.5 126t-244.5 -126t-85.5 -345z" />
    <glyph glyph-name="R" unicode="R" horiz-adv-x="1306" 
d="M944 580q73 -26 126 -89.5t79 -156.5l90 -334h-348l-60 270q-35 157 -109 220t-218 63h-62v-553h-299v1434h627q202 0 338.5 -126.5t136.5 -318.5q0 -145 -82 -253.5t-219 -155.5zM442 829h310q93 0 144.5 42.5t51.5 117.5q0 78 -52 123t-144 45h-310v-328z" />
    <glyph glyph-name="S" unicode="S" horiz-adv-x="1306" 
d="M678 -31q-259 0 -434 133.5t-213 360.5l286 57q25 -131 119 -202.5t242 -71.5q133 0 206.5 43t73.5 121q0 68 -75 110.5t-299 100.5q-246 63 -357.5 162.5t-111.5 256.5q0 186 147 305t377 119q225 0 385 -118.5t197 -313.5l-287 -57q-23 98 -102 155.5t-193 57.5
q-100 0 -163.5 -40.5t-63.5 -103.5q0 -30 13 -50t54 -41.5t104.5 -41.5t178.5 -51q260 -69 376 -174t117 -272q1 -204 -155 -324.5t-422 -120.5z" />
    <glyph glyph-name="T" unicode="T" 
d="M485 0v1157h-465v277h1229v-277h-465v-1157h-299z" />
    <glyph glyph-name="U" unicode="U" horiz-adv-x="1445" 
d="M725 -31q-268 0 -430 145t-162 414v906h299v-893q0 -155 75.5 -225t217.5 -70q141 0 216 70t75 225v893h297v-906q0 -181 -75.5 -308.5t-206.5 -189t-306 -61.5z" />
    <glyph glyph-name="V" unicode="V" horiz-adv-x="1392" 
d="M1073 1434h320l-562 -1434h-270l-561 1434h322l374 -992z" />
    <glyph glyph-name="W" unicode="W" horiz-adv-x="1636" 
d="M1284 1434h291l-205 -1434h-283l-268 723l-270 -723h-283l-205 1434h291l123 -945l264 715h158l264 -719z" />
    <glyph glyph-name="X" unicode="X" horiz-adv-x="1398" 
d="M1399 0h-344l-357 549l-356 -549h-342l494 735l-457 699h340l321 -516l322 516h342l-457 -699z" />
    <glyph glyph-name="Y" unicode="Y" horiz-adv-x="1292" 
d="M954 1434h338l-497 -856v-578h-297v578l-498 856h338l309 -560z" />
    <glyph glyph-name="Z" unicode="Z" horiz-adv-x="1275" 
d="M61 0v254l783 913h-746v267h1116v-252l-784 -916h776v-266h-1145z" />
    <glyph glyph-name="bracketleft" unicode="[" horiz-adv-x="753" 
d="M143 -430v1956h590v-277h-293v-1403h293v-276h-590z" />
    <glyph glyph-name="backslash" unicode="\" horiz-adv-x="1187" 
d="M356 1530l729 -1548l-256 -109l-727 1544z" />
    <glyph glyph-name="bracketright" unicode="]" horiz-adv-x="753" 
d="M610 -430h-590v276h293v1403h-293v277h590v-1956z" />
    <glyph glyph-name="asciicircum" unicode="^" horiz-adv-x="1228" 
d="M1126 666h-307l-205 458l-204 -458h-308l363 768h299z" />
    <glyph glyph-name="underscore" unicode="_" horiz-adv-x="1228" 
d="M102 -379v277h1024v-277h-1024z" />
    <glyph glyph-name="grave" unicode="`" horiz-adv-x="759" 
d="M657 1188h-274l-281 305h357z" />
    <glyph glyph-name="a" unicode="a" horiz-adv-x="1159" 
d="M1133 252l26 -244q-92 -14 -147 -14q-162 0 -226 112q-107 -126 -315 -126q-183 0 -293 89.5t-110 237.5q0 136 87 213.5t287 118.5q167 35 218 58t51 69q0 48 -45.5 78t-118.5 30q-91 0 -153 -47.5t-72 -126.5l-261 41q22 164 159.5 269.5t326.5 105.5
q201 0 317.5 -100.5t116.5 -272.5v-409q0 -46 16 -68t54 -22q22 0 82 8zM711 387v141q-18 -21 -61 -40t-132 -46q-107 -32 -143.5 -57t-36.5 -66q0 -47 36.5 -72.5t104.5 -25.5q97 0 164.5 48t67.5 118z" />
    <glyph glyph-name="b" unicode="b" horiz-adv-x="1228" 
d="M676 1116q222 0 356.5 -157t134.5 -416t-135 -416.5t-356 -157.5q-85 0 -159.5 31.5t-119.5 83.5v-84h-274v1434h287v-406q105 88 266 88zM637 236q114 0 179 82t65 225t-65 225t-179 82q-99 0 -163 -58.5t-64 -146.5v-205q0 -89 63.5 -146.5t163.5 -57.5z" />
    <glyph glyph-name="c" unicode="c" horiz-adv-x="1122" 
d="M588 -31q-240 0 -383.5 154.5t-143.5 419.5t143.5 419t383.5 154q187 0 320.5 -106.5t168.5 -292.5l-276 -58q-19 92 -75 141.5t-138 49.5q-240 0 -240 -307t240 -307q89 0 144.5 54.5t70.5 147.5l278 -53q-19 -131 -90 -226.5t-174.5 -142.5t-228.5 -47z" />
    <glyph glyph-name="d" unicode="d" horiz-adv-x="1228" 
d="M819 1434h287v-1434h-275v84q-45 -52 -119 -83.5t-159 -31.5q-222 0 -357 157.5t-135 416.5t135 416t357 157q161 0 266 -88v406zM819 440v205q0 88 -64 146.5t-163 58.5q-114 0 -179 -82t-65 -225t65 -225t179 -82q100 0 163.5 57.5t63.5 146.5z" />
    <glyph glyph-name="e" unicode="e" horiz-adv-x="1155" 
d="M342 442q15 -109 76.5 -168t159.5 -59q87 0 152.5 38.5t133.5 125.5l193 -172q-87 -115 -209 -176.5t-270 -61.5q-237 0 -377 155.5t-140 418.5q0 258 142 415.5t375 157.5q230 0 373 -158.5t143 -414.5v-101h-752zM578 870q-101 0 -166.5 -58t-71.5 -153h471
q-9 99 -71 155t-162 56z" />
    <glyph glyph-name="f" unicode="f" horiz-adv-x="872" 
d="M229 0v819h-229v266h229v93q0 151 88.5 239t243.5 88q148 0 311 -88l-104 -221q-106 53 -172 53q-38 0 -59 -24t-21 -70v-70h318v-266h-318v-819h-287z" />
    <glyph glyph-name="g" unicode="g" horiz-adv-x="1173" 
d="M770 160q178 -15 276.5 -101.5t98.5 -214.5q0 -336 -553 -336q-269 0 -410 85.5t-141 230.5q0 61 33.5 118.5t99.5 98.5q-88 73 -88 188q0 60 35.5 113t99.5 90q-117 114 -117 275q0 176 136.5 292.5t351.5 116.5q93 0 182 -26q37 101 116 173t185 103l88 -219
q-170 -35 -239 -135q75 -57 116 -136.5t41 -168.5q0 -177 -136.5 -293.5t-352.5 -116.5q-121 0 -219 39q-45 -20 -45 -62q0 -41 46.5 -64t147.5 -30zM592 868q-97 0 -154 -45.5t-57 -115.5t57 -116t154 -46t155 46t58 116q0 69 -58 115t-155 46zM592 -244q276 0 276 101
q0 72 -143 82l-324 26q-35 -15 -56 -42.5t-21 -59.5q0 -107 268 -107z" />
    <glyph glyph-name="h" unicode="h" horiz-adv-x="1249" 
d="M713 1116q177 0 300.5 -127.5t123.5 -339.5v-649h-287v608q0 121 -58 181.5t-159 60.5t-162 -65.5t-61 -172.5v-612h-287v1434h287v-441q53 60 132.5 91.5t170.5 31.5z" />
    <glyph glyph-name="i" unicode="i" horiz-adv-x="532" 
d="M117 1208v291h299v-291h-299zM123 0v1085h287v-1085h-287z" />
    <glyph glyph-name="j" unicode="j" horiz-adv-x="776" 
d="M639 1499v-291h-299v291h299zM653 1085v-1056q0 -190 -114 -304t-297 -114q-155 0 -303 49l69 252q115 -35 193 -35t122 44.5t44 129.5v768h-347v266h633z" />
    <glyph glyph-name="k" unicode="k" horiz-adv-x="1146" 
d="M827 0l-278 438l-139 -159v-279h-287v1434h287v-787l358 438h358l-395 -454l416 -631h-320z" />
    <glyph glyph-name="l" unicode="l" horiz-adv-x="532" 
d="M123 0v1434h287v-1434h-287z" />
    <glyph glyph-name="m" unicode="m" horiz-adv-x="1824" 
d="M1286 1116q203 0 314.5 -123.5t111.5 -349.5v-643h-287v651q0 96 -46 147.5t-132 51.5t-136 -52.5t-50 -142.5v-655h-287v651q0 99 -47 149t-131 50t-135 -51.5t-51 -143.5v-655h-287v1085h272v-96q42 59 116 93t167 34q91 0 168.5 -37.5t128.5 -101.5q53 64 135 101.5
t176 37.5z" />
    <glyph glyph-name="n" unicode="n" horiz-adv-x="1249" 
d="M713 1116q177 0 300.5 -127.5t123.5 -339.5v-649h-287v608q0 121 -58 181.5t-159 60.5t-162 -65.5t-61 -172.5v-612h-287v1085h274v-106q53 67 136 102t180 35z" />
    <glyph glyph-name="o" unicode="o" horiz-adv-x="1187" 
d="M594 -31q-243 0 -388 154.5t-145 419.5t145 419t388 154t387.5 -154t144.5 -419t-144.5 -419.5t-387.5 -154.5zM594 236q124 0 185 83t61 224t-61 224t-185 83t-185 -83t-61 -224t61 -224t185 -83z" />
    <glyph glyph-name="p" unicode="p" horiz-adv-x="1218" 
d="M672 1116q220 0 352.5 -156.5t132.5 -416.5t-132.5 -417t-352.5 -157q-78 0 -147.5 28t-114.5 75v-533h-287v1546h274v-67q47 45 119 71.5t156 26.5zM633 236q110 0 173.5 82t63.5 225t-63.5 225t-173.5 82q-98 0 -160.5 -58.5t-62.5 -146.5v-205q0 -89 62 -146.5
t161 -57.5z" />
    <glyph glyph-name="q" unicode="q" horiz-adv-x="1218" 
d="M821 1085h275v-1546h-287v533q-45 -47 -114.5 -75t-147.5 -28q-220 0 -353 157t-133 417q0 259 133 416t353 157q84 0 155.5 -26.5t118.5 -71.5v67zM586 236q99 0 161 57.5t62 146.5v205q0 88 -62.5 146.5t-160.5 58.5q-110 0 -174 -82.5t-64 -224.5t64 -224.5t174 -82.5
z" />
    <glyph glyph-name="r" unicode="r" horiz-adv-x="847" 
d="M629 1116q112 0 229 -69l-121 -250q-89 53 -172 53q-74 0 -114.5 -46t-40.5 -130v-674h-287v1085h256v-98q38 61 104.5 95t145.5 34z" />
    <glyph glyph-name="s" unicode="s" horiz-adv-x="1122" 
d="M602 -31q-215 0 -364 104t-187 281l250 60q53 -209 301 -209q104 0 159.5 28t55.5 80q0 49 -61 76t-232 55q-214 34 -309.5 110t-95.5 212q0 155 119.5 252.5t310.5 97.5q175 0 315 -94t180 -238l-245 -73q-23 77 -91.5 123.5t-158.5 46.5q-69 0 -116.5 -31.5
t-47.5 -77.5q0 -40 59.5 -63.5t225.5 -49.5q215 -34 313 -114t98 -223q0 -163 -128.5 -258t-350.5 -95z" />
    <glyph glyph-name="t" unicode="t" horiz-adv-x="878" 
d="M229 1352l287 82v-349h318v-266h-318v-481q0 -102 102 -102q87 0 191 36l70 -256q-168 -47 -289 -47q-162 0 -261.5 94.5t-99.5 249.5v506h-229v266h229v267z" />
    <glyph glyph-name="u" unicode="u" horiz-adv-x="1224" 
d="M815 1085h287v-1085h-273v111q-51 -69 -129 -105.5t-165 -36.5q-190 0 -306 125t-116 340v651h286v-608q0 -120 56 -180.5t151 -60.5t152 65t57 172v612z" />
    <glyph glyph-name="v" unicode="v" horiz-adv-x="1126" 
d="M432 0l-432 1085h317l248 -698l244 698h317l-432 -1085h-262z" />
    <glyph glyph-name="w" unicode="w" horiz-adv-x="1554" 
d="M1290 1085h264l-280 -1085h-301l-195 649l-196 -649h-301l-281 1085h264l180 -720l220 720h227l217 -720z" />
    <glyph glyph-name="x" unicode="x" horiz-adv-x="1067" 
d="M1067 0h-315l-217 350l-220 -350h-315l360 547l-354 538h318l211 -342l208 342h318l-354 -538z" />
    <glyph glyph-name="y" unicode="y" horiz-adv-x="1124" 
d="M811 1085h313l-534 -1218q-46 -105 -113.5 -152t-185.5 -47q-76 0 -205 21l41 258q76 -10 135 -10q45 0 67.5 13.5t37.5 49.5l55 135l-422 950h315l246 -612z" />
    <glyph glyph-name="z" unicode="z" horiz-adv-x="1138" 
d="M82 0v231l586 609h-566v245h934v-231l-585 -606h606v-248h-975z" />
    <glyph glyph-name="braceleft" unicode="{" horiz-adv-x="819" 
d="M575 -430q-167 0 -254.5 86.5t-87.5 253.5v434q0 43 -24 65.5t-68 22.5h-100v275h100q44 0 68 22.5t24 65.5v393q0 167 87.5 253.5t254.5 86.5h224v-277h-133q-72 0 -104 -31.5t-32 -103.5v-289q0 -220 -176 -258q176 -38 176 -258v-329q0 -72 32 -104t104 -32h133v-276
h-224z" />
    <glyph glyph-name="bar" unicode="|" horiz-adv-x="665" 
d="M184 -565v2152h297v-2152h-297z" />
    <glyph glyph-name="braceright" unicode="}" horiz-adv-x="819" 
d="M244 -430h-224v276h134q72 0 103.5 32t31.5 104v329q0 220 176 258q-176 38 -176 258v289q0 72 -31.5 103.5t-103.5 31.5h-134v277h224q167 0 254.5 -86.5t87.5 -253.5v-393q0 -43 24 -65.5t68 -22.5h100v-275h-100q-44 0 -68 -22.5t-24 -65.5v-434q0 -167 -87.5 -253.5
t-254.5 -86.5z" />
    <glyph glyph-name="asciitilde" unicode="~" 
d="M299 504l-258 84q51 180 145.5 265t245.5 85q54 0 106 -16.5t92 -39.5t75.5 -46t70 -39.5t62.5 -16.5q47 0 77 35t56 123l258 -84q-51 -180 -145.5 -265t-245.5 -85q-54 0 -106 16.5t-92 39.5t-75.5 46t-70 39.5t-62.5 16.5q-47 0 -76 -34.5t-57 -123.5z" />
    <glyph glyph-name="uni00A0" unicode="&#xa0;" horiz-adv-x="532" 
 />
    <glyph glyph-name="exclamdown" unicode="&#xa1;" horiz-adv-x="702" 
d="M184 1085h334v-329h-334v329zM209 608h297v-956h-297v956z" />
    <glyph glyph-name="cent" unicode="&#xa2;" horiz-adv-x="1245" 
d="M1143 385q-23 -157 -117 -259.5t-233 -137.5v-254h-297v254q-174 45 -273.5 190.5t-99.5 364.5t99.5 364.5t273.5 190.5v264h297v-264q135 -34 227 -133.5t119 -247.5l-277 -58q-19 92 -75 141.5t-138 49.5q-239 0 -239 -307t239 -307q89 0 144.5 54.5t70.5 147.5z" />
    <glyph glyph-name="sterling" unicode="&#xa3;" horiz-adv-x="1271" 
d="M428 276h762v-276h-1108v276q158 105 205 220h-172v235h153q-11 14 -41 48t-47.5 57.5t-39 59.5t-32 76.5t-10.5 86.5q0 175 135 290t357 115q242 0 399.5 -140t190.5 -361l-293 -54q-23 134 -96.5 206.5t-182.5 72.5q-99 0 -156 -47.5t-57 -126.5q0 -40 19.5 -78.5
t44.5 -65.5t56 -66t48 -73h309v-235h-297q-29 -111 -147 -220z" />
    <glyph glyph-name="currency" unicode="&#xa4;" horiz-adv-x="1355" 
d="M205 88l-103 100l156 156q-102 130 -102 320q0 189 102 319l-156 156l103 100l155 -156q138 99 318 99q179 0 317 -99l156 156l102 -100l-155 -156q102 -130 102 -319q0 -190 -102 -320l155 -156l-102 -100l-156 156q-138 -99 -317 -99q-180 0 -318 99zM678 422
q101 0 163 66.5t62 175.5t-62 175t-163 66t-163 -66t-62 -175t62 -175.5t163 -66.5z" />
    <glyph glyph-name="yen" unicode="&#xa5;" horiz-adv-x="1415" 
d="M1354 1434l-369 -633h264v-256h-393v-92h393v-256h-393v-197h-297v197h-416v256h416v92h-416v256h287l-369 633h338l310 -560l307 560h338z" />
    <glyph glyph-name="brokenbar" unicode="&#xa6;" horiz-adv-x="684" 
d="M184 705v882h316v-882h-316zM184 -565v880h316v-880h-316z" />
    <glyph glyph-name="section" unicode="&#xa7;" horiz-adv-x="1310" 
d="M1208 510q0 -94 -38.5 -162t-135.5 -143q82 -94 82 -236q0 -161 -123.5 -271t-308.5 -110q-206 0 -336 106t-149 288l293 38q9 -72 59 -113.5t125 -41.5q63 0 103 30.5t40 79.5q0 44 -42.5 75.5t-178.5 86.5l-199 80q-147 59 -222 143t-75 183q0 94 38.5 162t135.5 143
q-81 93 -81 235q0 161 123.5 271t308.5 110q207 0 336.5 -105.5t148.5 -287.5l-293 -39q-9 72 -59 114t-125 42q-63 0 -103 -31t-40 -80q0 -44 42.5 -75.5t178.5 -86.5l198 -79q147 -59 222 -143t75 -183zM539 463l268 -111l16 -6q88 60 88 125q0 35 -30 61t-109 58
l-268 110l-17 7q-88 -60 -88 -125q0 -35 30.5 -61t109.5 -58z" />
    <glyph glyph-name="dieresis" unicode="&#xa8;" horiz-adv-x="999" 
d="M102 1188v287h293v-287h-293zM604 1188v287h293v-287h-293z" />
    <glyph glyph-name="copyright" unicode="&#xa9;" horiz-adv-x="1331" 
d="M666 72q-244 0 -404 165.5t-160 419.5q0 167 72.5 300.5t201.5 208.5t290 75q244 0 403.5 -165t159.5 -419t-159.5 -419.5t-403.5 -165.5zM666 254q166 0 271 112t105 291t-105 290.5t-271 111.5t-271.5 -111.5t-105.5 -290.5t105.5 -291t271.5 -112zM668 344
q-122 0 -196.5 80.5t-74.5 230.5q0 151 75 232.5t196 81.5q113 0 183.5 -67t76.5 -171l-187 -20q-6 86 -73 86q-76 0 -76 -142q0 -141 76 -141q36 0 53 21.5t20 72.5l187 -20q-4 -115 -74 -179.5t-186 -64.5z" />
    <glyph glyph-name="ordfeminine" unicode="&#xaa;" horiz-adv-x="700" 
d="M684 946l16 -164q-76 -8 -92 -8q-105 0 -141 82q-56 -90 -195 -90q-105 0 -171 55.5t-66 143.5q0 79 53.5 127t167.5 71q104 22 131 33.5t27 34.5q0 24 -24.5 39.5t-61.5 15.5q-49 0 -83 -25.5t-40 -66.5l-174 27q12 98 96.5 162.5t200.5 64.5q121 0 193.5 -62.5
t72.5 -166.5v-224q0 -28 10 -40.5t33 -12.5q22 0 47 4zM414 1016v67q-20 -20 -103 -47q-56 -17 -75 -30t-19 -35q0 -43 72 -43q51 0 88 26.5t37 61.5z" />
    <glyph glyph-name="guillemotleft" unicode="&#xab;" horiz-adv-x="1298" 
d="M698 985q-46 -197 -227 -407q181 -210 227 -410l-313 -92q-36 156 -102 268t-181 234q115 122 181 233t102 266zM1196 985q-46 -197 -227 -407q181 -210 227 -410l-313 -92q-36 156 -102 268t-181 234q115 122 181 233t102 266z" />
    <glyph glyph-name="logicalnot" unicode="&#xac;" 
d="M891 219v438h-850v277h1147v-715h-297z" />
    <glyph glyph-name="uni00AD" unicode="&#xad;" horiz-adv-x="880" 
d="M102 481v277h676v-277h-676z" />
    <glyph glyph-name="registered" unicode="&#xae;" horiz-adv-x="1331" 
d="M666 1241q244 0 403.5 -165t159.5 -419t-159.5 -419.5t-403.5 -165.5t-404 165.5t-160 419.5q0 167 72.5 300.5t201.5 208.5t290 75zM666 254q166 0 271 112t105 291t-105 290.5t-271 111.5t-271.5 -111.5t-105.5 -290.5t105.5 -291t271.5 -112zM731 956
q94 0 152.5 -52.5t58.5 -137.5q0 -64 -34.5 -109.5t-96.5 -64.5l96 -236h-172l-76 226h-26v-226h-166v600h264zM633 815v-108h74q29 0 46 14.5t17 40.5q0 25 -17 39t-46 14h-74z" />
    <glyph glyph-name="macron" unicode="&#xaf;" horiz-adv-x="942" 
d="M102 1188v211h738v-211h-738z" />
    <glyph glyph-name="degree" unicode="&#xb0;" horiz-adv-x="1040" 
d="M520 662q-185 0 -301.5 112t-116.5 289t116.5 289t301.5 112t301.5 -112t116.5 -289t-116.5 -289t-301.5 -112zM520 907q71 0 116.5 43.5t45.5 112.5t-45.5 112.5t-116.5 43.5t-116.5 -43.5t-45.5 -112.5t45.5 -112.5t116.5 -43.5z" />
    <glyph glyph-name="plusminus" unicode="&#xb1;" 
d="M784 977h404v-277h-404v-292h-297v292h-405v277h405v414h297v-414zM123 0v276h1024v-276h-1024z" />
    <glyph glyph-name="acute" unicode="&#xb4;" horiz-adv-x="759" 
d="M102 1188l199 305h356l-280 -305h-275z" />
    <glyph glyph-name="paragraph" unicode="&#xb6;" horiz-adv-x="1331" 
d="M440 -246v987q-144 5 -241 103t-97 243q0 146 98 246.5t240 100.5h748v-1680h-297v1403h-154v-1403h-297z" />
    <glyph glyph-name="periodcentered" unicode="&#xb7;" horiz-adv-x="780" 
d="M205 573v367h370v-367h-370z" />
    <glyph glyph-name="cedilla" unicode="&#xb8;" horiz-adv-x="757" 
d="M430 -92q99 0 162 -57.5t63 -147.5q0 -98 -70.5 -158.5t-185.5 -60.5q-95 0 -173 36.5t-124 100.5l142 113q31 -42 63.5 -60t77.5 -18q41 0 63.5 18.5t20.5 49.5q-2 28 -23.5 44.5t-58.5 16.5q-41 0 -88 -31l-131 72l119 205h176l-72 -127q24 4 39 4z" />
    <glyph glyph-name="ordmasculine" unicode="&#xba;" horiz-adv-x="710" 
d="M354 760q-148 0 -235.5 92t-87.5 252t87.5 252t235.5 92q149 0 237.5 -92.5t88.5 -251.5t-88.5 -251.5t-237.5 -92.5zM354 936q70 0 102.5 46t32.5 122t-32.5 122t-102.5 46q-68 0 -100.5 -45.5t-32.5 -122.5t32.5 -122.5t100.5 -45.5z" />
    <glyph glyph-name="guillemotright" unicode="&#xbb;" horiz-adv-x="1298" 
d="M416 1077q36 -155 101.5 -266t180.5 -233q-114 -122 -180 -233.5t-102 -268.5l-314 92q46 199 228 410q-88 102 -145 199t-83 208zM913 1077q36 -155 102 -266t181 -233q-115 -122 -181 -234t-102 -268l-313 92q46 200 227 410q-181 210 -227 407z" />
    <glyph glyph-name="onequarter" unicode="&#xbc;" horiz-adv-x="1730" 
d="M1083 1518l191 -86l-754 -1545l-190 80zM473 573h-209v617q-34 -37 -79.5 -62.5t-131.5 -54.5l-53 191q105 35 166.5 70t126.5 100h180v-861zM1612 340h98v-195h-98v-145h-209v145h-406v195q119 127 185.5 250t89.5 270h219q-18 -149 -96.5 -297t-165.5 -223h174v168h209
v-168z" />
    <glyph glyph-name="onehalf" unicode="&#xbd;" horiz-adv-x="1771" 
d="M1083 1518l191 -86l-754 -1545l-190 80zM473 573h-209v617q-34 -37 -79.5 -62.5t-131.5 -54.5l-53 191q105 35 166.5 70t126.5 100h180v-861zM1731 580q0 -65 -24.5 -117.5t-61.5 -84.5t-86 -59.5t-93 -44.5t-86 -38t-63 -41h387v-195h-614v104q0 75 24 131.5t62 89.5
t84 58.5t92 44t84 38.5t62 50.5t24 71.5q0 43 -31 69.5t-86 26.5q-60 0 -94.5 -33.5t-34.5 -87.5q0 -39 20 -98l-198 -55q-29 89 -29 151q0 138 93.5 228t242.5 90q145 0 235.5 -84t90.5 -215z" />
    <glyph glyph-name="threequarters" unicode="&#xbe;" horiz-adv-x="1888" 
d="M1241 1518l191 -86l-754 -1545l-191 80zM692 856q0 -131 -91 -216t-230 -85q-143 0 -235 82t-105 221l207 33q15 -141 133 -141q54 0 83 28t29 82q0 55 -27 79t-87 24h-152v124l221 152h-350v195h588v-209l-211 -138q106 -8 166.5 -69t60.5 -162zM1769 340h99v-195h-99
v-145h-208v145h-406v195q119 127 185.5 250t89.5 270h219q-18 -149 -97 -297t-166 -223h175v168h208v-168z" />
    <glyph glyph-name="questiondown" unicode="&#xbf;" 
d="M821 1085v-329h-334v329h334zM791 608v-278q-230 -66 -321 -124t-91 -140q0 -75 61 -121.5t158 -46.5q138 0 219 76.5t98 228.5l293 -37q-20 -250 -186.5 -397.5t-423.5 -147.5q-223 0 -369.5 126t-146.5 319q0 148 98 243.5t324 169.5v129h287z" />
    <glyph glyph-name="Agrave" unicode="&#xc0;" horiz-adv-x="1443" 
d="M881 1536h-275l-280 305h356zM1137 0l-125 311h-582l-125 -311h-305l588 1434h266l590 -1434h-307zM535 571h372l-186 463z" />
    <glyph glyph-name="Aacute" unicode="&#xc1;" horiz-adv-x="1443" 
d="M1106 1841l-281 -305h-274l199 305h356zM1137 0l-125 311h-582l-125 -311h-305l588 1434h266l590 -1434h-307zM535 571h372l-186 463z" />
    <glyph glyph-name="Acircumflex" unicode="&#xc2;" horiz-adv-x="1443" 
d="M727 1673l-139 -178l-193 143l148 183h368l148 -183l-193 -143zM1137 0l-125 311h-582l-125 -311h-305l588 1434h266l590 -1434h-307zM535 571h372l-186 463z" />
    <glyph glyph-name="Atilde" unicode="&#xc3;" horiz-adv-x="1443" 
d="M616 1612q-57 0 -69 -76h-178q6 138 60 211.5t151 73.5q51 0 99.5 -21t88.5 -42t70 -21q58 0 69 73h178q-4 -138 -58 -211t-150 -73q-51 0 -100.5 21.5t-90 43t-70.5 21.5zM1137 0l-125 311h-582l-125 -311h-305l588 1434h266l590 -1434h-307zM535 571h372l-186 463z" />
    <glyph glyph-name="Adieresis" unicode="&#xc4;" horiz-adv-x="1443" 
d="M623 1823v-287h-293v287h293zM1124 1823v-287h-293v287h293zM1137 0l-125 311h-582l-125 -311h-305l588 1434h266l590 -1434h-307zM535 571h372l-186 463z" />
    <glyph glyph-name="Aring" unicode="&#xc5;" horiz-adv-x="1443" 
d="M1137 0l-125 311h-582l-125 -311h-305l543 1325q-54 34 -84.5 89t-30.5 122q0 114 83.5 188t215.5 74q130 0 213.5 -74t83.5 -188q0 -141 -123 -217l543 -1319h-307zM727 1638q-45 0 -72.5 -28.5t-27.5 -73.5t27.5 -73.5t72.5 -28.5q44 0 71 28.5t27 73.5t-27 73.5
t-71 28.5zM535 571h372l-186 463z" />
    <glyph glyph-name="AE" unicode="&#xc6;" horiz-adv-x="1736" 
d="M1675 1167h-506v-288h443v-256h-443v-357h506v-266h-794v317h-455l-115 -317h-311l530 1434h1145v-267zM516 567h365v600h-150z" />
    <glyph glyph-name="Ccedilla" unicode="&#xc7;" horiz-adv-x="1320" 
d="M1280 500q-30 -234 -170 -372t-356 -157l-56 -98q24 4 39 4q99 0 162.5 -57.5t63.5 -147.5q0 -98 -70.5 -158.5t-185.5 -60.5q-95 0 -173 36.5t-124 100.5l141 113q31 -42 63.5 -60t77.5 -18q41 0 63.5 18.5t20.5 49.5q-2 28 -23.5 44.5t-58.5 16.5q-42 0 -88 -30
l-131 71l107 182q-245 38 -383 236t-138 504q0 340 168.5 543.5t460.5 203.5q238 0 396 -137.5t190 -370.5l-287 -43q-24 132 -103.5 203.5t-195.5 71.5q-159 0 -244.5 -126t-85.5 -345t85.5 -345t244.5 -126q118 0 198.5 73t104.5 218z" />
    <glyph glyph-name="Egrave" unicode="&#xc8;" horiz-adv-x="1161" 
d="M776 1536h-274l-281 305h357zM143 0v1434h957v-277h-658v-295h490v-266h-490v-320h658v-276h-957z" />
    <glyph glyph-name="Eacute" unicode="&#xc9;" horiz-adv-x="1161" 
d="M446 1536l199 305h356l-280 -305h-275zM143 0v1434h957v-277h-658v-295h490v-266h-490v-320h658v-276h-957z" />
    <glyph glyph-name="Ecircumflex" unicode="&#xca;" horiz-adv-x="1161" 
d="M623 1673l-140 -178l-192 143l147 183h369l147 -183l-192 -143zM1100 1157h-658v-295h490v-266h-490v-320h658v-276h-957v1434h957v-277z" />
    <glyph glyph-name="Edieresis" unicode="&#xcb;" horiz-adv-x="1161" 
d="M225 1536v287h293v-287h-293zM727 1536v287h293v-287h-293zM143 0v1434h957v-277h-658v-295h490v-266h-490v-320h658v-276h-957z" />
    <glyph glyph-name="Igrave" unicode="&#xcc;" horiz-adv-x="585" 
d="M451 1536h-275l-280 305h356zM143 0v1434h299v-1434h-299z" />
    <glyph glyph-name="Iacute" unicode="&#xcd;" horiz-adv-x="585" 
d="M121 1536l198 305h357l-281 -305h-274zM143 0v1434h299v-1434h-299z" />
    <glyph glyph-name="Icircumflex" unicode="&#xce;" horiz-adv-x="585" 
d="M297 1673l-139 -178l-193 143l148 183h368l148 -183l-193 -143zM143 0v1434h299v-1434h-299z" />
    <glyph glyph-name="Idieresis" unicode="&#xcf;" horiz-adv-x="585" 
d="M-100 1536v287h293v-287h-293zM401 1536v287h293v-287h-293zM143 0v1434h299v-1434h-299z" />
    <glyph glyph-name="Eth" unicode="&#xd0;" horiz-adv-x="1417" 
d="M688 1434q312 0 490 -190.5t178 -526.5t-178 -526.5t-490 -190.5h-504v596h-184v256h184v582h504zM659 276q204 0 302 110t98 331t-98 330.5t-302 109.5h-178v-305h269v-256h-269v-320h178z" />
    <glyph glyph-name="Ntilde" unicode="&#xd1;" horiz-adv-x="1380" 
d="M584 1612q-58 0 -70 -76h-178q6 138 60 211.5t151 73.5q51 0 99.5 -21t88.5 -42t70 -21q58 0 69 73h179q-4 -137 -58.5 -210.5t-150.5 -73.5q-51 0 -100 21.5t-89.5 43t-70.5 21.5zM940 1434h297v-1434h-317l-480 920v-920h-297v1434h316l481 -920v920z" />
    <glyph glyph-name="Ograve" unicode="&#xd2;" horiz-adv-x="1380" 
d="M844 1567h-275l-280 305h356zM690 -31q-292 0 -460.5 204t-168.5 544t168.5 543.5t460.5 203.5t460.5 -203.5t168.5 -543.5t-168.5 -544t-460.5 -204zM690 246q159 0 244.5 126t85.5 345t-85.5 345t-244.5 126t-244.5 -126t-85.5 -345t85.5 -345t244.5 -126z" />
    <glyph glyph-name="Oacute" unicode="&#xd3;" horiz-adv-x="1380" 
d="M514 1567l199 305h356l-281 -305h-274zM690 -31q-292 0 -460.5 204t-168.5 544t168.5 543.5t460.5 203.5t460.5 -203.5t168.5 -543.5t-168.5 -544t-460.5 -204zM690 246q159 0 244.5 126t85.5 345t-85.5 345t-244.5 126t-244.5 -126t-85.5 -345t85.5 -345t244.5 -126z
" />
    <glyph glyph-name="Ocircumflex" unicode="&#xd4;" horiz-adv-x="1380" 
d="M690 1704l-139 -178l-193 143l148 182h368l148 -182l-193 -143zM690 1464q292 0 460.5 -203.5t168.5 -543.5t-168.5 -544t-460.5 -204t-460.5 204t-168.5 544t168.5 543.5t460.5 203.5zM690 246q159 0 244.5 126t85.5 345t-85.5 345t-244.5 126t-244.5 -126t-85.5 -345
t85.5 -345t244.5 -126z" />
    <glyph glyph-name="Otilde" unicode="&#xd5;" horiz-adv-x="1380" 
d="M840 1556q-51 0 -100 21.5t-89.5 43t-70.5 21.5q-58 0 -70 -75h-178q6 138 60 211t151 73q51 0 99.5 -21t88.5 -42t70 -21q57 0 69 74h179q-4 -137 -58.5 -211t-150.5 -74zM690 -31q-292 0 -460.5 204t-168.5 544t168.5 543.5t460.5 203.5t460.5 -203.5t168.5 -543.5
t-168.5 -544t-460.5 -204zM690 246q159 0 244.5 126t85.5 345t-85.5 345t-244.5 126t-244.5 -126t-85.5 -345t85.5 -345t244.5 -126z" />
    <glyph glyph-name="Odieresis" unicode="&#xd6;" horiz-adv-x="1380" 
d="M293 1567v286h293v-286h-293zM795 1567v286h292v-286h-292zM690 -31q-292 0 -460.5 204t-168.5 544t168.5 543.5t460.5 203.5t460.5 -203.5t168.5 -543.5t-168.5 -544t-460.5 -204zM690 246q159 0 244.5 126t85.5 345t-85.5 345t-244.5 126t-244.5 -126t-85.5 -345
t85.5 -345t244.5 -126z" />
    <glyph glyph-name="multiply" unicode="&#xd7;" 
d="M1133 981l-293 -293l284 -287l-194 -194l-285 287l-295 -295l-211 211l295 295l-287 284l195 195l287 -285l293 293z" />
    <glyph glyph-name="Oslash" unicode="&#xd8;" horiz-adv-x="1380" 
d="M1126 1288q193 -205 193 -571q0 -340 -168.5 -544t-460.5 -204q-138 0 -250 47l-84 -153l-198 106l96 176q-193 205 -193 572q0 340 168.5 543.5t460.5 203.5q137 0 252 -47l82 152l199 -105zM344 717q0 -182 55 -301l416 768q-55 24 -125 24q-166 0 -256 -131t-90 -360z
M690 225q166 0 256 131.5t90 360.5q0 182 -55 301l-416 -770q61 -23 125 -23z" />
    <glyph glyph-name="Ugrave" unicode="&#xd9;" horiz-adv-x="1445" 
d="M877 1536h-275l-280 305h356zM725 -31q-268 0 -430 145t-162 414v906h299v-893q0 -155 75.5 -225t217.5 -70q141 0 216 70t75 225v893h297v-906q0 -181 -75.5 -308.5t-206.5 -189t-306 -61.5z" />
    <glyph glyph-name="Uacute" unicode="&#xda;" horiz-adv-x="1445" 
d="M547 1536l198 305h357l-281 -305h-274zM725 -31q-268 0 -430 145t-162 414v906h299v-893q0 -155 75.5 -225t217.5 -70q141 0 216 70t75 225v893h297v-906q0 -181 -75.5 -308.5t-206.5 -189t-306 -61.5z" />
    <glyph glyph-name="Ucircumflex" unicode="&#xdb;" horiz-adv-x="1445" 
d="M723 1673l-139 -178l-193 143l148 183h368l148 -183l-193 -143zM1016 1434h297v-906q0 -181 -75.5 -308.5t-206.5 -189t-306 -61.5q-268 0 -430 145t-162 414v906h299v-893q0 -155 75.5 -225t217.5 -70q141 0 216 70t75 225v893z" />
    <glyph glyph-name="Udieresis" unicode="&#xdc;" horiz-adv-x="1445" 
d="M326 1536v287h292v-287h-292zM827 1536v287h293v-287h-293zM725 -31q-268 0 -430 145t-162 414v906h299v-893q0 -155 75.5 -225t217.5 -70q141 0 216 70t75 225v893h297v-906q0 -181 -75.5 -308.5t-206.5 -189t-306 -61.5z" />
    <glyph glyph-name="Yacute" unicode="&#xdd;" horiz-adv-x="1292" 
d="M1026 1841l-281 -305h-274l199 305h356zM954 1434h338l-497 -856v-578h-297v578l-498 856h338l309 -560z" />
    <glyph glyph-name="Thorn" unicode="&#xde;" horiz-adv-x="1314" 
d="M793 1188q212 0 346.5 -127.5t134.5 -327.5q0 -195 -143.5 -324.5t-358.5 -129.5h-330v-279h-299v1434h299v-246h351zM770 555q92 0 149.5 50t57.5 128q0 83 -55 130.5t-152 47.5h-328v-356h328z" />
    <glyph glyph-name="germandbls" unicode="&#xdf;" horiz-adv-x="1228" 
d="M958 768q100 -53 154.5 -142t54.5 -202q0 -181 -137 -302.5t-340 -121.5h-153v266h127q104 0 160.5 47.5t56.5 135.5q0 89 -56.5 137.5t-160.5 48.5h-127v239h94q91 0 140.5 43t49.5 121q0 71 -52.5 115.5t-137.5 44.5q-221 0 -221 -225v-973h-287v993q0 206 139 338.5
t359 132.5q211 0 349 -118.5t138 -298.5q0 -85 -40 -159t-110 -120z" />
    <glyph glyph-name="agrave" unicode="&#xe0;" horiz-adv-x="1159" 
d="M700 1219h-274l-281 305h357zM1133 252l26 -244q-92 -14 -147 -14q-162 0 -226 112q-107 -126 -315 -126q-183 0 -293 89.5t-110 237.5q0 136 87 213.5t287 118.5q167 35 218 58t51 69q0 48 -45.5 78t-118.5 30q-91 0 -153 -47.5t-72 -126.5l-261 41q22 164 159.5 269.5
t326.5 105.5q201 0 317.5 -100.5t116.5 -272.5v-409q0 -46 16 -68t54 -22q22 0 82 8zM711 387v141q-18 -21 -61 -40t-132 -46q-107 -32 -143.5 -57t-36.5 -66q0 -47 36.5 -72.5t104.5 -25.5q97 0 164.5 48t67.5 118z" />
    <glyph glyph-name="aacute" unicode="&#xe1;" horiz-adv-x="1159" 
d="M926 1524l-281 -305h-274l198 305h357zM1133 252l26 -244q-92 -14 -147 -14q-162 0 -226 112q-107 -126 -315 -126q-183 0 -293 89.5t-110 237.5q0 136 87 213.5t287 118.5q167 35 218 58t51 69q0 48 -45.5 78t-118.5 30q-91 0 -153 -47.5t-72 -126.5l-261 41
q22 164 159.5 269.5t326.5 105.5q201 0 317.5 -100.5t116.5 -272.5v-409q0 -46 16 -68t54 -22q22 0 82 8zM711 387v141q-18 -21 -61 -40t-132 -46q-107 -32 -143.5 -57t-36.5 -66q0 -47 36.5 -72.5t104.5 -25.5q97 0 164.5 48t67.5 118z" />
    <glyph glyph-name="acircumflex" unicode="&#xe2;" horiz-adv-x="1159" 
d="M547 1356l-139 -178l-193 143l147 182h369l148 -182l-193 -143zM1133 252l26 -244q-92 -14 -147 -14q-162 0 -226 112q-107 -126 -315 -126q-183 0 -293 89.5t-110 237.5q0 136 87 213.5t287 118.5q167 35 218 58t51 69q0 48 -45.5 78t-118.5 30q-91 0 -153 -47.5
t-72 -126.5l-261 41q22 164 159.5 269.5t326.5 105.5q201 0 317.5 -100.5t116.5 -272.5v-409q0 -46 16 -68t54 -22q22 0 82 8zM711 387v141q-18 -21 -61 -40t-132 -46q-107 -32 -143.5 -57t-36.5 -66q0 -47 36.5 -72.5t104.5 -25.5q97 0 164.5 48t67.5 118z" />
    <glyph glyph-name="atilde" unicode="&#xe3;" horiz-adv-x="1159" 
d="M436 1294q-57 0 -69 -75h-179q6 138 60 211t151 73q51 0 99.5 -21t88.5 -42t70 -21q58 0 70 74h178q-4 -137 -58.5 -211t-150.5 -74q-51 0 -100 21.5t-89.5 43t-70.5 21.5zM1133 252l26 -244q-92 -14 -147 -14q-162 0 -226 112q-107 -126 -315 -126q-183 0 -293 89.5
t-110 237.5q0 136 87 213.5t287 118.5q167 35 218 58t51 69q0 48 -45.5 78t-118.5 30q-91 0 -153 -47.5t-72 -126.5l-261 41q22 164 159.5 269.5t326.5 105.5q201 0 317.5 -100.5t116.5 -272.5v-409q0 -46 16 -68t54 -22q22 0 82 8zM711 387v141q-18 -21 -61 -40t-132 -46
q-107 -32 -143.5 -57t-36.5 -66q0 -47 36.5 -72.5t104.5 -25.5q97 0 164.5 48t67.5 118z" />
    <glyph glyph-name="adieresis" unicode="&#xe4;" horiz-adv-x="1159" 
d="M442 1505v-286h-292v286h292zM944 1505v-286h-293v286h293zM1133 252l26 -244q-92 -14 -147 -14q-162 0 -226 112q-107 -126 -315 -126q-183 0 -293 89.5t-110 237.5q0 136 87 213.5t287 118.5q167 35 218 58t51 69q0 48 -45.5 78t-118.5 30q-91 0 -153 -47.5t-72 -126.5
l-261 41q22 164 159.5 269.5t326.5 105.5q201 0 317.5 -100.5t116.5 -272.5v-409q0 -46 16 -68t54 -22q22 0 82 8zM711 387v141q-18 -21 -61 -40t-132 -46q-107 -32 -143.5 -57t-36.5 -66q0 -47 36.5 -72.5t104.5 -25.5q97 0 164.5 48t67.5 118z" />
    <glyph glyph-name="aring" unicode="&#xe5;" horiz-adv-x="1159" 
d="M1133 252l26 -244q-92 -14 -147 -14q-162 0 -226 112q-107 -126 -315 -126q-183 0 -293 89.5t-110 237.5q0 136 87 213.5t287 118.5q167 35 218 58t51 69q0 48 -45.5 78t-118.5 30q-91 0 -153 -47.5t-72 -126.5l-261 41q13 104 77 188t163 132q-53 69 -53 158
q0 114 83.5 188t215.5 74q130 0 213.5 -74t83.5 -188q0 -91 -51 -154q90 -46 139 -129.5t49 -192.5v-409q0 -46 16 -68t54 -22q22 0 82 8zM446 1219q0 -45 28 -74t73 -29q44 0 71 29t27 74t-27 73.5t-71 28.5q-45 0 -73 -28.5t-28 -73.5zM711 387v141q-18 -21 -61 -40
t-132 -46q-107 -32 -143.5 -57t-36.5 -66q0 -47 36.5 -72.5t104.5 -25.5q97 0 164.5 48t67.5 118z" />
    <glyph glyph-name="ae" unicode="&#xe6;" horiz-adv-x="1794" 
d="M987 440q14 -103 72 -159t153 -56q83 0 148 35.5t137 120.5l197 -184q-89 -110 -213 -169t-267 -59q-258 0 -393 183q-45 -86 -135 -134.5t-207 -48.5q-184 0 -296.5 94t-112.5 248q0 135 86 212.5t282 117.5q113 23 165.5 39.5t72.5 33.5t20 46q0 44 -43.5 72t-113.5 28
q-85 0 -138.5 -43.5t-64.5 -120.5l-275 43q22 167 155.5 272t324.5 105q223 0 336 -125q131 125 335 125q232 0 376.5 -158.5t144.5 -414.5v-103h-746zM1212 860q-97 0 -159 -53t-68 -141h453q-9 92 -69 143t-157 51zM696 393v125q-29 -42 -178 -84q-95 -28 -128.5 -51
t-33.5 -61q0 -46 37.5 -71.5t104.5 -25.5q80 0 139 50.5t59 117.5z" />
    <glyph glyph-name="ccedilla" unicode="&#xe7;" horiz-adv-x="1122" 
d="M1081 385q-25 -179 -143 -286.5t-287 -125.5l-55 -100q24 4 39 4q99 0 162 -57.5t63 -147.5q0 -98 -70.5 -158.5t-185.5 -60.5q-95 0 -173 36.5t-124 100.5l142 113q31 -42 63.5 -60t77.5 -18q41 0 63.5 18.5t20.5 49.5q-2 28 -23.5 44.5t-58.5 16.5q-42 0 -88 -30
l-131 71l106 182q-194 34 -306 183.5t-112 382.5q0 265 143.5 419t383.5 154q187 0 320.5 -106.5t168.5 -292.5l-276 -58q-19 92 -75 141.5t-138 49.5q-240 0 -240 -307t240 -307q89 0 144.5 54.5t70.5 147.5z" />
    <glyph glyph-name="egrave" unicode="&#xe8;" horiz-adv-x="1155" 
d="M731 1219h-274l-281 305h356zM342 442q15 -109 76.5 -168t159.5 -59q87 0 152.5 38.5t133.5 125.5l193 -172q-87 -115 -209 -176.5t-270 -61.5q-237 0 -377 155.5t-140 418.5q0 258 142 415.5t375 157.5q230 0 373 -158.5t143 -414.5v-101h-752zM578 870
q-101 0 -166.5 -58t-71.5 -153h471q-9 99 -71 155t-162 56z" />
    <glyph glyph-name="eacute" unicode="&#xe9;" horiz-adv-x="1155" 
d="M956 1524l-280 -305h-275l199 305h356zM342 442q15 -109 76.5 -168t159.5 -59q87 0 152.5 38.5t133.5 125.5l193 -172q-87 -115 -209 -176.5t-270 -61.5q-237 0 -377 155.5t-140 418.5q0 258 142 415.5t375 157.5q230 0 373 -158.5t143 -414.5v-101h-752zM578 870
q-101 0 -166.5 -58t-71.5 -153h471q-9 99 -71 155t-162 56z" />
    <glyph glyph-name="ecircumflex" unicode="&#xea;" horiz-adv-x="1155" 
d="M578 1356l-140 -178l-192 143l147 182h369l147 -182l-192 -143zM342 442q15 -109 76.5 -168t159.5 -59q87 0 152.5 38.5t133.5 125.5l193 -172q-87 -115 -209 -176.5t-270 -61.5q-237 0 -377 155.5t-140 418.5q0 258 142 415.5t375 157.5q230 0 373 -158.5t143 -414.5
v-101h-752zM578 870q-101 0 -166.5 -58t-71.5 -153h471q-9 99 -71 155t-162 56z" />
    <glyph glyph-name="edieresis" unicode="&#xeb;" horiz-adv-x="1155" 
d="M473 1505v-286h-293v286h293zM975 1505v-286h-293v286h293zM342 442q15 -109 76.5 -168t159.5 -59q87 0 152.5 38.5t133.5 125.5l193 -172q-87 -115 -209 -176.5t-270 -61.5q-237 0 -377 155.5t-140 418.5q0 258 142 415.5t375 157.5q230 0 373 -158.5t143 -414.5v-101
h-752zM578 870q-101 0 -166.5 -58t-71.5 -153h471q-9 99 -71 155t-162 56z" />
    <glyph glyph-name="igrave" unicode="&#xec;" horiz-adv-x="532" 
d="M461 1188h-275l-280 305h356zM123 0v1085h287v-1085h-287z" />
    <glyph glyph-name="iacute" unicode="&#xed;" horiz-adv-x="532" 
d="M90 1188l199 305h356l-280 -305h-275zM123 0v1085h287v-1085h-287z" />
    <glyph glyph-name="icircumflex" unicode="&#xee;" horiz-adv-x="532" 
d="M266 1325l-139 -178l-193 143l148 183h369l147 -183l-192 -143zM123 0v1085h287v-1085h-287z" />
    <glyph glyph-name="idieresis" unicode="&#xef;" horiz-adv-x="532" 
d="M-51 1188v272h278v-272h-278zM305 1188v272h279v-272h-279zM123 0v1085h287v-1085h-287z" />
    <glyph glyph-name="eth" unicode="&#xf0;" horiz-adv-x="1187" 
d="M897 1233q111 -172 170 -350t59 -342q0 -265 -142 -417.5t-390 -152.5q-246 0 -389.5 145.5t-143.5 393.5q0 241 137.5 390t358.5 149q98 0 174 -43q-50 94 -92 157l-240 -63l-39 123l201 53q-42 55 -123 151v7h307q28 -32 72 -88l234 61l39 -123zM594 238
q119 0 182.5 73t63.5 207q0 128 -63 196t-183 68q-121 0 -183.5 -69t-62.5 -203t62.5 -203t183.5 -69z" />
    <glyph glyph-name="ntilde" unicode="&#xf1;" horiz-adv-x="1249" 
d="M582 1294q-58 0 -70 -75h-178q6 138 60 211t151 73q51 0 99.5 -21t88.5 -42t70 -21q57 0 69 74h179q-4 -137 -58.5 -211t-150.5 -74q-51 0 -100 21.5t-89.5 43t-70.5 21.5zM713 1116q177 0 300.5 -127.5t123.5 -339.5v-649h-287v608q0 121 -58 181.5t-159 60.5
t-162 -65.5t-61 -172.5v-612h-287v1085h274v-106q53 67 136 102t180 35z" />
    <glyph glyph-name="ograve" unicode="&#xf2;" horiz-adv-x="1187" 
d="M748 1219h-275l-280 305h356zM594 -31q-243 0 -388 154.5t-145 419.5t145 419t388 154t387.5 -154t144.5 -419t-144.5 -419.5t-387.5 -154.5zM594 236q124 0 185 83t61 224t-61 224t-185 83t-185 -83t-61 -224t61 -224t185 -83z" />
    <glyph glyph-name="oacute" unicode="&#xf3;" horiz-adv-x="1187" 
d="M418 1219l198 305h357l-281 -305h-274zM594 -31q-243 0 -388 154.5t-145 419.5t145 419t388 154t387.5 -154t144.5 -419t-144.5 -419.5t-387.5 -154.5zM594 236q124 0 185 83t61 224t-61 224t-185 83t-185 -83t-61 -224t61 -224t185 -83z" />
    <glyph glyph-name="ocircumflex" unicode="&#xf4;" horiz-adv-x="1187" 
d="M594 1356l-139 -178l-193 143l148 182h368l148 -182l-193 -143zM594 1116q243 0 387.5 -154t144.5 -419t-144.5 -419.5t-387.5 -154.5t-388 154.5t-145 419.5t145 419t388 154zM594 236q124 0 185 83t61 224t-61 224t-185 83t-185 -83t-61 -224t61 -224t185 -83z" />
    <glyph glyph-name="otilde" unicode="&#xf5;" horiz-adv-x="1187" 
d="M743 1208q-51 0 -100 21.5t-89.5 43t-70.5 21.5q-57 0 -69 -75h-178q6 138 59.5 211t150.5 73q51 0 100 -21t89 -42t70 -21q57 0 69 74h178q-4 -137 -58.5 -211t-150.5 -74zM594 -31q-243 0 -388 154.5t-145 419.5t145 419t388 154t387.5 -154t144.5 -419t-144.5 -419.5
t-387.5 -154.5zM594 236q124 0 185 83t61 224t-61 224t-185 83t-185 -83t-61 -224t61 -224t185 -83z" />
    <glyph glyph-name="odieresis" unicode="&#xf6;" horiz-adv-x="1187" 
d="M197 1219v286h292v-286h-292zM698 1219v286h293v-286h-293zM594 -31q-243 0 -388 154.5t-145 419.5t145 419t388 154t387.5 -154t144.5 -419t-144.5 -419.5t-387.5 -154.5zM594 236q124 0 185 83t61 224t-61 224t-185 83t-185 -83t-61 -224t61 -224t185 -83z" />
    <glyph glyph-name="divide" unicode="&#xf7;" 
d="M481 1028v305h307v-305h-307zM143 547v297h983v-297h-983zM481 47v305h307v-305h-307z" />
    <glyph glyph-name="oslash" unicode="&#xf8;" horiz-adv-x="1187" 
d="M1001 938q125 -150 125 -395q0 -265 -144.5 -419.5t-387.5 -154.5q-135 0 -246 51l-96 -135l-170 113l104 147q-125 153 -125 398q0 265 145 419t388 154q136 0 244 -51l96 135l172 -117zM336 543q0 -82 22 -156l328 465q-38 14 -92 14q-129 0 -193.5 -88t-64.5 -235z
M594 219q129 0 193.5 88.5t64.5 235.5q0 88 -23 153l-329 -463q51 -14 94 -14z" />
    <glyph glyph-name="ugrave" unicode="&#xf9;" horiz-adv-x="1224" 
d="M766 1188h-274l-281 305h356zM815 1085h287v-1085h-273v111q-51 -69 -129 -105.5t-165 -36.5q-190 0 -306 125t-116 340v651h286v-608q0 -120 56 -180.5t151 -60.5t152 65t57 172v612z" />
    <glyph glyph-name="uacute" unicode="&#xfa;" horiz-adv-x="1224" 
d="M991 1493l-280 -305h-275l199 305h356zM815 1085h287v-1085h-273v111q-51 -69 -129 -105.5t-165 -36.5q-190 0 -306 125t-116 340v651h286v-608q0 -120 56 -180.5t151 -60.5t152 65t57 172v612z" />
    <glyph glyph-name="ucircumflex" unicode="&#xfb;" horiz-adv-x="1224" 
d="M612 1325l-139 -178l-192 143l147 183h369l147 -183l-192 -143zM815 1085h287v-1085h-273v111q-51 -69 -129 -105.5t-165 -36.5q-190 0 -306 125t-116 340v651h286v-608q0 -120 56 -180.5t151 -60.5t152 65t57 172v612z" />
    <glyph glyph-name="udieresis" unicode="&#xfc;" horiz-adv-x="1224" 
d="M508 1475v-287h-293v287h293zM1010 1475v-287h-293v287h293zM815 1085h287v-1085h-273v111q-51 -69 -129 -105.5t-165 -36.5q-190 0 -306 125t-116 340v651h286v-608q0 -120 56 -180.5t151 -60.5t152 65t57 172v612z" />
    <glyph glyph-name="yacute" unicode="&#xfd;" horiz-adv-x="1124" 
d="M952 1493l-280 -305h-275l199 305h356zM811 1085h313l-534 -1218q-46 -105 -113.5 -152t-185.5 -47q-76 0 -205 21l41 258q76 -10 135 -10q45 0 67.5 13.5t37.5 49.5l55 135l-422 950h315l246 -612z" />
    <glyph glyph-name="thorn" unicode="&#xfe;" horiz-adv-x="1218" 
d="M672 1116q220 0 352.5 -156.5t132.5 -416.5t-132.5 -417t-352.5 -157q-78 0 -147.5 28t-114.5 75v-533h-287v1895h287v-404q99 86 262 86zM633 236q110 0 173.5 82t63.5 225t-63.5 225t-173.5 82q-98 0 -160.5 -58.5t-62.5 -146.5v-205q0 -89 62 -146.5t161 -57.5z" />
    <glyph glyph-name="ydieresis" unicode="&#xff;" horiz-adv-x="1124" 
d="M469 1475v-287h-293v287h293zM971 1475v-287h-293v287h293zM811 1085h313l-534 -1218q-46 -105 -113.5 -152t-185.5 -47q-76 0 -205 21l41 258q76 -10 135 -10q45 0 67.5 13.5t37.5 49.5l55 135l-422 950h315l246 -612z" />
    <glyph glyph-name="Amacron" unicode="&#x100;" horiz-adv-x="1443" 
d="M1096 1747v-211h-738v211h738zM1137 0l-125 311h-582l-125 -311h-305l588 1434h266l590 -1434h-307zM535 571h372l-186 463z" />
    <glyph glyph-name="amacron" unicode="&#x101;" horiz-adv-x="1159" 
d="M915 1430v-211h-737v211h737zM1133 252l26 -244q-92 -14 -147 -14q-162 0 -226 112q-107 -126 -315 -126q-183 0 -293 89.5t-110 237.5q0 136 87 213.5t287 118.5q167 35 218 58t51 69q0 48 -45.5 78t-118.5 30q-91 0 -153 -47.5t-72 -126.5l-261 41q22 164 159.5 269.5
t326.5 105.5q201 0 317.5 -100.5t116.5 -272.5v-409q0 -46 16 -68t54 -22q22 0 82 8zM711 387v141q-18 -21 -61 -40t-132 -46q-107 -32 -143.5 -57t-36.5 -66q0 -47 36.5 -72.5t104.5 -25.5q97 0 164.5 48t67.5 118z" />
    <glyph glyph-name="Abreve" unicode="&#x102;" horiz-adv-x="1443" 
d="M727 1516q-135 0 -221 84t-86 206h178q10 -44 42 -71t87 -27t87 27t42 71h178q0 -122 -86 -206t-221 -84zM1137 0l-125 311h-582l-125 -311h-305l588 1434h266l590 -1434h-307zM535 571h372l-186 463z" />
    <glyph glyph-name="abreve" unicode="&#x103;" horiz-adv-x="1159" 
d="M547 1198q-135 0 -221 84t-86 207h178q10 -44 42 -71t87 -27t87 27t42 71h178q0 -123 -86 -207t-221 -84zM1133 252l26 -244q-92 -14 -147 -14q-162 0 -226 112q-107 -126 -315 -126q-183 0 -293 89.5t-110 237.5q0 136 87 213.5t287 118.5q167 35 218 58t51 69
q0 48 -45.5 78t-118.5 30q-91 0 -153 -47.5t-72 -126.5l-261 41q22 164 159.5 269.5t326.5 105.5q201 0 317.5 -100.5t116.5 -272.5v-409q0 -46 16 -68t54 -22q22 0 82 8zM711 387v141q-18 -21 -61 -40t-132 -46q-107 -32 -143.5 -57t-36.5 -66q0 -47 36.5 -72.5
t104.5 -25.5q97 0 164.5 48t67.5 118z" />
    <glyph glyph-name="Aogonek" unicode="&#x104;" horiz-adv-x="1443" 
d="M1163 -250q66 0 180 49l82 -192q-148 -68 -272 -68q-130 0 -205.5 56t-75.5 153q0 92 58 160t190 131l-108 272h-582l-125 -311h-305l588 1434h266l590 -1434h-154q-205 -122 -205 -199q0 -51 78 -51zM535 571h372l-186 463z" />
    <glyph glyph-name="aogonek" unicode="&#x105;" horiz-adv-x="1159" 
d="M1159 -201l82 -192q-148 -68 -272 -68q-130 0 -205.5 56t-75.5 153q0 83 48 146t155 122q-66 27 -105 90q-107 -126 -315 -126q-183 0 -293 89.5t-110 237.5q0 136 87 213.5t287 118.5q167 35 218 58t51 69q0 48 -45.5 78t-118.5 30q-91 0 -153 -47.5t-72 -126.5l-261 41
q22 164 159.5 269.5t326.5 105.5q201 0 317.5 -100.5t116.5 -272.5v-409q0 -46 16 -68t54 -22q22 0 82 8l26 -244q-8 -2 -53 -8q-205 -122 -205 -199q0 -51 78 -51q66 0 180 49zM711 387v141q-18 -21 -61 -40t-132 -46q-107 -32 -143.5 -57t-36.5 -66q0 -47 36.5 -72.5
t104.5 -25.5q97 0 164.5 48t67.5 118z" />
    <glyph glyph-name="Cacute" unicode="&#x106;" horiz-adv-x="1320" 
d="M514 1567l199 305h356l-281 -305h-274zM690 -31q-292 0 -460.5 204t-168.5 544t168.5 543.5t460.5 203.5q238 0 396 -137.5t190 -370.5l-287 -43q-24 132 -103.5 203.5t-195.5 71.5q-159 0 -244.5 -126t-85.5 -345t85.5 -345t244.5 -126q118 0 198.5 73t104.5 218
l287 -37q-32 -251 -190.5 -391t-399.5 -140z" />
    <glyph glyph-name="cacute" unicode="&#x107;" horiz-adv-x="1122" 
d="M412 1219l198 305h357l-281 -305h-274zM588 -31q-240 0 -383.5 154.5t-143.5 419.5t143.5 419t383.5 154q187 0 320.5 -106.5t168.5 -292.5l-276 -58q-19 92 -75 141.5t-138 49.5q-240 0 -240 -307t240 -307q89 0 144.5 54.5t70.5 147.5l278 -53q-19 -131 -90 -226.5
t-174.5 -142.5t-228.5 -47z" />
    <glyph glyph-name="Ccircumflex" unicode="&#x108;" horiz-adv-x="1320" 
d="M690 1704l-139 -178l-193 143l148 182h368l148 -182l-193 -143zM993 537l287 -37q-32 -251 -190.5 -391t-399.5 -140q-292 0 -460.5 204t-168.5 544t168.5 543.5t460.5 203.5q238 0 396 -137.5t190 -370.5l-287 -43q-24 132 -103.5 203.5t-195.5 71.5q-159 0 -244.5 -126
t-85.5 -345t85.5 -345t244.5 -126q118 0 198.5 73t104.5 218z" />
    <glyph glyph-name="ccircumflex" unicode="&#x109;" horiz-adv-x="1122" 
d="M588 1356l-139 -178l-193 143l147 182h369l148 -182l-193 -143zM803 438l278 -53q-19 -131 -90 -226.5t-174.5 -142.5t-228.5 -47q-240 0 -383.5 154.5t-143.5 419.5t143.5 419t383.5 154q187 0 320.5 -106.5t168.5 -292.5l-276 -58q-19 92 -75 141.5t-138 49.5
q-240 0 -240 -307t240 -307q89 0 144.5 54.5t70.5 147.5z" />
    <glyph glyph-name="Cdotaccent" unicode="&#x10a;" horiz-adv-x="1320" 
d="M541 1567v291h299v-291h-299zM690 -31q-292 0 -460.5 204t-168.5 544t168.5 543.5t460.5 203.5q238 0 396 -137.5t190 -370.5l-287 -43q-24 132 -103.5 203.5t-195.5 71.5q-159 0 -244.5 -126t-85.5 -345t85.5 -345t244.5 -126q118 0 198.5 73t104.5 218l287 -37
q-32 -251 -190.5 -391t-399.5 -140z" />
    <glyph glyph-name="cdotaccent" unicode="&#x10b;" horiz-adv-x="1122" 
d="M438 1219v290h299v-290h-299zM588 -31q-240 0 -383.5 154.5t-143.5 419.5t143.5 419t383.5 154q187 0 320.5 -106.5t168.5 -292.5l-276 -58q-19 92 -75 141.5t-138 49.5q-240 0 -240 -307t240 -307q89 0 144.5 54.5t70.5 147.5l278 -53q-19 -131 -90 -226.5
t-174.5 -142.5t-228.5 -47z" />
    <glyph glyph-name="Ccaron" unicode="&#x10c;" horiz-adv-x="1320" 
d="M874 1567h-368l-148 182l193 143l139 -178l139 178l193 -143zM993 537l287 -37q-32 -251 -190.5 -391t-399.5 -140q-292 0 -460.5 204t-168.5 544t168.5 543.5t460.5 203.5q238 0 396 -137.5t190 -370.5l-287 -43q-24 132 -103.5 203.5t-195.5 71.5q-159 0 -244.5 -126
t-85.5 -345t85.5 -345t244.5 -126q118 0 198.5 73t104.5 218z" />
    <glyph glyph-name="ccaron" unicode="&#x10d;" horiz-adv-x="1122" 
d="M772 1219h-369l-147 182l193 143l139 -178l139 178l193 -143zM803 438l278 -53q-19 -131 -90 -226.5t-174.5 -142.5t-228.5 -47q-240 0 -383.5 154.5t-143.5 419.5t143.5 419t383.5 154q187 0 320.5 -106.5t168.5 -292.5l-276 -58q-19 92 -75 141.5t-138 49.5
q-240 0 -240 -307t240 -307q89 0 144.5 54.5t70.5 147.5z" />
    <glyph glyph-name="Dcaron" unicode="&#x10e;" horiz-adv-x="1376" 
d="M829 1536h-368l-148 182l193 144l139 -179l139 179l193 -144zM647 1434q312 0 490 -190.5t178 -526.5t-178 -526.5t-490 -190.5h-504v1434h504zM618 276q204 0 302 110t98 331t-98 330.5t-302 109.5h-178v-881h178z" />
    <glyph glyph-name="dcaron" unicode="&#x10f;" horiz-adv-x="1542" 
d="M819 1028v406h287v-1434h-275v84q-45 -52 -119 -83.5t-159 -31.5q-222 0 -357 157.5t-135 416.5t135 416t357 157q161 0 266 -88zM1225 1434h307v-226q0 -132 -72.5 -208.5t-210.5 -86.5v136q56 10 76.5 35.5t20.5 80.5h-121v269zM819 440v205q0 88 -64 146.5t-163 58.5
q-114 0 -179 -82t-65 -225t65 -225t179 -82q100 0 163.5 57.5t63.5 146.5z" />
    <glyph glyph-name="Dcroat" unicode="&#x110;" horiz-adv-x="1417" 
d="M688 1434q312 0 490 -190.5t178 -526.5t-178 -526.5t-490 -190.5h-504v596h-184v256h184v582h504zM659 276q204 0 302 110t98 331t-98 330.5t-302 109.5h-178v-305h269v-256h-269v-320h178z" />
    <glyph glyph-name="dcroat" unicode="&#x111;" horiz-adv-x="1249" 
d="M1270 1362v-184h-164v-1178h-275v84q-45 -52 -119 -83.5t-159 -31.5q-222 0 -357 157.5t-135 416.5t135 416t357 157q161 0 266 -88v150h-256v184h256v72h287v-72h164zM819 440v205q0 88 -64 146.5t-163 58.5q-114 0 -179 -82t-65 -225t65 -225t179 -82q100 0 163.5 57.5
t63.5 146.5z" />
    <glyph glyph-name="Emacron" unicode="&#x112;" horiz-adv-x="1161" 
d="M254 1536v211h737v-211h-737zM143 0v1434h957v-277h-658v-295h490v-266h-490v-320h658v-276h-957z" />
    <glyph glyph-name="emacron" unicode="&#x113;" horiz-adv-x="1155" 
d="M946 1430v-211h-737v211h737zM342 442q15 -109 76.5 -168t159.5 -59q87 0 152.5 38.5t133.5 125.5l193 -172q-87 -115 -209 -176.5t-270 -61.5q-237 0 -377 155.5t-140 418.5q0 258 142 415.5t375 157.5q230 0 373 -158.5t143 -414.5v-101h-752zM578 870
q-101 0 -166.5 -58t-71.5 -153h471q-9 99 -71 155t-162 56z" />
    <glyph glyph-name="Ebreve" unicode="&#x114;" horiz-adv-x="1161" 
d="M623 1516q-136 0 -222 84t-86 206h179q10 -44 42 -71t87 -27t87 27t42 71h178q0 -122 -86 -206t-221 -84zM143 0v1434h957v-277h-658v-295h490v-266h-490v-320h658v-276h-957z" />
    <glyph glyph-name="ebreve" unicode="&#x115;" horiz-adv-x="1155" 
d="M578 1198q-135 0 -221.5 84.5t-86.5 206.5h179q10 -44 42 -71t87 -27t87 27t42 71h178q0 -123 -86 -207t-221 -84zM342 442q15 -109 76.5 -168t159.5 -59q87 0 152.5 38.5t133.5 125.5l193 -172q-87 -115 -209 -176.5t-270 -61.5q-237 0 -377 155.5t-140 418.5
q0 258 142 415.5t375 157.5q230 0 373 -158.5t143 -414.5v-101h-752zM578 870q-101 0 -166.5 -58t-71.5 -153h471q-9 99 -71 155t-162 56z" />
    <glyph glyph-name="Edotaccent" unicode="&#x116;" horiz-adv-x="1161" 
d="M473 1536v291h299v-291h-299zM143 0v1434h957v-277h-658v-295h490v-266h-490v-320h658v-276h-957z" />
    <glyph glyph-name="edotaccent" unicode="&#x117;" horiz-adv-x="1155" 
d="M727 1509v-290h-299v290h299zM342 442q15 -109 76.5 -168t159.5 -59q87 0 152.5 38.5t133.5 125.5l193 -172q-87 -115 -209 -176.5t-270 -61.5q-237 0 -377 155.5t-140 418.5q0 258 142 415.5t375 157.5q230 0 373 -158.5t143 -414.5v-101h-752zM578 870
q-101 0 -166.5 -58t-71.5 -153h471q-9 99 -71 155t-162 56z" />
    <glyph glyph-name="Eogonek" unicode="&#x118;" horiz-adv-x="1161" 
d="M1032 -201l82 -192q-148 -68 -272 -68q-130 0 -205.5 56t-75.5 153q0 77 41.5 138t132.5 114h-592v1434h957v-277h-658v-295h490v-266h-490v-320h658v-276h-121q-205 -122 -205 -199q0 -51 78 -51q66 0 180 49z" />
    <glyph glyph-name="eogonek" unicode="&#x119;" horiz-adv-x="1155" 
d="M342 442q15 -109 76.5 -168t159.5 -59q87 0 152.5 38.5t133.5 125.5l193 -172q-112 -148 -283 -207h2q-205 -122 -205 -199q0 -51 78 -51q66 0 180 49l82 -192q-148 -68 -272 -68q-130 0 -205.5 56t-75.5 153q0 69 32 123.5t104 103.5q-201 28 -317 179.5t-116 388.5
q0 258 142 415.5t375 157.5q230 0 373 -158.5t143 -414.5v-101h-752zM578 870q-101 0 -166.5 -58t-71.5 -153h471q-9 99 -71 155t-162 56z" />
    <glyph glyph-name="Ecaron" unicode="&#x11a;" horiz-adv-x="1161" 
d="M807 1536h-369l-147 182l192 144l140 -179l139 179l192 -144zM1100 1157h-658v-295h490v-266h-490v-320h658v-276h-957v1434h957v-277z" />
    <glyph glyph-name="ecaron" unicode="&#x11b;" horiz-adv-x="1155" 
d="M762 1219h-369l-147 182l192 143l140 -178l139 178l192 -143zM342 442q15 -109 76.5 -168t159.5 -59q87 0 152.5 38.5t133.5 125.5l193 -172q-87 -115 -209 -176.5t-270 -61.5q-237 0 -377 155.5t-140 418.5q0 258 142 415.5t375 157.5q230 0 373 -158.5t143 -414.5v-101
h-752zM578 870q-101 0 -166.5 -58t-71.5 -153h471q-9 99 -71 155t-162 56z" />
    <glyph glyph-name="Gcircumflex" unicode="&#x11c;" horiz-adv-x="1396" 
d="M690 1704l-139 -178l-193 143l148 182h368l148 -182l-193 -143zM645 764h639v-764h-184l-31 109q-146 -140 -379 -140q-292 0 -460.5 204t-168.5 544t168.5 543.5t460.5 203.5q238 0 396 -137.5t190 -370.5l-287 -43q-24 132 -103.5 203.5t-195.5 71.5
q-159 0 -244.5 -126t-85.5 -345t85.5 -345t244.5 -126q130 0 214.5 68.5t90.5 183.5h-350v266z" />
    <glyph glyph-name="gcircumflex" unicode="&#x11d;" horiz-adv-x="1173" 
d="M551 1356l-139 -178l-193 143l148 182h368l148 -182l-193 -143zM770 160q178 -15 276.5 -101.5t98.5 -214.5q0 -336 -553 -336q-269 0 -410 85.5t-141 230.5q0 61 33.5 118.5t99.5 98.5q-88 73 -88 188q0 60 35.5 113t99.5 90q-117 114 -117 275q0 176 136.5 292.5
t351.5 116.5q93 0 182 -26q37 101 116 173t185 103l88 -219q-170 -35 -239 -135q75 -57 116 -136.5t41 -168.5q0 -177 -136.5 -293.5t-352.5 -116.5q-121 0 -219 39q-45 -20 -45 -62q0 -41 46.5 -64t147.5 -30zM592 868q-97 0 -154 -45.5t-57 -115.5t57 -116t154 -46t155 46
t58 116q0 69 -58 115t-155 46zM592 -244q276 0 276 101q0 72 -143 82l-324 26q-35 -15 -56 -42.5t-21 -59.5q0 -107 268 -107z" />
    <glyph glyph-name="Gbreve" unicode="&#x11e;" horiz-adv-x="1396" 
d="M690 1546q-135 0 -221 84t-86 207h178q10 -44 42 -71t87 -27t87 27t42 71h178q0 -123 -86 -207t-221 -84zM645 764h639v-764h-184l-31 109q-146 -140 -379 -140q-292 0 -460.5 204t-168.5 544t168.5 543.5t460.5 203.5q238 0 396 -137.5t190 -370.5l-287 -43
q-24 132 -103.5 203.5t-195.5 71.5q-159 0 -244.5 -126t-85.5 -345t85.5 -345t244.5 -126q130 0 214.5 68.5t90.5 183.5h-350v266z" />
    <glyph glyph-name="gbreve" unicode="&#x11f;" horiz-adv-x="1173" 
d="M551 1198q-135 0 -221 84t-86 207h178q10 -44 42 -71t87 -27t87 27t42 71h178q0 -123 -86 -207t-221 -84zM770 160q178 -15 276.5 -101.5t98.5 -214.5q0 -336 -553 -336q-269 0 -410 85.5t-141 230.5q0 61 33.5 118.5t99.5 98.5q-88 73 -88 188q0 60 35.5 113t99.5 90
q-117 114 -117 275q0 176 136.5 292.5t351.5 116.5q93 0 182 -26q37 101 116 173t185 103l88 -219q-170 -35 -239 -135q75 -57 116 -136.5t41 -168.5q0 -177 -136.5 -293.5t-352.5 -116.5q-121 0 -219 39q-45 -20 -45 -62q0 -41 46.5 -64t147.5 -30zM592 868
q-97 0 -154 -45.5t-57 -115.5t57 -116t154 -46t155 46t58 116q0 69 -58 115t-155 46zM592 -244q276 0 276 101q0 72 -143 82l-324 26q-35 -15 -56 -42.5t-21 -59.5q0 -107 268 -107z" />
    <glyph glyph-name="Gdotaccent" unicode="&#x120;" horiz-adv-x="1396" 
d="M840 1858v-291h-299v291h299zM645 764h639v-764h-184l-31 109q-146 -140 -379 -140q-292 0 -460.5 204t-168.5 544t168.5 543.5t460.5 203.5q238 0 396 -137.5t190 -370.5l-287 -43q-24 132 -103.5 203.5t-195.5 71.5q-159 0 -244.5 -126t-85.5 -345t85.5 -345
t244.5 -126q130 0 214.5 68.5t90.5 183.5h-350v266z" />
    <glyph glyph-name="gdotaccent" unicode="&#x121;" horiz-adv-x="1173" 
d="M700 1509v-290h-299v290h299zM770 160q178 -15 276.5 -101.5t98.5 -214.5q0 -336 -553 -336q-269 0 -410 85.5t-141 230.5q0 61 33.5 118.5t99.5 98.5q-88 73 -88 188q0 60 35.5 113t99.5 90q-117 114 -117 275q0 176 136.5 292.5t351.5 116.5q93 0 182 -26
q37 101 116 173t185 103l88 -219q-170 -35 -239 -135q75 -57 116 -136.5t41 -168.5q0 -177 -136.5 -293.5t-352.5 -116.5q-121 0 -219 39q-45 -20 -45 -62q0 -41 46.5 -64t147.5 -30zM592 868q-97 0 -154 -45.5t-57 -115.5t57 -116t154 -46t155 46t58 116q0 69 -58 115
t-155 46zM592 -244q276 0 276 101q0 72 -143 82l-324 26q-35 -15 -56 -42.5t-21 -59.5q0 -107 268 -107z" />
    <glyph glyph-name="Gcommaaccent" unicode="&#x122;" horiz-adv-x="1396" 
d="M645 764h639v-764h-184l-31 109q-146 -140 -379 -140q-292 0 -460.5 204t-168.5 544t168.5 543.5t460.5 203.5q238 0 396 -137.5t190 -370.5l-287 -43q-24 132 -103.5 203.5t-195.5 71.5q-159 0 -244.5 -126t-85.5 -345t85.5 -345t244.5 -126q130 0 214.5 68.5
t90.5 183.5h-350v266zM537 -401v268h307v-225q0 -132 -72.5 -208.5t-210.5 -86.5v135q56 10 76 36t20 81h-120z" />
    <glyph glyph-name="gcommaaccent" unicode="&#x123;" horiz-adv-x="1173" 
d="M705 1487v-268h-308v225q0 132 72.5 208.5t210.5 86.5v-135q-56 -10 -76 -36t-20 -81h121zM770 160q178 -15 276.5 -101.5t98.5 -214.5q0 -336 -553 -336q-269 0 -410 85.5t-141 230.5q0 61 33.5 118.5t99.5 98.5q-88 73 -88 188q0 60 35.5 113t99.5 90
q-117 114 -117 275q0 176 136.5 292.5t351.5 116.5q93 0 182 -26q37 101 116 173t185 103l88 -219q-170 -35 -239 -135q75 -57 116 -136.5t41 -168.5q0 -177 -136.5 -293.5t-352.5 -116.5q-121 0 -219 39q-45 -20 -45 -62q0 -41 46.5 -64t147.5 -30zM592 868
q-97 0 -154 -45.5t-57 -115.5t57 -116t154 -46t155 46t58 116q0 69 -58 115t-155 46zM592 -244q276 0 276 101q0 72 -143 82l-324 26q-35 -15 -56 -42.5t-21 -59.5q0 -107 268 -107z" />
    <glyph glyph-name="Hcircumflex" unicode="&#x124;" horiz-adv-x="1380" 
d="M690 1673l-139 -178l-193 143l148 183h368l148 -183l-193 -143zM938 1434h299v-1434h-299v600h-496v-600h-299v1434h299v-557h496v557z" />
    <glyph glyph-name="hcircumflex" unicode="&#x125;" horiz-adv-x="1249" 
d="M692 1673l-139 -178l-193 143l148 183h369l147 -183l-193 -143zM713 1116q177 0 300.5 -127.5t123.5 -339.5v-649h-287v608q0 121 -58 181.5t-159 60.5t-162 -65.5t-61 -172.5v-612h-287v1434h287v-441q53 60 132.5 91.5t170.5 31.5z" />
    <glyph glyph-name="Hbar" unicode="&#x126;" horiz-adv-x="1380" 
d="M1380 1266v-236h-143v-1030h-299v600h-496v-600h-299v1030h-143v236h143v168h299v-168h496v168h299v-168h143zM938 877v153h-496v-153h496z" />
    <glyph glyph-name="hbar" unicode="&#x127;" horiz-adv-x="1249" 
d="M713 1116q177 0 300.5 -127.5t123.5 -339.5v-649h-287v608q0 121 -58 181.5t-159 60.5t-162 -65.5t-61 -172.5v-612h-287v1178h-103v184h103v72h287v-72h317v-184h-317v-185q53 60 132.5 91.5t170.5 31.5z" />
    <glyph glyph-name="Itilde" unicode="&#x128;" horiz-adv-x="585" 
d="M446 1526q-51 0 -100 21.5t-89.5 43t-70.5 21.5q-57 0 -69 -76h-178q6 138 60 211.5t151 73.5q51 0 99.5 -21t88.5 -42t70 -21q58 0 69 73h178q-4 -137 -58.5 -210.5t-150.5 -73.5zM143 0v1434h299v-1434h-299z" />
    <glyph glyph-name="itilde" unicode="&#x129;" horiz-adv-x="532" 
d="M416 1178q-51 0 -100 21.5t-89.5 43t-70.5 21.5q-58 0 -70 -76h-178q6 138 60 211.5t151 73.5q51 0 99.5 -21t88.5 -42t70 -21q58 0 69 73h179q-4 -137 -58.5 -210.5t-150.5 -73.5zM123 0v1085h287v-1085h-287z" />
    <glyph glyph-name="Imacron" unicode="&#x12a;" horiz-adv-x="585" 
d="M-72 1536v211h738v-211h-738zM143 0v1434h299v-1434h-299z" />
    <glyph glyph-name="imacron" unicode="&#x12b;" horiz-adv-x="532" 
d="M-20 1188v211h573v-211h-573zM123 0v1085h287v-1085h-287z" />
    <glyph glyph-name="Ibreve" unicode="&#x12c;" horiz-adv-x="585" 
d="M297 1516q-135 0 -221 84t-86 206h178q10 -44 42 -71t87 -27t87 27t42 71h178q0 -122 -86 -206t-221 -84zM143 0v1434h299v-1434h-299z" />
    <glyph glyph-name="ibreve" unicode="&#x12d;" horiz-adv-x="532" 
d="M266 1167q-135 0 -221 84t-86 207h178q10 -44 42 -71t87 -27t87 27t42 71h178q0 -123 -86 -207t-221 -84zM123 0v1085h287v-1085h-287z" />
    <glyph glyph-name="Iogonek" unicode="&#x12e;" horiz-adv-x="585" 
d="M496 -201l82 -192q-148 -68 -273 -68q-130 0 -205 56t-75 153q0 77 41.5 138t132.5 114h-56v1434h299v-1434q-105 -63 -154.5 -111t-49.5 -88q0 -51 77 -51q67 0 181 49z" />
    <glyph glyph-name="iogonek" unicode="&#x12f;" horiz-adv-x="532" 
d="M416 1499v-291h-299v291h299zM463 -201l82 -192q-148 -68 -273 -68q-130 0 -205 56t-75 153q0 77 41.5 138t132.5 114h-43v1085h287v-1085q-205 -122 -205 -199q0 -51 78 -51q66 0 180 49z" />
    <glyph glyph-name="Idotaccent" unicode="&#x130;" horiz-adv-x="585" 
d="M147 1536v291h299v-291h-299zM143 0v1434h299v-1434h-299z" />
    <glyph glyph-name="dotlessi" unicode="&#x131;" horiz-adv-x="532" 
d="M123 0v1085h287v-1085h-287z" />
    <glyph glyph-name="Jcircumflex" unicode="&#x134;" horiz-adv-x="954" 
d="M467 1673l-139 -178l-193 143l148 183h368l148 -183l-193 -143zM41 1434h780v-861q0 -258 -171.5 -415.5t-459.5 -157.5h-149v276h147q334 0 334 310v571h-481v277z" />
    <glyph glyph-name="jcircumflex" unicode="&#x135;" horiz-adv-x="776" 
d="M489 1325l-139 -178l-192 143l147 183h369l147 -183l-192 -143zM20 1085h633v-1056q0 -190 -114 -304t-297 -114q-155 0 -303 49l69 252q115 -35 193 -35t122 44.5t44 129.5v768h-347v266z" />
    <glyph glyph-name="Kcommaaccent" unicode="&#x136;" horiz-adv-x="1374" 
d="M788 809l586 -809h-381l-413 594l-138 -156v-438h-299v1434h299v-600l510 600h391zM571 -371v269h308v-226q0 -132 -72.5 -208.5t-210.5 -86.5v136q56 10 76 35.5t20 80.5h-121z" />
    <glyph glyph-name="kcommaaccent" unicode="&#x137;" horiz-adv-x="1146" 
d="M731 631l416 -631h-320l-278 438l-139 -159v-279h-287v1434h287v-787l358 438h358zM465 -371v269h307v-226q0 -132 -72.5 -208.5t-210.5 -86.5v136q56 10 76.5 35.5t20.5 80.5h-121z" />
    <glyph glyph-name="kgreenlandic" unicode="&#x138;" horiz-adv-x="1146" 
d="M827 0l-280 436l-137 -157v-279h-287v1085h287v-438l358 438h358l-395 -454l416 -631h-320z" />
    <glyph glyph-name="Lacute" unicode="&#x139;" horiz-adv-x="1169" 
d="M199 1536l198 305h357l-281 -305h-274zM143 1434h299v-1158h686v-276h-985v1434z" />
    <glyph glyph-name="lacute" unicode="&#x13a;" horiz-adv-x="532" 
d="M90 1536l199 305h356l-280 -305h-275zM123 0v1434h287v-1434h-287z" />
    <glyph glyph-name="Lcommaaccent" unicode="&#x13b;" horiz-adv-x="1169" 
d="M143 1434h299v-1158h686v-276h-985v1434zM547 -623v136q56 10 76 35.5t20 80.5h-121v269h307v-226q0 -132 -72 -208.5t-210 -86.5z" />
    <glyph glyph-name="lcommaaccent" unicode="&#x13c;" horiz-adv-x="532" 
d="M123 0v1434h287v-1434h-287zM137 -623v136q56 10 76 35.5t20 80.5h-120v269h307v-226q0 -132 -72.5 -208.5t-210.5 -86.5z" />
    <glyph glyph-name="Lcaron" unicode="&#x13d;" horiz-adv-x="1169" 
d="M143 1434h299v-1158h686v-276h-985v1434zM881 913v136q56 10 76 35.5t20 80.5h-121v269h307v-226q0 -132 -72 -208.5t-210 -86.5z" />
    <glyph glyph-name="lcaron" unicode="&#x13e;" horiz-adv-x="849" 
d="M123 0v1434h287v-1434h-287zM557 913v136q56 10 76 35.5t20 80.5h-121v269h308v-226q0 -132 -72.5 -208.5t-210.5 -86.5z" />
    <glyph glyph-name="Ldot" unicode="&#x13f;" horiz-adv-x="1148" 
d="M143 1434h299v-1158h686v-276h-985v1434zM717 672v291h299v-291h-299z" />
    <glyph glyph-name="ldot" unicode="&#x140;" horiz-adv-x="862" 
d="M123 0v1434h287v-1434h-287zM512 573v367h371v-367h-371z" />
    <glyph glyph-name="Lslash" unicode="&#x141;" horiz-adv-x="1290" 
d="M563 276h686v-276h-985v524l-160 -88l-94 178l254 142v678h299v-516l287 163l106 -186l-393 -221v-398z" />
    <glyph glyph-name="lslash" unicode="&#x142;" horiz-adv-x="817" 
d="M858 1004l-313 -256v-748h-287v549l-174 -146l-125 150l299 252v629h287v-424l180 151z" />
    <glyph glyph-name="Nacute" unicode="&#x143;" horiz-adv-x="1380" 
d="M1073 1841l-280 -305h-275l199 305h356zM940 1434h297v-1434h-317l-480 920v-920h-297v1434h316l481 -920v920z" />
    <glyph glyph-name="nacute" unicode="&#x144;" horiz-adv-x="1249" 
d="M1071 1524l-280 -305h-275l199 305h356zM713 1116q177 0 300.5 -127.5t123.5 -339.5v-649h-287v608q0 121 -58 181.5t-159 60.5t-162 -65.5t-61 -172.5v-612h-287v1085h274v-106q53 67 136 102t180 35z" />
    <glyph glyph-name="Ncommaaccent" unicode="&#x145;" horiz-adv-x="1380" 
d="M940 1434h297v-1434h-317l-480 920v-920h-297v1434h316l481 -920v920zM541 -371v269h307v-226q0 -132 -72.5 -208.5t-210.5 -86.5v136q56 10 76.5 35.5t20.5 80.5h-121z" />
    <glyph glyph-name="ncommaaccent" unicode="&#x146;" horiz-adv-x="1249" 
d="M713 1116q177 0 300.5 -127.5t123.5 -339.5v-649h-287v608q0 121 -58 181.5t-159 60.5t-162 -65.5t-61 -172.5v-612h-287v1085h274v-106q53 67 136 102t180 35zM457 -371v269h307v-226q0 -132 -72.5 -208.5t-210.5 -86.5v136q56 10 76.5 35.5t20.5 80.5h-121z" />
    <glyph glyph-name="Ncaron" unicode="&#x147;" horiz-adv-x="1380" 
d="M879 1536h-369l-148 182l193 144l139 -179l140 179l192 -144zM940 1434h297v-1434h-317l-480 920v-920h-297v1434h316l481 -920v920z" />
    <glyph glyph-name="ncaron" unicode="&#x148;" horiz-adv-x="1249" 
d="M877 1219h-369l-148 182l193 143l139 -178l139 178l193 -143zM713 1116q177 0 300.5 -127.5t123.5 -339.5v-649h-287v608q0 121 -58 181.5t-159 60.5t-162 -65.5t-61 -172.5v-612h-287v1085h274v-106q53 67 136 102t180 35z" />
    <glyph glyph-name="Eng" unicode="&#x14a;" horiz-adv-x="1380" 
d="M940 1434h297v-1491q0 -182 -114 -293t-300 -111h-133v277h113q62 0 99.5 40.5t37.5 106.5v37l-500 924v-924h-297v1434h316l481 -885v885z" />
    <glyph glyph-name="eng" unicode="&#x14b;" horiz-adv-x="1249" 
d="M713 1116q177 0 300.5 -127.5t123.5 -339.5v-725q0 -180 -111 -282.5t-303 -102.5h-113v266h92q72 0 110 35.5t38 102.5v665q0 121 -58 181.5t-159 60.5t-162 -65.5t-61 -172.5v-612h-287v1085h274v-106q53 67 136 102t180 35z" />
    <glyph glyph-name="Omacron" unicode="&#x14c;" horiz-adv-x="1380" 
d="M322 1567v211h737v-211h-737zM690 -31q-292 0 -460.5 204t-168.5 544t168.5 543.5t460.5 203.5t460.5 -203.5t168.5 -543.5t-168.5 -544t-460.5 -204zM690 246q159 0 244.5 126t85.5 345t-85.5 345t-244.5 126t-244.5 -126t-85.5 -345t85.5 -345t244.5 -126z" />
    <glyph glyph-name="omacron" unicode="&#x14d;" horiz-adv-x="1187" 
d="M225 1219v211h738v-211h-738zM594 -31q-243 0 -388 154.5t-145 419.5t145 419t388 154t387.5 -154t144.5 -419t-144.5 -419.5t-387.5 -154.5zM594 236q124 0 185 83t61 224t-61 224t-185 83t-185 -83t-61 -224t61 -224t185 -83z" />
    <glyph glyph-name="Obreve" unicode="&#x14e;" horiz-adv-x="1380" 
d="M690 1546q-135 0 -221 84t-86 207h178q10 -44 42 -71t87 -27t87 27t42 71h178q0 -123 -86 -207t-221 -84zM690 -31q-292 0 -460.5 204t-168.5 544t168.5 543.5t460.5 203.5t460.5 -203.5t168.5 -543.5t-168.5 -544t-460.5 -204zM690 246q159 0 244.5 126t85.5 345
t-85.5 345t-244.5 126t-244.5 -126t-85.5 -345t85.5 -345t244.5 -126z" />
    <glyph glyph-name="obreve" unicode="&#x14f;" horiz-adv-x="1187" 
d="M594 1198q-135 0 -221 84t-86 207h178q10 -44 42 -71t87 -27t87 27t42 71h178q0 -123 -86 -207t-221 -84zM594 -31q-243 0 -388 154.5t-145 419.5t145 419t388 154t387.5 -154t144.5 -419t-144.5 -419.5t-387.5 -154.5zM594 236q124 0 185 83t61 224t-61 224t-185 83
t-185 -83t-61 -224t61 -224t185 -83z" />
    <glyph glyph-name="Ohungarumlaut" unicode="&#x150;" horiz-adv-x="1380" 
d="M287 1567l188 291h340l-268 -291h-260zM729 1567l189 291h339l-268 -291h-260zM690 -31q-292 0 -460.5 204t-168.5 544t168.5 543.5t460.5 203.5t460.5 -203.5t168.5 -543.5t-168.5 -544t-460.5 -204zM690 246q159 0 244.5 126t85.5 345t-85.5 345t-244.5 126
t-244.5 -126t-85.5 -345t85.5 -345t244.5 -126z" />
    <glyph glyph-name="ohungarumlaut" unicode="&#x151;" horiz-adv-x="1187" 
d="M190 1219l189 290h340l-268 -290h-261zM633 1219l188 290h340l-268 -290h-260zM594 -31q-243 0 -388 154.5t-145 419.5t145 419t388 154t387.5 -154t144.5 -419t-144.5 -419.5t-387.5 -154.5zM594 236q124 0 185 83t61 224t-61 224t-185 83t-185 -83t-61 -224t61 -224
t185 -83z" />
    <glyph glyph-name="OE" unicode="&#x152;" horiz-adv-x="1855" 
d="M1794 1157h-545v-274h482v-267h-482v-340h545v-276h-842v59q-124 -90 -307 -90q-122 0 -227.5 49.5t-185 142.5t-125.5 236t-46 320t46 320t125.5 235.5t185 142t227.5 49.5q183 0 307 -90v60h842v-277zM680 246q184 0 272 143v655q-89 144 -272 144
q-147 0 -233.5 -116.5t-86.5 -354.5t86.5 -354.5t233.5 -116.5z" />
    <glyph glyph-name="oe" unicode="&#x153;" horiz-adv-x="1937" 
d="M1124 442q15 -109 76.5 -168t159.5 -59q87 0 153.5 38.5t133.5 125.5l192 -172q-87 -115 -209 -176.5t-270 -61.5q-237 0 -377 156q-147 -156 -389 -156q-243 0 -388 154.5t-145 419.5t145 419t388 154q248 0 391 -158q142 158 375 158q230 0 373 -158.5t143 -414.5v-101
h-752zM1360 870q-101 0 -166.5 -58t-71.5 -153h471q-9 99 -71 155t-162 56zM594 236q124 0 185 83t61 224t-61 224t-185 83t-185 -83t-61 -224t61 -224t185 -83z" />
    <glyph glyph-name="Racute" unicode="&#x154;" horiz-adv-x="1306" 
d="M1032 1841l-280 -305h-275l199 305h356zM944 580q73 -26 126 -89.5t79 -156.5l90 -334h-348l-60 270q-35 157 -109 220t-218 63h-62v-553h-299v1434h627q202 0 338.5 -126.5t136.5 -318.5q0 -145 -82 -253.5t-219 -155.5zM442 829h310q93 0 144.5 42.5t51.5 117.5
q0 78 -52 123t-144 45h-310v-328z" />
    <glyph glyph-name="racute" unicode="&#x155;" horiz-adv-x="847" 
d="M889 1524l-281 -305h-274l198 305h357zM379 987q38 61 104.5 95t145.5 34q112 0 229 -69l-121 -250q-89 53 -172 53q-74 0 -114.5 -46t-40.5 -130v-674h-287v1085h256v-98z" />
    <glyph glyph-name="Rcommaaccent" unicode="&#x156;" horiz-adv-x="1306" 
d="M944 580q73 -26 126 -89.5t79 -156.5l90 -334h-348l-60 270q-35 157 -109 220t-218 63h-62v-553h-299v1434h627q202 0 338.5 -126.5t136.5 -318.5q0 -145 -82 -253.5t-219 -155.5zM442 829h310q93 0 144.5 42.5t51.5 117.5q0 78 -52 123t-144 45h-310v-328zM514 -371v269
h307v-226q0 -132 -72 -208.5t-210 -86.5v136q56 10 76 35.5t20 80.5h-121z" />
    <glyph glyph-name="rcommaaccent" unicode="&#x157;" horiz-adv-x="847" 
d="M629 1116q112 0 229 -69l-121 -250q-89 53 -172 53q-74 0 -114.5 -46t-40.5 -130v-674h-287v1085h256v-98q38 61 104.5 95t145.5 34zM143 -371v269h308v-226q0 -132 -72.5 -208.5t-210.5 -86.5v136q56 10 76 35.5t20 80.5h-121z" />
    <glyph glyph-name="Rcaron" unicode="&#x158;" horiz-adv-x="1306" 
d="M838 1536h-369l-147 182l192 144l139 -179l140 179l192 -144zM944 580q73 -26 126 -89.5t79 -156.5l90 -334h-348l-60 270q-35 157 -109 220t-218 63h-62v-553h-299v1434h627q202 0 338.5 -126.5t136.5 -318.5q0 -145 -82 -253.5t-219 -155.5zM442 829h310
q93 0 144.5 42.5t51.5 117.5q0 78 -52 123t-144 45h-310v-328z" />
    <glyph glyph-name="rcaron" unicode="&#x159;" horiz-adv-x="847" 
d="M694 1219h-368l-148 182l193 143l139 -178l139 178l193 -143zM629 1116q112 0 229 -69l-121 -250q-89 53 -172 53q-74 0 -114.5 -46t-40.5 -130v-674h-287v1085h256v-98q38 61 104.5 95t145.5 34z" />
    <glyph glyph-name="Sacute" unicode="&#x15a;" horiz-adv-x="1306" 
d="M463 1567l199 305h356l-281 -305h-274zM678 -31q-259 0 -434 133.5t-213 360.5l286 57q25 -131 119 -202.5t242 -71.5q133 0 206.5 43t73.5 121q0 68 -75 110.5t-299 100.5q-246 63 -357.5 162.5t-111.5 256.5q0 186 147 305t377 119q225 0 385 -118.5t197 -313.5
l-287 -57q-23 98 -102 155.5t-193 57.5q-100 0 -163.5 -40.5t-63.5 -103.5q0 -30 13 -50t54 -41.5t104.5 -41.5t178.5 -51q260 -69 376 -174t117 -272q1 -204 -155 -324.5t-422 -120.5z" />
    <glyph glyph-name="sacute" unicode="&#x15b;" horiz-adv-x="1122" 
d="M373 1219l198 305h357l-281 -305h-274zM602 -31q-215 0 -364 104t-187 281l250 60q53 -209 301 -209q104 0 159.5 28t55.5 80q0 49 -61 76t-232 55q-214 34 -309.5 110t-95.5 212q0 155 119.5 252.5t310.5 97.5q175 0 315 -94t180 -238l-245 -73q-23 77 -91.5 123.5
t-158.5 46.5q-69 0 -116.5 -31.5t-47.5 -77.5q0 -40 59.5 -63.5t225.5 -49.5q215 -34 313 -114t98 -223q0 -163 -128.5 -258t-350.5 -95z" />
    <glyph glyph-name="Scircumflex" unicode="&#x15c;" horiz-adv-x="1306" 
d="M639 1704l-139 -178l-193 143l148 182h368l148 -182l-193 -143zM1255 414q1 -204 -155 -324.5t-422 -120.5q-259 0 -434 133.5t-213 360.5l286 57q25 -131 119 -202.5t242 -71.5q133 0 206.5 43t73.5 121q0 68 -75 110.5t-299 100.5q-246 63 -357.5 162.5t-111.5 256.5
q0 186 147 305t377 119q225 0 385 -118.5t197 -313.5l-287 -57q-23 98 -102 155.5t-193 57.5q-100 0 -163.5 -40.5t-63.5 -103.5q0 -30 13 -50t54 -41.5t104.5 -41.5t178.5 -51q260 -69 376 -174t117 -272z" />
    <glyph glyph-name="scircumflex" unicode="&#x15d;" horiz-adv-x="1122" 
d="M549 1356l-139 -178l-193 143l148 182h368l148 -182l-193 -143zM670 659q215 -34 313 -114t98 -223q0 -163 -128.5 -258t-350.5 -95q-215 0 -364 104t-187 281l250 60q53 -209 301 -209q104 0 159.5 28t55.5 80q0 49 -61 76t-232 55q-214 34 -309.5 110t-95.5 212
q0 155 119.5 252.5t310.5 97.5q175 0 315 -94t180 -238l-245 -73q-23 77 -91.5 123.5t-158.5 46.5q-69 0 -116.5 -31.5t-47.5 -77.5q0 -40 59.5 -63.5t225.5 -49.5z" />
    <glyph glyph-name="Scedilla" unicode="&#x15e;" horiz-adv-x="1306" 
d="M1255 414q1 -192 -137.5 -310.5t-376.5 -132.5l-55 -98q24 4 39 4q99 0 162 -57.5t63 -147.5q0 -98 -70.5 -158.5t-185.5 -60.5q-95 0 -173 36.5t-124 100.5l142 113q31 -42 63.5 -60t77.5 -18q41 0 63.5 18.5t20.5 49.5q-2 28 -23.5 44.5t-58.5 16.5q-42 0 -88 -30
l-131 71l104 180q-217 28 -359.5 157t-176.5 331l286 57q25 -131 119 -202.5t242 -71.5q133 0 206.5 43t73.5 121q0 68 -75 110.5t-299 100.5q-246 63 -357.5 162.5t-111.5 256.5q0 186 147 305t377 119q225 0 385 -118.5t197 -313.5l-287 -57q-23 98 -102 155.5t-193 57.5
q-100 0 -163.5 -40.5t-63.5 -103.5q0 -30 13 -50t54 -41.5t104.5 -41.5t178.5 -51q260 -69 376 -174t117 -272z" />
    <glyph glyph-name="scedilla" unicode="&#x15f;" horiz-adv-x="1122" 
d="M1081 322q0 -151 -110 -244.5t-305 -106.5l-56 -98q24 4 39 4q99 0 162 -57.5t63 -147.5q0 -98 -70.5 -158.5t-185.5 -60.5q-95 0 -172 36.5t-124 100.5l141 113q31 -42 63.5 -60t77.5 -18q41 0 63.5 18.5t20.5 49.5q-2 28 -23.5 44.5t-58.5 16.5q-42 0 -88 -30l-131 71
l105 182q-173 25 -290 124.5t-151 252.5l250 60q53 -209 301 -209q104 0 159.5 28t55.5 80q0 49 -61 76t-232 55q-214 34 -309.5 110t-95.5 212q0 155 119.5 252.5t310.5 97.5q175 0 315 -94t180 -238l-245 -73q-23 77 -91.5 123.5t-158.5 46.5q-69 0 -116.5 -31.5
t-47.5 -77.5q0 -40 59.5 -63.5t225.5 -49.5q215 -34 313 -114t98 -223z" />
    <glyph glyph-name="Scaron" unicode="&#x160;" horiz-adv-x="1306" 
d="M823 1567h-368l-148 182l193 143l139 -178l139 178l193 -143zM1255 414q1 -204 -155 -324.5t-422 -120.5q-259 0 -434 133.5t-213 360.5l286 57q25 -131 119 -202.5t242 -71.5q133 0 206.5 43t73.5 121q0 68 -75 110.5t-299 100.5q-246 63 -357.5 162.5t-111.5 256.5
q0 186 147 305t377 119q225 0 385 -118.5t197 -313.5l-287 -57q-23 98 -102 155.5t-193 57.5q-100 0 -163.5 -40.5t-63.5 -103.5q0 -30 13 -50t54 -41.5t104.5 -41.5t178.5 -51q260 -69 376 -174t117 -272z" />
    <glyph glyph-name="scaron" unicode="&#x161;" horiz-adv-x="1122" 
d="M733 1219h-368l-148 182l193 143l139 -178l139 178l193 -143zM670 659q215 -34 313 -114t98 -223q0 -163 -128.5 -258t-350.5 -95q-215 0 -364 104t-187 281l250 60q53 -209 301 -209q104 0 159.5 28t55.5 80q0 49 -61 76t-232 55q-214 34 -309.5 110t-95.5 212
q0 155 119.5 252.5t310.5 97.5q175 0 315 -94t180 -238l-245 -73q-23 77 -91.5 123.5t-158.5 46.5q-69 0 -116.5 -31.5t-47.5 -77.5q0 -40 59.5 -63.5t225.5 -49.5z" />
    <glyph glyph-name="uni0162" unicode="&#x162;" 
d="M784 0h-88l-53 -96q24 4 39 4q99 0 162 -57.5t63 -147.5q0 -98 -70.5 -158.5t-185.5 -60.5q-95 0 -173 36.5t-124 100.5l142 113q31 -42 63.5 -60t77.5 -18q41 0 63.5 18.5t20.5 49.5q-2 28 -23.5 44.5t-58.5 16.5q-41 0 -88 -31l-131 72l100 174h-35v1157h-465v277h1229
v-277h-465v-1157z" />
    <glyph glyph-name="uni0163" unicode="&#x163;" horiz-adv-x="878" 
d="M616 -123q99 0 162.5 -57.5t63.5 -147.5q0 -98 -70.5 -158.5t-185.5 -60.5q-95 0 -173 36.5t-124 100.5l141 113q31 -42 63.5 -60t77.5 -18q41 0 63.5 18.5t20.5 49.5q-2 28 -23.5 44.5t-58.5 16.5q-42 0 -88 -30l-131 71l111 191q-109 33 -172.5 119.5t-63.5 207.5v506
h-229v266h229v267l287 82v-349h318v-266h-318v-481q0 -102 102 -102q87 0 191 36l70 -256q-152 -42 -246 -45l-55 -98q24 4 38 4z" />
    <glyph glyph-name="Tcaron" unicode="&#x164;" 
d="M817 1536h-368l-148 182l193 144l139 -179l139 179l193 -144zM20 1434h1229v-277h-465v-1157h-299v1157h-465v277z" />
    <glyph glyph-name="tcaron" unicode="&#x165;" horiz-adv-x="878" 
d="M647 1184v135q56 10 76 36t20 81h-120v268h307v-225q0 -132 -72.5 -208.5t-210.5 -86.5zM229 1352l287 82v-349h318v-266h-318v-481q0 -102 102 -102q87 0 191 36l70 -256q-168 -47 -289 -47q-162 0 -261.5 94.5t-99.5 249.5v506h-229v266h229v267z" />
    <glyph glyph-name="Tbar" unicode="&#x166;" horiz-adv-x="1310" 
d="M1249 1157h-465v-321h301v-246h-301v-590h-299v590h-301v246h301v321h-465v277h1229v-277z" />
    <glyph glyph-name="tbar" unicode="&#x167;" horiz-adv-x="878" 
d="M809 272l70 -256q-168 -47 -289 -47q-162 0 -261.5 94.5t-99.5 249.5v146h-229v225h229v135h-229v266h229v267l287 82v-349h318v-266h-318v-135h315v-225h-315v-121q0 -102 102 -102q87 0 191 36z" />
    <glyph glyph-name="Utilde" unicode="&#x168;" horiz-adv-x="1445" 
d="M872 1526q-51 0 -100 21.5t-89.5 43t-70.5 21.5q-57 0 -69 -76h-178q6 138 60 211.5t150 73.5q51 0 100 -21t89 -42t70 -21q58 0 69 73h178q-4 -137 -58.5 -210.5t-150.5 -73.5zM725 -31q-268 0 -430 145t-162 414v906h299v-893q0 -155 75.5 -225t217.5 -70q141 0 216 70
t75 225v893h297v-906q0 -181 -75.5 -308.5t-206.5 -189t-306 -61.5z" />
    <glyph glyph-name="utilde" unicode="&#x169;" horiz-adv-x="1224" 
d="M502 1264q-58 0 -70 -76h-178q6 138 60 211.5t151 73.5q51 0 99.5 -21t88.5 -42t70 -21q59 0 70 73h178q-4 -137 -58.5 -210.5t-150.5 -73.5q-51 0 -100 21.5t-89.5 43t-70.5 21.5zM815 1085h287v-1085h-273v111q-51 -69 -129 -105.5t-165 -36.5q-190 0 -306 125
t-116 340v651h286v-608q0 -120 56 -180.5t151 -60.5t152 65t57 172v612z" />
    <glyph glyph-name="Umacron" unicode="&#x16a;" horiz-adv-x="1445" 
d="M354 1536v211h738v-211h-738zM725 -31q-268 0 -430 145t-162 414v906h299v-893q0 -155 75.5 -225t217.5 -70q141 0 216 70t75 225v893h297v-906q0 -181 -75.5 -308.5t-206.5 -189t-306 -61.5z" />
    <glyph glyph-name="umacron" unicode="&#x16b;" horiz-adv-x="1224" 
d="M981 1399v-211h-737v211h737zM815 1085h287v-1085h-273v111q-51 -69 -129 -105.5t-165 -36.5q-190 0 -306 125t-116 340v651h286v-608q0 -120 56 -180.5t151 -60.5t152 65t57 172v612z" />
    <glyph glyph-name="Ubreve" unicode="&#x16c;" horiz-adv-x="1445" 
d="M723 1516q-135 0 -221 84t-86 206h178q10 -44 42 -71t87 -27t87 27t42 71h178q0 -122 -86 -206t-221 -84zM725 -31q-268 0 -430 145t-162 414v906h299v-893q0 -155 75.5 -225t217.5 -70q141 0 216 70t75 225v893h297v-906q0 -181 -75.5 -308.5t-206.5 -189t-306 -61.5z
" />
    <glyph glyph-name="ubreve" unicode="&#x16d;" horiz-adv-x="1224" 
d="M612 1167q-135 0 -221 84t-86 207h178q10 -44 42 -71t87 -27t87 27t42 71h179q0 -122 -86.5 -206.5t-221.5 -84.5zM815 1085h287v-1085h-273v111q-51 -69 -129 -105.5t-165 -36.5q-190 0 -306 125t-116 340v651h286v-608q0 -120 56 -180.5t151 -60.5t152 65t57 172v612z
" />
    <glyph glyph-name="Uring" unicode="&#x16e;" horiz-adv-x="1445" 
d="M723 1516q-132 0 -215.5 74t-83.5 188t83.5 188t215.5 74q130 0 213.5 -74t83.5 -188t-83.5 -188t-213.5 -74zM723 1675q44 0 71 29t27 74t-27 73.5t-71 28.5q-45 0 -72.5 -28.5t-27.5 -73.5t27.5 -74t72.5 -29zM725 -31q-268 0 -430 145t-162 414v906h299v-893
q0 -155 75.5 -225t217.5 -70q141 0 216 70t75 225v893h297v-906q0 -181 -75.5 -308.5t-206.5 -189t-306 -61.5z" />
    <glyph glyph-name="uring" unicode="&#x16f;" horiz-adv-x="1224" 
d="M612 1167q-131 0 -215 74.5t-84 188.5t83.5 188t215.5 74q130 0 213.5 -74t83.5 -188t-83.5 -188.5t-213.5 -74.5zM612 1532q-45 0 -72.5 -28.5t-27.5 -73.5t27.5 -74t72.5 -29q44 0 71.5 29t27.5 74t-27.5 73.5t-71.5 28.5zM815 1085h287v-1085h-273v111
q-51 -69 -129 -105.5t-165 -36.5q-190 0 -306 125t-116 340v651h286v-608q0 -120 56 -180.5t151 -60.5t152 65t57 172v612z" />
    <glyph glyph-name="Uhungarumlaut" unicode="&#x170;" horiz-adv-x="1445" 
d="M319 1536l189 291h340l-268 -291h-261zM762 1536l188 291h340l-268 -291h-260zM725 -31q-268 0 -430 145t-162 414v906h299v-893q0 -155 75.5 -225t217.5 -70q141 0 216 70t75 225v893h297v-906q0 -181 -75.5 -308.5t-206.5 -189t-306 -61.5z" />
    <glyph glyph-name="uhungarumlaut" unicode="&#x171;" horiz-adv-x="1224" 
d="M737 1479l-268 -291h-260l188 291h340zM911 1188h-260l189 291h340zM815 473v612h287v-1085h-273v111q-51 -69 -129 -105.5t-165 -36.5q-190 0 -306 125t-116 340v651h286v-608q0 -120 56 -180.5t151 -60.5t152 65t57 172z" />
    <glyph glyph-name="Uogonek" unicode="&#x172;" horiz-adv-x="1445" 
d="M1016 1434h297v-906q0 -208 -96.5 -341.5t-268.5 -186.5q-205 -122 -205 -199q0 -51 78 -51q66 0 180 49l82 -192q-148 -68 -272 -68q-130 0 -205.5 56t-75.5 153q0 133 132 223q-242 18 -385.5 161.5t-143.5 395.5v906h299v-893q0 -155 75.5 -225t217.5 -70
q141 0 216 70t75 225v893z" />
    <glyph glyph-name="uogonek" unicode="&#x173;" horiz-adv-x="1224" 
d="M1155 -201l82 -192q-148 -68 -272 -68q-130 0 -205.5 56t-75.5 153q0 77 41.5 138t132.5 114h-29v111q-51 -69 -129 -105.5t-165 -36.5q-190 0 -306 125t-116 340v651h286v-608q0 -120 56 -180.5t151 -60.5t152 65t57 172v612h287v-1085q-205 -122 -205 -199
q0 -51 78 -51q66 0 180 49z" />
    <glyph glyph-name="Wcircumflex" unicode="&#x174;" horiz-adv-x="1636" 
d="M827 1673l-139 -178l-192 143l147 183h369l147 -183l-192 -143zM1284 1434h291l-205 -1434h-283l-268 723l-270 -723h-283l-205 1434h291l123 -945l264 715h158l264 -719z" />
    <glyph glyph-name="wcircumflex" unicode="&#x175;" horiz-adv-x="1554" 
d="M760 1325l-139 -178l-193 143l147 183h369l148 -183l-193 -143zM1290 1085h264l-280 -1085h-301l-195 649l-196 -649h-301l-281 1085h264l180 -720l220 720h227l217 -720z" />
    <glyph glyph-name="Ycircumflex" unicode="&#x176;" horiz-adv-x="1292" 
d="M647 1673l-139 -178l-193 143l148 183h368l148 -183l-193 -143zM954 1434h338l-497 -856v-578h-297v578l-498 856h338l309 -560z" />
    <glyph glyph-name="ycircumflex" unicode="&#x177;" horiz-adv-x="1124" 
d="M573 1325l-139 -178l-192 143l147 183h369l147 -183l-192 -143zM811 1085h313l-534 -1218q-46 -105 -113.5 -152t-185.5 -47q-76 0 -205 21l41 258q76 -10 135 -10q45 0 67.5 13.5t37.5 49.5l55 135l-422 950h315l246 -612z" />
    <glyph glyph-name="Ydieresis" unicode="&#x178;" horiz-adv-x="1292" 
d="M543 1823v-287h-293v287h293zM1044 1823v-287h-292v287h292zM954 1434h338l-497 -856v-578h-297v578l-498 856h338l309 -560z" />
    <glyph glyph-name="Zacute" unicode="&#x179;" horiz-adv-x="1275" 
d="M463 1536l199 305h356l-281 -305h-274zM61 0v254l783 913h-746v267h1116v-252l-784 -916h776v-266h-1145z" />
    <glyph glyph-name="zacute" unicode="&#x17a;" horiz-adv-x="1138" 
d="M393 1188l199 305h356l-280 -305h-275zM82 0v231l586 609h-566v245h934v-231l-585 -606h606v-248h-975z" />
    <glyph glyph-name="Zdotaccent" unicode="&#x17b;" horiz-adv-x="1275" 
d="M489 1536v291h299v-291h-299zM61 0v254l783 913h-746v267h1116v-252l-784 -916h776v-266h-1145z" />
    <glyph glyph-name="zdotaccent" unicode="&#x17c;" horiz-adv-x="1138" 
d="M420 1208v291h299v-291h-299zM82 0v231l586 609h-566v245h934v-231l-585 -606h606v-248h-975z" />
    <glyph glyph-name="Zcaron" unicode="&#x17d;" horiz-adv-x="1275" 
d="M823 1536h-368l-148 182l193 144l139 -179l139 179l193 -144zM1214 1434v-252l-784 -916h776v-266h-1145v254l783 913h-746v267h1116z" />
    <glyph glyph-name="zcaron" unicode="&#x17e;" horiz-adv-x="1138" 
d="M754 1188h-369l-147 182l192 143l139 -178l140 178l192 -143zM451 248h606v-248h-975v231l586 609h-566v245h934v-231z" />
    <glyph glyph-name="longs" unicode="&#x17f;" horiz-adv-x="872" 
d="M229 0v819h-229v266h229v93q0 151 88.5 239t243.5 88q148 0 311 -88l-106 -231q-106 53 -170 53q-38 0 -59 -24t-21 -70v-1145h-287z" />
    <glyph glyph-name="uni018E" unicode="&#x18e;" horiz-adv-x="1161" 
d="M1018 0h-957v276h658v320h-490v266h490v295h-658v277h957v-1434z" />
    <glyph glyph-name="uni018F" unicode="&#x18f;" horiz-adv-x="1345" 
d="M655 1464q289 0 459 -201.5t170 -545.5t-170 -546t-459 -202q-284 0 -439 190t-155 537v109h920q-17 183 -102 283t-224 100q-114 0 -191 -68t-104 -180l-286 49q37 215 192 345t389 130zM655 246q121 0 202 76.5t112 216.5h-598q11 -137 83.5 -215t200.5 -78z" />
    <glyph glyph-name="florin" unicode="&#x192;" 
d="M940 1155q-44 0 -68.5 -20t-31.5 -64l-21 -117h348v-278h-393l-143 -797q-26 -148 -123 -223.5t-260 -75.5h-146v279h138q44 0 68.5 20t31.5 64l131 733h-285v278h332l31 181q26 148 123 223.5t260 75.5h235v-279h-227z" />
    <glyph glyph-name="uni01CD" unicode="&#x1cd;" horiz-adv-x="1443" 
d="M911 1536h-368l-148 182l193 144l139 -179l139 179l193 -144zM1137 0l-125 311h-582l-125 -311h-305l588 1434h266l590 -1434h-307zM535 571h372l-186 463z" />
    <glyph glyph-name="uni01CE" unicode="&#x1ce;" horiz-adv-x="1159" 
d="M731 1219h-369l-147 182l193 143l139 -178l139 178l193 -143zM1133 252l26 -244q-92 -14 -147 -14q-162 0 -226 112q-107 -126 -315 -126q-183 0 -293 89.5t-110 237.5q0 136 87 213.5t287 118.5q167 35 218 58t51 69q0 48 -45.5 78t-118.5 30q-91 0 -153 -47.5
t-72 -126.5l-261 41q22 164 159.5 269.5t326.5 105.5q201 0 317.5 -100.5t116.5 -272.5v-409q0 -46 16 -68t54 -22q22 0 82 8zM711 387v141q-18 -21 -61 -40t-132 -46q-107 -32 -143.5 -57t-36.5 -66q0 -47 36.5 -72.5t104.5 -25.5q97 0 164.5 48t67.5 118z" />
    <glyph glyph-name="uni01CF" unicode="&#x1cf;" horiz-adv-x="585" 
d="M436 1862l193 -144l-148 -182h-368l-148 182l193 144l139 -179zM143 0v1434h299v-1434h-299z" />
    <glyph glyph-name="uni01D0" unicode="&#x1d0;" horiz-adv-x="532" 
d="M406 1513l192 -143l-147 -182h-369l-148 182l193 143l139 -178zM123 0v1085h287v-1085h-287z" />
    <glyph glyph-name="uni01D1" unicode="&#x1d1;" horiz-adv-x="1380" 
d="M874 1567h-368l-148 182l193 143l139 -178l139 178l193 -143zM690 1464q292 0 460.5 -203.5t168.5 -543.5t-168.5 -544t-460.5 -204t-460.5 204t-168.5 544t168.5 543.5t460.5 203.5zM690 246q159 0 244.5 126t85.5 345t-85.5 345t-244.5 126t-244.5 -126t-85.5 -345
t85.5 -345t244.5 -126z" />
    <glyph glyph-name="uni01D2" unicode="&#x1d2;" horiz-adv-x="1187" 
d="M778 1219h-368l-148 182l193 143l139 -178l139 178l193 -143zM594 1116q243 0 387.5 -154t144.5 -419t-144.5 -419.5t-387.5 -154.5t-388 154.5t-145 419.5t145 419t388 154zM594 236q124 0 185 83t61 224t-61 224t-185 83t-185 -83t-61 -224t61 -224t185 -83z" />
    <glyph glyph-name="uni01D3" unicode="&#x1d3;" horiz-adv-x="1445" 
d="M907 1536h-368l-148 182l193 144l139 -179l139 179l193 -144zM1016 1434h297v-906q0 -181 -75.5 -308.5t-206.5 -189t-306 -61.5q-268 0 -430 145t-162 414v906h299v-893q0 -155 75.5 -225t217.5 -70q141 0 216 70t75 225v893z" />
    <glyph glyph-name="uni01D4" unicode="&#x1d4;" horiz-adv-x="1224" 
d="M797 1188h-369l-147 182l192 143l139 -178l140 178l192 -143zM815 1085h287v-1085h-273v111q-51 -69 -129 -105.5t-165 -36.5q-190 0 -306 125t-116 340v651h286v-608q0 -120 56 -180.5t151 -60.5t152 65t57 172v612z" />
    <glyph glyph-name="uni01D5" unicode="&#x1d5;" horiz-adv-x="1445" 
d="M354 1894v211h738v-211h-738zM326 1536v287h292v-287h-292zM827 1536v287h293v-287h-293zM725 -31q-268 0 -430 145t-162 414v906h299v-893q0 -155 75.5 -225t217.5 -70q141 0 216 70t75 225v893h297v-906q0 -181 -75.5 -308.5t-206.5 -189t-306 -61.5z" />
    <glyph glyph-name="uni01D6" unicode="&#x1d6;" horiz-adv-x="1224" 
d="M981 1757v-211h-737v211h737zM508 1475v-287h-293v287h293zM717 1188v287h293v-287h-293zM815 1085h287v-1085h-273v111q-51 -69 -129 -105.5t-165 -36.5q-190 0 -306 125t-116 340v651h286v-608q0 -120 56 -180.5t151 -60.5t152 65t57 172v612z" />
    <glyph glyph-name="uni01D7" unicode="&#x1d7;" horiz-adv-x="1445" 
d="M547 1894l198 306h357l-281 -306h-274zM326 1536v287h292v-287h-292zM827 1536v287h293v-287h-293zM725 -31q-268 0 -430 145t-162 414v906h299v-893q0 -155 75.5 -225t217.5 -70q141 0 216 70t75 225v893h297v-906q0 -181 -75.5 -308.5t-206.5 -189t-306 -61.5z" />
    <glyph glyph-name="uni01D8" unicode="&#x1d8;" horiz-adv-x="1224" 
d="M991 1851l-280 -305h-275l199 305h356zM508 1475v-287h-293v287h293zM717 1188v287h293v-287h-293zM815 1085h287v-1085h-273v111q-51 -69 -129 -105.5t-165 -36.5q-190 0 -306 125t-116 340v651h286v-608q0 -120 56 -180.5t151 -60.5t152 65t57 172v612z" />
    <glyph glyph-name="uni01D9" unicode="&#x1d9;" horiz-adv-x="1445" 
d="M907 1894h-368l-148 183l193 143l139 -178l139 178l193 -143zM618 1823v-287h-292v287h292zM827 1536v287h293v-287h-293zM1016 1434h297v-906q0 -181 -75.5 -308.5t-206.5 -189t-306 -61.5q-268 0 -430 145t-162 414v906h299v-893q0 -155 75.5 -225t217.5 -70
q141 0 216 70t75 225v893z" />
    <glyph glyph-name="uni01DA" unicode="&#x1da;" horiz-adv-x="1224" 
d="M797 1546h-369l-147 183l192 143l139 -178l140 178l192 -143zM508 1475v-287h-293v287h293zM717 1188v287h293v-287h-293zM815 1085h287v-1085h-273v111q-51 -69 -129 -105.5t-165 -36.5q-190 0 -306 125t-116 340v651h286v-608q0 -120 56 -180.5t151 -60.5t152 65
t57 172v612z" />
    <glyph glyph-name="uni01DB" unicode="&#x1db;" horiz-adv-x="1445" 
d="M877 1894h-275l-280 306h356zM326 1536v287h292v-287h-292zM827 1536v287h293v-287h-293zM725 -31q-268 0 -430 145t-162 414v906h299v-893q0 -155 75.5 -225t217.5 -70q141 0 216 70t75 225v893h297v-906q0 -181 -75.5 -308.5t-206.5 -189t-306 -61.5z" />
    <glyph glyph-name="uni01DC" unicode="&#x1dc;" horiz-adv-x="1224" 
d="M766 1546h-274l-281 305h356zM215 1188v287h293v-287h-293zM717 1188v287h293v-287h-293zM815 1085h287v-1085h-273v111q-51 -69 -129 -105.5t-165 -36.5q-190 0 -306 125t-116 340v651h286v-608q0 -120 56 -180.5t151 -60.5t152 65t57 172v612z" />
    <glyph glyph-name="uni01DE" unicode="&#x1de;" horiz-adv-x="1443" 
d="M1096 2105v-211h-738v211h738zM623 1823v-287h-293v287h293zM831 1536v287h293v-287h-293zM1137 0l-125 311h-582l-125 -311h-305l588 1434h266l590 -1434h-307zM535 571h372l-186 463z" />
    <glyph glyph-name="uni01DF" unicode="&#x1df;" horiz-adv-x="1159" 
d="M915 1788v-211h-737v211h737zM442 1505v-286h-292v286h292zM651 1219v286h293v-286h-293zM1133 252l26 -244q-92 -14 -147 -14q-162 0 -226 112q-107 -126 -315 -126q-183 0 -293 89.5t-110 237.5q0 136 87 213.5t287 118.5q167 35 218 58t51 69q0 48 -45.5 78t-118.5 30
q-91 0 -153 -47.5t-72 -126.5l-261 41q22 164 159.5 269.5t326.5 105.5q201 0 317.5 -100.5t116.5 -272.5v-409q0 -46 16 -68t54 -22q22 0 82 8zM711 387v141q-18 -21 -61 -40t-132 -46q-107 -32 -143.5 -57t-36.5 -66q0 -47 36.5 -72.5t104.5 -25.5q97 0 164.5 48t67.5 118
z" />
    <glyph glyph-name="Aringacute" unicode="&#x1fa;" horiz-adv-x="1443" 
d="M1137 0l-125 311h-582l-125 -311h-305l543 1325q-54 34 -84.5 89t-30.5 122q0 74 37 133t102 92l183 281h356l-246 -268q76 -31 120 -94t44 -144q0 -141 -123 -217l543 -1319h-307zM627 1536q0 -45 27.5 -73.5t72.5 -28.5q44 0 71 28.5t27 73.5t-27 73.5t-71 28.5
q-45 0 -72.5 -28.5t-27.5 -73.5zM535 571h372l-186 463z" />
    <glyph glyph-name="aringacute" unicode="&#x1fb;" horiz-adv-x="1159" 
d="M1133 252l26 -244q-92 -14 -147 -14q-162 0 -226 112q-107 -126 -315 -126q-183 0 -293 89.5t-110 237.5q0 136 87 213.5t287 118.5q167 35 218 58t51 69q0 48 -45.5 78t-118.5 30q-91 0 -153 -47.5t-72 -126.5l-261 41q13 104 77 188t163 132q-53 69 -53 158
q0 74 37 133t102 92l182 280h357l-246 -268q76 -31 120 -93.5t44 -143.5q0 -91 -51 -154q90 -46 139 -129.5t49 -192.5v-409q0 -46 16 -68t54 -22q22 0 82 8zM446 1219q0 -45 28 -74t73 -29q44 0 71 29t27 74t-27 73.5t-71 28.5q-45 0 -73 -28.5t-28 -73.5zM711 387v141
q-18 -21 -61 -40t-132 -46q-107 -32 -143.5 -57t-36.5 -66q0 -47 36.5 -72.5t104.5 -25.5q97 0 164.5 48t67.5 118z" />
    <glyph glyph-name="AEacute" unicode="&#x1fc;" horiz-adv-x="1736" 
d="M1247 1841l-280 -305h-275l199 305h356zM1675 1167h-506v-288h443v-256h-443v-357h506v-266h-794v317h-455l-115 -317h-311l530 1434h1145v-267zM516 567h365v600h-150z" />
    <glyph glyph-name="aeacute" unicode="&#x1fd;" horiz-adv-x="1794" 
d="M1276 1524l-281 -305h-274l199 305h356zM987 440q14 -103 72 -159t153 -56q83 0 148 35.5t137 120.5l197 -184q-89 -110 -213 -169t-267 -59q-258 0 -393 183q-45 -86 -135 -134.5t-207 -48.5q-184 0 -296.5 94t-112.5 248q0 135 86 212.5t282 117.5q113 23 165.5 39.5
t72.5 33.5t20 46q0 44 -43.5 72t-113.5 28q-85 0 -138.5 -43.5t-64.5 -120.5l-275 43q22 167 155.5 272t324.5 105q223 0 336 -125q131 125 335 125q232 0 376.5 -158.5t144.5 -414.5v-103h-746zM1212 860q-97 0 -159 -53t-68 -141h453q-9 92 -69 143t-157 51zM696 393v125
q-29 -42 -178 -84q-95 -28 -128.5 -51t-33.5 -61q0 -46 37.5 -71.5t104.5 -25.5q80 0 139 50.5t59 117.5z" />
    <glyph glyph-name="Oslashacute" unicode="&#x1fe;" horiz-adv-x="1380" 
d="M1069 1872l-281 -305h-274l199 305h356zM1126 1288q193 -205 193 -571q0 -340 -168.5 -544t-460.5 -204q-138 0 -250 47l-84 -153l-198 106l96 176q-193 205 -193 572q0 340 168.5 543.5t460.5 203.5q137 0 252 -47l82 152l199 -105zM344 717q0 -182 55 -301l416 768
q-55 24 -125 24q-166 0 -256 -131t-90 -360zM690 225q166 0 256 131.5t90 360.5q0 182 -55 301l-416 -770q61 -23 125 -23z" />
    <glyph glyph-name="oslashacute" unicode="&#x1ff;" horiz-adv-x="1187" 
d="M1014 1524l-281 -305h-274l198 305h357zM1001 938q125 -150 125 -395q0 -265 -144.5 -419.5t-387.5 -154.5q-135 0 -246 51l-96 -135l-170 113l104 147q-125 153 -125 398q0 265 145 419t388 154q136 0 244 -51l96 135l172 -117zM336 543q0 -82 22 -156l328 465
q-38 14 -92 14q-129 0 -193.5 -88t-64.5 -235zM594 219q129 0 193.5 88.5t64.5 235.5q0 88 -23 153l-329 -463q51 -14 94 -14z" />
    <glyph glyph-name="Scommaaccent" unicode="&#x218;" horiz-adv-x="1306" 
d="M678 -31q-259 0 -434 133.5t-213 360.5l286 57q25 -131 119 -202.5t242 -71.5q133 0 206.5 43t73.5 121q0 68 -75 110.5t-299 100.5q-246 63 -357.5 162.5t-111.5 256.5q0 186 147 305t377 119q225 0 385 -118.5t197 -313.5l-287 -57q-23 98 -102 155.5t-193 57.5
q-100 0 -163.5 -40.5t-63.5 -103.5q0 -30 13 -50t54 -41.5t104.5 -41.5t178.5 -51q260 -69 376 -174t117 -272q1 -204 -155 -324.5t-422 -120.5zM549 -653v135q56 10 76 36t20 81h-121v268h307v-225q0 -132 -72 -208.5t-210 -86.5z" />
    <glyph glyph-name="scommaaccent" unicode="&#x219;" horiz-adv-x="1122" 
d="M602 -31q-215 0 -364 104t-187 281l250 60q53 -209 301 -209q104 0 159.5 28t55.5 80q0 49 -61 76t-232 55q-214 34 -309.5 110t-95.5 212q0 155 119.5 252.5t310.5 97.5q175 0 315 -94t180 -238l-245 -73q-23 77 -91.5 123.5t-158.5 46.5q-69 0 -116.5 -31.5
t-47.5 -77.5q0 -40 59.5 -63.5t225.5 -49.5q215 -34 313 -114t98 -223q0 -163 -128.5 -258t-350.5 -95zM473 -653v135q56 10 76 36t20 81h-120v268h307v-225q0 -132 -72.5 -208.5t-210.5 -86.5z" />
    <glyph glyph-name="uni021A" unicode="&#x21a;" 
d="M485 0v1157h-465v277h1229v-277h-465v-1157h-299zM506 -623v136q56 10 76 35.5t20 80.5h-121v269h307v-226q0 -132 -72 -208.5t-210 -86.5z" />
    <glyph glyph-name="uni021B" unicode="&#x21b;" horiz-adv-x="878" 
d="M229 1352l287 82v-349h318v-266h-318v-481q0 -102 102 -102q87 0 191 36l70 -256q-168 -47 -289 -47q-162 0 -261.5 94.5t-99.5 249.5v506h-229v266h229v267zM440 -653v135q56 10 76.5 36t20.5 81h-121v268h307v-225q0 -132 -72.5 -208.5t-210.5 -86.5z" />
    <glyph glyph-name="uni0228" unicode="&#x228;" horiz-adv-x="1161" 
d="M1100 1157h-658v-295h490v-266h-490v-320h658v-276h-416l-53 -96q24 4 39 4q99 0 162 -57.5t63 -147.5q0 -98 -70.5 -158.5t-185.5 -60.5q-95 0 -173 36.5t-124 100.5l141 113q31 -42 64 -60t78 -18q41 0 63.5 18.5t20.5 49.5q-2 28 -23.5 44.5t-58.5 16.5q-41 0 -88 -31
l-131 72l100 174h-365v1434h957v-277z" />
    <glyph glyph-name="uni0229" unicode="&#x229;" horiz-adv-x="1155" 
d="M342 442q15 -109 76.5 -168t159.5 -59q87 0 152.5 38.5t133.5 125.5l193 -172q-158 -209 -416 -236l-55 -98q24 4 39 4q99 0 162 -57.5t63 -147.5q0 -98 -70.5 -158.5t-185.5 -60.5q-95 0 -173 36.5t-124 100.5l141 113q31 -42 64 -60t78 -18q41 0 63.5 18.5t20.5 49.5
q-2 28 -23.5 44.5t-58.5 16.5q-42 0 -88 -30l-132 71l107 185q-191 34 -299.5 183t-108.5 380q0 258 142 415.5t375 157.5q230 0 373 -158.5t143 -414.5v-101h-752zM578 870q-101 0 -166.5 -58t-71.5 -153h471q-9 99 -71 155t-162 56z" />
    <glyph glyph-name="uni0237" unicode="&#x237;" horiz-adv-x="776" 
d="M653 1085v-1056q0 -190 -114 -304t-297 -114q-155 0 -303 49l69 252q115 -35 193 -35t122 44.5t44 129.5v768h-347v266h633z" />
    <glyph glyph-name="uni0258" unicode="&#x258;" horiz-adv-x="1155" 
d="M578 1116q233 0 374.5 -157.5t141.5 -415.5q0 -263 -139.5 -418.5t-376.5 -155.5q-148 0 -270.5 61.5t-209.5 176.5l193 172q67 -87 133.5 -125.5t153.5 -38.5q98 0 159 59t76 168h-752v101q0 256 143 414.5t374 158.5zM578 870q-100 0 -162.5 -56t-71.5 -155h471
q-6 95 -71 153t-166 58z" />
    <glyph glyph-name="uni0259" unicode="&#x259;" horiz-adv-x="1155" 
d="M578 1116q237 0 376.5 -155t139.5 -418q0 -258 -141.5 -416t-374.5 -158q-230 0 -373.5 159t-143.5 415v100h752q-15 109 -76 168t-159 59q-88 0 -154 -38.5t-133 -124.5l-193 172q87 115 209.5 176t270.5 61zM578 215q101 0 166 58t71 153h-471q9 -99 71.5 -155
t162.5 -56z" />
    <glyph glyph-name="circumflex" unicode="&#x2c6;" horiz-adv-x="868" 
d="M766 1290l-193 -143l-139 178l-139 -178l-193 143l148 183h368z" />
    <glyph glyph-name="caron" unicode="&#x2c7;" horiz-adv-x="868" 
d="M573 1513l193 -143l-148 -182h-368l-148 182l193 143l139 -178z" />
    <glyph glyph-name="breve" unicode="&#x2d8;" horiz-adv-x="819" 
d="M410 1167q-135 0 -221.5 84.5t-86.5 206.5h179q10 -44 42 -71t87 -27t87 27t42 71h178q0 -123 -86 -207t-221 -84z" />
    <glyph glyph-name="dotaccent" unicode="&#x2d9;" horiz-adv-x="503" 
d="M102 1188v291h299v-291h-299z" />
    <glyph glyph-name="ring" unicode="&#x2da;" horiz-adv-x="800" 
d="M401 926q-132 0 -215.5 74t-83.5 188t83.5 188t215.5 74q130 0 213.5 -74t83.5 -188t-83.5 -188t-213.5 -74zM401 1085q44 0 71.5 29t27.5 74t-27.5 73.5t-71.5 28.5q-45 0 -72.5 -28.5t-27.5 -73.5t27.5 -74t72.5 -29z" />
    <glyph glyph-name="ogonek" unicode="&#x2db;" horiz-adv-x="757" 
d="M383 -461q-130 0 -205.5 56t-75.5 153q0 98 67.5 170t223.5 139l127 -57q-205 -122 -205 -199q0 -51 78 -51q66 0 180 49l82 -192q-148 -68 -272 -68z" />
    <glyph glyph-name="tilde" unicode="&#x2dc;" horiz-adv-x="921" 
d="M610 1178q-51 0 -100 21.5t-89.5 43t-70.5 21.5q-57 0 -69 -76h-179q6 138 60 211.5t151 73.5q51 0 99.5 -21t88.5 -42t70 -21q59 0 70 73h178q-4 -137 -58.5 -210.5t-150.5 -73.5z" />
    <glyph glyph-name="hungarumlaut" unicode="&#x2dd;" horiz-adv-x="1224" 
d="M102 1188l189 291h340l-269 -291h-260zM545 1188l188 291h340l-268 -291h-260z" />
    <glyph glyph-name="gravecomb" unicode="&#x300;" horiz-adv-x="0" 
d="M-102 1188h-275l-280 305h356z" />
    <glyph glyph-name="acutecomb" unicode="&#x301;" horiz-adv-x="0" 
d="M-657 1188l198 305h357l-281 -305h-274z" />
    <glyph glyph-name="uni0302" unicode="&#x302;" horiz-adv-x="0" 
d="M-102 1290l-193 -143l-139 178l-139 -178l-193 143l148 183h368z" />
    <glyph glyph-name="tildecomb" unicode="&#x303;" horiz-adv-x="0" 
d="M-311 1178q-51 0 -100 21.5t-89.5 43t-70.5 21.5q-58 0 -70 -76h-178q6 138 60 211.5t151 73.5q51 0 99.5 -21t88.5 -42t70 -21q58 0 69 73h179q-4 -137 -58.5 -210.5t-150.5 -73.5z" />
    <glyph glyph-name="uni0304" unicode="&#x304;" horiz-adv-x="0" 
d="M-840 1188v211h738v-211h-738z" />
    <glyph glyph-name="uni0306" unicode="&#x306;" horiz-adv-x="0" 
d="M-410 1167q-135 0 -221 84t-86 207h178q10 -44 42 -71t87 -27t87 27t42 71h179q0 -122 -86.5 -206.5t-221.5 -84.5z" />
    <glyph glyph-name="uni0307" unicode="&#x307;" horiz-adv-x="0" 
d="M-401 1188v291h299v-291h-299z" />
    <glyph glyph-name="uni0308" unicode="&#x308;" horiz-adv-x="0" 
d="M-897 1188v287h293v-287h-293zM-395 1188v287h293v-287h-293z" />
    <glyph glyph-name="uni030A" unicode="&#x30a;" horiz-adv-x="0" 
d="M-399 926q-132 0 -215.5 74t-83.5 188t83.5 188t215.5 74q130 0 213.5 -74t83.5 -188t-83.5 -188t-213.5 -74zM-399 1085q44 0 71 29t27 74t-27 73.5t-71 28.5q-45 0 -73 -28.5t-28 -73.5t28 -74t73 -29z" />
    <glyph glyph-name="uni030B" unicode="&#x30b;" horiz-adv-x="0" 
d="M-1073 1188l188 291h340l-268 -291h-260zM-631 1188l189 291h340l-269 -291h-260z" />
    <glyph glyph-name="uni030C" unicode="&#x30c;" horiz-adv-x="0" 
d="M-295 1513l193 -143l-148 -182h-368l-148 182l193 143l139 -178z" />
    <glyph glyph-name="dotbelowcomb" unicode="&#x323;" horiz-adv-x="0" 
d="M-401 -393v291h299v-291h-299z" />
    <glyph glyph-name="uni0326" unicode="&#x326;" horiz-adv-x="0" 
d="M-385 -623v136q56 10 76 35.5t20 80.5h-121v269h308v-226q0 -132 -72.5 -208.5t-210.5 -86.5z" />
    <glyph glyph-name="uni0327" unicode="&#x327;" horiz-adv-x="0" 
d="M-328 -92q99 0 162.5 -57.5t63.5 -147.5q0 -98 -70.5 -158.5t-185.5 -60.5q-95 0 -173 36.5t-124 100.5l141 113q31 -42 63.5 -60t77.5 -18q41 0 63.5 18.5t20.5 49.5q-2 28 -23.5 44.5t-58.5 16.5q-41 0 -88 -31l-131 72l119 205h176l-72 -127q24 4 39 4z" />
    <glyph glyph-name="uni0328" unicode="&#x328;" horiz-adv-x="0" 
d="M-375 -461q-130 0 -205 56t-75 153q0 99 67 170.5t223 138.5l127 -57q-105 -63 -154.5 -111t-49.5 -88q0 -51 77 -51q67 0 181 49l82 -192q-148 -68 -273 -68z" />
    <glyph glyph-name="uni0337" unicode="&#x337;" horiz-adv-x="0" 
d="M-956 -113l-170 113l852 1202l172 -117z" />
    <glyph glyph-name="uni0338" unicode="&#x338;" horiz-adv-x="0" 
d="M-969 -137l-198 106l866 1600l199 -105z" />
    <glyph glyph-name="uni0394" unicode="&#x394;" horiz-adv-x="1443" 
d="M854 1434l590 -1434h-1444l588 1434h266zM410 260h622l-311 774z" />
    <glyph glyph-name="uni03A9" unicode="&#x3a9;" horiz-adv-x="1228" 
d="M1167 758q0 -337 -157 -482h157v-276h-481v256q95 28 139.5 139.5t44.5 321.5q0 244 -62 357.5t-194 113.5t-194 -113.5t-62 -357.5q0 -209 45 -321t140 -140v-256h-482v276h158q-158 146 -158 482q0 334 144 520t409 186t409 -186t144 -520z" />
    <glyph glyph-name="uni03BC" unicode="&#x3bc;" 
d="M860 1085h287v-1085h-275v100q-46 -62 -116 -96.5t-152 -34.5q-125 0 -194 49v-479h-287v1546h287v-608q0 -117 58 -179t165 -62q103 0 165 65t62 172v612z" />
    <glyph glyph-name="pi" unicode="&#x3c0;" horiz-adv-x="1146" 
d="M1126 819h-149v-450q0 -60 30 -81.5t119 -21.5v-266q-233 0 -334.5 86t-101.5 254v479h-213v-819h-287v819h-170v266h1106v-266z" />
    <glyph glyph-name="uni0E3F" unicode="&#xe3f;" horiz-adv-x="1402" 
d="M1311 422q0 -184 -138 -300.5t-360 -121.5v-266h-297v266h-311v1434h311v256h297v-256q186 -9 310 -118t124 -265q0 -91 -46.5 -165.5t-127.5 -117.5q110 -48 174 -139t64 -207zM502 1157v-274h274q87 0 132.5 35.5t45.5 103.5q0 135 -178 135h-274zM791 276
q107 0 164 46.5t57 132.5q0 83 -57 127.5t-164 44.5h-289v-351h289z" />
    <glyph glyph-name="uni1E04" unicode="&#x1e04;" horiz-adv-x="1300" 
d="M1032 768q110 -48 174 -139t64 -207q0 -187 -143 -304.5t-371 -117.5h-613v1434h600q197 0 330 -110t133 -273q0 -91 -46.5 -165.5t-127.5 -117.5zM440 1157v-274h295q87 0 132.5 35.5t45.5 103.5q0 135 -178 135h-295zM750 276q107 0 164 46.5t57 132.5q0 83 -57 127.5
t-164 44.5h-310v-351h310zM520 -393v291h299v-291h-299z" />
    <glyph glyph-name="uni1E05" unicode="&#x1e05;" horiz-adv-x="1228" 
d="M676 1116q222 0 356.5 -157t134.5 -416t-135 -416.5t-356 -157.5q-85 0 -159.5 31.5t-119.5 83.5v-84h-274v1434h287v-406q105 88 266 88zM637 236q114 0 179 82t65 225t-65 225t-179 82q-99 0 -163 -58.5t-64 -146.5v-205q0 -89 63.5 -146.5t163.5 -57.5zM526 -424v291
h299v-291h-299z" />
    <glyph glyph-name="uni1E0C" unicode="&#x1e0c;" horiz-adv-x="1376" 
d="M143 1434h504q312 0 490 -190.5t178 -526.5t-178 -526.5t-490 -190.5h-504v1434zM618 276q204 0 302 110t98 331t-98 330.5t-302 109.5h-178v-881h178zM524 -393v291h299v-291h-299z" />
    <glyph glyph-name="uni1E0D" unicode="&#x1e0d;" horiz-adv-x="1228" 
d="M819 1434h287v-1434h-275v84q-45 -52 -119 -83.5t-159 -31.5q-222 0 -357 157.5t-135 416.5t135 416t357 157q161 0 266 -88v406zM819 440v205q0 88 -64 146.5t-163 58.5q-114 0 -179 -82t-65 -225t65 -225t179 -82q100 0 163.5 57.5t63.5 146.5zM403 -424v291h299v-291
h-299z" />
    <glyph glyph-name="uni1E24" unicode="&#x1e24;" horiz-adv-x="1380" 
d="M143 1434h299v-557h496v557h299v-1434h-299v600h-496v-600h-299v1434zM541 -393v291h299v-291h-299z" />
    <glyph glyph-name="uni1E25" unicode="&#x1e25;" horiz-adv-x="1249" 
d="M713 1116q177 0 300.5 -127.5t123.5 -339.5v-649h-287v608q0 121 -58 181.5t-159 60.5t-162 -65.5t-61 -172.5v-612h-287v1434h287v-441q53 60 132.5 91.5t170.5 31.5zM481 -393v291h299v-291h-299z" />
    <glyph glyph-name="uni1E36" unicode="&#x1e36;" horiz-adv-x="1169" 
d="M143 1434h299v-1158h686v-276h-985v1434zM526 -393v291h299v-291h-299z" />
    <glyph glyph-name="uni1E37" unicode="&#x1e37;" horiz-adv-x="532" 
d="M123 0v1434h287v-1434h-287zM117 -393v291h299v-291h-299z" />
    <glyph glyph-name="uni1E44" unicode="&#x1e44;" horiz-adv-x="1380" 
d="M844 1827v-291h-299v291h299zM940 1434h297v-1434h-317l-480 920v-920h-297v1434h316l481 -920v920z" />
    <glyph glyph-name="uni1E45" unicode="&#x1e45;" horiz-adv-x="1249" 
d="M842 1509v-290h-299v290h299zM713 1116q177 0 300.5 -127.5t123.5 -339.5v-649h-287v608q0 121 -58 181.5t-159 60.5t-162 -65.5t-61 -172.5v-612h-287v1085h274v-106q53 67 136 102t180 35z" />
    <glyph glyph-name="uni1E46" unicode="&#x1e46;" horiz-adv-x="1380" 
d="M940 1434h297v-1434h-317l-480 920v-920h-297v1434h316l481 -920v920zM545 -393v291h299v-291h-299z" />
    <glyph glyph-name="uni1E47" unicode="&#x1e47;" horiz-adv-x="1249" 
d="M713 1116q177 0 300.5 -127.5t123.5 -339.5v-649h-287v608q0 121 -58 181.5t-159 60.5t-162 -65.5t-61 -172.5v-612h-287v1085h274v-106q53 67 136 102t180 35zM461 -393v291h299v-291h-299z" />
    <glyph glyph-name="uni1E4C" unicode="&#x1e4c;" horiz-adv-x="1380" 
d="M514 1915l199 305h356l-281 -305h-274zM840 1556q-51 0 -100 21.5t-89.5 43t-70.5 21.5q-58 0 -70 -75h-178q6 138 60 211t151 73q51 0 99.5 -21t88.5 -42t70 -21q57 0 69 74h179q-4 -137 -58.5 -211t-150.5 -74zM690 -31q-292 0 -460.5 204t-168.5 544t168.5 543.5
t460.5 203.5t460.5 -203.5t168.5 -543.5t-168.5 -544t-460.5 -204zM690 246q159 0 244.5 126t85.5 345t-85.5 345t-244.5 126t-244.5 -126t-85.5 -345t85.5 -345t244.5 -126z" />
    <glyph glyph-name="uni1E4D" unicode="&#x1e4d;" horiz-adv-x="1187" 
d="M418 1567l198 305h357l-281 -305h-274zM743 1208q-51 0 -100 21.5t-89.5 43t-70.5 21.5q-57 0 -69 -75h-178q6 138 59.5 211t150.5 73q51 0 100 -21t89 -42t70 -21q57 0 69 74h178q-4 -137 -58.5 -211t-150.5 -74zM594 -31q-243 0 -388 154.5t-145 419.5t145 419t388 154
t387.5 -154t144.5 -419t-144.5 -419.5t-387.5 -154.5zM594 236q124 0 185 83t61 224t-61 224t-185 83t-185 -83t-61 -224t61 -224t185 -83z" />
    <glyph glyph-name="uni1E62" unicode="&#x1e62;" horiz-adv-x="1306" 
d="M678 -31q-259 0 -434 133.5t-213 360.5l286 57q25 -131 119 -202.5t242 -71.5q133 0 206.5 43t73.5 121q0 68 -75 110.5t-299 100.5q-246 63 -357.5 162.5t-111.5 256.5q0 186 147 305t377 119q225 0 385 -118.5t197 -313.5l-287 -57q-23 98 -102 155.5t-193 57.5
q-100 0 -163.5 -40.5t-63.5 -103.5q0 -30 13 -50t54 -41.5t104.5 -41.5t178.5 -51q260 -69 376 -174t117 -272q1 -204 -155 -324.5t-422 -120.5zM528 -424v291h299v-291h-299z" />
    <glyph glyph-name="uni1E63" unicode="&#x1e63;" horiz-adv-x="1122" 
d="M602 -31q-215 0 -364 104t-187 281l250 60q53 -209 301 -209q104 0 159.5 28t55.5 80q0 49 -61 76t-232 55q-214 34 -309.5 110t-95.5 212q0 155 119.5 252.5t310.5 97.5q175 0 315 -94t180 -238l-245 -73q-23 77 -91.5 123.5t-158.5 46.5q-69 0 -116.5 -31.5
t-47.5 -77.5q0 -40 59.5 -63.5t225.5 -49.5q215 -34 313 -114t98 -223q0 -163 -128.5 -258t-350.5 -95zM453 -424v291h299v-291h-299z" />
    <glyph glyph-name="uni1E6C" unicode="&#x1e6c;" 
d="M485 0v1157h-465v277h1229v-277h-465v-1157h-299zM485 -393v291h299v-291h-299z" />
    <glyph glyph-name="uni1E6D" unicode="&#x1e6d;" horiz-adv-x="878" 
d="M229 1352l287 82v-349h318v-266h-318v-481q0 -102 102 -102q87 0 191 36l70 -256q-168 -47 -289 -47q-162 0 -261.5 94.5t-99.5 249.5v506h-229v266h229v267zM420 -424v291h299v-291h-299z" />
    <glyph glyph-name="Wgrave" unicode="&#x1e80;" horiz-adv-x="1636" 
d="M981 1536h-274l-281 305h356zM1284 1434h291l-205 -1434h-283l-268 723l-270 -723h-283l-205 1434h291l123 -945l264 715h158l264 -719z" />
    <glyph glyph-name="wgrave" unicode="&#x1e81;" horiz-adv-x="1554" 
d="M913 1188h-274l-281 305h357zM1290 1085h264l-280 -1085h-301l-195 649l-196 -649h-301l-281 1085h264l180 -720l220 720h227l217 -720z" />
    <glyph glyph-name="Wacute" unicode="&#x1e82;" horiz-adv-x="1636" 
d="M1206 1841l-280 -305h-275l199 305h356zM1284 1434h291l-205 -1434h-283l-268 723l-270 -723h-283l-205 1434h291l123 -945l264 715h158l264 -719z" />
    <glyph glyph-name="wacute" unicode="&#x1e83;" horiz-adv-x="1554" 
d="M1139 1493l-281 -305h-274l198 305h357zM1290 1085h264l-280 -1085h-301l-195 649l-196 -649h-301l-281 1085h264l180 -720l220 720h227l217 -720z" />
    <glyph glyph-name="Wdieresis" unicode="&#x1e84;" horiz-adv-x="1636" 
d="M723 1823v-287h-293v287h293zM1225 1823v-287h-293v287h293zM1284 1434h291l-205 -1434h-283l-268 723l-270 -723h-283l-205 1434h291l123 -945l264 715h158l264 -719z" />
    <glyph glyph-name="wdieresis" unicode="&#x1e85;" horiz-adv-x="1554" 
d="M655 1475v-287h-293v287h293zM1157 1475v-287h-293v287h293zM1290 1085h264l-280 -1085h-301l-195 649l-196 -649h-301l-281 1085h264l180 -720l220 720h227l217 -720z" />
    <glyph glyph-name="uni1E92" unicode="&#x1e92;" horiz-adv-x="1275" 
d="M61 0v254l783 913h-746v267h1116v-252l-784 -916h776v-266h-1145zM489 -393v291h299v-291h-299z" />
    <glyph glyph-name="uni1E93" unicode="&#x1e93;" horiz-adv-x="1138" 
d="M82 0v231l586 609h-566v245h934v-231l-585 -606h606v-248h-975zM420 -393v291h299v-291h-299z" />
    <glyph glyph-name="uni1EA0" unicode="&#x1ea0;" horiz-adv-x="1443" 
d="M1444 0h-307l-125 311h-582l-125 -311h-305l588 1434h266zM535 571h372l-186 463zM578 -393v291h299v-291h-299z" />
    <glyph glyph-name="uni1EA1" unicode="&#x1ea1;" horiz-adv-x="1159" 
d="M1133 252l26 -244q-92 -14 -147 -14q-162 0 -226 112q-107 -126 -315 -126q-183 0 -293 89.5t-110 237.5q0 136 87 213.5t287 118.5q167 35 218 58t51 69q0 48 -45.5 78t-118.5 30q-91 0 -153 -47.5t-72 -126.5l-261 41q22 164 159.5 269.5t326.5 105.5
q201 0 317.5 -100.5t116.5 -272.5v-409q0 -46 16 -68t54 -22q22 0 82 8zM711 387v141q-18 -21 -61 -40t-132 -46q-107 -32 -143.5 -57t-36.5 -66q0 -47 36.5 -72.5t104.5 -25.5q97 0 164.5 48t67.5 118zM416 -424v291h299v-291h-299z" />
    <glyph glyph-name="uni1EAC" unicode="&#x1eac;" horiz-adv-x="1443" 
d="M727 1673l-139 -178l-193 143l148 183h368l148 -183l-193 -143zM1444 0h-307l-125 311h-582l-125 -311h-305l588 1434h266zM535 571h372l-186 463zM573 -393v291h299v-291h-299z" />
    <glyph glyph-name="uni1EAD" unicode="&#x1ead;" horiz-adv-x="1159" 
d="M547 1356l-139 -178l-193 143l147 182h369l148 -182l-193 -143zM1133 252l26 -244q-92 -14 -147 -14q-162 0 -226 112q-107 -126 -315 -126q-183 0 -293 89.5t-110 237.5q0 136 87 213.5t287 118.5q167 35 218 58t51 69q0 48 -45.5 78t-118.5 30q-91 0 -153 -47.5
t-72 -126.5l-261 41q22 164 159.5 269.5t326.5 105.5q201 0 317.5 -100.5t116.5 -272.5v-409q0 -46 16 -68t54 -22q22 0 82 8zM711 387v141q-18 -21 -61 -40t-132 -46q-107 -32 -143.5 -57t-36.5 -66q0 -47 36.5 -72.5t104.5 -25.5q97 0 164.5 48t67.5 118zM420 -424v291
h299v-291h-299z" />
    <glyph glyph-name="uni1EB8" unicode="&#x1eb8;" horiz-adv-x="1161" 
d="M143 0v1434h957v-277h-658v-295h490v-266h-490v-320h658v-276h-957zM473 -393v291h299v-291h-299z" />
    <glyph glyph-name="uni1EB9" unicode="&#x1eb9;" horiz-adv-x="1155" 
d="M342 442q15 -109 76.5 -168t159.5 -59q87 0 152.5 38.5t133.5 125.5l193 -172q-87 -115 -209 -176.5t-270 -61.5q-237 0 -377 155.5t-140 418.5q0 258 142 415.5t375 157.5q230 0 373 -158.5t143 -414.5v-101h-752zM578 870q-101 0 -166.5 -58t-71.5 -153h471
q-9 99 -71 155t-162 56zM428 -424v291h299v-291h-299z" />
    <glyph glyph-name="uni1EBC" unicode="&#x1ebc;" horiz-adv-x="1161" 
d="M772 1526q-51 0 -100 21.5t-89.5 43t-70.5 21.5q-58 0 -70 -76h-178q6 138 60 211.5t151 73.5q51 0 99.5 -21t88.5 -42t70 -21q59 0 70 73h178q-4 -137 -58.5 -210.5t-150.5 -73.5zM143 0v1434h957v-277h-658v-295h490v-266h-490v-320h658v-276h-957z" />
    <glyph glyph-name="uni1EBD" unicode="&#x1ebd;" horiz-adv-x="1155" 
d="M467 1294q-58 0 -70 -75h-178q6 138 60 211t151 73q51 0 99.5 -21t88.5 -42t70 -21q58 0 70 74h178q-4 -137 -58.5 -211t-150.5 -74q-51 0 -100 21.5t-89.5 43t-70.5 21.5zM342 442q15 -109 76.5 -168t159.5 -59q87 0 152.5 38.5t133.5 125.5l193 -172
q-87 -115 -209 -176.5t-270 -61.5q-237 0 -377 155.5t-140 418.5q0 258 142 415.5t375 157.5q230 0 373 -158.5t143 -414.5v-101h-752zM578 870q-101 0 -166.5 -58t-71.5 -153h471q-9 99 -71 155t-162 56z" />
    <glyph glyph-name="uni1EC6" unicode="&#x1ec6;" horiz-adv-x="1161" 
d="M623 1673l-140 -178l-192 143l147 183h369l147 -183l-192 -143zM1100 1157h-658v-295h490v-266h-490v-320h658v-276h-957v1434h957v-277zM453 -393v291h299v-291h-299z" />
    <glyph glyph-name="uni1EC7" unicode="&#x1ec7;" horiz-adv-x="1155" 
d="M578 1356l-140 -178l-192 143l147 182h369l147 -182l-192 -143zM342 442q15 -109 76.5 -168t159.5 -59q87 0 152.5 38.5t133.5 125.5l193 -172q-87 -115 -209 -176.5t-270 -61.5q-237 0 -377 155.5t-140 418.5q0 258 142 415.5t375 157.5q230 0 373 -158.5t143 -414.5
v-101h-752zM578 870q-101 0 -166.5 -58t-71.5 -153h471q-9 99 -71 155t-162 56zM430 -424v291h299v-291h-299z" />
    <glyph glyph-name="uni1ECA" unicode="&#x1eca;" horiz-adv-x="585" 
d="M143 0v1434h299v-1434h-299zM147 -393v291h299v-291h-299z" />
    <glyph glyph-name="uni1ECB" unicode="&#x1ecb;" horiz-adv-x="532" 
d="M117 1208v291h299v-291h-299zM123 0v1085h287v-1085h-287zM117 -393v291h299v-291h-299z" />
    <glyph glyph-name="uni1ECC" unicode="&#x1ecc;" horiz-adv-x="1380" 
d="M690 -31q-292 0 -460.5 204t-168.5 544t168.5 543.5t460.5 203.5t460.5 -203.5t168.5 -543.5t-168.5 -544t-460.5 -204zM690 246q159 0 244.5 126t85.5 345t-85.5 345t-244.5 126t-244.5 -126t-85.5 -345t85.5 -345t244.5 -126zM541 -424v291h299v-291h-299z" />
    <glyph glyph-name="uni1ECD" unicode="&#x1ecd;" horiz-adv-x="1187" 
d="M594 -31q-243 0 -388 154.5t-145 419.5t145 419t388 154t387.5 -154t144.5 -419t-144.5 -419.5t-387.5 -154.5zM594 236q124 0 185 83t61 224t-61 224t-185 83t-185 -83t-61 -224t61 -224t185 -83zM444 -424v291h299v-291h-299z" />
    <glyph glyph-name="uni1ED8" unicode="&#x1ed8;" horiz-adv-x="1380" 
d="M690 1704l-139 -178l-193 143l148 182h368l148 -182l-193 -143zM690 1464q292 0 460.5 -203.5t168.5 -543.5t-168.5 -544t-460.5 -204t-460.5 204t-168.5 544t168.5 543.5t460.5 203.5zM690 246q159 0 244.5 126t85.5 345t-85.5 345t-244.5 126t-244.5 -126t-85.5 -345
t85.5 -345t244.5 -126zM541 -424v291h299v-291h-299z" />
    <glyph glyph-name="uni1ED9" unicode="&#x1ed9;" horiz-adv-x="1187" 
d="M594 1356l-139 -178l-193 143l148 182h368l148 -182l-193 -143zM594 1116q243 0 387.5 -154t144.5 -419t-144.5 -419.5t-387.5 -154.5t-388 154.5t-145 419.5t145 419t388 154zM594 236q124 0 185 83t61 224t-61 224t-185 83t-185 -83t-61 -224t61 -224t185 -83z
M444 -424v291h299v-291h-299z" />
    <glyph glyph-name="uni1EE4" unicode="&#x1ee4;" horiz-adv-x="1445" 
d="M725 -31q-268 0 -430 145t-162 414v906h299v-893q0 -155 75.5 -225t217.5 -70q141 0 216 70t75 225v893h297v-906q0 -181 -75.5 -308.5t-206.5 -189t-306 -61.5zM575 -424v291h299v-291h-299z" />
    <glyph glyph-name="uni1EE5" unicode="&#x1ee5;" horiz-adv-x="1224" 
d="M815 1085h287v-1085h-273v111q-51 -69 -129 -105.5t-165 -36.5q-190 0 -306 125t-116 340v651h286v-608q0 -120 56 -180.5t151 -60.5t152 65t57 172v612zM385 -424v291h299v-291h-299z" />
    <glyph glyph-name="Ygrave" unicode="&#x1ef2;" horiz-adv-x="1292" 
d="M801 1536h-275l-280 305h356zM954 1434h338l-497 -856v-578h-297v578l-498 856h338l309 -560z" />
    <glyph glyph-name="ygrave" unicode="&#x1ef3;" horiz-adv-x="1124" 
d="M727 1188h-274l-281 305h356zM811 1085h313l-534 -1218q-46 -105 -113.5 -152t-185.5 -47q-76 0 -205 21l41 258q76 -10 135 -10q45 0 67.5 13.5t37.5 49.5l55 135l-422 950h315l246 -612z" />
    <glyph glyph-name="uni1EF4" unicode="&#x1ef4;" horiz-adv-x="1292" 
d="M498 0v578l-498 856h338l309 -560l307 560h338l-497 -856v-578h-297zM498 -393v291h299v-291h-299z" />
    <glyph glyph-name="uni1EF5" unicode="&#x1ef5;" horiz-adv-x="1124" 
d="M811 1085h313l-534 -1218q-46 -105 -113.5 -152t-185.5 -47q-76 0 -205 21l41 258q76 -10 135 -10q45 0 67.5 13.5t37.5 49.5l55 135l-422 950h315l246 -612zM780 -393v291h299v-291h-299z" />
    <glyph glyph-name="uni1EF8" unicode="&#x1ef8;" horiz-adv-x="1292" 
d="M537 1612q-58 0 -70 -76h-178q6 138 60 211.5t151 73.5q51 0 99.5 -21t88.5 -42t70 -21q58 0 69 73h179q-4 -137 -58.5 -210.5t-150.5 -73.5q-51 0 -100 21.5t-89.5 43t-70.5 21.5zM954 1434h338l-497 -856v-578h-297v578l-498 856h338l309 -560z" />
    <glyph glyph-name="uni1EF9" unicode="&#x1ef9;" horiz-adv-x="1124" 
d="M463 1264q-58 0 -70 -76h-178q6 138 60 211.5t151 73.5q51 0 99.5 -21t88.5 -42t70 -21q59 0 70 73h178q-4 -137 -58.5 -210.5t-150.5 -73.5q-51 0 -100 21.5t-89.5 43t-70.5 21.5zM811 1085h313l-534 -1218q-46 -105 -113.5 -152t-185.5 -47q-76 0 -205 21l41 258
q76 -10 135 -10q45 0 67.5 13.5t37.5 49.5l55 135l-422 950h315l246 -612z" />
    <glyph glyph-name="uni2002" unicode="&#x2002;" horiz-adv-x="1382" 
 />
    <glyph glyph-name="uni2003" unicode="&#x2003;" horiz-adv-x="1249" 
 />
    <glyph glyph-name="uni2004" unicode="&#x2004;" horiz-adv-x="716" 
 />
    <glyph glyph-name="uni2005" unicode="&#x2005;" horiz-adv-x="460" 
 />
    <glyph glyph-name="uni2007" unicode="&#x2007;" horiz-adv-x="1331" 
 />
    <glyph glyph-name="uni2008" unicode="&#x2008;" horiz-adv-x="575" 
 />
    <glyph glyph-name="uni2009" unicode="&#x2009;" horiz-adv-x="307" 
 />
    <glyph glyph-name="uni200A" unicode="&#x200a;" horiz-adv-x="153" 
 />
    <glyph glyph-name="uni200B" unicode="&#x200b;" horiz-adv-x="0" 
 />
    <glyph glyph-name="endash" unicode="&#x2013;" horiz-adv-x="1228" 
d="M102 481v277h1024v-277h-1024z" />
    <glyph glyph-name="emdash" unicode="&#x2014;" horiz-adv-x="1474" 
d="M102 481v277h1270v-277h-1270z" />
    <glyph glyph-name="quoteleft" unicode="&#x2018;" horiz-adv-x="593" 
d="M477 1454v-180q-74 -15 -100.5 -49t-26.5 -107h142v-358h-390v301q0 175 95 276.5t280 116.5z" />
    <glyph glyph-name="quoteright" unicode="&#x2019;" horiz-adv-x="593" 
d="M117 739v181q74 15 100.5 48.5t26.5 106.5h-142v359h390v-301q0 -175 -95 -277t-280 -117z" />
    <glyph glyph-name="quotesinglbase" unicode="&#x201a;" horiz-adv-x="593" 
d="M117 -336v180q74 15 100.5 49t26.5 107h-142v358h390v-301q0 -175 -95 -276.5t-280 -116.5z" />
    <glyph glyph-name="quotedblleft" unicode="&#x201c;" horiz-adv-x="1093" 
d="M440 1456v-164q-66 -13 -90 -43t-24 -96h127v-322h-351v271q0 157 85.5 249t252.5 105zM979 1456v-164q-67 -13 -91 -43.5t-24 -95.5h127v-322h-350v271q0 157 85.5 249t252.5 105z" />
    <glyph glyph-name="quotedblright" unicode="&#x201d;" horiz-adv-x="1093" 
d="M115 807v164q66 13 90 43t24 96h-127v322h351v-271q0 -157 -85.5 -249t-252.5 -105zM653 807v164q67 13 91 43.5t24 95.5h-127v322h350v-271q0 -157 -85.5 -249t-252.5 -105z" />
    <glyph glyph-name="quotedblbase" unicode="&#x201e;" horiz-adv-x="1093" 
d="M115 -303v164q66 13 90 43t24 96h-127v322h351v-271q0 -157 -85.5 -249t-252.5 -105zM653 -303v164q67 13 91 43.5t24 95.5h-127v322h350v-271q0 -157 -85.5 -249t-252.5 -105z" />
    <glyph glyph-name="dagger" unicode="&#x2020;" horiz-adv-x="1392" 
d="M547 -246v1055h-445v276h445v461h299v-461h444v-276h-444v-1055h-299z" />
    <glyph glyph-name="daggerdbl" unicode="&#x2021;" horiz-adv-x="1392" 
d="M1290 809h-444v-320h444v-276h-444v-459h-299v459h-445v276h445v320h-445v276h445v461h299v-461h444v-276z" />
    <glyph glyph-name="bullet" unicode="&#x2022;" horiz-adv-x="888" 
d="M444 551q-104 0 -171.5 65t-67.5 166q0 100 67.5 165t171.5 65t172 -65t68 -165q0 -101 -68 -166t-172 -65z" />
    <glyph glyph-name="ellipsis" unicode="&#x2026;" horiz-adv-x="1300" 
d="M102 0v293h297v-293h-297zM502 0v293h297v-293h-297zM901 0v293h297v-293h-297z" />
    <glyph glyph-name="perthousand" unicode="&#x2030;" horiz-adv-x="2762" 
d="M1233 1528l229 -107l-733 -1542l-233 96zM453 555q-170 0 -260.5 115t-90.5 334t90.5 333.5t260.5 114.5q169 0 259.5 -114.5t90.5 -333.5t-90.5 -334t-259.5 -115zM453 786q57 0 79.5 46.5t22.5 171.5q0 126 -23 171.5t-79 45.5q-58 0 -80.5 -45.5t-22.5 -171.5
t22.5 -172t80.5 -46zM1526 -18q-169 0 -258.5 114.5t-89.5 333.5t89.5 334t258.5 115q171 0 260.5 -115t89.5 -334t-89.5 -333.5t-260.5 -114.5zM2308 -18q-169 0 -258.5 114.5t-89.5 333.5t89.5 334t258.5 115q171 0 261.5 -115t90.5 -334t-90.5 -333.5t-261.5 -114.5z
M1526 213q57 0 79.5 45.5t22.5 171.5q0 127 -22.5 172t-79.5 45t-79 -46t-22 -171q0 -124 22 -170.5t79 -46.5zM2308 213q57 0 81 46t24 171q0 126 -23.5 171.5t-81.5 45.5q-57 0 -78.5 -46t-21.5 -171q0 -126 22 -171.5t78 -45.5z" />
    <glyph glyph-name="guilsinglleft" unicode="&#x2039;" horiz-adv-x="800" 
d="M698 985q-46 -197 -227 -407q181 -210 227 -410l-313 -92q-36 156 -102 268t-181 234q115 122 181 233t102 266z" />
    <glyph glyph-name="guilsinglright" unicode="&#x203a;" horiz-adv-x="800" 
d="M416 1077q36 -155 101.5 -266t180.5 -233q-114 -122 -180 -233.5t-102 -268.5l-314 92q46 199 228 410q-88 102 -145 199t-83 208z" />
    <glyph glyph-name="fraction" unicode="&#x2044;" horiz-adv-x="452" 
d="M508 1518l190 -86l-753 -1545l-191 80z" />
    <glyph glyph-name="uni207A" unicode="&#x207a;" horiz-adv-x="778" 
d="M727 1329v-188h-235v-244h-203v244h-238v188h238v246h203v-246h235z" />
    <glyph glyph-name="uni207B" unicode="&#x207b;" horiz-adv-x="655" 
d="M51 1135v194h553v-194h-553z" />
    <glyph glyph-name="lira" unicode="&#x20a4;" 
d="M932 748h297q0 -340 -174 -544t-465 -204h-297v582l-150 -56l-82 222l232 83v89l-150 -56l-82 221l232 84v265h297v-156l254 92l82 -219l-336 -123v-88l254 92l82 -219l-336 -123v-414q162 0 252 126t90 346z" />
    <glyph glyph-name="uni20A8" unicode="&#x20a8;" 
d="M1219 1198h-248q44 -53 59 -115h189v-215h-179q-10 -105 -84.5 -186.5t-191.5 -120.5q64 -28 116 -93.5t81 -156.5l98 -311h-342l-68 229q-47 159 -108.5 221t-180.5 62h-237v256h403q156 0 199 100h-602v215h596q-47 95 -193 95h-403v256h1096v-236z" />
    <glyph glyph-name="uni20A9" unicode="&#x20a9;" horiz-adv-x="1761" 
d="M1720 969h-219l-16 -113h235v-256h-272l-84 -600h-352l-125 600h-13l-124 -600h-353l-84 600h-272v256h235l-16 113h-219v256h182l-28 209h313l16 -209h713l16 209h314l-29 -209h182v-256zM545 969l8 -113h166l24 113h-198zM1208 856l9 113h-199l24 -113h166zM596 285
l68 315h-93zM1165 285l25 315h-92z" />
    <glyph glyph-name="Euro" unicode="&#x20ac;" horiz-adv-x="1470" 
d="M1081 537l287 -37q-32 -251 -190.5 -391t-399.5 -140q-212 0 -362 111.5t-217 310.5l-179 -18v241l134 15q-4 54 -4 86l-130 -13v242l156 17q55 235 211.5 369t390.5 134q238 0 396 -137.5t190 -370.5l-287 -43q-24 132 -103.5 203.5t-195.5 71.5q-198 0 -282 -195
l354 35v-242l-401 -41v-28q0 -40 2 -60l399 41v-241l-344 -35q83 -176 272 -176q118 0 198.5 73t104.5 218z" />
    <glyph glyph-name="uni20BD" unicode="&#x20bd;" horiz-adv-x="1540" 
d="M956 1434q212 0 347 -127.5t135 -327.5q0 -195 -143.5 -325t-358.5 -130h-330v-71h305v-256h-305v-197h-299v197h-225v256h225v92h-225v256h225v633h649zM934 801q92 0 149.5 50t57.5 128q0 83 -55 130.5t-152 47.5h-328v-356h328z" />
    <glyph glyph-name="uni20BF" unicode="&#x20bf;" horiz-adv-x="1402" 
d="M1311 422q0 -138 -81 -241.5t-222 -149.5v-297h-297v266h-93v-266h-296v266h-117v1434h117v256h296v-256h93v256h297v-301q110 -48 174.5 -137.5t64.5 -200.5q0 -91 -46.5 -165.5t-127.5 -117.5q110 -48 174 -139t64 -207zM502 1157v-274h274q87 0 132.5 35.5t45.5 103.5
q0 135 -178 135h-274zM791 276q107 0 164 46.5t57 132.5q0 83 -57 127.5t-164 44.5h-289v-351h289z" />
    <glyph glyph-name="uni2117" unicode="&#x2117;" horiz-adv-x="1331" 
d="M666 72q-244 0 -404 165.5t-160 419.5q0 167 72.5 300.5t201.5 208.5t290 75q244 0 403.5 -165t159.5 -419t-159.5 -419.5t-403.5 -165.5zM666 254q167 0 271.5 112t104.5 291t-104.5 290.5t-271.5 111.5t-272 -112t-105 -290q0 -179 105 -291t272 -112zM487 356v600h211
q111 0 172.5 -56.5t61.5 -158.5t-60.5 -156.5t-173.5 -54.5h-45v-174h-166zM653 662h52q61 0 61 79q0 80 -61 80h-52v-159z" />
    <glyph glyph-name="trademark" unicode="&#x2122;" horiz-adv-x="1433" 
d="M102 1280v154h519v-154h-172v-526h-175v526h-172zM1126 1434h205v-680h-160v358l-106 -358h-131l-107 358v-358h-159v680h204l127 -451z" />
    <glyph glyph-name="oneeighth" unicode="&#x215b;" horiz-adv-x="1740" 
d="M1083 1518l191 -86l-754 -1545l-190 80zM473 573h-209v617q-34 -37 -79.5 -62.5t-131.5 -54.5l-53 191q105 35 166.5 70t126.5 100h180v-861zM1573 461q59 -33 95 -91t36 -126q0 -109 -93 -185.5t-227 -76.5q-137 0 -228 76t-91 186q0 69 35.5 127.5t95.5 91.5
q-109 55 -109 172q0 100 87 172t210 72t210 -72t87 -172q0 -120 -108 -174zM1384 705q-88 0 -88 -80q0 -82 88 -82q89 0 89 82q0 38 -23.5 59t-65.5 21zM1384 176q52 0 81.5 25t29.5 69q0 43 -30 67.5t-81 24.5q-52 0 -81 -24.5t-29 -67.5q0 -44 28.5 -69t81.5 -25z" />
    <glyph glyph-name="threeeighths" unicode="&#x215c;" horiz-adv-x="1898" 
d="M1241 1518l191 -86l-754 -1545l-191 80zM692 856q0 -131 -91 -216t-230 -85q-143 0 -235 82t-105 221l207 33q15 -141 133 -141q54 0 83 28t29 82q0 55 -27 79t-87 24h-152v124l221 152h-350v195h588v-209l-211 -138q106 -8 166.5 -69t60.5 -162zM1731 461q59 -33 95 -91
t36 -126q0 -109 -93 -185.5t-227 -76.5q-137 0 -228 76t-91 186q0 69 35.5 127.5t95.5 91.5q-109 55 -109 172q0 100 87 172t210 72t210 -72t87 -172q0 -120 -108 -174zM1542 705q-88 0 -88 -80q0 -82 88 -82t88 82q0 38 -23.5 59t-64.5 21zM1542 176q52 0 81.5 25t29.5 69
q0 43 -30 67.5t-81 24.5q-52 0 -81 -24.5t-29 -67.5q0 -44 28.5 -69t81.5 -25z" />
    <glyph glyph-name="fiveeighths" unicode="&#x215d;" horiz-adv-x="1910" 
d="M1253 1518l191 -86l-754 -1545l-190 80zM715 868q0 -136 -95.5 -224.5t-236.5 -88.5q-129 0 -218 64.5t-124 181.5l197 65q22 -64 54 -90t91 -26q55 0 89 30.5t34 87.5q0 50 -33.5 80.5t-87.5 30.5q-68 0 -131 -57l-197 43l84 469h500v-195h-324l-22 -123q60 31 131 31
q123 0 206 -80t83 -199zM1743 461q59 -33 95 -91t36 -126q0 -109 -93 -185.5t-227 -76.5q-137 0 -228 76t-91 186q0 69 35.5 127.5t95.5 91.5q-109 55 -109 172q0 100 87 172t210 72t210 -72t87 -172q0 -120 -108 -174zM1554 705q-88 0 -88 -80q0 -82 88 -82t88 82
q0 38 -23.5 59t-64.5 21zM1554 176q52 0 81.5 25t29.5 69q0 43 -30 67.5t-81 24.5q-52 0 -81 -24.5t-29 -67.5q0 -44 28.5 -69t81.5 -25z" />
    <glyph glyph-name="arrowleft" unicode="&#x2190;" 
d="M1229 842v-269h-635q167 -125 248 -258l-224 -178q-230 334 -598 570q368 234 598 569l224 -178q-79 -130 -246 -256h633z" />
    <glyph glyph-name="arrowup" unicode="&#x2191;" 
d="M637 1350q235 -365 571 -598l-178 -217q-149 107 -250 237v-627h-288v627q-99 -126 -252 -237l-179 217q344 237 576 598z" />
    <glyph glyph-name="arrowright" unicode="&#x2192;" 
d="M672 1276q230 -335 598 -569q-368 -236 -598 -570l-223 178q82 134 247 258h-635v269h633q-166 124 -245 256z" />
    <glyph glyph-name="arrowdown" unicode="&#x2193;" 
d="M1030 961l178 -218q-336 -233 -571 -598q-232 361 -576 598l179 218q152 -110 252 -238v627h288v-627q102 133 250 238z" />
    <glyph glyph-name="arrowboth" unicode="&#x2194;" 
d="M961 1272q228 -334 595 -565q-368 -236 -595 -564l-216 170q94 145 254 265h-729q167 -126 256 -265l-215 -170q-236 335 -598 564q368 233 598 565l215 -172q-88 -140 -254 -262h725q-162 121 -252 262z" />
    <glyph glyph-name="arrowupdn" unicode="&#x2195;" 
d="M774 428q106 138 254 244l170 -209q-327 -230 -561 -596q-244 374 -565 596l172 209q149 -106 252 -242v637q-107 -140 -252 -244l-172 209q163 115 301.5 259t263.5 337q237 -372 561 -596l-170 -209q-149 108 -254 244v-639z" />
    <glyph glyph-name="uni2196" unicode="&#x2196;" 
d="M1147 403l-199 -196l-463 473q24 -177 -4 -361l-278 27q74 406 -19 828q428 -93 824 -19l28 -281q-183 -31 -362 -4z" />
    <glyph glyph-name="uni2197" unicode="&#x2197;" 
d="M1085 1174q-93 -420 -18 -828l-279 -27q-28 184 -4 361l-462 -473l-199 196l473 467q-180 -27 -363 4l29 281q395 -73 823 19z" />
    <glyph glyph-name="uni2198" unicode="&#x2198;" 
d="M1067 1102q-75 -408 18 -828q-428 92 -823 19l-29 280q186 31 363 5l-473 466l199 197l462 -473q-24 177 4 360z" />
    <glyph glyph-name="uni2199" unicode="&#x2199;" 
d="M674 578q176 26 362 -5l-28 -280q-396 74 -824 -19q93 422 19 828l278 26q28 -183 4 -360l463 473l199 -197z" />
    <glyph glyph-name="uni21B3" unicode="&#x21b3;" 
d="M672 1276q230 -335 598 -569q-368 -236 -598 -570l-223 178q82 134 247 258h-635v861h285v-592h348q-166 124 -245 256z" />
    <glyph glyph-name="partialdiff" unicode="&#x2202;" 
d="M635 1464q268 0 410.5 -192.5t142.5 -554.5q0 -364 -147 -556t-427 -192q-232 0 -382 149t-150 378q0 214 142 350t368 139q148 3 285 -59q-23 134 -82.5 198t-159.5 64q-52 0 -107 -27t-139 -94l-182 215q199 182 428 182zM614 246q131 0 197 90.5t78 288.5
q-131 84 -277 84q-114 0 -173.5 -57.5t-59.5 -166.5q0 -104 66 -171.5t169 -67.5z" />
    <glyph glyph-name="emptyset" unicode="&#x2205;" 
d="M1112 1094q148 -151 148 -377q0 -242 -167.5 -397.5t-426.5 -155.5q-169 0 -310 72l-129 -146l-131 109l123 141q-147 153 -147 377q0 242 167.5 397.5t426.5 155.5q166 0 307 -72l131 150l133 -113zM362 717q0 -92 48 -162l374 428q-53 21 -118 21q-135 0 -219.5 -80
t-84.5 -207zM666 430q135 0 219 79.5t84 207.5q0 92 -45 162l-379 -428q56 -21 121 -21z" />
    <glyph glyph-name="product" unicode="&#x220f;" 
d="M256 -246v1403h-215v277h1188v-277h-215v-1403h-297v1403h-164v-1403h-297z" />
    <glyph glyph-name="summation" unicode="&#x2211;" 
d="M143 -246v256l494 584l-494 584v256h983v-277h-589l467 -563l-467 -563h589v-277h-983z" />
    <glyph glyph-name="minus" unicode="&#x2212;" 
d="M184 547v297h901v-297h-901z" />
    <glyph glyph-name="radical" unicode="&#x221a;" 
d="M299 612h-279v277h486l129 -412l311 957h303l-485 -1434h-258z" />
    <glyph glyph-name="infinity" unicode="&#x221e;" 
d="M911 1161q146 0 247.5 -138t101.5 -343q0 -207 -101.5 -345t-247.5 -138q-90 0 -162.5 53.5t-113.5 130.5q-41 -77 -113.5 -130.5t-161.5 -53.5q-148 0 -249 137.5t-101 345.5q0 206 101.5 343.5t248.5 137.5q86 0 160 -56t115 -144q41 88 114.5 144t161.5 56zM391 455
q61 0 100 59t50 166q-11 109 -52.5 166t-97.5 57q-60 0 -98.5 -62.5t-38.5 -160.5q0 -99 38.5 -162t98.5 -63zM879 455q60 0 98.5 63t38.5 162q0 98 -38.5 160.5t-98.5 62.5q-56 0 -97.5 -57t-52.5 -166q11 -107 50 -166t100 -59z" />
    <glyph glyph-name="integral" unicode="&#x222b;" 
d="M956 1434h181v-277h-170q-51 0 -82 -8t-55.5 -31t-35 -67.5t-10.5 -116.5l-2 -916q0 -241 -126 -360t-343 -119h-180v277h170q51 0 82 8t55.5 31t34.5 67.5t10 116.5l2 915q0 241 126 360.5t343 119.5z" />
    <glyph glyph-name="approxequal" unicode="&#x2248;" 
d="M315 760l-245 80q47 171 138 252.5t234 81.5q62 0 123.5 -23.5t101.5 -51.5t85 -51.5t77 -23.5q44 0 72 33.5t53 116.5l246 -80q-47 -170 -138 -252t-233 -82q-63 0 -124.5 23.5t-101.5 52t-84.5 52t-76.5 23.5q-46 0 -73.5 -32.5t-53.5 -118.5zM315 270l-245 80
q47 171 138 252.5t234 81.5q62 0 123.5 -23.5t101.5 -51t85 -51t77 -23.5q44 0 72 33t53 116l246 -80q-47 -170 -138 -252t-233 -82q-63 0 -124.5 24t-101.5 52t-84.5 52t-76.5 24q-46 0 -73.5 -33t-53.5 -119z" />
    <glyph glyph-name="notequal" unicode="&#x2260;" 
d="M1085 793h-276l-102 -195h378v-297h-534l-127 -242l-182 93l77 149h-135v297h293l103 195h-396v297h551l117 223l180 -96l-67 -127h120v-297z" />
    <glyph glyph-name="lessequal" unicode="&#x2264;" 
d="M1112 1149l-612 -289l612 -289l-129 -249l-825 407v262l825 410zM158 0v276h944v-276h-944z" />
    <glyph glyph-name="greaterequal" unicode="&#x2265;" 
d="M287 1401l825 -410v-262l-825 -407l-129 249l612 289l-612 289zM168 0v276h944v-276h-944z" />
    <glyph glyph-name="lozenge" unicode="&#x25ca;" horiz-adv-x="1392" 
d="M547 0l-445 717l445 717h299l444 -717l-444 -717h-299zM696 276l269 441l-269 440l-268 -440z" />
    <glyph glyph-name="uniF8FF" unicode="&#xf8ff;" horiz-adv-x="1404" 
d="M102 -10v866q0 127 45.5 238t125 190t190.5 124.5t237 45.5q128 0 240 -45.5t191.5 -124.5t125.5 -190t46 -238v-866h-58l-133 133l-139 -133l-129 133l-146 -133l-141 133l-129 -133l-137 133l-135 -133h-54zM442 629q60 0 103 41.5t43 101.5q0 62 -42.5 105t-103.5 43
q-60 0 -102.5 -43.5t-42.5 -104.5q0 -59 42.5 -101t102.5 -42zM963 629q60 0 103.5 42.5t43.5 100.5q0 62 -43 105t-104 43q-60 0 -102 -43t-42 -105q0 -58 42.5 -100.5t101.5 -42.5z" />
    <glyph glyph-name="uniFEFF" unicode="&#xfeff;" horiz-adv-x="0" 
 />
    <glyph glyph-name="E.ss01" horiz-adv-x="1161" 
d="M143 0v1434h957v-277h-658v-274h592v-267h-592v-340h658v-276h-957z" />
    <glyph glyph-name="Eacute.ss01" horiz-adv-x="1161" 
d="M446 1536l199 305h356l-280 -305h-275zM143 0v1434h957v-277h-658v-274h592v-267h-592v-340h658v-276h-957z" />
    <glyph glyph-name="Ebreve.ss01" horiz-adv-x="1161" 
d="M623 1516q-136 0 -222 84t-86 206h179q10 -44 42 -71t87 -27t87 27t42 71h178q0 -122 -86 -206t-221 -84zM143 0v1434h957v-277h-658v-274h592v-267h-592v-340h658v-276h-957z" />
    <glyph glyph-name="Ecaron.ss01" horiz-adv-x="1161" 
d="M807 1536h-369l-147 182l192 144l140 -179l139 179l192 -144zM1100 1157h-658v-274h592v-267h-592v-340h658v-276h-957v1434h957v-277z" />
    <glyph glyph-name="uni0228.ss01" horiz-adv-x="1161" 
d="M1100 1157h-658v-274h592v-267h-592v-340h658v-276h-416l-53 -96q24 4 39 4q99 0 162 -57.5t63 -147.5q0 -98 -70.5 -158.5t-185.5 -60.5q-95 0 -173 36.5t-124 100.5l141 113q31 -42 64 -60t78 -18q41 0 63.5 18.5t20.5 49.5q-2 28 -23.5 44.5t-58.5 16.5q-41 0 -88 -31
l-131 72l100 174h-365v1434h957v-277z" />
    <glyph glyph-name="Ecircumflex.ss01" horiz-adv-x="1161" 
d="M623 1673l-140 -178l-192 143l147 183h369l147 -183l-192 -143zM1100 1157h-658v-274h592v-267h-592v-340h658v-276h-957v1434h957v-277z" />
    <glyph glyph-name="uni1EC6.ss01" horiz-adv-x="1161" 
d="M623 1673l-140 -178l-192 143l147 183h369l147 -183l-192 -143zM1100 1157h-658v-274h592v-267h-592v-340h658v-276h-957v1434h957v-277zM473 -393v291h299v-291h-299z" />
    <glyph glyph-name="Edieresis.ss01" horiz-adv-x="1161" 
d="M225 1536v287h293v-287h-293zM727 1536v287h293v-287h-293zM143 0v1434h957v-277h-658v-274h592v-267h-592v-340h658v-276h-957z" />
    <glyph glyph-name="Edotaccent.ss01" horiz-adv-x="1161" 
d="M473 1536v291h299v-291h-299zM143 0v1434h957v-277h-658v-274h592v-267h-592v-340h658v-276h-957z" />
    <glyph glyph-name="uni1EB8.ss01" horiz-adv-x="1161" 
d="M143 0v1434h957v-277h-658v-274h592v-267h-592v-340h658v-276h-957zM473 -393v291h299v-291h-299z" />
    <glyph glyph-name="Egrave.ss01" horiz-adv-x="1161" 
d="M776 1536h-274l-281 305h357zM143 0v1434h957v-277h-658v-274h592v-267h-592v-340h658v-276h-957z" />
    <glyph glyph-name="Emacron.ss01" horiz-adv-x="1161" 
d="M254 1536v211h737v-211h-737zM143 0v1434h957v-277h-658v-274h592v-267h-592v-340h658v-276h-957z" />
    <glyph glyph-name="Eogonek.ss01" horiz-adv-x="1161" 
d="M1032 -201l82 -192q-148 -68 -272 -68q-130 0 -205.5 56t-75.5 153q0 77 41.5 138t132.5 114h-592v1434h957v-277h-658v-274h592v-267h-592v-340h658v-276h-121q-205 -122 -205 -199q0 -51 78 -51q66 0 180 49z" />
    <glyph glyph-name="uni018E.ss01" horiz-adv-x="1161" 
d="M1018 0h-957v276h658v340h-592v267h592v274h-658v277h957v-1434z" />
    <glyph glyph-name="uni1EBC.ss01" horiz-adv-x="1161" 
d="M772 1526q-51 0 -100 21.5t-89.5 43t-70.5 21.5q-58 0 -70 -76h-178q6 138 60 211.5t151 73.5q51 0 99.5 -21t88.5 -42t70 -21q59 0 70 73h178q-4 -137 -58.5 -210.5t-150.5 -73.5zM143 0v1434h957v-277h-658v-274h592v-267h-592v-340h658v-276h-957z" />
    <glyph glyph-name="F.ss01" horiz-adv-x="1140" 
d="M143 0v1434h957v-277h-658v-299h592v-276h-592v-582h-299z" />
    <glyph glyph-name="G.ss01" horiz-adv-x="1335" 
d="M645 764h639v-272q0 -148 -78 -268t-214 -187.5t-302 -67.5q-292 0 -460.5 204t-168.5 544t168.5 543.5t460.5 203.5q238 0 396 -137.5t190 -370.5l-287 -43q-24 132 -103.5 203.5t-195.5 71.5q-159 0 -244.5 -126t-85.5 -345t85.5 -345t244.5 -126q127 0 213 69t92 183
h-350v266z" />
    <glyph glyph-name="Gbreve.ss01" horiz-adv-x="1335" 
d="M690 1546q-135 0 -221 84t-86 207h178q10 -44 42 -71t87 -27t87 27t42 71h178q0 -123 -86 -207t-221 -84zM645 764h639v-272q0 -148 -78 -268t-214 -187.5t-302 -67.5q-292 0 -460.5 204t-168.5 544t168.5 543.5t460.5 203.5q238 0 396 -137.5t190 -370.5l-287 -43
q-24 132 -103.5 203.5t-195.5 71.5q-159 0 -244.5 -126t-85.5 -345t85.5 -345t244.5 -126q127 0 213 69t92 183h-350v266z" />
    <glyph glyph-name="Gcircumflex.ss01" horiz-adv-x="1335" 
d="M690 1704l-139 -178l-193 143l148 182h368l148 -182l-193 -143zM645 764h639v-272q0 -148 -78 -268t-214 -187.5t-302 -67.5q-292 0 -460.5 204t-168.5 544t168.5 543.5t460.5 203.5q238 0 396 -137.5t190 -370.5l-287 -43q-24 132 -103.5 203.5t-195.5 71.5
q-159 0 -244.5 -126t-85.5 -345t85.5 -345t244.5 -126q127 0 213 69t92 183h-350v266z" />
    <glyph glyph-name="Gcommaaccent.ss01" horiz-adv-x="1335" 
d="M645 764h639v-272q0 -148 -78 -268t-214 -187.5t-302 -67.5q-292 0 -460.5 204t-168.5 544t168.5 543.5t460.5 203.5q238 0 396 -137.5t190 -370.5l-287 -43q-24 132 -103.5 203.5t-195.5 71.5q-159 0 -244.5 -126t-85.5 -345t85.5 -345t244.5 -126q127 0 213 69t92 183
h-350v266zM537 -401v268h307v-225q0 -132 -72.5 -208.5t-210.5 -86.5v135q56 10 76 36t20 81h-120z" />
    <glyph glyph-name="Gdotaccent.ss01" horiz-adv-x="1335" 
d="M840 1858v-291h-299v291h299zM645 764h639v-272q0 -148 -78 -268t-214 -187.5t-302 -67.5q-292 0 -460.5 204t-168.5 544t168.5 543.5t460.5 203.5q238 0 396 -137.5t190 -370.5l-287 -43q-24 132 -103.5 203.5t-195.5 71.5q-159 0 -244.5 -126t-85.5 -345t85.5 -345
t244.5 -126q127 0 213 69t92 183h-350v266z" />
    <glyph glyph-name="J.ss01" horiz-adv-x="1163" 
d="M289 483q18 -130 71 -183.5t156 -53.5q217 0 217 295v893h297v-906q0 -260 -136.5 -409.5t-369.5 -149.5q-230 0 -366 123.5t-158 358.5z" />
    <glyph glyph-name="Jcircumflex.ss01" horiz-adv-x="1163" 
d="M883 1673l-140 -178l-192 143l147 183h369l147 -183l-192 -143zM733 541v893h297v-906q0 -260 -136.5 -409.5t-369.5 -149.5q-230 0 -366 123.5t-158 358.5l289 32q18 -130 71 -183.5t156 -53.5q217 0 217 295z" />
    <glyph glyph-name="M.ss01" horiz-adv-x="1761" 
d="M1225 1434h393v-1434h-272v1004l-351 -1004h-231l-350 1004v-1004h-271v1434h394l342 -1008z" />
    <glyph glyph-name="Q.ss01" horiz-adv-x="1380" 
d="M1319 717q0 -301 -134 -497.5t-372 -239.5q9 -69 67.5 -98t180.5 -29v-246q-254 0 -391 99.5t-146 283.5q-219 54 -341 247t-122 480q0 340 168.5 543.5t460.5 203.5t460.5 -203.5t168.5 -543.5zM690 246q159 0 244.5 126t85.5 345t-85.5 345t-244.5 126t-244.5 -126
t-85.5 -345t85.5 -345t244.5 -126z" />
    <glyph glyph-name="R.ss01" horiz-adv-x="1339" 
d="M1278 0h-332l-291 553h-213v-553h-299v1434h627q202 0 338.5 -126.5t136.5 -318.5q0 -138 -74 -243.5t-200 -155.5zM442 1157v-328h310q93 0 144.5 42.5t51.5 117.5q0 78 -52 123t-144 45h-310z" />
    <glyph glyph-name="Racute.ss01" horiz-adv-x="1339" 
d="M1008 1841l-281 -305h-274l198 305h357zM1278 0h-332l-291 553h-213v-553h-299v1434h627q202 0 338.5 -126.5t136.5 -318.5q0 -138 -74 -243.5t-200 -155.5zM442 1157v-328h310q93 0 144.5 42.5t51.5 117.5q0 78 -52 123t-144 45h-310z" />
    <glyph glyph-name="Rcaron.ss01" horiz-adv-x="1339" 
d="M813 1536h-369l-147 182l192 144l140 -179l139 179l193 -144zM1278 0h-332l-291 553h-213v-553h-299v1434h627q202 0 338.5 -126.5t136.5 -318.5q0 -138 -74 -243.5t-200 -155.5zM442 1157v-328h310q93 0 144.5 42.5t51.5 117.5q0 78 -52 123t-144 45h-310z" />
    <glyph glyph-name="Rcommaaccent.ss01" horiz-adv-x="1339" 
d="M971 590l307 -590h-332l-291 553h-213v-553h-299v1434h627q202 0 338.5 -126.5t136.5 -318.5q0 -138 -74 -243.5t-200 -155.5zM442 1157v-328h310q93 0 144.5 42.5t51.5 117.5q0 78 -52 123t-144 45h-310zM516 -371v269h307v-226q0 -132 -72 -208.5t-210 -86.5v136
q56 10 76 35.5t20 80.5h-121z" />
    <glyph glyph-name="W.ss01" horiz-adv-x="1863" 
d="M1538 1434h285l-285 -1434h-283l-323 975l-322 -975h-282l-287 1434h287l188 -930l311 932h209l314 -934z" />
    <glyph glyph-name="Wacute.ss01" horiz-adv-x="1863" 
d="M1313 1841l-281 -305h-274l198 305h357zM1538 1434h285l-285 -1434h-283l-323 975l-322 -975h-282l-287 1434h287l188 -930l311 932h209l314 -934z" />
    <glyph glyph-name="Wcircumflex.ss01" horiz-adv-x="1863" 
d="M934 1673l-139 -178l-193 143l148 183h368l148 -183l-193 -143zM1538 1434h285l-285 -1434h-283l-323 975l-322 -975h-282l-287 1434h287l188 -930l311 932h209l314 -934z" />
    <glyph glyph-name="Wdieresis.ss01" horiz-adv-x="1863" 
d="M829 1823v-287h-292v287h292zM1331 1823v-287h-293v287h293zM1538 1434h285l-285 -1434h-283l-323 975l-322 -975h-282l-287 1434h287l188 -930l311 932h209l314 -934z" />
    <glyph glyph-name="Wgrave.ss01" horiz-adv-x="1863" 
d="M1087 1536h-274l-281 305h357zM1538 1434h285l-285 -1434h-283l-323 975l-322 -975h-282l-287 1434h287l188 -930l311 932h209l314 -934z" />
    <glyph glyph-name="Adieresis.ss03" horiz-adv-x="1443" 
d="M1137 0l-125 311h-582l-125 -311h-305l461 1124h67v164l60 146h266l61 -146v-164h66l463 -1124h-307zM485 1434v-267h-272v267h272zM1231 1434v-267h-273v267h273zM535 571h372l-186 463z" />
    <glyph glyph-name="Odieresis.ss03" horiz-adv-x="1380" 
d="M690 -31q-292 0 -460.5 204t-168.5 544q0 238 89 418h239v258q130 71 301 71t301 -71v-258h240q88 -178 88 -418q0 -340 -168.5 -544t-460.5 -204zM84 1174v260h266v-260h-266zM1030 1174v260h266v-260h-266zM690 246q159 0 244.5 126t85.5 345t-85.5 345t-244.5 126
t-244.5 -126t-85.5 -345t85.5 -345t244.5 -126z" />
    <glyph glyph-name="Udieresis.ss03" horiz-adv-x="1445" 
d="M133 528v906h189v-299h110v-594q0 -155 75.5 -225t217.5 -70q141 0 216 70t75 225v594h100v299h197v-906q0 -181 -75.5 -308.5t-206.5 -189t-306 -61.5q-268 0 -430 145t-162 414zM360 1174v260h267v-260h-267zM811 1174v260h266v-260h-266z" />
    <glyph glyph-name="i.loclTRK" horiz-adv-x="532" 
d="M117 1208v291h299v-291h-299zM123 0v1085h287v-1085h-287z" />
    <glyph glyph-name="a.ordn" horiz-adv-x="700" 
d="M684 946l16 -164q-76 -8 -92 -8q-105 0 -141 82q-56 -90 -195 -90q-105 0 -171 55.5t-66 143.5q0 79 53.5 127t167.5 71q104 22 131 33.5t27 34.5q0 24 -24.5 39.5t-61.5 15.5q-49 0 -83 -25.5t-40 -66.5l-174 27q12 98 96.5 162.5t200.5 64.5q121 0 193.5 -62.5
t72.5 -166.5v-224q0 -28 10 -40.5t33 -12.5q22 0 47 4zM414 1016v67q-20 -20 -103 -47q-56 -17 -75 -30t-19 -35q0 -43 72 -43q51 0 88 26.5t37 61.5z" />
    <glyph glyph-name="b.ordn" horiz-adv-x="729" 
d="M403 1448q132 0 213.5 -94.5t81.5 -249.5t-81.5 -249.5t-213.5 -94.5q-50 0 -93 19t-68 50v-51h-181v860h191v-237q60 47 151 47zM375 936q62 0 97.5 45t35.5 123t-35.5 123t-97.5 45q-52 0 -87.5 -31t-35.5 -76v-123q0 -45 35 -75.5t88 -30.5z" />
    <glyph glyph-name="c.ordn" horiz-adv-x="669" 
d="M350 760q-147 0 -233 92t-86 252t86 252t233 92q112 0 193 -64t102 -180l-182 -39q-10 53 -40.5 80t-72.5 27q-70 0 -99.5 -43t-29.5 -125t29.5 -125t99.5 -43q46 0 76.5 32t36.5 81l186 -35q-17 -120 -100.5 -187t-198.5 -67z" />
    <glyph glyph-name="d.ordn" horiz-adv-x="729" 
d="M477 1638h191v-860h-183v47q-25 -29 -68.5 -47t-90.5 -18q-133 0 -214 94t-81 250t81 250t214 94q91 0 151 -47v237zM477 1042v123q0 44 -36 75.5t-89 31.5q-61 0 -96 -45.5t-35 -122.5q0 -78 35.5 -123t97.5 -45q53 0 88 31t35 75z" />
    <glyph glyph-name="e.ordn" horiz-adv-x="688" 
d="M215 1040q19 -118 129 -118q91 0 168 88l121 -119q-113 -131 -287 -131q-146 0 -230.5 92.5t-84.5 251.5q0 153 86.5 248.5t226.5 95.5q138 0 225.5 -95.5t87.5 -248.5v-64h-442zM344 1288q-56 0 -91 -29.5t-40 -76.5h260q-6 53 -40.5 79.5t-88.5 26.5z" />
    <glyph glyph-name="f.ordn" horiz-adv-x="530" 
d="M133 778v475h-133v177h133v51q0 94 55.5 149.5t151.5 55.5q91 0 190 -52l-65 -147q-66 29 -98 29q-43 0 -43 -54v-32h186v-177h-186v-475h-191z" />
    <glyph glyph-name="g.ordn" horiz-adv-x="706" 
d="M461 879q106 -7 166.5 -60.5t60.5 -132.5q0 -203 -336 -203q-163 0 -247.5 51.5t-84.5 139.5q0 78 78 127q-51 48 -51 114q0 34 21.5 67t60.5 56q-70 67 -70 164q0 106 82.5 176t212.5 70q61 0 107 -14q47 105 188 143l51 -139q-90 -26 -127 -66q76 -70 76 -170
q0 -106 -82.5 -176t-212.5 -70q-68 0 -129 23q-24 -13 -24 -35q0 -46 114 -55zM354 1292q-55 0 -88 -26t-33 -64t33 -64t88 -26t88 26t33 64t-33 64t-88 26zM352 639q162 0 162 55q0 39 -82 45l-192 15q-41 -20 -41 -56q0 -59 153 -59z" />
    <glyph glyph-name="h.ordn" horiz-adv-x="737" 
d="M426 1448q104 0 179 -78t75 -207v-385h-191v359q0 67 -32.5 101t-85.5 34q-54 0 -86.5 -36t-32.5 -95v-363h-191v860h191v-258q65 68 174 68z" />
    <glyph glyph-name="i.ordn" horiz-adv-x="311" 
d="M59 1499v187h193v-187h-193zM61 778v652h191v-652h-191z" />
    <glyph glyph-name="j.ordn" horiz-adv-x="473" 
d="M401 1686v-187h-192v187h192zM412 1430v-631q0 -115 -71 -184.5t-183 -69.5q-94 0 -189 28l45 168q73 -20 115 -20t67 24.5t25 69.5v438h-203v177h394z" />
    <glyph glyph-name="k.ordn" horiz-adv-x="690" 
d="M479 778l-149 248l-78 -92v-156h-191v860h191v-458l197 250h235l-233 -275l239 -377h-211z" />
    <glyph glyph-name="l.ordn" horiz-adv-x="313" 
d="M61 778v860h191v-860h-191z" />
    <glyph glyph-name="m.ordn" horiz-adv-x="1081" 
d="M766 1448q124 0 191 -76.5t67 -216.5v-377h-190v383q0 51 -25.5 81t-71.5 30q-45 0 -71.5 -30t-26.5 -77v-387h-190v383q0 54 -26.5 82.5t-70.5 28.5t-72 -28.5t-28 -78.5v-387h-191v652h181v-58q56 76 168 76q52 0 98 -22t76 -58q31 37 79.5 58.5t102.5 21.5z" />
    <glyph glyph-name="n.ordn" horiz-adv-x="737" 
d="M426 1448q104 0 179 -78t75 -207v-385h-191v359q0 67 -32.5 101t-85.5 34q-54 0 -86.5 -36t-32.5 -95v-363h-191v652h181v-62q63 80 184 80z" />
    <glyph glyph-name="o.ordn" horiz-adv-x="710" 
d="M354 760q-148 0 -235.5 92t-87.5 252t87.5 252t235.5 92q149 0 237.5 -92.5t88.5 -251.5t-88.5 -251.5t-237.5 -92.5zM354 936q70 0 102.5 46t32.5 122t-32.5 122t-102.5 46q-68 0 -100.5 -45.5t-32.5 -122.5t32.5 -122.5t100.5 -45.5z" />
    <glyph glyph-name="p.ordn" horiz-adv-x="720" 
d="M399 1448q132 0 211.5 -94.5t79.5 -249.5t-79.5 -249.5t-211.5 -94.5q-90 0 -147 57v-315h-191v928h181v-37q55 55 157 55zM371 936q61 0 95 44.5t34 123.5t-34 123.5t-95 44.5q-52 0 -85.5 -31t-33.5 -76v-123q0 -45 33.5 -75.5t85.5 -30.5z" />
    <glyph glyph-name="q.ordn" horiz-adv-x="720" 
d="M479 1430h180v-928h-190v315q-57 -57 -147 -57q-131 0 -211 94t-80 250q0 155 79.5 249.5t211.5 94.5q102 0 157 -55v37zM350 938q53 0 86 29.5t33 74.5v123q0 45 -33.5 75t-85.5 30q-61 0 -95 -44.5t-34 -121.5q0 -78 34.5 -122t94.5 -44z" />
    <glyph glyph-name="r.ordn" horiz-adv-x="516" 
d="M381 1448q68 0 139 -43l-80 -166q-58 33 -104 33q-40 0 -62 -23.5t-22 -66.5v-404h-191v652h168v-58q24 36 65 56t87 20z" />
    <glyph glyph-name="s.ordn" horiz-adv-x="675" 
d="M360 760q-126 0 -216.5 61.5t-116.5 169.5l168 41q19 -60 58 -86t107 -26q115 0 115 51q0 19 -30 30.5t-75 17t-97.5 19t-97.5 32.5t-75 60.5t-30 100.5q0 98 73 157.5t187 59.5q103 0 190.5 -54.5t114.5 -142.5l-164 -51q-17 43 -54.5 65.5t-86.5 22.5q-32 0 -56 -14.5
t-24 -36.5q0 -23 41.5 -35t101 -22t119.5 -27t101.5 -61.5t41.5 -114.5q0 -100 -79 -158.5t-216 -58.5z" />
    <glyph glyph-name="t.ordn" horiz-adv-x="536" 
d="M133 1585l191 53v-208h186v-177h-186v-260q0 -57 57 -57q50 0 111 22l45 -170q-104 -28 -177 -28q-102 0 -164.5 59.5t-62.5 157.5v276h-133v177h133v155z" />
    <glyph glyph-name="u.ordn" horiz-adv-x="724" 
d="M473 1430h191v-652h-181v64q-63 -82 -174 -82q-113 0 -182.5 74.5t-69.5 205.5v390h191v-363q0 -64 32 -97.5t82 -33.5q49 0 80 36t31 93v365z" />
    <glyph glyph-name="v.ordn" horiz-adv-x="686" 
d="M258 778l-258 652h211l133 -392l131 392h211l-258 -652h-170z" />
    <glyph glyph-name="w.ordn" horiz-adv-x="952" 
d="M766 1430h186l-170 -652h-207l-100 340l-98 -340h-209l-168 652h186l97 -390l114 390h158l113 -390z" />
    <glyph glyph-name="x.ordn" horiz-adv-x="653" 
d="M653 1430l-211 -326l211 -326h-215l-112 191l-113 -191h-213l209 326l-209 326h213l113 -193l112 193h215z" />
    <glyph glyph-name="y.ordn" horiz-adv-x="688" 
d="M481 1430h207l-317 -728q-28 -66 -70.5 -95t-116.5 -29q-52 0 -129 12l27 172q50 -6 74 -6q27 0 39 7.5t20 27.5l33 79l-248 560h209l135 -330z" />
    <glyph glyph-name="z.ordn" horiz-adv-x="675" 
d="M41 778v160l326 322h-314v170h570v-160l-326 -322h338v-170h-594z" />
    <glyph glyph-name="g.ss01" horiz-adv-x="1218" 
d="M819 1085h277v-1159q0 -182 -136.5 -300t-347.5 -118q-182 0 -313.5 93t-171.5 247l264 84q27 -80 83.5 -124t137.5 -44q86 0 141.5 51.5t55.5 131.5v125q-45 -47 -114.5 -75t-147.5 -28q-220 0 -353 157t-133 417q0 259 133 416t353 157q84 0 155 -25.5t117 -70.5v65z
M586 236q99 0 161 57.5t62 146.5v205q0 88 -62.5 146.5t-160.5 58.5q-110 0 -174 -82.5t-64 -224.5t64 -224.5t174 -82.5z" />
    <glyph glyph-name="gbreve.ss01" horiz-adv-x="1218" 
d="M547 1198q-135 0 -221 84t-86 207h178q10 -44 42 -71t87 -27t87 27t42 71h178q0 -123 -86 -207t-221 -84zM819 1085h277v-1159q0 -182 -136.5 -300t-347.5 -118q-182 0 -313.5 93t-171.5 247l264 84q27 -80 83.5 -124t137.5 -44q86 0 141.5 51.5t55.5 131.5v125
q-45 -47 -114.5 -75t-147.5 -28q-220 0 -353 157t-133 417q0 259 133 416t353 157q84 0 155 -25.5t117 -70.5v65zM586 236q99 0 161 57.5t62 146.5v205q0 88 -62.5 146.5t-160.5 58.5q-110 0 -174 -82.5t-64 -224.5t64 -224.5t174 -82.5z" />
    <glyph glyph-name="gcircumflex.ss01" horiz-adv-x="1218" 
d="M547 1356l-139 -178l-193 143l147 182h369l148 -182l-193 -143zM819 1085h277v-1159q0 -182 -136.5 -300t-347.5 -118q-182 0 -313.5 93t-171.5 247l264 84q27 -80 83.5 -124t137.5 -44q86 0 141.5 51.5t55.5 131.5v125q-45 -47 -114.5 -75t-147.5 -28q-220 0 -353 157
t-133 417q0 259 133 416t353 157q84 0 155 -25.5t117 -70.5v65zM586 236q99 0 161 57.5t62 146.5v205q0 88 -62.5 146.5t-160.5 58.5q-110 0 -174 -82.5t-64 -224.5t64 -224.5t174 -82.5z" />
    <glyph glyph-name="gcommaaccent.ss01" horiz-adv-x="1218" 
d="M700 1487v-268h-307v225q0 132 72.5 208.5t210.5 86.5v-135q-56 -10 -76 -36t-20 -81h120zM819 1085h277v-1159q0 -182 -136.5 -300t-347.5 -118q-182 0 -313.5 93t-171.5 247l264 84q27 -80 83.5 -124t137.5 -44q86 0 141.5 51.5t55.5 131.5v125q-45 -47 -114.5 -75
t-147.5 -28q-220 0 -353 157t-133 417q0 259 133 416t353 157q84 0 155 -25.5t117 -70.5v65zM586 236q99 0 161 57.5t62 146.5v205q0 88 -62.5 146.5t-160.5 58.5q-110 0 -174 -82.5t-64 -224.5t64 -224.5t174 -82.5z" />
    <glyph glyph-name="gdotaccent.ss01" horiz-adv-x="1218" 
d="M696 1509v-290h-299v290h299zM819 1085h277v-1159q0 -182 -136.5 -300t-347.5 -118q-182 0 -313.5 93t-171.5 247l264 84q27 -80 83.5 -124t137.5 -44q86 0 141.5 51.5t55.5 131.5v125q-45 -47 -114.5 -75t-147.5 -28q-220 0 -353 157t-133 417q0 259 133 416t353 157
q84 0 155 -25.5t117 -70.5v65zM586 236q99 0 161 57.5t62 146.5v205q0 88 -62.5 146.5t-160.5 58.5q-110 0 -174 -82.5t-64 -224.5t64 -224.5t174 -82.5z" />
    <glyph glyph-name="j.ss01" horiz-adv-x="894" 
d="M479 1208v291h299v-291h-299zM322 -492q-166 0 -283.5 85t-161.5 225l270 100q29 -75 69 -109t97 -34q83 0 127.5 56.5t44.5 160.5v827h-448v266h735v-1114q0 -209 -124 -336t-326 -127z" />
    <glyph glyph-name="uni0237.ss01" horiz-adv-x="894" 
d="M322 -492q-166 0 -283.5 85t-161.5 225l270 100q29 -75 69 -109t97 -34q83 0 127.5 56.5t44.5 160.5v827h-448v266h735v-1114q0 -209 -124 -336t-326 -127z" />
    <glyph glyph-name="jcircumflex.ss01" horiz-adv-x="894" 
d="M629 1325l-140 -178l-192 143l147 183h369l148 -183l-193 -143zM37 819v266h735v-1114q0 -209 -124 -336t-326 -127q-166 0 -283.5 85t-161.5 225l270 100q29 -75 69 -109t97 -34q83 0 127.5 56.5t44.5 160.5v827h-448z" />
    <glyph glyph-name="r.ss01" horiz-adv-x="927" 
d="M602 1116q141 0 233.5 -117.5t102.5 -312.5l-283 -31q-18 195 -137 195q-108 0 -108 -176v-674h-287v1085h256v-96q37 59 96.5 93t126.5 34z" />
    <glyph glyph-name="racute.ss01" horiz-adv-x="927" 
d="M858 1524l-280 -305h-275l199 305h356zM602 1116q141 0 233.5 -117.5t102.5 -312.5l-283 -31q-18 195 -137 195q-108 0 -108 -176v-674h-287v1085h256v-96q37 59 96.5 93t126.5 34z" />
    <glyph glyph-name="rcaron.ss01" horiz-adv-x="927" 
d="M664 1219h-369l-148 182l193 143l139 -178l139 178l193 -143zM602 1116q141 0 233.5 -117.5t102.5 -312.5l-283 -31q-18 195 -137 195q-108 0 -108 -176v-674h-287v1085h256v-96q37 59 96.5 93t126.5 34z" />
    <glyph glyph-name="rcommaaccent.ss01" horiz-adv-x="927" 
d="M602 1116q141 0 233.5 -117.5t102.5 -312.5l-283 -31q-18 195 -137 195q-108 0 -108 -176v-674h-287v1085h256v-96q37 59 96.5 93t126.5 34zM113 -371v269h307v-226q0 -132 -72.5 -208.5t-210.5 -86.5v136q56 10 76 35.5t20 80.5h-120z" />
    <glyph glyph-name="t.ss01" horiz-adv-x="878" 
d="M229 1434h287v-349h318v-266h-318v-481q0 -102 102 -102q87 0 191 36l70 -256q-168 -47 -289 -47q-162 0 -261.5 94.5t-99.5 249.5v506h-229v266h229v349z" />
    <glyph glyph-name="tbar.ss01" horiz-adv-x="878" 
d="M809 272l70 -256q-168 -47 -289 -47q-162 0 -261.5 94.5t-99.5 249.5v146h-229v225h229v135h-229v266h229v349h287v-349h318v-266h-318v-135h315v-225h-315v-121q0 -102 102 -102q87 0 191 36z" />
    <glyph glyph-name="tcaron.ss01" horiz-adv-x="878" 
d="M657 1159v135q56 10 76.5 36t20.5 81h-121v268h307v-225q0 -132 -72.5 -208.5t-210.5 -86.5zM229 1434h287v-349h318v-266h-318v-481q0 -102 102 -102q87 0 191 36l70 -256q-168 -47 -289 -47q-162 0 -261.5 94.5t-99.5 249.5v506h-229v266h229v349z" />
    <glyph glyph-name="uni0163.ss01" horiz-adv-x="878" 
d="M608 -123q99 0 162.5 -57.5t63.5 -147.5q0 -98 -70.5 -158.5t-185.5 -60.5q-95 0 -173 36.5t-124 100.5l141 113q31 -42 63.5 -60t77.5 -18q41 0 63.5 18.5t20.5 49.5q-2 28 -23.5 44.5t-58.5 16.5q-42 0 -88 -30l-131 71l113 193q-107 34 -168.5 119.5t-61.5 205.5v506
h-229v266h229v349h287v-349h318v-266h-318v-481q0 -102 102 -102q87 0 191 36l70 -256q-144 -41 -254 -47l-56 -96q24 4 39 4z" />
    <glyph glyph-name="uni021B.ss01" horiz-adv-x="878" 
d="M229 1434h287v-349h318v-266h-318v-481q0 -102 102 -102q87 0 191 36l70 -256q-168 -47 -289 -47q-162 0 -261.5 94.5t-99.5 249.5v506h-229v266h229v349zM432 -653v135q56 10 76 36t20 81h-120v268h307v-225q0 -132 -72.5 -208.5t-210.5 -86.5z" />
    <glyph glyph-name="uni1E6D.ss01" horiz-adv-x="878" 
d="M229 1434h287v-349h318v-266h-318v-481q0 -102 102 -102q87 0 191 36l70 -256q-168 -47 -289 -47q-162 0 -261.5 94.5t-99.5 249.5v506h-229v266h229v349zM412 -424v291h299v-291h-299z" />
    <glyph glyph-name="a.ss02" horiz-adv-x="1228" 
d="M829 1085h277v-1085h-275v84q-45 -52 -119 -83.5t-159 -31.5q-222 0 -357 157.5t-135 416.5t135 416t357 157q170 0 276 -96v65zM819 440v205q0 88 -64 146.5t-163 58.5q-114 0 -179 -82t-65 -225t65 -225t179 -82q100 0 163.5 57.5t63.5 146.5z" />
    <glyph glyph-name="aacute.ss02" horiz-adv-x="1228" 
d="M973 1524l-281 -305h-274l198 305h357zM829 1085h277v-1085h-275v84q-45 -52 -119 -83.5t-159 -31.5q-222 0 -357 157.5t-135 416.5t135 416t357 157q170 0 276 -96v65zM819 440v205q0 88 -64 146.5t-163 58.5q-114 0 -179 -82t-65 -225t65 -225t179 -82
q100 0 163.5 57.5t63.5 146.5z" />
    <glyph glyph-name="abreve.ss02" horiz-adv-x="1228" 
d="M594 1198q-135 0 -221 84t-86 207h178q10 -44 42 -71t87 -27t87 27t42 71h178q0 -123 -86 -207t-221 -84zM829 1085h277v-1085h-275v84q-45 -52 -119 -83.5t-159 -31.5q-222 0 -357 157.5t-135 416.5t135 416t357 157q170 0 276 -96v65zM819 440v205q0 88 -64 146.5
t-163 58.5q-114 0 -179 -82t-65 -225t65 -225t179 -82q100 0 163.5 57.5t63.5 146.5z" />
    <glyph glyph-name="uni01CE.ss02" horiz-adv-x="1228" 
d="M778 1219h-368l-148 182l193 143l139 -178l139 178l193 -143zM829 1085h277v-1085h-275v84q-45 -52 -119 -83.5t-159 -31.5q-222 0 -357 157.5t-135 416.5t135 416t357 157q170 0 276 -96v65zM819 440v205q0 88 -64 146.5t-163 58.5q-114 0 -179 -82t-65 -225t65 -225
t179 -82q100 0 163.5 57.5t63.5 146.5z" />
    <glyph glyph-name="acircumflex.ss02" horiz-adv-x="1228" 
d="M594 1356l-139 -178l-193 143l148 182h368l148 -182l-193 -143zM829 1085h277v-1085h-275v84q-45 -52 -119 -83.5t-159 -31.5q-222 0 -357 157.5t-135 416.5t135 416t357 157q170 0 276 -96v65zM819 440v205q0 88 -64 146.5t-163 58.5q-114 0 -179 -82t-65 -225t65 -225
t179 -82q100 0 163.5 57.5t63.5 146.5z" />
    <glyph glyph-name="uni1EAD.ss02" horiz-adv-x="1228" 
d="M594 1356l-139 -178l-193 143l148 182h368l148 -182l-193 -143zM829 1085h277v-1085h-275v84q-45 -52 -119 -83.5t-159 -31.5q-222 0 -357 157.5t-135 416.5t135 416t357 157q170 0 276 -96v65zM819 440v205q0 88 -64 146.5t-163 58.5q-114 0 -179 -82t-65 -225t65 -225
t179 -82q100 0 163.5 57.5t63.5 146.5zM485 -393v291h299v-291h-299z" />
    <glyph glyph-name="adieresis.ss02" horiz-adv-x="1228" 
d="M489 1505v-286h-292v286h292zM991 1505v-286h-293v286h293zM829 1085h277v-1085h-275v84q-45 -52 -119 -83.5t-159 -31.5q-222 0 -357 157.5t-135 416.5t135 416t357 157q170 0 276 -96v65zM819 440v205q0 88 -64 146.5t-163 58.5q-114 0 -179 -82t-65 -225t65 -225
t179 -82q100 0 163.5 57.5t63.5 146.5z" />
    <glyph glyph-name="uni01DF.ss02" horiz-adv-x="1228" 
d="M963 1788v-211h-738v211h738zM489 1505v-286h-292v286h292zM698 1219v286h293v-286h-293zM829 1085h277v-1085h-275v84q-45 -52 -119 -83.5t-159 -31.5q-222 0 -357 157.5t-135 416.5t135 416t357 157q170 0 276 -96v65zM819 440v205q0 88 -64 146.5t-163 58.5
q-114 0 -179 -82t-65 -225t65 -225t179 -82q100 0 163.5 57.5t63.5 146.5z" />
    <glyph glyph-name="uni1EA1.ss02" horiz-adv-x="1228" 
d="M829 1085h277v-1085h-275v84q-45 -52 -119 -83.5t-159 -31.5q-222 0 -357 157.5t-135 416.5t135 416t357 157q170 0 276 -96v65zM819 440v205q0 88 -64 146.5t-163 58.5q-114 0 -179 -82t-65 -225t65 -225t179 -82q100 0 163.5 57.5t63.5 146.5zM444 -424v291h299v-291
h-299z" />
    <glyph glyph-name="agrave.ss02" horiz-adv-x="1228" 
d="M748 1219h-275l-280 305h356zM829 1085h277v-1085h-275v84q-45 -52 -119 -83.5t-159 -31.5q-222 0 -357 157.5t-135 416.5t135 416t357 157q170 0 276 -96v65zM819 440v205q0 88 -64 146.5t-163 58.5q-114 0 -179 -82t-65 -225t65 -225t179 -82q100 0 163.5 57.5
t63.5 146.5z" />
    <glyph glyph-name="amacron.ss02" horiz-adv-x="1228" 
d="M963 1430v-211h-738v211h738zM829 1085h277v-1085h-275v84q-45 -52 -119 -83.5t-159 -31.5q-222 0 -357 157.5t-135 416.5t135 416t357 157q170 0 276 -96v65zM819 440v205q0 88 -64 146.5t-163 58.5q-114 0 -179 -82t-65 -225t65 -225t179 -82q100 0 163.5 57.5
t63.5 146.5z" />
    <glyph glyph-name="aogonek.ss02" horiz-adv-x="1228" 
d="M1159 -201l82 -192q-148 -68 -272 -68q-130 0 -205.5 56t-75.5 153q0 77 41.5 138t132.5 114h-31v84q-45 -52 -119 -83.5t-159 -31.5q-222 0 -357 157.5t-135 416.5t135 416t357 157q170 0 276 -96v65h277v-1085q-205 -122 -205 -199q0 -51 78 -51q66 0 180 49zM819 440
v205q0 88 -64 146.5t-163 58.5q-114 0 -179 -82t-65 -225t65 -225t179 -82q100 0 163.5 57.5t63.5 146.5z" />
    <glyph glyph-name="aring.ss02" horiz-adv-x="1228" 
d="M858 1085h248v-1085h-275v84q-45 -52 -119 -83.5t-159 -31.5q-222 0 -357 157.5t-135 416.5q0 173 62.5 303.5t175.5 200.5q-68 71 -68 172q0 114 83.5 188t215.5 74q130 0 213.5 -74t83.5 -188q0 -89 -53 -158q56 -34 82 -72zM530 1321q-45 0 -72.5 -28.5t-27.5 -73.5
t27.5 -74t72.5 -29q44 0 71.5 29t27.5 74t-27.5 73.5t-71.5 28.5zM819 440v205q0 88 -64 146.5t-163 58.5q-114 0 -179 -82t-65 -225t65 -225t179 -82q100 0 163.5 57.5t63.5 146.5z" />
    <glyph glyph-name="aringacute.ss02" horiz-adv-x="1228" 
d="M858 1085h248v-1085h-275v84q-45 -52 -119 -83.5t-159 -31.5q-222 0 -357 157.5t-135 416.5q0 173 62.5 303.5t175.5 200.5q-68 71 -68 172q0 83 45.5 146t124.5 93l174 266h357l-254 -274q69 -32 109 -93.5t40 -137.5q0 -89 -53 -158q56 -34 82 -72zM530 1321
q-45 0 -72.5 -28.5t-27.5 -73.5t27.5 -74t72.5 -29q44 0 71.5 29t27.5 74t-27.5 73.5t-71.5 28.5zM819 440v205q0 88 -64 146.5t-163 58.5q-114 0 -179 -82t-65 -225t65 -225t179 -82q100 0 163.5 57.5t63.5 146.5z" />
    <glyph glyph-name="atilde.ss02" horiz-adv-x="1228" 
d="M483 1294q-57 0 -69 -75h-178q6 138 59.5 211t150.5 73q51 0 100 -21t89 -42t70 -21q57 0 69 74h178q-4 -137 -58.5 -211t-150.5 -74q-51 0 -100 21.5t-89.5 43t-70.5 21.5zM829 1085h277v-1085h-275v84q-45 -52 -119 -83.5t-159 -31.5q-222 0 -357 157.5t-135 416.5
t135 416t357 157q170 0 276 -96v65zM819 440v205q0 88 -64 146.5t-163 58.5q-114 0 -179 -82t-65 -225t65 -225t179 -82q100 0 163.5 57.5t63.5 146.5z" />
    <glyph glyph-name="f.ss04" horiz-adv-x="811" 
d="M229 0v819h-229v266h229v93q0 151 88.5 239t243.5 88q148 0 311 -88l-102 -221q-106 53 -174 53q-38 0 -59 -24t-21 -70v-70h250v-266h-250v-819h-287z" />
    <glyph glyph-name="g.ss04" horiz-adv-x="1132" 
d="M719 160q179 -18 277 -103.5t98 -212.5q0 -167 -137.5 -251.5t-395.5 -84.5q-259 0 -394.5 85.5t-135.5 230.5q0 61 33.5 118.5t99.5 98.5q-88 73 -88 188q0 60 35.5 113t99.5 90q-117 114 -117 275q0 176 136.5 292.5t351.5 116.5q93 0 182 -26q37 101 116 173t185 103
l88 -219q-171 -35 -240 -135q75 -57 116.5 -136.5t41.5 -168.5q0 -177 -136.5 -293.5t-352.5 -116.5q-122 0 -220 39q-45 -20 -45 -62q0 -40 46 -61.5t149 -32.5zM582 868q-97 0 -154 -45.5t-57 -115.5t57 -116t154 -46t155 46t58 116q0 69 -58 115t-155 46zM561 -244
q121 0 188.5 25.5t67.5 75.5q0 38 -37 56.5t-106 25.5l-283 26q-36 -15 -57 -42.5t-21 -59.5q0 -107 248 -107z" />
    <glyph glyph-name="gbreve.ss04" horiz-adv-x="1132" 
d="M541 1198q-135 0 -221.5 84.5t-86.5 206.5h179q10 -44 42 -71t87 -27t87 27t42 71h178q0 -123 -86 -207t-221 -84zM719 160q179 -18 277 -103.5t98 -212.5q0 -167 -137.5 -251.5t-395.5 -84.5q-259 0 -394.5 85.5t-135.5 230.5q0 61 33.5 118.5t99.5 98.5q-88 73 -88 188
q0 60 35.5 113t99.5 90q-117 114 -117 275q0 176 136.5 292.5t351.5 116.5q93 0 182 -26q37 101 116 173t185 103l88 -219q-171 -35 -240 -135q75 -57 116.5 -136.5t41.5 -168.5q0 -177 -136.5 -293.5t-352.5 -116.5q-122 0 -220 39q-45 -20 -45 -62q0 -40 46 -61.5
t149 -32.5zM582 868q-97 0 -154 -45.5t-57 -115.5t57 -116t154 -46t155 46t58 116q0 69 -58 115t-155 46zM561 -244q121 0 188.5 25.5t67.5 75.5q0 38 -37 56.5t-106 25.5l-283 26q-36 -15 -57 -42.5t-21 -59.5q0 -107 248 -107z" />
    <glyph glyph-name="gcircumflex.ss04" horiz-adv-x="1132" 
d="M541 1356l-140 -178l-192 143l147 182h369l147 -182l-192 -143zM719 160q179 -18 277 -103.5t98 -212.5q0 -167 -137.5 -251.5t-395.5 -84.5q-259 0 -394.5 85.5t-135.5 230.5q0 61 33.5 118.5t99.5 98.5q-88 73 -88 188q0 60 35.5 113t99.5 90q-117 114 -117 275
q0 176 136.5 292.5t351.5 116.5q93 0 182 -26q37 101 116 173t185 103l88 -219q-171 -35 -240 -135q75 -57 116.5 -136.5t41.5 -168.5q0 -177 -136.5 -293.5t-352.5 -116.5q-122 0 -220 39q-45 -20 -45 -62q0 -40 46 -61.5t149 -32.5zM582 868q-97 0 -154 -45.5t-57 -115.5
t57 -116t154 -46t155 46t58 116q0 69 -58 115t-155 46zM561 -244q121 0 188.5 25.5t67.5 75.5q0 38 -37 56.5t-106 25.5l-283 26q-36 -15 -57 -42.5t-21 -59.5q0 -107 248 -107z" />
    <glyph glyph-name="gcommaaccent.ss04" horiz-adv-x="1132" 
d="M694 1487v-268h-307v225q0 132 72.5 208.5t210.5 86.5v-135q-56 -10 -76.5 -36t-20.5 -81h121zM719 160q179 -18 277 -103.5t98 -212.5q0 -167 -137.5 -251.5t-395.5 -84.5q-259 0 -394.5 85.5t-135.5 230.5q0 61 33.5 118.5t99.5 98.5q-88 73 -88 188q0 60 35.5 113
t99.5 90q-117 114 -117 275q0 176 136.5 292.5t351.5 116.5q93 0 182 -26q37 101 116 173t185 103l88 -219q-171 -35 -240 -135q75 -57 116.5 -136.5t41.5 -168.5q0 -177 -136.5 -293.5t-352.5 -116.5q-122 0 -220 39q-45 -20 -45 -62q0 -40 46 -61.5t149 -32.5zM582 868
q-97 0 -154 -45.5t-57 -115.5t57 -116t154 -46t155 46t58 116q0 69 -58 115t-155 46zM561 -244q121 0 188.5 25.5t67.5 75.5q0 38 -37 56.5t-106 25.5l-283 26q-36 -15 -57 -42.5t-21 -59.5q0 -107 248 -107z" />
    <glyph glyph-name="gdotaccent.ss04" horiz-adv-x="1132" 
d="M690 1509v-290h-299v290h299zM719 160q179 -18 277 -103.5t98 -212.5q0 -167 -137.5 -251.5t-395.5 -84.5q-259 0 -394.5 85.5t-135.5 230.5q0 61 33.5 118.5t99.5 98.5q-88 73 -88 188q0 60 35.5 113t99.5 90q-117 114 -117 275q0 176 136.5 292.5t351.5 116.5
q93 0 182 -26q37 101 116 173t185 103l88 -219q-171 -35 -240 -135q75 -57 116.5 -136.5t41.5 -168.5q0 -177 -136.5 -293.5t-352.5 -116.5q-122 0 -220 39q-45 -20 -45 -62q0 -40 46 -61.5t149 -32.5zM582 868q-97 0 -154 -45.5t-57 -115.5t57 -116t154 -46t155 46t58 116
q0 69 -58 115t-155 46zM561 -244q121 0 188.5 25.5t67.5 75.5q0 38 -37 56.5t-106 25.5l-283 26q-36 -15 -57 -42.5t-21 -59.5q0 -107 248 -107z" />
    <glyph glyph-name="j.ss04" horiz-adv-x="817" 
d="M680 1499v-291h-299v291h299zM694 1085v-1056q0 -188 -112.5 -303t-298.5 -115q-98 0 -199 16l31 262q82 -12 127 -12q79 0 122.5 45.5t43.5 128.5v768h-347v266h633z" />
    <glyph glyph-name="uni0237.ss04" horiz-adv-x="817" 
d="M694 1085v-1056q0 -188 -112.5 -303t-298.5 -115q-98 0 -199 16l31 262q82 -12 127 -12q79 0 122.5 45.5t43.5 128.5v768h-347v266h633z" />
    <glyph glyph-name="jcircumflex.ss04" horiz-adv-x="817" 
d="M530 1325l-139 -178l-192 143l147 183h369l147 -183l-192 -143zM61 1085h633v-1056q0 -188 -112.5 -303t-298.5 -115q-98 0 -199 16l31 262q82 -12 127 -12q79 0 122.5 45.5t43.5 128.5v768h-347v266z" />
    <glyph glyph-name="r.ss04" horiz-adv-x="831" 
d="M629 1116q68 0 141 -20l-51 -275q-89 29 -154 29q-74 0 -114.5 -46t-40.5 -130v-674h-287v1085h256v-98q38 60 104.5 94.5t145.5 34.5z" />
    <glyph glyph-name="racute.ss04" horiz-adv-x="831" 
d="M848 1524l-281 -305h-274l199 305h356zM379 987q38 60 104.5 94.5t145.5 34.5q68 0 141 -20l-51 -275q-89 29 -154 29q-74 0 -114.5 -46t-40.5 -130v-674h-287v1085h256v-98z" />
    <glyph glyph-name="rcaron.ss04" horiz-adv-x="831" 
d="M653 1219h-368l-148 182l193 143l139 -178l139 178l193 -143zM379 987q38 60 104.5 94.5t145.5 34.5q68 0 141 -20l-51 -275q-89 29 -154 29q-74 0 -114.5 -46t-40.5 -130v-674h-287v1085h256v-98z" />
    <glyph glyph-name="rcommaaccent.ss04" horiz-adv-x="831" 
d="M629 1116q68 0 141 -20l-51 -275q-89 29 -154 29q-74 0 -114.5 -46t-40.5 -130v-674h-287v1085h256v-98q38 60 104.5 94.5t145.5 34.5zM143 -371v269h308v-226q0 -132 -72.5 -208.5t-210.5 -86.5v136q56 10 76 35.5t20 80.5h-121z" />
    <glyph glyph-name="t.ss04" horiz-adv-x="817" 
d="M229 1352l287 82v-349h252v-266h-252v-481q0 -102 102 -102q87 0 191 36l70 -256q-168 -47 -289 -47q-162 0 -261.5 94.5t-99.5 249.5v506h-229v266h229v267z" />
    <glyph glyph-name="tbar.ss04" horiz-adv-x="878" 
d="M809 272l70 -256q-168 -47 -289 -47q-162 0 -261.5 94.5t-99.5 249.5v146h-229v225h229v135h-229v266h229v267l287 82v-349h252v-266h-252v-135h240v-225h-240v-121q0 -102 102 -102q87 0 191 36z" />
    <glyph glyph-name="tcaron.ss04" horiz-adv-x="817" 
d="M647 1184v135q56 10 76 36t20 81h-120v268h307v-225q0 -132 -72.5 -208.5t-210.5 -86.5zM229 1352l287 82v-349h252v-266h-252v-481q0 -102 102 -102q87 0 191 36l70 -256q-168 -47 -289 -47q-162 0 -261.5 94.5t-99.5 249.5v506h-229v266h229v267z" />
    <glyph glyph-name="uni0163.ss04" horiz-adv-x="817" 
d="M616 -123q99 0 162.5 -57.5t63.5 -147.5q0 -98 -70.5 -158.5t-185.5 -60.5q-95 0 -173 36.5t-124 100.5l141 113q31 -42 63.5 -60t77.5 -18q41 0 63.5 18.5t20.5 49.5q-2 28 -23.5 44.5t-58.5 16.5q-42 0 -88 -30l-131 71l111 191q-109 33 -172.5 119.5t-63.5 207.5v506
h-229v266h229v267l287 82v-349h252v-266h-252v-481q0 -102 102 -102q87 0 191 36l70 -256q-152 -42 -246 -45l-55 -98q24 4 38 4z" />
    <glyph glyph-name="uni021B.ss04" horiz-adv-x="817" 
d="M229 1352l287 82v-349h252v-266h-252v-481q0 -102 102 -102q87 0 191 36l70 -256q-168 -47 -289 -47q-162 0 -261.5 94.5t-99.5 249.5v506h-229v266h229v267zM440 -653v135q56 10 76.5 36t20.5 81h-121v268h307v-225q0 -132 -72.5 -208.5t-210.5 -86.5z" />
    <glyph glyph-name="uni1E6D.ss04" horiz-adv-x="817" 
d="M229 1352l287 82v-349h252v-266h-252v-481q0 -102 102 -102q87 0 191 36l70 -256q-168 -47 -289 -47q-162 0 -261.5 94.5t-99.5 249.5v506h-229v266h229v267zM420 -424v291h299v-291h-299z" />
    <glyph glyph-name="zero.case" horiz-adv-x="1228" 
d="M614 -31q-267 0 -410 193t-143 555t143 554.5t410 192.5t410 -192.5t143 -554.5t-143 -555t-410 -193zM614 246q132 0 194 112.5t62 358.5t-62 358.5t-194 112.5t-194 -112.5t-62 -358.5t62 -358.5t194 -112.5z" />
    <glyph glyph-name="one.case" horiz-adv-x="942" 
d="M440 0v1042q-63 -57 -144 -97t-220 -83l-76 268q174 56 277 121t204 183h256v-1434h-297z" />
    <glyph glyph-name="two.case" horiz-adv-x="1241" 
d="M1159 983q0 -106 -33.5 -191t-88.5 -140.5t-123 -98.5t-141 -75.5t-137.5 -61t-117.5 -64t-76 -76.5h676v-276h-1007v154q0 96 25.5 174t69 131t100 95.5t119 73t124.5 58.5t118.5 56.5t100 62t69 81t25.5 107.5q0 86 -64 140.5t-169 54.5q-114 0 -183 -66t-69 -174
q0 -81 37 -174l-283 -82q-49 137 -49 254q0 228 153 373t394 145q232 0 381 -135t149 -346z" />
    <glyph glyph-name="three.case" horiz-adv-x="1159" 
d="M700 889q76 -9 142 -38.5t119.5 -80.5t84.5 -130t31 -177q0 -215 -146 -354.5t-374 -139.5q-236 0 -385.5 134t-171.5 366l293 43q13 -136 79 -201t185 -65q106 0 164.5 61.5t58.5 165.5q0 98 -61.5 152.5t-171.5 54.5h-244v207l377 270h-588v277h957l2 -297z" />
    <glyph glyph-name="four.case" horiz-adv-x="1259" 
d="M750 0v260h-689v281q208 209 325 420.5t159 472.5h309q-34 -263 -156 -504.5t-280 -392.5h332v323h297v-323h172v-277h-172v-260h-297z" />
    <glyph glyph-name="five.case" horiz-adv-x="1241" 
d="M690 950q213 0 351.5 -138.5t138.5 -344.5q0 -141 -72 -255.5t-196.5 -178.5t-274.5 -64q-211 0 -356.5 109.5t-198.5 300.5l280 88q33 -112 98.5 -166.5t176.5 -54.5q105 0 175.5 62t70.5 159q0 102 -64.5 166.5t-177.5 64.5q-133 0 -252 -116l-274 63l139 789h805v-277
h-555l-49 -266q100 59 235 59z" />
    <glyph glyph-name="six.case" horiz-adv-x="1208" 
d="M690 922q209 0 343 -131.5t134 -335.5q0 -100 -39.5 -190t-106 -154.5t-159.5 -103t-196 -38.5q-281 0 -432.5 170.5t-151.5 487.5q0 352 216.5 575.5t594.5 261.5l47 -274q-230 -25 -370.5 -118.5t-184.5 -250.5q113 101 305 101zM641 246q103 0 166 57.5t63 151.5
q0 95 -62.5 152t-166.5 57q-100 0 -164.5 -59t-64.5 -150q0 -92 64.5 -150.5t164.5 -58.5z" />
    <glyph glyph-name="seven.case" horiz-adv-x="1107" 
d="M20 1434h1067v-344q-179 -202 -281 -368.5t-150.5 -336t-57.5 -385.5h-332q8 190 65 396.5t170 414.5t263 346h-447v-213h-297v490z" />
    <glyph glyph-name="eight.case" horiz-adv-x="1181" 
d="M901 764q96 -55 152.5 -149.5t56.5 -206.5q0 -187 -148 -313t-370 -126q-225 0 -372.5 125.5t-147.5 313.5q0 112 56.5 206.5t152.5 149.5q-170 108 -170 299q0 169 139.5 285t341.5 116q132 0 242 -53t173.5 -145t63.5 -203q0 -191 -170 -299zM592 1190
q-87 0 -135.5 -43.5t-48.5 -120.5q0 -80 47.5 -123t136.5 -43q88 0 135 43t47 123q0 75 -49 119.5t-133 44.5zM592 246q103 0 162 51.5t59 140.5t-59 141t-162 52q-104 0 -163.5 -52t-59.5 -141t59.5 -140.5t163.5 -51.5z" />
    <glyph glyph-name="nine.case" horiz-adv-x="1208" 
d="M569 1464q252 0 404.5 -167.5t152.5 -444.5q0 -775 -780 -883l-39 275q204 31 334.5 123.5t181.5 242.5q-113 -96 -301 -96q-215 0 -348 129t-133 336q0 209 150.5 347t377.5 138zM567 770q103 0 166.5 57.5t63.5 151.5t-63.5 151.5t-166.5 57.5t-166 -57.5t-63 -151.5
q0 -101 59.5 -155t169.5 -54z" />
    <glyph glyph-name="one.ss01" horiz-adv-x="954" 
d="M463 0v1069l-402 -250v314l422 258h267v-1391h-287z" />
    <glyph glyph-name="two.ss01" horiz-adv-x="1208" 
d="M1126 971q0 -82 -25 -151.5t-67 -119t-97 -91t-115 -71.5t-120.5 -56.5t-115.5 -50t-97 -47.5t-67 -54.5t-25 -65.5h693v-264h-977v246q0 81 25 147t67 112t96.5 83.5t115 65t120.5 52.5t114.5 51t96.5 55t67 69t25 90q0 85 -57 134.5t-150 49.5q-128 0 -195.5 -75
t-70.5 -212l-285 11q3 243 154 392.5t397 149.5q214 0 353.5 -126t139.5 -324z" />
    <glyph glyph-name="three.ss01" horiz-adv-x="1128" 
d="M852 729q89 -43 142 -128.5t53 -190.5q0 -195 -133.5 -318t-348.5 -123q-213 0 -356.5 129.5t-167.5 352.5l281 49q12 -133 74.5 -198.5t168.5 -65.5q95 0 145 47.5t50 136.5q0 160 -193 160h-137v256h150q81 0 123 40t42 117q0 75 -48.5 118.5t-133.5 43.5
q-101 0 -154.5 -56.5t-58.5 -158.5l-287 23q17 211 155 334.5t345 123.5q198 0 332.5 -115t134.5 -284q0 -92 -46.5 -167.5t-131.5 -125.5z" />
    <glyph glyph-name="four.ss01" horiz-adv-x="1263" 
d="M1022 518h201v-266h-201v-252h-287v252h-674v246l662 893h299v-873zM389 518h346v479z" />
    <glyph glyph-name="six.ss01" horiz-adv-x="1193" 
d="M678 903q202 0 338.5 -134.5t136.5 -328.5q0 -195 -143.5 -333t-352.5 -138q-271 0 -423 187t-152 508q0 225 71 397t199 266t295 94q186 0 314 -106t165 -291l-264 -59q-20 92 -76 141t-139 49q-115 0 -193 -103t-87 -261q129 112 311 112zM653 236q89 0 151 58.5
t62 145.5q0 88 -63.5 147.5t-161.5 59.5t-161.5 -59.5t-63.5 -147.5q0 -90 63.5 -147t173.5 -57z" />
    <glyph glyph-name="seven.ss01" horiz-adv-x="1095" 
d="M219 0l522 1124h-413v-206h-287v473h1014v-273l-518 -1118h-318z" />
    <glyph glyph-name="nine.ss01" horiz-adv-x="1165" 
d="M532 1421q113 0 211 -43t175 -127.5t121 -222.5t44 -315q0 -187 -40 -331t-112.5 -233t-167.5 -134.5t-210 -45.5q-177 0 -305.5 106t-163.5 290l266 61q19 -97 67 -143.5t136 -46.5q107 0 174 89t74 275q-99 -113 -287 -113q-64 0 -129 17t-127 54t-110 89.5t-77.5 131
t-29.5 171.5q0 205 136 338t355 133zM539 743q91 0 150 56.5t59 150.5q0 91 -63 148t-155 57t-148 -55.5t-56 -149.5t59.5 -150.5t153.5 -56.5z" />
    <glyph glyph-name="one.ss01.case" horiz-adv-x="976" 
d="M475 0v1102l-414 -256v321l435 267h276v-1434h-297z" />
    <glyph glyph-name="two.ss01.case" horiz-adv-x="1243" 
d="M1161 999q0 -107 -41.5 -193.5t-107.5 -142t-145.5 -100t-159.5 -76.5t-146 -62t-107.5 -67.5t-41.5 -81.5h710v-276h-1009v256q0 93 32.5 167.5t85 122.5t120 89t138 68t138 58t120 61t85 75.5t32.5 101.5q0 88 -59 138.5t-156 50.5q-131 0 -199 -76t-71 -217l-297 10
q3 253 158.5 406t408.5 153q223 0 367.5 -129.5t144.5 -335.5z" />
    <glyph glyph-name="three.ss01.case" horiz-adv-x="1161" 
d="M879 752q91 -43 145.5 -132t54.5 -198q0 -201 -137 -327t-358 -126q-224 0 -371 134.5t-172 361.5l293 51q12 -133 75.5 -201.5t174.5 -68.5q97 0 147.5 47.5t50.5 138.5q0 164 -198 164h-142v266h154q170 0 170 160q0 78 -49 122t-135 44q-103 0 -158.5 -56t-61.5 -165
l-299 24q17 215 158 344t361 129q204 0 342.5 -118t138.5 -291q0 -194 -184 -303z" />
    <glyph glyph-name="four.ss01.case" horiz-adv-x="1300" 
d="M1053 537h207v-277h-207v-260h-297v260h-695v252l682 922h310v-897zM401 537h355v489z" />
    <glyph glyph-name="six.ss01.case" horiz-adv-x="1228" 
d="M698 932q209 0 349.5 -138t140.5 -339q0 -98 -39.5 -187.5t-107 -155t-162.5 -104.5t-201 -39q-281 0 -438.5 193t-157.5 522q0 352 162 566t424 214q192 0 323.5 -109t169.5 -300l-276 -62q-20 94 -77 144.5t-140 50.5q-119 0 -199.5 -106.5t-89.5 -266.5
q127 117 319 117zM674 246q90 0 153.5 60.5t63.5 148.5q0 89 -65.5 149t-163.5 60q-101 0 -165.5 -59.5t-64.5 -149.5q0 -92 64 -150.5t178 -58.5z" />
    <glyph glyph-name="seven.ss01.case" horiz-adv-x="1128" 
d="M225 0l537 1157h-424v-213h-297v490h1046v-283l-534 -1151h-328z" />
    <glyph glyph-name="nine.ss01.case" horiz-adv-x="1200" 
d="M547 1464q93 0 176 -26.5t156 -84.5t125.5 -142.5t83 -208t30.5 -273.5q0 -191 -42 -338.5t-117 -238.5t-173.5 -137t-216.5 -46q-184 0 -316 109t-167 297l276 65q19 -99 68.5 -146.5t138.5 -47.5q110 0 178.5 90.5t77.5 281.5q-102 -116 -297 -116q-66 0 -132.5 17
t-131 55t-113.5 92.5t-79.5 135.5t-30.5 177q0 212 140 348.5t366 136.5zM553 770q94 0 154.5 57t60.5 152q0 94 -64 151.5t-159 57.5q-93 0 -150 -56.5t-57 -152.5q0 -95 60.5 -152t154.5 -57z" />
    <glyph glyph-name="zero.tf" 
d="M635 -31q-267 0 -410 193t-143 555t143 554.5t410 192.5t410 -192.5t143 -554.5t-143 -555t-410 -193zM635 246q132 0 194 112.5t62 358.5t-62 358.5t-194 112.5t-194 -112.5t-62 -358.5t62 -358.5t194 -112.5z" />
    <glyph glyph-name="one.tf" 
d="M797 276h432v-276h-1188v276h459v766q-63 -57 -144.5 -97t-220.5 -83l-76 268q174 56 277.5 121t204.5 183h256v-1158z" />
    <glyph glyph-name="two.tf" 
d="M1174 983q0 -106 -33.5 -191t-88.5 -140.5t-123 -98.5t-141 -75.5t-137.5 -61t-117.5 -64t-76 -76.5h676v-276h-1008v154q0 96 25.5 174t69 131t100 95.5t119 73t125 58.5t119 56.5t100 62t69 81t25.5 107.5q0 86 -64.5 140.5t-169.5 54.5q-114 0 -183 -66t-69 -174
q0 -81 37 -174l-283 -82q-49 137 -49 254q0 228 153 373t394 145q232 0 381.5 -135t149.5 -346z" />
    <glyph glyph-name="three.tf" 
d="M797 889q76 -9 142 -38.5t119.5 -80.5t84.5 -130t31 -177q0 -214 -146.5 -354t-374.5 -140q-236 0 -385.5 134t-171.5 366l293 43q13 -136 79 -201t185 -65q106 0 165 61.5t59 165.5q0 98 -62 152.5t-172 54.5h-244v207l377 270h-588v277h957l2 -297z" />
    <glyph glyph-name="four.tf" 
d="M743 0v260h-688v281q208 209 325 420.5t159 472.5h309q-34 -263 -156 -504.5t-280 -392.5h331v323h297v-323h172v-277h-172v-260h-297z" />
    <glyph glyph-name="five.tf" 
d="M694 950q213 0 351.5 -138.5t138.5 -344.5q0 -141 -72 -255.5t-196.5 -178.5t-274.5 -64q-211 0 -356.5 109.5t-198.5 300.5l281 88q33 -112 98.5 -166.5t175.5 -54.5q105 0 175.5 62t70.5 159q0 102 -64.5 166.5t-177.5 64.5q-133 0 -252 -116l-274 63l139 789h805v-277
h-555l-49 -266q100 59 235 59z" />
    <glyph glyph-name="six.tf" 
d="M700 922q209 0 343.5 -131.5t134.5 -335.5q0 -133 -67 -245t-182.5 -176.5t-252.5 -64.5q-281 0 -432.5 170.5t-151.5 487.5q0 352 216.5 575.5t594.5 261.5l47 -274q-230 -25 -370.5 -118.5t-184.5 -250.5q113 101 305 101zM651 246q103 0 166.5 57.5t63.5 151.5
q0 95 -63 152t-167 57q-100 0 -164.5 -59t-64.5 -150q0 -92 64.5 -150.5t164.5 -58.5z" />
    <glyph glyph-name="seven.tf" 
d="M100 1434h1067v-344q-179 -202 -281 -368.5t-150.5 -336t-57.5 -385.5h-332q8 190 65 396.5t170 414.5t263 346h-447v-213h-297v490z" />
    <glyph glyph-name="eight.tf" 
d="M944 764q96 -55 152.5 -149.5t56.5 -206.5q0 -187 -148 -313t-370 -126q-225 0 -372.5 125.5t-147.5 313.5q0 112 56.5 206.5t152.5 149.5q-170 108 -170 299q0 169 139.5 285t341.5 116q132 0 242 -53t173.5 -145t63.5 -203q0 -191 -170 -299zM635 1190
q-87 0 -135.5 -43.5t-48.5 -120.5q0 -80 47.5 -123t136.5 -43q88 0 135 43t47 123q0 75 -49 119.5t-133 44.5zM635 246q103 0 162 51.5t59 140.5t-59 141t-162 52q-104 0 -163.5 -52t-59.5 -141t59.5 -140.5t163.5 -51.5z" />
    <glyph glyph-name="nine.tf" 
d="M621 1464q252 0 404.5 -167.5t152.5 -444.5q0 -775 -781 -883l-39 275q204 31 334.5 123.5t181.5 242.5q-113 -96 -301 -96q-215 0 -348 129t-133 336q0 209 151 347t378 138zM618 770q103 0 166.5 57.5t63.5 151.5t-63.5 151.5t-166.5 57.5t-166 -57.5t-63 -151.5
q0 -101 59.5 -155t169.5 -54z" />
    <glyph glyph-name="zero.subs" horiz-adv-x="741" 
d="M371 -326q-165 0 -252.5 115.5t-87.5 333.5t87.5 333t252.5 115t252.5 -115t87.5 -333t-87.5 -333.5t-252.5 -115.5zM371 -131q69 0 100 58.5t31 195.5t-31 195.5t-100 58.5q-70 0 -100.5 -58.5t-30.5 -195.5t30.5 -195.5t100.5 -58.5z" />
    <glyph glyph-name="one.subs" horiz-adv-x="575" 
d="M264 -307v616q-34 -37 -79.5 -62t-131.5 -54l-53 190q105 35 166.5 70t126.5 100h180v-860h-209z" />
    <glyph glyph-name="two.subs" horiz-adv-x="743" 
d="M702 272q0 -65 -24.5 -117.5t-61.5 -84.5t-85.5 -59.5t-92.5 -44.5t-86 -38t-63 -41h387v-194h-615v104q0 75 24 131.5t62 89.5t84 58.5t92.5 44t84.5 38.5t62 50.5t24 71.5q0 43 -31 69.5t-86 26.5q-60 0 -94.5 -33.5t-34.5 -87.5q0 -39 20 -98l-198 -56q-29 89 -29 152
q0 138 93.5 227.5t242.5 89.5q145 0 235 -84t90 -215z" />
    <glyph glyph-name="three.subs" horiz-adv-x="733" 
d="M465 207q106 -8 166.5 -69.5t60.5 -162.5q0 -131 -91 -216t-230 -85q-143 0 -235 82t-105 221l207 33q15 -141 133 -141q54 0 83 28.5t29 82.5q0 55 -26.5 78.5t-87.5 23.5h-152v125l221 151h-350v195h588v-209z" />
    <glyph glyph-name="four.subs" horiz-adv-x="763" 
d="M645 33h98v-195h-98v-145h-209v145h-405v195q119 127 185 250t89 270h219q-18 -149 -96.5 -297t-165.5 -223h174v168h209v-168z" />
    <glyph glyph-name="five.subs" horiz-adv-x="745" 
d="M426 266q123 0 206 -80t83 -198q0 -137 -95.5 -225.5t-236.5 -88.5q-129 0 -218 64.5t-124 181.5l197 66q22 -65 54.5 -91t90.5 -26q54 0 88.5 31t34.5 88q0 49 -33.5 79.5t-87.5 30.5q-68 0 -131 -57l-197 43l84 469h500v-195h-324l-22 -122q58 30 131 30z" />
    <glyph glyph-name="six.subs" horiz-adv-x="729" 
d="M422 246q125 0 206 -78t81 -201q0 -120 -90.5 -206.5t-215.5 -86.5q-177 0 -269.5 106t-92.5 304q0 202 134.5 333.5t363.5 153.5l32 -194q-262 -24 -317 -178q65 47 168 47zM385 -131q53 0 84 27.5t31 72.5q0 43 -32 71t-83 28q-49 0 -81 -28.5t-32 -70.5
q0 -44 31.5 -72t81.5 -28z" />
    <glyph glyph-name="seven.subs" horiz-adv-x="675" 
d="M10 553h656v-244q-158 -182 -214.5 -307t-62.5 -309h-237q2 73 21.5 160t54.5 179t93 179.5t130 146.5h-232v-122h-209v317z" />
    <glyph glyph-name="eight.subs" horiz-adv-x="712" 
d="M545 154q59 -33 95 -91t36 -126q0 -109 -93 -186t-227 -77q-137 0 -228 76.5t-91 186.5q0 69 35.5 127.5t95.5 91.5q-109 54 -109 172q0 100 87 171.5t210 71.5t210 -71.5t87 -171.5q0 -120 -108 -174zM356 397q-88 0 -88 -80q0 -81 88 -81t88 81q0 38 -23.5 59t-64.5 21
zM356 -131q52 0 81.5 25t29.5 69q0 43 -30 67.5t-81 24.5q-52 0 -81 -24.5t-29 -67.5q0 -44 28.5 -69t81.5 -25z" />
    <glyph glyph-name="nine.subs" horiz-adv-x="729" 
d="M346 571q154 0 248 -103t94 -273q0 -463 -483 -521l-25 195q226 30 295 180q-61 -49 -174 -49q-122 0 -201.5 77.5t-79.5 201.5q0 125 93.5 208.5t232.5 83.5zM344 178q49 0 80 28.5t31 72.5q0 46 -30 72t-81 26q-52 0 -83.5 -27t-31.5 -71q0 -49 29.5 -75t85.5 -26z" />
    <glyph glyph-name="zero.dnom" horiz-adv-x="741" 
d="M371 -18q-165 0 -252.5 115t-87.5 333t87.5 333.5t252.5 115.5t252.5 -115.5t87.5 -333.5t-87.5 -333t-252.5 -115zM371 176q69 0 100 58.5t31 195.5t-31 195.5t-100 58.5q-70 0 -100.5 -58.5t-30.5 -195.5t30.5 -195.5t100.5 -58.5z" />
    <glyph glyph-name="one.dnom" horiz-adv-x="575" 
d="M264 0v616q-34 -37 -79.5 -62t-131.5 -54l-53 190q105 35 166.5 70t126.5 100h180v-860h-209z" />
    <glyph glyph-name="two.dnom" horiz-adv-x="743" 
d="M702 580q0 -65 -24.5 -117.5t-61.5 -84.5t-85.5 -59.5t-92.5 -44.5t-86 -38t-63 -41h387v-195h-615v104q0 75 24 131.5t62 89.5t84 58.5t92.5 44t84.5 38.5t62 50.5t24 71.5q0 43 -31 69.5t-86 26.5q-60 0 -94.5 -33.5t-34.5 -87.5q0 -39 20 -98l-198 -55q-29 89 -29 151
q0 138 93.5 228t242.5 90q145 0 235 -84t90 -215z" />
    <glyph glyph-name="three.dnom" horiz-adv-x="733" 
d="M465 514q106 -8 166.5 -69t60.5 -162q0 -131 -91 -216t-230 -85q-143 0 -235 82t-105 221l207 32q15 -141 133 -141q54 0 83 28.5t29 82.5q0 55 -26.5 78.5t-87.5 23.5h-152v125l221 152h-350v194h588v-209z" />
    <glyph glyph-name="four.dnom" horiz-adv-x="763" 
d="M645 340h98v-195h-98v-145h-209v145h-405v195q119 127 185 250t89 270h219q-18 -149 -96.5 -297t-165.5 -223h174v168h209v-168z" />
    <glyph glyph-name="five.dnom" horiz-adv-x="745" 
d="M426 573q123 0 206 -80t83 -198q0 -136 -95.5 -224.5t-236.5 -88.5q-129 0 -218 64t-124 181l197 66q22 -65 54.5 -91t90.5 -26q54 0 88.5 31t34.5 88q0 50 -33.5 80.5t-87.5 30.5q-67 0 -131 -58l-197 43l84 469h500v-194h-324l-22 -123q58 30 131 30z" />
    <glyph glyph-name="six.dnom" horiz-adv-x="729" 
d="M422 553q125 0 206 -78t81 -201q0 -120 -90.5 -206t-215.5 -86q-177 0 -269.5 105.5t-92.5 303.5q0 202 134.5 334t363.5 154l32 -195q-262 -24 -317 -178q65 47 168 47zM385 176q53 0 84 27.5t31 72.5q0 43 -32 71t-83 28q-49 0 -81 -28.5t-32 -70.5q0 -44 31.5 -72
t81.5 -28z" />
    <glyph glyph-name="seven.dnom" horiz-adv-x="675" 
d="M10 860h656v-244q-158 -182 -214.5 -307t-62.5 -309h-237q3 101 34 218t101 243.5t164 204.5h-232v-123h-209v317z" />
    <glyph glyph-name="eight.dnom" horiz-adv-x="712" 
d="M545 461q59 -33 95 -91t36 -126q0 -109 -93 -185.5t-227 -76.5q-137 0 -228 76t-91 186q0 69 35.5 127.5t95.5 91.5q-109 55 -109 172q0 100 87 172t210 72t210 -72t87 -172q0 -120 -108 -174zM356 705q-88 0 -88 -80q0 -82 88 -82t88 82q0 38 -23.5 59t-64.5 21z
M356 176q52 0 81.5 25t29.5 69q0 43 -30 67.5t-81 24.5q-52 0 -81 -24.5t-29 -67.5q0 -44 28.5 -69t81.5 -25z" />
    <glyph glyph-name="nine.dnom" horiz-adv-x="729" 
d="M346 879q154 0 248 -103.5t94 -273.5q0 -462 -483 -520l-25 194q226 30 295 180q-61 -49 -174 -49q-122 0 -201.5 77.5t-79.5 201.5q0 125 93.5 209t232.5 84zM344 485q49 0 80 28.5t31 72.5q0 46 -30 72t-81 26q-52 0 -83.5 -27t-31.5 -71q0 -49 29.5 -75t85.5 -26z" />
    <glyph glyph-name="zero.numr" horiz-adv-x="741" 
d="M371 555q-165 0 -252.5 115.5t-87.5 333.5t87.5 333t252.5 115t252.5 -115t87.5 -333t-87.5 -333.5t-252.5 -115.5zM371 750q69 0 100 58.5t31 195.5t-31 195t-100 58q-70 0 -100.5 -58t-30.5 -195t30.5 -195.5t100.5 -58.5z" />
    <glyph glyph-name="one.numr" horiz-adv-x="575" 
d="M264 573v617q-34 -37 -79.5 -62.5t-131.5 -54.5l-53 191q105 35 166.5 70t126.5 100h180v-861h-209z" />
    <glyph glyph-name="two.numr" horiz-adv-x="743" 
d="M702 1153q0 -65 -24.5 -117.5t-61.5 -84.5t-85.5 -59.5t-92.5 -44.5t-86 -38t-63 -41h387v-195h-615v105q0 75 24 131.5t62 89.5t84 58t92.5 44t84.5 38.5t62 50t24 71.5q0 43 -31 69.5t-86 26.5q-60 0 -94.5 -33t-34.5 -87q0 -40 20 -99l-198 -55q-29 89 -29 152
q0 138 93.5 227.5t242.5 89.5q145 0 235 -84t90 -215z" />
    <glyph glyph-name="three.numr" horiz-adv-x="733" 
d="M465 1087q106 -8 166.5 -69t60.5 -162q0 -131 -91 -216t-230 -85q-143 0 -235 82t-105 221l207 33q15 -141 133 -141q54 0 83 28t29 82q0 55 -27 79t-87 24h-152v124l221 152h-350v195h588v-209z" />
    <glyph glyph-name="four.numr" horiz-adv-x="763" 
d="M645 913h98v-194h-98v-146h-209v146h-405v194q119 126 185 250t89 271h219q-18 -149 -97 -297.5t-165 -223.5h174v168h209v-168z" />
    <glyph glyph-name="five.numr" horiz-adv-x="745" 
d="M426 1147q123 0 206 -80t83 -199q0 -136 -95.5 -224.5t-236.5 -88.5q-129 0 -218 64.5t-124 181.5l197 65q22 -64 54 -90t91 -26q55 0 89 30.5t34 87.5q0 50 -33.5 80.5t-87.5 30.5q-68 0 -131 -57l-197 43l84 469h500v-195h-324l-22 -123q60 31 131 31z" />
    <glyph glyph-name="six.numr" horiz-adv-x="729" 
d="M422 1126q125 0 206 -78t81 -200q0 -120 -90.5 -206.5t-215.5 -86.5q-177 0 -269.5 106t-92.5 304q0 202 134.5 333.5t363.5 153.5l32 -195q-262 -24 -317 -178q65 47 168 47zM385 750q53 0 84 27.5t31 72.5q0 43 -32 70.5t-83 27.5q-49 0 -81 -28t-32 -70
q0 -44 31.5 -72t81.5 -28z" />
    <glyph glyph-name="seven.numr" horiz-adv-x="675" 
d="M10 1434h656v-244q-158 -182 -214.5 -307.5t-62.5 -309.5h-237q3 101 34 218t101 243.5t164 204.5h-232v-123h-209v318z" />
    <glyph glyph-name="eight.numr" horiz-adv-x="712" 
d="M545 1034q59 -33 95 -91t36 -126q0 -109 -93 -185.5t-227 -76.5q-137 0 -228 76t-91 186q0 69 35.5 127.5t95.5 91.5q-109 54 -109 172q0 100 87 172t210 72t210 -72t87 -172q0 -120 -108 -174zM356 1278q-88 0 -88 -80q0 -82 88 -82t88 82q0 38 -23.5 59t-64.5 21z
M356 750q52 0 81.5 25t29.5 69q0 43 -30 67.5t-81 24.5q-52 0 -81 -24.5t-29 -67.5q0 -44 28.5 -69t81.5 -25z" />
    <glyph glyph-name="nine.numr" horiz-adv-x="729" 
d="M346 1452q154 0 248 -103.5t94 -273.5q0 -462 -483 -520l-25 195q226 30 295 180q-61 -49 -174 -49q-123 0 -202 77.5t-79 200.5q0 125 93.5 209t232.5 84zM344 1059q49 0 80 28t31 72q0 46 -30 72t-81 26q-52 0 -83.5 -27t-31.5 -71q0 -100 115 -100z" />
    <glyph glyph-name="zero.sups" horiz-adv-x="741" 
d="M371 760q-165 0 -252.5 115t-87.5 333t87.5 333.5t252.5 115.5t252.5 -115.5t87.5 -333.5t-87.5 -333t-252.5 -115zM371 954q69 0 100 58.5t31 195.5t-31 195.5t-100 58.5q-70 0 -100.5 -58.5t-30.5 -195.5t30.5 -195.5t100.5 -58.5z" />
    <glyph glyph-name="one.sups" horiz-adv-x="575" 
d="M264 778v617q-34 -37 -79.5 -62.5t-131.5 -54.5l-53 190q105 35 166.5 70t126.5 100h180v-860h-209z" />
    <glyph glyph-name="two.sups" horiz-adv-x="743" 
d="M702 1358q0 -65 -24.5 -117.5t-61.5 -84.5t-85.5 -59.5t-92.5 -44.5t-86 -38t-63 -41h387v-195h-615v105q0 75 24 131.5t62 89.5t84 58t92.5 44t84.5 38.5t62 50t24 71.5q0 43 -31 69.5t-86 26.5q-60 0 -94.5 -33.5t-34.5 -87.5q0 -39 20 -98l-198 -55q-29 89 -29 151
q0 138 93.5 228t242.5 90q145 0 235 -84t90 -215z" />
    <glyph glyph-name="three.sups" horiz-adv-x="733" 
d="M465 1292q106 -8 166.5 -69t60.5 -162q0 -131 -91 -216t-230 -85q-143 0 -235 82t-105 221l207 33q15 -142 133 -142q54 0 83 28.5t29 82.5q0 55 -26.5 78.5t-87.5 23.5h-152v125l221 152h-350v194h588v-208z" />
    <glyph glyph-name="four.sups" horiz-adv-x="763" 
d="M645 1118h98v-194h-98v-146h-209v146h-405v194q119 127 185 250t89 270h219q-18 -149 -96.5 -297t-165.5 -223h174v168h209v-168z" />
    <glyph glyph-name="five.sups" horiz-adv-x="745" 
d="M426 1352q123 0 206 -80t83 -199q0 -136 -95.5 -224.5t-236.5 -88.5q-129 0 -218 64.5t-124 181.5l197 65q22 -65 54.5 -91t90.5 -26q54 0 88.5 31t34.5 88q0 50 -33.5 80.5t-87.5 30.5q-67 0 -131 -58l-197 43l84 469h500v-194h-324l-22 -123q60 31 131 31z" />
    <glyph glyph-name="six.sups" horiz-adv-x="729" 
d="M422 1331q125 0 206 -78t81 -200q0 -120 -90.5 -206.5t-215.5 -86.5q-177 0 -269.5 105.5t-92.5 303.5q0 202 134.5 334t363.5 154l32 -195q-262 -24 -317 -178q65 47 168 47zM385 954q53 0 84 28t31 73q0 43 -32 70.5t-83 27.5q-49 0 -81 -28t-32 -70q0 -44 31.5 -72.5
t81.5 -28.5z" />
    <glyph glyph-name="seven.sups" horiz-adv-x="675" 
d="M10 1638h656v-243q-158 -182 -214.5 -307.5t-62.5 -309.5h-237q3 101 34 218t101 243.5t164 204.5h-232v-123h-209v317z" />
    <glyph glyph-name="eight.sups" horiz-adv-x="712" 
d="M545 1239q59 -33 95 -91t36 -126q0 -109 -93 -185.5t-227 -76.5q-137 0 -228 76t-91 186q0 69 35.5 127.5t95.5 91.5q-109 55 -109 172q0 100 87 172t210 72t210 -72t87 -172q0 -120 -108 -174zM356 1483q-88 0 -88 -80q0 -82 88 -82t88 82q0 38 -23.5 59t-64.5 21z
M356 954q52 0 81.5 25.5t29.5 69.5q0 43 -30 67.5t-81 24.5q-52 0 -81 -24.5t-29 -67.5q0 -44 28.5 -69.5t81.5 -25.5z" />
    <glyph glyph-name="nine.sups" horiz-adv-x="729" 
d="M346 1657q154 0 248 -103.5t94 -273.5q0 -462 -483 -520l-25 194q226 30 295 181q-62 -50 -174 -50q-122 0 -201.5 77.5t-79.5 201.5q0 125 93.5 209t232.5 84zM344 1264q49 0 80 28t31 72q0 46 -30 72t-81 26q-52 0 -83.5 -27t-31.5 -71q0 -100 115 -100z" />
    <glyph glyph-name="question.ss01" horiz-adv-x="1249" 
d="M469 477v55q0 75 22 134.5t57.5 97t78.5 67t85.5 51.5t78 43.5t57.5 51.5t22 67q0 63 -62 103.5t-153 40.5q-259 0 -299 -283l-295 43q30 233 188 374.5t406 141.5q223 0 367.5 -118.5t144.5 -288.5q0 -83 -22.5 -147.5t-59 -103.5t-80 -69t-87.5 -51t-80.5 -41
t-59 -48.5t-22.5 -64.5v-55h-287zM449 0v330h333v-330h-333z" />
    <glyph glyph-name="questiondown.ss01" 
d="M821 1085v-329h-334v329h334zM801 608v-55q0 -75 -22 -134.5t-57.5 -97t-78.5 -67t-86 -51.5t-78.5 -43.5t-57.5 -51.5t-22 -67q0 -63 62 -103t153 -40q259 0 299 282l295 -43q-30 -233 -188 -374.5t-406 -141.5q-223 0 -367.5 118.5t-144.5 289.5q0 83 22.5 147.5
t59 103.5t80.5 68.5t88 50.5t80.5 41.5t59 48.5t22.5 64v55h287z" />
    <glyph glyph-name="braceleft.case" horiz-adv-x="819" 
d="M575 -328q-167 0 -254.5 86.5t-87.5 253.5v434q0 43 -24 66t-68 23h-100v274h100q44 0 68 22.5t24 65.5v393q0 167 87.5 253.5t254.5 86.5h224v-276h-133q-72 0 -104 -31.5t-32 -103.5v-289q0 -220 -176 -258q176 -38 176 -258v-330q0 -72 32 -103.5t104 -31.5h133v-277
h-224z" />
    <glyph glyph-name="braceright.case" horiz-adv-x="819" 
d="M244 -328h-224v277h134q72 0 103.5 31.5t31.5 103.5v330q0 220 176 258q-176 38 -176 258v289q0 72 -31.5 103.5t-103.5 31.5h-134v276h224q167 0 254.5 -86.5t87.5 -253.5v-393q0 -43 24 -65.5t68 -22.5h100v-274h-100q-44 0 -68 -23t-24 -66v-434q0 -167 -87.5 -253.5
t-254.5 -86.5z" />
    <glyph glyph-name="bracketleft.case" horiz-adv-x="753" 
d="M143 -328v1956h590v-276h-293v-1403h293v-277h-590z" />
    <glyph glyph-name="bracketright.case" horiz-adv-x="753" 
d="M610 -328h-590v277h293v1403h-293v276h590v-1956z" />
    <glyph glyph-name="parenleft.case" horiz-adv-x="716" 
d="M506 -369q-212 245 -308 496.5t-96 564.5t96 564.5t308 496.5l211 -166q-171 -222 -244.5 -429t-73.5 -466t73.5 -466t244.5 -429z" />
    <glyph glyph-name="parenright.case" horiz-adv-x="716" 
d="M211 -369l-211 166q170 221 243.5 428.5t73.5 466.5t-73.5 466.5t-243.5 428.5l211 166q212 -244 307.5 -495.5t95.5 -565.5t-95.5 -565.5t-307.5 -495.5z" />
    <glyph glyph-name="emdash.case" horiz-adv-x="1474" 
d="M102 584v276h1270v-276h-1270z" />
    <glyph glyph-name="endash.case" horiz-adv-x="1228" 
d="M102 584v276h1024v-276h-1024z" />
    <glyph glyph-name="hyphen.case" horiz-adv-x="880" 
d="M102 584v276h676v-276h-676z" />
    <glyph glyph-name="uni00AD.case" horiz-adv-x="880" 
d="M102 584v276h676v-276h-676z" />
    <glyph glyph-name="guillemotleft.case" horiz-adv-x="1298" 
d="M698 1087q-46 -197 -227 -407q181 -210 227 -410l-313 -92q-36 156 -102 268t-181 234q115 122 181 233.5t102 266.5zM1196 1087q-46 -197 -227 -407q181 -210 227 -410l-313 -92q-36 156 -102 268t-181 234q115 122 181 233.5t102 266.5z" />
    <glyph glyph-name="guillemotright.case" horiz-adv-x="1298" 
d="M416 1180q36 -155 102 -266.5t180 -233.5q-114 -122 -180 -233.5t-102 -268.5l-314 92q46 199 228 410q-88 102 -145 199t-83 208zM913 1180q36 -155 102 -266.5t181 -233.5q-115 -122 -181 -234t-102 -268l-313 92q46 200 227 410q-181 210 -227 407z" />
    <glyph glyph-name="guilsinglleft.case" horiz-adv-x="800" 
d="M698 1087q-46 -197 -227 -407q181 -210 227 -410l-313 -92q-36 156 -102 268t-181 234q115 122 181 233.5t102 266.5z" />
    <glyph glyph-name="guilsinglright.case" horiz-adv-x="800" 
d="M416 1180q36 -155 102 -266.5t180 -233.5q-114 -122 -180 -233.5t-102 -268.5l-314 92q46 199 228 410q-88 102 -145 199t-83 208z" />
    <glyph glyph-name="guillemotleft.case.ss01" horiz-adv-x="1218" 
d="M324 305l-222 371l222 371h313l-217 -371l217 -371h-313zM803 305l-221 371l221 371h313l-217 -371l217 -371h-313z" />
    <glyph glyph-name="guillemotright.case.ss01" horiz-adv-x="1218" 
d="M416 305h-314l217 371l-217 371h314l221 -371zM895 305h-313l217 371l-217 371h313l221 -371z" />
    <glyph glyph-name="guilsinglleft.case.ss01" horiz-adv-x="739" 
d="M324 305l-222 371l222 371h313l-217 -371l217 -371h-313z" />
    <glyph glyph-name="guilsinglright.case.ss01" horiz-adv-x="739" 
d="M416 305h-314l217 371l-217 371h314l221 -371z" />
    <glyph glyph-name="guillemotleft.ss01" horiz-adv-x="1218" 
d="M324 203l-222 370l222 371h313l-217 -371l217 -370h-313zM803 203l-221 370l221 371h313l-217 -371l217 -370h-313z" />
    <glyph glyph-name="guillemotright.ss01" horiz-adv-x="1218" 
d="M416 203h-314l217 370l-217 371h314l221 -371zM895 203h-313l217 370l-217 371h313l221 -371z" />
    <glyph glyph-name="guilsinglleft.ss01" horiz-adv-x="739" 
d="M324 203l-222 370l222 371h313l-217 -371l217 -370h-313z" />
    <glyph glyph-name="guilsinglright.ss01" horiz-adv-x="739" 
d="M416 203h-314l217 370l-217 371h314l221 -371z" />
    <glyph glyph-name="percent.tf" 
d="M420 903q-182 0 -285.5 121t-103.5 328t103.5 327.5t285.5 120.5t285.5 -120.5t103.5 -327.5t-103.5 -328t-285.5 -121zM420 1118q158 0 158 234q0 233 -158 233t-158 -233q0 -234 158 -234zM254 358l-117 203l895 516l119 -203zM850 -367q-182 0 -285.5 121t-103.5 328
t103.5 327.5t285.5 120.5t285.5 -120.5t103.5 -327.5t-103.5 -328t-285.5 -121zM850 -152q158 0 158 234q0 233 -158 233t-158 -233q0 -234 158 -234z" />
    <glyph glyph-name="perthousand.tf" 
d="M389 985q-182 0 -285.5 121t-103.5 328t103.5 327.5t285.5 120.5t285.5 -120.5t103.5 -327.5t-103.5 -328t-285.5 -121zM389 1667q-158 0 -158 -233q0 -234 158 -234t158 234q0 233 -158 233zM213 426l-117 205l901 514l119 -207zM881 633q182 0 285.5 -121t103.5 -328
t-103.5 -327.5t-285.5 -120.5q-48 0 -84 8q-11 -187 -113.5 -295t-273.5 -108q-182 0 -286 120.5t-104 327.5t104 328t286 121q44 0 84 -9q11 187 113.5 295.5t273.5 108.5zM881 -49q157 0 157 233q0 234 -157 234q-158 0 -158 -234q0 -233 158 -233zM410 -444
q157 0 157 233q0 234 -157 234q-158 0 -158 -234q0 -233 158 -233z" />
    <glyph glyph-name="arrowup.ss01" 
d="M500 131v784l-334 -208l-146 241l617 385l612 -385l-145 -241l-332 208v-784h-272z" />
    <glyph glyph-name="uni2197.ss01" 
d="M61 412l537 534l-391 92l69 267l705 -162l166 -729l-275 -68l-92 406l-528 -531z" />
    </font>
</defs>
</svg>
