<?xml version="1.0" standalone="no"?>
<!DOCTYPE svg PUBLIC "-//W3C//DTD SVG 1.1//EN" "http://www.w3.org/Graphics/SVG/1.1/DTD/svg11.dtd" >
<svg xmlns="http://www.w3.org/2000/svg" xmlns:xlink="http://www.w3.org/1999/xlink" version="1.1">
<metadata>
Created by FontForge 20170731 at Wed Nov 17 17:50:38 2021
 By Aleksey,,,
Copyright (c) 2018 by Timo Gaessner. All rights reserved.
</metadata>
<defs>
<font id="Maison-Demi" horiz-adv-x="1269" >
  <font-face 
    font-family="Maison Demi"
    font-weight="600"
    font-stretch="normal"
    units-per-em="2048"
    panose-1="2 11 7 4 3 0 0 0 0 4"
    ascent="1546"
    descent="-502"
    x-height="1085"
    cap-height="1434"
    bbox="-1157 -649 4516 2179"
    underline-thickness="204"
    underline-position="-450"
    unicode-range="U+000D-FEFF"
  />
<missing-glyph horiz-adv-x="1404" 
d="M102 -10v866q0 127 45.5 238t125 190t190.5 124.5t237 45.5q128 0 240 -45.5t191.5 -124.5t125.5 -190t46 -238v-866h-58l-133 133l-139 -133l-129 133l-146 -133l-141 133l-129 -133l-137 133l-135 -133h-54zM307 614l129 129l131 -129l29 29l-131 129l131 131l-29 29
l-131 -131l-129 131l-28 -29l129 -131l-129 -129zM840 614l129 129l131 -129l28 29l-131 129l131 131l-28 29l-131 -131l-129 131l-29 -29l129 -131l-129 -129z" />
    <glyph glyph-name="fi" unicode="fi" horiz-adv-x="1296" 
d="M1163 1085v-1085h-245v864h-426v-864h-246v864h-240v221h240v109q0 137 84.5 220t228.5 83q114 0 250 -63l-76 -201q-93 41 -151 41q-43 0 -66.5 -24.5t-23.5 -71.5v-93h671zM903 1487h273v-268h-273v268z" />
    <glyph glyph-name="fl" unicode="fl" horiz-adv-x="1296" 
d="M918 1434h245v-1434h-245v864h-426v-864h-246v864h-240v221h240v109q0 137 84.5 220t228.5 83q114 0 250 -63l-76 -201q-93 41 -151 41q-43 0 -66.5 -24.5t-23.5 -71.5v-93h426v349z" />
    <glyph glyph-name="W_W_W" unicode="WWW" horiz-adv-x="4587" 
d="M4268 1434h248l-287 -1434h-254l-338 1018l-336 -1018h-221l-338 1018l-338 -1018h-221l-338 1018l-336 -1018h-221l-338 1018l-338 -1018h-254l-286 1434h247l203 -996l334 998h188l355 -1061l352 1061h188l355 -1061l354 1061h188l355 -1061l352 1061h188l334 -998z
" />
    <glyph glyph-name="f_f_i" unicode="ffi" horiz-adv-x="2007" 
d="M1874 1085v-1085h-246v864h-424v-864h-246v864h-466v-864h-246v864h-240v221h240v109q0 137 84.5 220t228.5 83q141 0 301 -92l-94 -191q-117 60 -184 60q-43 0 -66.5 -24.5t-23.5 -71.5v-93h466v115q0 137 84 217t228 80q118 0 250 -63l-76 -201q-93 41 -152 41
q-42 0 -65 -24.5t-23 -71.5v-93h670zM1616 1487h270v-268h-270v268z" />
    <glyph glyph-name="f_f_l" unicode="ffl" horiz-adv-x="2007" 
d="M1628 1434h246v-1434h-246v864h-424v-864h-246v864h-466v-864h-246v864h-240v221h240v109q0 137 84.5 220t228.5 83q141 0 301 -92l-94 -191q-117 60 -184 60q-43 0 -66.5 -24.5t-23.5 -71.5v-93h466v115q0 137 84 217t228 80q118 0 250 -63l-76 -201q-93 41 -152 41
q-42 0 -65 -24.5t-23 -71.5v-93h424v349z" />
    <glyph glyph-name="w_w_w" unicode="www" horiz-adv-x="3588" 
d="M3351 1085h227l-279 -1085h-264l-221 715l-219 -715h-240l-221 715l-219 -715h-240l-221 715l-219 -715h-240l-221 715l-219 -715h-266l-279 1085h228l196 -780l242 780h198l240 -780l242 780h198l240 -780l242 780h198l240 -780l242 780h198l240 -780z" />
    <glyph glyph-name=".notdef" horiz-adv-x="1404" 
d="M102 -10v866q0 127 45.5 238t125 190t190.5 124.5t237 45.5q128 0 240 -45.5t191.5 -124.5t125.5 -190t46 -238v-866h-58l-133 133l-139 -133l-129 133l-146 -133l-141 133l-129 -133l-137 133l-135 -133h-54zM307 614l129 129l131 -129l29 29l-131 129l131 131l-29 29
l-131 -131l-129 131l-28 -29l129 -131l-129 -129zM840 614l129 129l131 -129l28 29l-131 129l131 131l-28 29l-131 -131l-129 131l-29 -29l129 -131l-129 -129z" />
    <glyph glyph-name=".null" horiz-adv-x="0" 
 />
    <glyph glyph-name="nonmarkingreturn" horiz-adv-x="682" 
 />
    <glyph glyph-name="CR" unicode="&#xd;" horiz-adv-x="686" 
 />
    <glyph glyph-name="space" unicode=" " horiz-adv-x="542" 
 />
    <glyph glyph-name="exclam" unicode="!" horiz-adv-x="688" 
d="M225 449v985h256v-985h-256zM195 0v293h299v-293h-299z" />
    <glyph glyph-name="quotedbl" unicode="&#x22;" horiz-adv-x="901" 
d="M139 915l-26 519h256l-25 -519h-205zM559 915l-27 519h256l-24 -519h-205z" />
    <glyph glyph-name="numbersign" unicode="#" horiz-adv-x="1333" 
d="M1221 864h-222l-20 -295h209v-202h-223l-25 -367h-219l24 367h-204l-25 -367h-219l25 367h-209v202h223l20 295h-209v203h224l24 367h219l-24 -367h205l24 367h219l-24 -367h207v-203zM760 569l20 295h-205l-20 -295h205z" />
    <glyph glyph-name="dollar" unicode="$" horiz-adv-x="1310" 
d="M1194 410q1 -174 -102 -287.5t-287 -142.5v-242h-256v244q-185 34 -303.5 161.5t-147.5 323.5l248 45q20 -143 107 -224t225 -81q126 0 194 51t68 150q0 48 -26 84t-70.5 60t-102 44t-121 39t-127 40.5t-121 54t-102 74t-70.5 105.5t-26 144q0 157 100 265t261 136v232
h256v-242q145 -39 245 -147t127 -263l-248 -47q-21 111 -97 175.5t-177 64.5q-91 0 -152 -46.5t-61 -125.5q0 -42 26 -74t70 -54t101 -40.5t120.5 -37.5t126.5 -41.5t120.5 -57t102 -78.5t71.5 -111t28 -151z" />
    <glyph glyph-name="percent" unicode="%" horiz-adv-x="1961" 
d="M1249 1520l199 -90l-748 -1545l-200 82zM457 555q-166 0 -255 115.5t-89 333.5t89 333t255 115q165 0 253.5 -115.5t88.5 -332.5q0 -218 -88.5 -333.5t-253.5 -115.5zM457 758q65 0 94 56.5t29 189.5q0 135 -29 190t-94 55q-68 0 -96.5 -55.5t-28.5 -189.5t28.5 -190
t96.5 -56zM1507 -18q-166 0 -254 115t-88 333t88 333.5t254 115.5t254 -115.5t88 -333.5t-88 -333t-254 -115zM1507 184q66 0 95.5 56t29.5 190q0 135 -29.5 190.5t-95.5 55.5q-67 0 -96 -56t-29 -190q0 -133 29.5 -189.5t95.5 -56.5z" />
    <glyph glyph-name="ampersand" unicode="&#x26;" horiz-adv-x="1331" 
d="M1286 346l-88 -205q-31 12 -86 35.5t-68 28.5q-83 -121 -198 -178.5t-271 -57.5q-215 0 -349 110.5t-134 295.5q0 219 209 364q-104 157 -104 334q0 173 112 282t291 109q172 0 282 -98.5t113 -255.5q3 -117 -75.5 -210.5t-274.5 -203.5q125 -103 283 -186q37 105 69 281
l232 -48q-35 -194 -90 -335q130 -56 147 -62zM600 1255q-80 0 -128 -49t-48 -131q0 -107 72 -217q161 91 216.5 142.5t55.5 113.5q0 63 -47 102t-121 39zM575 190q165 0 259 117q-245 128 -388 266q-116 -93 -116 -198q0 -88 65.5 -136.5t179.5 -48.5z" />
    <glyph glyph-name="quotesingle" unicode="'" horiz-adv-x="481" 
d="M139 915l-26 519h256l-25 -519h-205z" />
    <glyph glyph-name="parenleft" unicode="(" horiz-adv-x="706" 
d="M508 -471q-395 456 -395 1049q0 590 399 1050l184 -143q-327 -402 -327 -907t325 -906z" />
    <glyph glyph-name="parenright" unicode=")" horiz-adv-x="706" 
d="M199 -471l-187 143q326 402 326 906q0 503 -328 907l185 143q399 -460 399 -1050q0 -593 -395 -1049z" />
    <glyph glyph-name="asterisk" unicode="*" horiz-adv-x="1138" 
d="M399 567l-180 131l176 236l-282 88l69 213l281 -96l-4 295h223l-4 -295l278 96l70 -213l-283 -88l179 -236l-183 -131l-170 242z" />
    <glyph glyph-name="plus" unicode="+" 
d="M1178 815v-235h-414v-428h-256v428h-416v235h416v422h256v-422h414z" />
    <glyph glyph-name="comma" unicode="," horiz-adv-x="577" 
d="M125 -295v158q65 13 89 42.5t24 94.5h-125v326h352v-275q0 -154 -88 -243t-252 -103z" />
    <glyph glyph-name="hyphen" unicode="-" horiz-adv-x="880" 
d="M113 506v237h655v-237h-655z" />
    <glyph glyph-name="period" unicode="." horiz-adv-x="557" 
d="M113 0v326h331v-326h-331z" />
    <glyph glyph-name="slash" unicode="/" horiz-adv-x="1187" 
d="M854 1524l221 -99l-739 -1544l-223 92z" />
    <glyph glyph-name="zero" unicode="0" horiz-adv-x="1196" 
d="M598 -31q-252 0 -389 188.5t-137 538.5q0 348 137 536.5t389 188.5q251 0 388.5 -188t137.5 -537t-137.5 -538t-388.5 -189zM598 197q281 0 281 499q0 498 -281 498t-281 -498q0 -499 281 -499z" />
    <glyph glyph-name="one" unicode="1" horiz-adv-x="899" 
d="M438 0v1044q-69 -61 -153 -104.5t-209 -79.5l-66 223q166 50 267.5 119t193.5 189h213v-1391h-246z" />
    <glyph glyph-name="two" unicode="2" horiz-adv-x="1204" 
d="M1116 969q0 -83 -22.5 -153.5t-61 -120.5t-89 -92t-107.5 -73t-115 -58.5t-113.5 -53.5t-101.5 -53t-80 -62t-47 -76h702v-227h-964v135q0 82 21 151t57 117t84.5 90t102.5 71t111.5 58t111.5 53t102.5 54.5t84.5 63t57 78.5t21 102q0 97 -72 159t-184 62
q-124 0 -200 -72t-76 -194q0 -86 35 -176l-232 -72q-49 128 -49 248q0 218 146.5 355.5t375.5 137.5q216 0 359 -127.5t143 -324.5z" />
    <glyph glyph-name="three" unicode="3" horiz-adv-x="1126" 
d="M637 864q172 -11 284.5 -120.5t112.5 -303.5q0 -141 -67.5 -249.5t-179.5 -165t-248 -56.5q-222 0 -364.5 128.5t-164.5 353.5l242 34q13 -146 86.5 -217t198.5 -71q108 0 179.5 64.5t71.5 184.5q0 117 -70 178.5t-198 61.5h-219v172l399 305h-602v228h910v-244z" />
    <glyph glyph-name="four" unicode="4" horiz-adv-x="1220" 
d="M748 0v268h-676v234q218 218 332.5 421.5t160.5 467.5h252q-41 -265 -155 -491.5t-289 -401.5h375v346h245v-346h176v-230h-176v-268h-245z" />
    <glyph glyph-name="five" unicode="5" horiz-adv-x="1208" 
d="M659 920q210 0 344 -134.5t134 -334.5q0 -207 -148.5 -344.5t-372.5 -137.5q-199 0 -339 110t-185 290l234 69q29 -118 104 -179.5t186 -61.5q122 0 198.5 72t76.5 182t-71.5 183t-190.5 73q-158 0 -279 -142l-223 58l137 768h758v-228h-551l-57 -313q103 70 245 70z" />
    <glyph glyph-name="six" unicode="6" horiz-adv-x="1175" 
d="M1124 440q1 -196 -138.5 -333.5t-340.5 -137.5q-260 0 -406.5 161t-146.5 460q0 352 205 571.5t569 259.5l37 -225q-227 -28 -371 -134.5t-186 -287.5q116 119 316 119q201 0 331.5 -129t130.5 -324zM625 197q109 0 181.5 67.5t72.5 173.5q0 107 -69.5 172.5t-186.5 65.5
q-110 0 -183 -67t-73 -171q0 -102 74 -171.5t184 -69.5z" />
    <glyph glyph-name="seven" unicode="7" horiz-adv-x="1075" 
d="M31 1391h1013v-279q-256 -285 -370 -540.5t-129 -571.5h-266q10 201 69.5 411t172.5 411.5t261 340.5h-506v-211h-245v439z" />
    <glyph glyph-name="eight" unicode="8" horiz-adv-x="1150" 
d="M864 741q91 -50 148 -144.5t57 -199.5q0 -184 -141 -306t-353 -122t-352.5 122t-140.5 306q0 105 57 199.5t148 144.5q-166 107 -166 293q0 165 130 276t324 111q193 0 323 -111.5t130 -275.5q0 -187 -164 -293zM575 1196q-94 0 -151 -50.5t-57 -133.5q0 -87 56 -137
t152 -50q97 0 154 50.5t57 136.5q0 81 -59 132.5t-152 51.5zM575 197q112 0 180 60t68 159q0 100 -68 160.5t-180 60.5t-179.5 -60.5t-67.5 -160.5q0 -99 68 -159t179 -60z" />
    <glyph glyph-name="nine" unicode="9" horiz-adv-x="1175" 
d="M553 1421q238 0 384 -160.5t146 -420.5q0 -749 -737 -871l-37 226q212 37 344 143t172 270q-114 -108 -311 -108q-206 0 -334.5 127t-128.5 323q0 203 142.5 337t359.5 134zM551 715q117 0 189.5 66t72.5 171q0 104 -74.5 173t-187.5 69q-110 0 -182 -68t-72 -174
q0 -111 66 -174t188 -63z" />
    <glyph glyph-name="colon" unicode=":" horiz-adv-x="559" 
d="M115 741v326h331v-326h-331zM113 0v326h331v-326h-331z" />
    <glyph glyph-name="semicolon" unicode=";" horiz-adv-x="577" 
d="M113 741v326h331v-326h-331zM125 -295v158q65 13 89 42.5t24 94.5h-125v326h352v-275q0 -154 -88 -243t-252 -103z" />
    <glyph glyph-name="less" unicode="&#x3c;" 
d="M967 109l-795 466v238l795 467l127 -207l-658 -379l658 -379z" />
    <glyph glyph-name="equal" unicode="=" 
d="M195 807v256h880v-256h-880zM195 334v256h880v-256h-880z" />
    <glyph glyph-name="greater" unicode="&#x3e;" 
d="M301 109l-127 206l657 379l-657 379l127 207l795 -467v-238z" />
    <glyph glyph-name="question" unicode="?" 
d="M492 449v292q237 70 333.5 135t96.5 162q0 81 -71 135t-183 54q-148 0 -238.5 -86t-105.5 -244l-252 29q19 247 181.5 392.5t414.5 145.5q221 0 365.5 -122.5t144.5 -303.5q0 -156 -103 -255t-336 -175v-159h-247zM459 0v293h299v-293h-299z" />
    <glyph glyph-name="at" unicode="@" horiz-adv-x="1443" 
d="M668 690q104 23 133.5 38t29.5 44q0 32 -27.5 51t-72.5 19q-51 0 -84 -30t-41 -83l-174 27q12 110 97.5 181t205.5 71q130 0 204.5 -67t74.5 -183v-297q0 -27 11 -38t38 -11q48 0 71 63.5t23 212.5q0 234 -113 374t-301 140q-206 0 -331 -161.5t-125 -426.5
q0 -284 125 -434.5t348 -150.5q182 0 360 104l78 -145q-200 -121 -438 -121q-301 0 -474 197t-173 550q0 218 77 387.5t221 265t332 95.5q267 0 427.5 -187.5t160.5 -486.5q0 -440 -270 -440q-110 0 -158 92q-73 -92 -211 -92q-118 0 -189 60.5t-71 160.5q0 90 55 141.5
t181 79.5zM831 612q-21 -28 -112 -55q-63 -21 -83 -37.5t-20 -44.5q0 -61 89 -61q52 0 89 32t37 76v90z" />
    <glyph glyph-name="A" unicode="A" horiz-adv-x="1437" 
d="M1165 0l-137 340h-618l-138 -340h-262l590 1434h238l589 -1434h-262zM500 563h438l-219 545z" />
    <glyph glyph-name="B" unicode="B" horiz-adv-x="1300" 
d="M1022 768q110 -48 174 -139t64 -207q0 -184 -139.5 -303t-356.5 -119h-610v1434h598q189 0 316.5 -109t127.5 -272q0 -94 -45.5 -168t-128.5 -117zM410 1196v-330h331q97 0 149 44.5t52 127.5q0 75 -53 116.5t-148 41.5h-331zM756 238q119 0 183.5 53t64.5 151
q0 94 -65.5 146.5t-182.5 52.5h-346v-403h346z" />
    <glyph glyph-name="C" unicode="C" horiz-adv-x="1320" 
d="M690 -31q-192 0 -333 95.5t-213 263.5t-72 389q0 165 42 302.5t120 236t195 153.5t261 55q229 0 384 -132.5t192 -358.5l-246 -43q-30 145 -117 221t-213 76q-174 0 -267 -137.5t-93 -372.5t93 -372.5t267 -137.5q128 0 217 79.5t117 237.5l246 -41
q-36 -241 -192.5 -377.5t-387.5 -136.5z" />
    <glyph glyph-name="D" unicode="D" horiz-adv-x="1376" 
d="M154 1434h477q317 0 495.5 -187.5t178.5 -529.5q0 -341 -178.5 -529t-495.5 -188h-477v1434zM606 238q222 0 332.5 118t110.5 361q0 244 -110 361.5t-333 117.5h-196v-958h196z" />
    <glyph glyph-name="E" unicode="E" horiz-adv-x="1161" 
d="M154 0v1434h936v-238h-678v-350h510v-230h-510v-378h678v-238h-936z" />
    <glyph glyph-name="F" unicode="F" horiz-adv-x="1146" 
d="M154 0v1434h942v-238h-684v-387h514v-238h-514v-571h-258z" />
    <glyph glyph-name="G" unicode="G" horiz-adv-x="1398" 
d="M627 752h649v-752h-162l-35 121q-149 -152 -389 -152q-192 0 -333 95.5t-213 263.5t-72 389q0 165 42 302.5t120 236t195 153.5t261 55q229 0 384 -132.5t192 -358.5l-246 -43q-30 145 -117 221t-213 76q-174 0 -267 -137.5t-93 -372.5t93 -372.5t267 -137.5
q150 0 241 88t91 213v10h-395v234z" />
    <glyph glyph-name="H" unicode="H" horiz-adv-x="1386" 
d="M154 1434h258v-576h563v576h258v-1434h-258v621h-563v-621h-258v1434z" />
    <glyph glyph-name="I" unicode="I" horiz-adv-x="565" 
d="M154 0v1434h258v-1434h-258z" />
    <glyph glyph-name="J" unicode="J" horiz-adv-x="952" 
d="M47 1434h762v-859q0 -270 -167.5 -422.5t-473.5 -152.5h-121v238h119q201 0 293 85t92 265v608h-504v238z" />
    <glyph glyph-name="K" unicode="K" horiz-adv-x="1370" 
d="M1038 0l-452 625l-174 -199v-426h-258v1434h258v-662l567 662h334l-551 -627l602 -807h-326z" />
    <glyph glyph-name="L" unicode="L" horiz-adv-x="1171" 
d="M154 1434h258v-1196h714v-238h-972v1434z" />
    <glyph glyph-name="M" unicode="M" horiz-adv-x="1640" 
d="M1210 1434h277v-1434h-252v1020l-375 -660h-82l-372 660v-1020h-252v1434h278l387 -707z" />
    <glyph glyph-name="N" unicode="N" horiz-adv-x="1380" 
d="M971 1434h256v-1434h-271l-546 995v-995h-256v1434h270l547 -994v994z" />
    <glyph glyph-name="O" unicode="O" horiz-adv-x="1380" 
d="M690 -31q-192 0 -333 95.5t-213 263.5t-72 389q0 165 42 302.5t120 236t195 153.5t261 55q192 0 333 -95t213.5 -263.5t72.5 -388.5t-72.5 -388.5t-213.5 -264t-333 -95.5zM690 207q174 0 267.5 137.5t93.5 372.5t-93.5 372.5t-267.5 137.5t-267 -137.5t-93 -372.5
t93 -372.5t267 -137.5z" />
    <glyph glyph-name="P" unicode="P" horiz-adv-x="1310" 
d="M154 0v1434h630q206 0 341 -127t135 -320q0 -190 -139 -318t-347 -128h-362v-541h-258zM412 778h350q107 0 174.5 58.5t67.5 150.5q0 95 -66.5 152t-175.5 57h-350v-418z" />
    <glyph glyph-name="Q" unicode="Q" horiz-adv-x="1409" 
d="M1327 174l-35 -205q-148 20 -258 103q-144 -103 -344 -103q-192 0 -333 95.5t-213 263.5t-72 389q0 165 42 302.5t120 236t195 153.5t261 55q192 0 333 -95t213.5 -263.5t72.5 -388.5q0 -293 -127 -490q55 -41 145 -53zM330 717q0 -235 93 -372.5t267 -137.5
q102 0 178 49q-41 55 -74 88.5t-85 61.5t-115 38l49 199q127 -22 209.5 -81.5t140.5 -151.5q58 122 58 307q0 235 -93.5 372.5t-267.5 137.5t-267 -137.5t-93 -372.5z" />
    <glyph glyph-name="R" unicode="R" horiz-adv-x="1312" 
d="M1137 356l102 -356h-305l-72 301q-34 141 -114.5 206.5t-217.5 65.5h-118v-573h-258v1434h616q204 0 334.5 -122t130.5 -311q0 -145 -80.5 -252.5t-216.5 -150.5q68 -27 120 -89t79 -153zM412 811h338q109 0 169 49t60 141q0 94 -60.5 144.5t-168.5 50.5h-338v-385z" />
    <glyph glyph-name="S" unicode="S" horiz-adv-x="1296" 
d="M674 -31q-258 0 -429 133.5t-208 364.5l250 45q26 -146 126.5 -225.5t260.5 -79.5q152 0 231.5 51.5t79.5 149.5q0 54 -33 90t-113 68t-239 73q-256 67 -367.5 163.5t-111.5 250.5q0 181 142 296t366 115q220 0 380 -119t197 -311l-250 -47q-25 109 -114 174.5t-213 65.5
q-112 0 -182 -47.5t-70 -124.5q0 -47 30.5 -77.5t108 -60t238.5 -71.5q258 -69 371 -170t116 -266q3 -202 -150.5 -321.5t-416.5 -119.5z" />
    <glyph glyph-name="T" unicode="T" horiz-adv-x="1267" 
d="M506 0v1196h-479v238h1216v-238h-479v-1196h-258z" />
    <glyph glyph-name="U" unicode="U" horiz-adv-x="1445" 
d="M725 -31q-171 0 -301 62t-205.5 188t-75.5 301v914h258v-902q0 -167 85 -246t239 -79q153 0 237.5 79t84.5 246v902h256v-914q0 -263 -158.5 -407t-419.5 -144z" />
    <glyph glyph-name="V" unicode="V" horiz-adv-x="1388" 
d="M1100 1434h278l-563 -1434h-242l-563 1434h281l405 -1059z" />
    <glyph glyph-name="W" unicode="W" horiz-adv-x="1636" 
d="M1313 1434h252l-209 -1434h-254l-283 770l-284 -770h-254l-209 1434h252l139 -1016l282 774h148l281 -774z" />
    <glyph glyph-name="X" unicode="X" horiz-adv-x="1366" 
d="M1362 0h-297l-383 580l-381 -580h-295l500 739l-461 695h293l346 -535l344 535h293l-461 -695z" />
    <glyph glyph-name="Y" unicode="Y" horiz-adv-x="1282" 
d="M983 1434h295l-508 -844v-590h-256v590l-508 844h295l340 -590z" />
    <glyph glyph-name="Z" unicode="Z" horiz-adv-x="1265" 
d="M68 0v219l817 987h-785v228h1100v-215l-819 -990h811v-229h-1124z" />
    <glyph glyph-name="bracketleft" unicode="[" horiz-adv-x="739" 
d="M154 -430v1956h555v-238h-299v-1481h299v-237h-555z" />
    <glyph glyph-name="backslash" unicode="\" horiz-adv-x="1187" 
d="M334 1524l741 -1551l-223 -92l-739 1544z" />
    <glyph glyph-name="bracketright" unicode="]" horiz-adv-x="739" 
d="M586 -430h-555v237h299v1481h-299v238h555v-1956z" />
    <glyph glyph-name="asciicircum" unicode="^" horiz-adv-x="1228" 
d="M1116 666h-266l-236 510l-235 -510h-266l372 768h258z" />
    <glyph glyph-name="underscore" unicode="_" horiz-adv-x="1228" 
d="M113 -340v238h1003v-238h-1003z" />
    <glyph glyph-name="grave" unicode="`" horiz-adv-x="733" 
d="M479 1188h-243l-265 289h318z" />
    <glyph glyph-name="a" unicode="a" horiz-adv-x="1157" 
d="M1124 219l27 -209q-84 -16 -143 -16q-76 0 -130 31.5t-79 89.5q-52 -63 -137.5 -99t-190.5 -36q-178 0 -286.5 88t-108.5 233q0 135 87 213t286 119q174 38 231 66.5t57 82.5q0 56 -52 90.5t-138 34.5q-103 0 -170.5 -54t-79.5 -144l-225 34q23 165 156 269t319 104
q197 0 309.5 -96.5t112.5 -265.5v-449q0 -48 16 -72t55 -24q30 0 84 10zM737 379v176q-19 -24 -66 -44.5t-159 -53.5q-121 -35 -163 -65t-42 -81q0 -59 43 -90t125 -31q114 0 188 53t74 136z" />
    <glyph glyph-name="b" unicode="b" horiz-adv-x="1228" 
d="M666 1116q220 0 355.5 -157.5t135.5 -415.5q0 -257 -135.5 -415.5t-355.5 -158.5q-89 0 -167 31.5t-126 85.5v-86h-240v1434h246v-418q103 100 287 100zM637 197q129 0 201.5 92t72.5 254t-72.5 254t-201.5 92q-118 0 -188 -68.5t-70 -181.5v-190q0 -113 70.5 -182.5
t187.5 -69.5z" />
    <glyph glyph-name="c" unicode="c" horiz-adv-x="1134" 
d="M594 -31q-231 0 -376.5 157t-145.5 417q0 261 145 417t377 156q186 0 319 -104.5t168 -282.5l-237 -51q-23 101 -89.5 156t-160.5 55q-131 0 -204 -92.5t-73 -253.5t73 -253.5t204 -92.5q102 0 167 59t85 168l237 -49q-32 -190 -165 -298t-324 -108z" />
    <glyph glyph-name="d" unicode="d" horiz-adv-x="1228" 
d="M850 1434h246v-1434h-240v86q-48 -54 -126 -85.5t-167 -31.5q-220 0 -355.5 158.5t-135.5 415.5q0 258 135.5 415.5t355.5 157.5q184 0 287 -100v418zM850 449v190q0 113 -70 181.5t-188 68.5q-129 0 -202 -92t-73 -254t73 -254t202 -92q117 0 187.5 69.5t70.5 182.5z
" />
    <glyph glyph-name="e" unicode="e" horiz-adv-x="1159" 
d="M311 453q17 -129 86.5 -200t180.5 -71q97 0 165.5 45.5t130.5 143.5l177 -135q-74 -125 -195.5 -196t-277.5 -71q-232 0 -369 156t-137 418q0 259 138.5 416t367.5 157q228 0 368.5 -157t140.5 -416v-90h-776zM578 903q-113 0 -186.5 -70.5t-80.5 -189.5h533
q-13 126 -82.5 193t-183.5 67z" />
    <glyph glyph-name="f" unicode="f" horiz-adv-x="860" 
d="M246 0v858h-240v227h240v109q0 137 84.5 220t228.5 83q141 0 301 -92l-94 -191q-117 60 -184 60q-43 0 -66.5 -24.5t-23.5 -71.5v-93h327v-227h-327v-858h-246z" />
    <glyph glyph-name="g" unicode="g" horiz-adv-x="1169" 
d="M762 139q175 -18 271.5 -95t96.5 -210q0 -160 -138 -243t-402 -83q-256 0 -397.5 83t-141.5 227q0 63 36.5 123.5t107.5 103.5q-101 72 -101 186q0 128 133 201q-114 111 -114 275q0 176 133.5 292.5t343.5 116.5q100 0 194 -33q36 97 113.5 164t181.5 94l70 -194
q-169 -32 -229 -137q70 -56 108.5 -134.5t38.5 -168.5q0 -175 -133.5 -292.5t-343.5 -117.5q-128 0 -230 45q-53 -26 -53 -74q0 -45 46 -69t151 -33zM590 903q-108 0 -174 -55.5t-66 -140.5q0 -84 66 -140.5t174 -56.5q107 0 173 56t66 141t-66 140.5t-173 55.5zM590 -279
q303 0 303 125q0 47 -43 71t-127 32l-328 31q-47 -19 -74.5 -54.5t-27.5 -77.5q0 -127 297 -127z" />
    <glyph glyph-name="h" unicode="h" horiz-adv-x="1249" 
d="M698 1116q185 0 306.5 -125t121.5 -334v-657h-245v627q0 130 -62.5 196t-181.5 66q-118 0 -188 -72.5t-70 -191.5v-625h-246v1434h246v-447q52 61 136 95t183 34z" />
    <glyph glyph-name="i" unicode="i" horiz-adv-x="512" 
d="M119 1219v268h272v-268h-272zM133 0v1085h246v-1085h-246z" />
    <glyph glyph-name="j" unicode="j" horiz-adv-x="770" 
d="M629 1487v-268h-273v268h273zM637 1085v-1065q0 -187 -110.5 -298t-290.5 -111q-150 0 -287 47l63 215q115 -35 191 -35q91 0 139.5 50.5t48.5 150.5v819h-360v227h606z" />
    <glyph glyph-name="k" unicode="k" horiz-adv-x="1132" 
d="M850 0l-320 475l-151 -170v-305h-246v1434h246v-816l399 467h314l-404 -450l438 -635h-276z" />
    <glyph glyph-name="l" unicode="l" horiz-adv-x="512" 
d="M133 0v1434h246v-1434h-246z" />
    <glyph glyph-name="m" unicode="m" horiz-adv-x="1824" 
d="M1282 1116q197 0 308.5 -119t111.5 -327v-670h-246v672q0 108 -52 162.5t-149 54.5q-99 0 -157 -58.5t-58 -160.5v-670h-245v672q0 111 -52.5 164t-148.5 53q-97 0 -156 -57.5t-59 -161.5v-670h-246v1085h238v-92q95 123 280 123q97 0 179.5 -39.5t132.5 -107.5
q55 69 138.5 108t180.5 39z" />
    <glyph glyph-name="n" unicode="n" horiz-adv-x="1249" 
d="M698 1116q185 0 306.5 -125t121.5 -334v-657h-245v627q0 130 -62.5 196t-181.5 66q-118 0 -188 -72.5t-70 -191.5v-625h-246v1085h240v-104q53 63 139 99t186 36z" />
    <glyph glyph-name="o" unicode="o" horiz-adv-x="1187" 
d="M594 -31q-237 0 -379.5 155.5t-142.5 418.5t142.5 418t379.5 155t379.5 -155t142.5 -418t-142.5 -418.5t-379.5 -155.5zM594 197q135 0 205.5 93t70.5 253t-70.5 253t-205.5 93q-134 0 -205.5 -93.5t-71.5 -252.5t71.5 -252.5t205.5 -93.5z" />
    <glyph glyph-name="p" unicode="p" horiz-adv-x="1218" 
d="M664 1116q218 0 350.5 -157t132.5 -416t-132.5 -416.5t-350.5 -157.5q-87 0 -162.5 29t-122.5 78v-537h-246v1546h240v-71q114 102 291 102zM637 197q120 0 192 94t72 252t-72 252t-192 94q-113 0 -185.5 -71t-72.5 -179v-190q0 -110 71.5 -181t186.5 -71z" />
    <glyph glyph-name="q" unicode="q" horiz-adv-x="1218" 
d="M846 1085h239v-1546h-245v537q-47 -49 -122.5 -78t-162.5 -29q-218 0 -350.5 157.5t-132.5 416.5t132.5 416t350.5 157q177 0 291 -102v71zM582 197q115 0 186.5 71t71.5 181v190q0 108 -72.5 179t-185.5 71q-120 0 -192.5 -94t-72.5 -252t72.5 -252t192.5 -94z" />
    <glyph glyph-name="r" unicode="r" horiz-adv-x="831" 
d="M606 1116q112 0 225 -65l-104 -215q-90 53 -170 53q-84 0 -131 -56.5t-47 -158.5v-674h-246v1085h225v-96q34 58 100.5 92.5t147.5 34.5z" />
    <glyph glyph-name="s" unicode="s" horiz-adv-x="1114" 
d="M594 -31q-215 0 -362 105t-181 282l219 50q22 -109 106.5 -169.5t217.5 -60.5q116 0 178 33.5t62 95.5q0 59 -62.5 90t-241.5 62q-222 35 -317.5 109t-95.5 212q0 148 118.5 243t301.5 95q175 0 313.5 -94.5t173.5 -239.5l-215 -61q-22 85 -97 137.5t-175 52.5
q-79 0 -134 -37.5t-55 -91.5q0 -50 60 -77t239 -56q219 -36 317.5 -114.5t98.5 -223.5q0 -158 -125.5 -250t-343.5 -92z" />
    <glyph glyph-name="t" unicode="t" horiz-adv-x="868" 
d="M246 1362l246 72v-349h327v-227h-327v-545q0 -116 110 -116q85 0 199 41l61 -220q-155 -49 -280 -49q-150 0 -243 89t-93 233v567h-240v227h240v277z" />
    <glyph glyph-name="u" unicode="u" horiz-adv-x="1216" 
d="M838 1085h245v-1085h-237v109q-50 -65 -129 -102.5t-166 -37.5q-192 0 -310 126t-118 333v657h246v-616q0 -135 59.5 -203.5t169.5 -68.5t175 74t65 200v614z" />
    <glyph glyph-name="v" unicode="v" horiz-adv-x="1126" 
d="M444 0l-434 1085h275l280 -766l277 766h274l-432 -1085h-240z" />
    <glyph glyph-name="w" unicode="w" horiz-adv-x="1548" 
d="M1311 1085h227l-278 -1085h-265l-221 715l-219 -715h-266l-279 1085h228l196 -780l242 780h198l240 -780z" />
    <glyph glyph-name="x" unicode="x" horiz-adv-x="1067" 
d="M1057 0h-275l-247 389l-250 -389h-275l373 555l-360 530h276l236 -362l233 362h276l-360 -530z" />
    <glyph glyph-name="y" unicode="y" horiz-adv-x="1116" 
d="M834 1085h272l-543 -1228q-44 -100 -108 -143.5t-176 -43.5q-60 0 -195 23l37 219q76 -12 141 -12q46 0 70 15t41 56l65 158l-428 956h275l272 -667z" />
    <glyph glyph-name="z" unicode="z" horiz-adv-x="1144" 
d="M92 0v199l629 675h-608v211h921v-198l-628 -674h647v-213h-961z" />
    <glyph glyph-name="braceleft" unicode="{" horiz-adv-x="788" 
d="M569 -430q-160 0 -245.5 85t-85.5 245v465q0 43 -24.5 65.5t-68.5 22.5h-94v235h94q44 0 68.5 22.5t24.5 65.5v422q0 160 85.5 245t245.5 85h189v-238h-129q-72 0 -103.5 -31.5t-31.5 -103.5v-350q0 -201 -162 -236q162 -35 162 -235v-391q0 -72 31.5 -104t103.5 -32h129
v-237h-189z" />
    <glyph glyph-name="bar" unicode="|" horiz-adv-x="645" 
d="M195 -565v2152h256v-2152h-256z" />
    <glyph glyph-name="braceright" unicode="}" horiz-adv-x="788" 
d="M219 -430h-188v237h129q72 0 103.5 32t31.5 104v391q0 200 162 235q-162 35 -162 236v350q0 72 -31.5 103.5t-103.5 31.5h-129v238h188q160 0 246 -85t86 -245v-422q0 -43 24 -65.5t68 -22.5h94v-235h-94q-44 0 -68 -22.5t-24 -65.5v-465q0 -160 -86 -245t-246 -85z" />
    <glyph glyph-name="asciitilde" unicode="~" 
d="M276 520l-225 74q89 330 377 330q66 0 131 -25.5t107.5 -55.5t91 -55.5t86.5 -25.5q54 0 88.5 37t60.5 125l226 -74q-89 -330 -375 -330q-66 0 -131 25.5t-108 55.5t-91.5 55.5t-85.5 25.5q-54 0 -89 -37t-63 -125z" />
    <glyph glyph-name="uni00A0" unicode="&#xa0;" horiz-adv-x="542" 
 />
    <glyph glyph-name="exclamdown" unicode="&#xa1;" horiz-adv-x="688" 
d="M195 1085h299v-292h-299v292zM225 637h256v-985h-256v985z" />
    <glyph glyph-name="cent" unicode="&#xa2;" horiz-adv-x="1257" 
d="M1145 375q-26 -157 -124 -259.5t-243 -133.5v-244h-256v246q-178 43 -283.5 191.5t-105.5 367.5q0 221 105.5 369t283.5 190v256h256v-254q142 -31 239 -129.5t126 -245.5l-238 -51q-23 101 -89.5 156t-160.5 55q-131 0 -203.5 -92.5t-72.5 -253.5t72.5 -253.5
t203.5 -92.5q102 0 167 59t85 168z" />
    <glyph glyph-name="sterling" unicode="&#xa3;" horiz-adv-x="1271" 
d="M410 240h770v-240h-1088v240q190 118 230 264h-205v205h172q-13 17 -43 52.5t-49 61.5t-41.5 64t-33.5 81t-11 91q0 176 132 290.5t345 114.5q239 0 394 -140t185 -366l-252 -40q-21 149 -104 229t-207 80q-107 0 -172 -56t-65 -147q0 -45 20 -88t46 -72.5t59 -73
t51 -81.5h338v-205h-316q-22 -145 -155 -264z" />
    <glyph glyph-name="currency" unicode="&#xa4;" horiz-adv-x="1374" 
d="M213 90l-100 98l159 158q-96 132 -96 318q0 185 96 317l-159 160l100 98l158 -158q132 101 317 101q186 0 318 -101l157 158l99 -98l-160 -160q98 -131 98 -317q0 -187 -98 -318l160 -158l-99 -98l-157 158q-134 -103 -318 -103q-183 0 -317 103zM688 383
q115 0 185.5 77.5t70.5 203.5q0 127 -70 203.5t-186 76.5t-186 -76.5t-70 -203.5q0 -126 70.5 -203.5t185.5 -77.5z" />
    <glyph glyph-name="yen" unicode="&#xa5;" horiz-adv-x="1404" 
d="M1339 1434l-395 -656h295v-221h-408v-106h408v-220h-408v-231h-256v231h-421v220h421v106h-421v221h309l-395 656h294l340 -590l342 590h295z" />
    <glyph glyph-name="brokenbar" unicode="&#xa6;" horiz-adv-x="663" 
d="M195 707v880h274v-880h-274zM195 -565v882h274v-882h-274z" />
    <glyph glyph-name="section" unicode="&#xa7;" horiz-adv-x="1310" 
d="M1198 504q0 -94 -40.5 -163.5t-141.5 -145.5q82 -94 82 -230q0 -158 -118 -264.5t-298 -106.5q-198 0 -323 103.5t-144 282.5l252 34q10 -86 66 -134t143 -48q74 0 120 38t46 99q0 55 -45 93t-172 88l-219 86q-145 58 -219 140t-74 179q0 94 41.5 163t142.5 146
q-84 93 -84 230q0 158 118.5 264t297.5 106q199 0 324 -103t145 -282l-254 -32q-10 84 -66 132t-143 48q-74 0 -120 -38t-46 -99q0 -53 45.5 -90.5t171.5 -88.5l219 -86q145 -58 219 -140.5t74 -180.5zM793 340l43 -18q106 70 106 151q0 43 -34 74t-117 63l-271 111l-43 18
q-108 -74 -108 -151q0 -43 34 -74t117 -65z" />
    <glyph glyph-name="dieresis" unicode="&#xa8;" horiz-adv-x="960" 
d="M113 1188v260h264v-260h-264zM586 1188v260h262v-260h-262z" />
    <glyph glyph-name="copyright" unicode="&#xa9;" horiz-adv-x="1341" 
d="M672 76q-243 0 -401 164.5t-158 416.5q0 253 158 417.5t401 164.5q120 0 223.5 -43.5t176.5 -120.5t115 -185t42 -233q0 -252 -157 -416.5t-400 -164.5zM672 244q169 0 276 114.5t107 298.5t-106.5 299t-276.5 115q-171 0 -278 -115t-107 -299t107 -298.5t278 -114.5z
M676 330q-126 0 -199.5 85t-73.5 240t73.5 241.5t199.5 86.5q109 0 177.5 -65.5t76.5 -172.5l-164 -18q-9 102 -90 102q-101 0 -101 -174q0 -172 101 -172q81 0 90 109l164 -19q-6 -114 -74.5 -178.5t-179.5 -64.5z" />
    <glyph glyph-name="ordfeminine" unicode="&#xaa;" horiz-adv-x="698" 
d="M680 930l16 -146q-61 -10 -90 -10q-104 0 -133 82q-62 -90 -201 -90q-104 0 -168.5 54.5t-64.5 142.5q0 79 52.5 126t168.5 72q105 22 135.5 36t30.5 42q0 29 -27.5 47.5t-70.5 18.5q-55 0 -92.5 -29t-45.5 -76l-153 23q12 98 94.5 161.5t196.5 63.5q120 0 190 -60
t70 -163v-246q0 -55 43 -55q19 0 49 6zM426 1012v86q-11 -14 -34.5 -25t-84.5 -29q-61 -19 -83.5 -34.5t-22.5 -40.5q0 -58 86 -58q59 0 99 29t40 72z" />
    <glyph glyph-name="guillemotleft" unicode="&#xab;" horiz-adv-x="1234" 
d="M662 977q-53 -195 -230 -399q177 -204 230 -402l-259 -78q-41 147 -107.5 256t-182.5 224q116 115 182.5 223.5t107.5 253.5zM1124 977q-53 -197 -229 -399q176 -202 229 -402l-258 -78q-41 146 -107.5 255.5t-183.5 224.5q117 115 183.5 223.5t107.5 253.5z" />
    <glyph glyph-name="logicalnot" unicode="&#xac;" 
d="M918 252v432h-867v238h1127v-670h-260z" />
    <glyph glyph-name="uni00AD" unicode="&#xad;" horiz-adv-x="880" 
d="M113 506v237h655v-237h-655z" />
    <glyph glyph-name="registered" unicode="&#xae;" horiz-adv-x="1341" 
d="M672 1239q120 0 223.5 -43.5t176.5 -120.5t115 -185t42 -233q0 -252 -157 -416.5t-400 -164.5t-401 164.5t-158 416.5q0 253 158 417.5t401 164.5zM672 244q169 0 276 114.5t107 298.5t-106.5 299t-276.5 115q-171 0 -278 -115t-107 -299t107 -298.5t278 -114.5zM731 969
q97 0 156 -54.5t59 -142.5q0 -70 -37.5 -118.5t-105.5 -65.5l106 -244h-155l-88 236h-50v-236h-145v625h260zM616 840v-142h101q80 0 80 72q0 34 -21 52t-59 18h-101z" />
    <glyph glyph-name="macron" unicode="&#xaf;" horiz-adv-x="942" 
d="M113 1188v188h716v-188h-716z" />
    <glyph glyph-name="degree" unicode="&#xb0;" horiz-adv-x="1013" 
d="M508 698q-176 0 -285.5 107.5t-109.5 275.5t109.5 275.5t285.5 107.5q174 0 283.5 -107.5t109.5 -275.5t-109.5 -275.5t-283.5 -107.5zM508 909q76 0 125 48.5t49 123.5t-49 124.5t-125 49.5q-77 0 -125.5 -49t-48.5 -125q0 -75 48 -123.5t126 -48.5z" />
    <glyph glyph-name="plusminus" unicode="&#xb1;" 
d="M764 938h414v-236h-414v-335h-256v335h-416v236h416v422h256v-422zM123 0v238h1024v-238h-1024z" />
    <glyph glyph-name="acute" unicode="&#xb4;" horiz-adv-x="733" 
d="M113 1188l190 289h318l-265 -289h-243z" />
    <glyph glyph-name="paragraph" unicode="&#xb6;" horiz-adv-x="1331" 
d="M444 -246v1010q-138 3 -234.5 99t-96.5 237q0 143 99 238.5t247 95.5h719v-1680h-256v1442h-222v-1442h-256z" />
    <glyph glyph-name="periodcentered" unicode="&#xb7;" horiz-adv-x="782" 
d="M225 584v325h332v-325h-332z" />
    <glyph glyph-name="cedilla" unicode="&#xb8;" horiz-adv-x="757" 
d="M426 -92q95 0 157 -54t62 -137q0 -99 -68.5 -159t-183.5 -60q-91 0 -164.5 37.5t-115.5 102.5l131 96q29 -44 61 -62t80 -18q45 0 69.5 20t22.5 54q-2 30 -25.5 47.5t-64.5 17.5q-44 0 -94 -33l-121 66l117 205h160l-74 -127q32 4 51 4z" />
    <glyph glyph-name="ordmasculine" unicode="&#xba;" horiz-adv-x="710" 
d="M354 760q-144 0 -230.5 92.5t-86.5 251.5t86.5 251.5t230.5 92.5q146 0 233 -92.5t87 -251.5q0 -158 -87.5 -251t-232.5 -93zM354 918q75 0 113.5 50.5t38.5 135.5t-38.5 136.5t-113.5 51.5q-74 0 -111.5 -50.5t-37.5 -137.5q0 -85 37.5 -135.5t111.5 -50.5z" />
    <glyph glyph-name="guillemotright" unicode="&#xbb;" horiz-adv-x="1234" 
d="M659 578q-116 -115 -182.5 -224t-107.5 -256l-258 78q53 200 229 402q-176 202 -229 399l258 78q41 -145 107.5 -253.5t182.5 -223.5zM831 1055q41 -145 107.5 -253.5t183.5 -223.5q-117 -115 -183.5 -224.5t-107.5 -255.5l-258 78q53 198 230 402q-177 204 -230 399z
" />
    <glyph glyph-name="onequarter" unicode="&#xbc;" horiz-adv-x="1695" 
d="M1083 1511l168 -73l-766 -1547l-166 70zM457 573h-187v629q-38 -38 -85.5 -63.5t-131.5 -53.5l-47 170q104 35 165.5 72.5t123.5 106.5h162v-861zM1569 328h100v-174h-100v-154h-189v154h-409v176q125 129 192.5 253t91.5 277h197q-21 -157 -99 -302t-175 -230h202v186
h189v-186z" />
    <glyph glyph-name="onehalf" unicode="&#xbd;" horiz-adv-x="1746" 
d="M1083 1511l168 -73l-766 -1547l-166 70zM457 573h-187v629q-38 -38 -85.5 -63.5t-131.5 -53.5l-47 170q104 35 165.5 72.5t123.5 106.5h162v-861zM1704 588q0 -82 -38 -143t-96 -96.5t-118 -61.5t-115 -54.5t-75 -58.5h415v-174h-606v96q0 74 24.5 130t64 89.5t86.5 59
t94.5 46t87 42t64 54.5t24.5 77q0 48 -37 79.5t-97 31.5q-65 0 -104 -38t-39 -100q0 -47 21 -102l-179 -51q-28 86 -28 153q0 136 92 224t237 88q141 0 231.5 -82t90.5 -209z" />
    <glyph glyph-name="threequarters" unicode="&#xbe;" horiz-adv-x="1849" 
d="M1237 1511l168 -73l-766 -1547l-166 70zM672 854q0 -131 -89 -215t-227 -84q-141 0 -231.5 81.5t-104.5 219.5l187 29q15 -156 149 -156q60 0 94.5 33.5t34.5 93.5q0 63 -33 92t-102 29h-145v115l235 168h-362v174h577v-187l-221 -153q110 -6 174 -70t64 -170zM1722 328
h101v-174h-101v-154h-188v154h-410v176q125 130 193 253.5t92 276.5h197q-21 -156 -99.5 -301.5t-175.5 -230.5h203v186h188v-186z" />
    <glyph glyph-name="questiondown" unicode="&#xbf;" 
d="M811 1085v-292h-299v292h299zM778 637v-293q-237 -70 -333.5 -135t-96.5 -162q0 -81 71 -134.5t183 -53.5q148 0 238.5 85.5t105.5 243.5l252 -28q-19 -248 -181.5 -393.5t-414.5 -145.5q-221 0 -365.5 122.5t-144.5 303.5q0 156 102.5 255t335.5 175v160h248z" />
    <glyph glyph-name="Agrave" unicode="&#xc0;" horiz-adv-x="1437" 
d="M854 1536h-244l-264 289h318zM1165 0l-137 340h-618l-138 -340h-262l590 1434h238l589 -1434h-262zM500 563h438l-219 545z" />
    <glyph glyph-name="Aacute" unicode="&#xc1;" horiz-adv-x="1437" 
d="M1079 1825l-264 -289h-244l191 289h317zM1165 0l-137 340h-618l-138 -340h-262l590 1434h238l589 -1434h-262zM500 563h438l-219 545z" />
    <glyph glyph-name="Acircumflex" unicode="&#xc2;" horiz-adv-x="1437" 
d="M723 1675l-141 -180l-172 127l145 182h334l145 -182l-170 -127zM1165 0l-137 340h-618l-138 -340h-262l590 1434h238l589 -1434h-262zM500 563h438l-219 545z" />
    <glyph glyph-name="Atilde" unicode="&#xc3;" horiz-adv-x="1437" 
d="M604 1610q-54 0 -69 -74h-160q6 127 59 194.5t148 67.5q46 0 96.5 -20.5t93 -41t70.5 -20.5q57 0 69 72h160q-4 -126 -57.5 -194t-145.5 -68q-47 0 -98 21t-94 42t-72 21zM1165 0l-137 340h-618l-138 -340h-262l590 1434h238l589 -1434h-262zM500 563h438l-219 545z" />
    <glyph glyph-name="Adieresis" unicode="&#xc4;" horiz-adv-x="1437" 
d="M618 1796v-260h-264v260h264zM1090 1796v-260h-263v260h263zM1165 0l-137 340h-618l-138 -340h-262l590 1434h238l589 -1434h-262zM500 563h438l-219 545z" />
    <glyph glyph-name="Aring" unicode="&#xc5;" horiz-adv-x="1437" 
d="M1165 0l-137 340h-618l-138 -340h-262l549 1333q-56 34 -86.5 87.5t-30.5 119.5q0 108 78.5 177t202.5 69q123 0 200.5 -69t77.5 -177q0 -67 -32 -121.5t-88 -87.5l546 -1331h-262zM723 1645q-47 0 -76 -29.5t-29 -75.5t29 -76t76 -30q45 0 73.5 30t28.5 76t-28.5 75.5
t-73.5 29.5zM500 563h438l-219 545z" />
    <glyph glyph-name="AE" unicode="&#xc6;" horiz-adv-x="1726" 
d="M1655 1206h-533v-344h467v-219h-467v-416h533v-227h-781v340h-473l-125 -340h-266l543 1434h1102v-228zM481 553h393v653h-151z" />
    <glyph glyph-name="Ccedilla" unicode="&#xc7;" horiz-adv-x="1320" 
d="M1270 483q-35 -225 -175.5 -360t-349.5 -152l-57 -98q32 4 51 4q95 0 157 -53.5t62 -136.5q0 -99 -68 -159t-183 -60q-91 0 -165 37t-116 102l131 96q29 -44 61 -62t80 -18q45 0 70 20t23 54q-2 30 -26 47.5t-65 17.5q-45 0 -94 -32l-121 65l103 182q-243 35 -379.5 235
t-136.5 505q0 165 42 302.5t120 236t195 153.5t261 55q229 0 384 -132.5t192 -358.5l-246 -43q-30 145 -117 221t-213 76q-174 0 -267 -137.5t-93 -372.5t93 -372.5t267 -137.5q128 0 217 79.5t117 237.5z" />
    <glyph glyph-name="Egrave" unicode="&#xc8;" horiz-adv-x="1161" 
d="M758 1536h-244l-264 289h317zM154 0v1434h936v-238h-678v-350h510v-230h-510v-378h678v-238h-936z" />
    <glyph glyph-name="Eacute" unicode="&#xc9;" horiz-adv-x="1161" 
d="M475 1536l191 289h317l-264 -289h-244zM154 0v1434h936v-238h-678v-350h510v-230h-510v-378h678v-238h-936z" />
    <glyph glyph-name="Ecircumflex" unicode="&#xca;" horiz-adv-x="1161" 
d="M627 1675l-142 -180l-172 127l146 182h334l145 -182l-170 -127zM1090 1196h-678v-350h510v-230h-510v-378h678v-238h-936v1434h936v-238z" />
    <glyph glyph-name="Edieresis" unicode="&#xcb;" horiz-adv-x="1161" 
d="M258 1536v260h264v-260h-264zM731 1536v260h262v-260h-262zM154 0v1434h936v-238h-678v-350h510v-230h-510v-378h678v-238h-936z" />
    <glyph glyph-name="Igrave" unicode="&#xcc;" horiz-adv-x="565" 
d="M422 1536h-244l-264 289h317zM154 0v1434h258v-1434h-258z" />
    <glyph glyph-name="Iacute" unicode="&#xcd;" horiz-adv-x="565" 
d="M139 1536l191 289h317l-264 -289h-244zM154 0v1434h258v-1434h-258z" />
    <glyph glyph-name="Icircumflex" unicode="&#xce;" horiz-adv-x="565" 
d="M457 1804l145 -182l-170 -127l-141 180l-141 -180l-173 127l146 182h334zM154 0v1434h258v-1434h-258z" />
    <glyph glyph-name="Idieresis" unicode="&#xcf;" horiz-adv-x="565" 
d="M-78 1536v260h264v-260h-264zM395 1536v260h262v-260h-262zM154 0v1434h258v-1434h-258z" />
    <glyph glyph-name="Eth" unicode="&#xd0;" horiz-adv-x="1423" 
d="M678 1434q317 0 495.5 -187.5t178.5 -529.5q0 -341 -178.5 -529t-495.5 -188h-477v614h-191v224h191v596h477zM653 238q222 0 332.5 118t110.5 361q0 244 -110 361.5t-333 117.5h-196v-358h284v-224h-284v-376h196z" />
    <glyph glyph-name="Ntilde" unicode="&#xd1;" horiz-adv-x="1380" 
d="M571 1610q-54 0 -69 -74h-160q6 127 59 194.5t148 67.5q46 0 96.5 -20.5t93 -41t70.5 -20.5q58 0 70 72h159q-4 -126 -57 -194t-145 -68q-47 0 -98 21t-94.5 42t-72.5 21zM971 1434h256v-1434h-271l-546 995v-995h-256v1434h270l547 -994v994z" />
    <glyph glyph-name="Ograve" unicode="&#xd2;" horiz-adv-x="1380" 
d="M821 1567h-243l-265 288h318zM690 -31q-192 0 -333 95.5t-213 263.5t-72 389q0 165 42 302.5t120 236t195 153.5t261 55q192 0 333 -95t213.5 -263.5t72.5 -388.5t-72.5 -388.5t-213.5 -264t-333 -95.5zM690 207q174 0 267.5 137.5t93.5 372.5t-93.5 372.5t-267.5 137.5
t-267 -137.5t-93 -372.5t93 -372.5t267 -137.5z" />
    <glyph glyph-name="Oacute" unicode="&#xd3;" horiz-adv-x="1380" 
d="M539 1567l190 288h318l-265 -288h-243zM690 -31q-192 0 -333 95.5t-213 263.5t-72 389q0 165 42 302.5t120 236t195 153.5t261 55q192 0 333 -95t213.5 -263.5t72.5 -388.5t-72.5 -388.5t-213.5 -264t-333 -95.5zM690 207q174 0 267.5 137.5t93.5 372.5t-93.5 372.5
t-267.5 137.5t-267 -137.5t-93 -372.5t93 -372.5t267 -137.5z" />
    <glyph glyph-name="Ocircumflex" unicode="&#xd4;" horiz-adv-x="1380" 
d="M690 1706l-141 -180l-172 127l145 182h334l145 -182l-170 -127zM690 1464q192 0 333 -95t213.5 -263.5t72.5 -388.5t-72.5 -388.5t-213.5 -264t-333 -95.5t-333 95.5t-213 263.5t-72 389q0 165 42 302.5t120 236t195 153.5t261 55zM690 207q174 0 267.5 137.5t93.5 372.5
t-93.5 372.5t-267.5 137.5t-267 -137.5t-93 -372.5t93 -372.5t267 -137.5z" />
    <glyph glyph-name="Otilde" unicode="&#xd5;" horiz-adv-x="1380" 
d="M836 1556q-47 0 -98 21t-94.5 42t-72.5 21q-55 0 -69 -73h-160q6 127 59 194.5t148 67.5q46 0 96.5 -20.5t93 -41t70.5 -20.5q58 0 70 72h159q-4 -127 -57.5 -195t-144.5 -68zM690 -31q-192 0 -333 95.5t-213 263.5t-72 389q0 165 42 302.5t120 236t195 153.5t261 55
q192 0 333 -95t213.5 -263.5t72.5 -388.5t-72.5 -388.5t-213.5 -264t-333 -95.5zM690 207q174 0 267.5 137.5t93.5 372.5t-93.5 372.5t-267.5 137.5t-267 -137.5t-93 -372.5t93 -372.5t267 -137.5z" />
    <glyph glyph-name="Odieresis" unicode="&#xd6;" horiz-adv-x="1380" 
d="M322 1567v260h264v-260h-264zM795 1567v260h262v-260h-262zM690 -31q-192 0 -333 95.5t-213 263.5t-72 389q0 165 42 302.5t120 236t195 153.5t261 55q192 0 333 -95t213.5 -263.5t72.5 -388.5t-72.5 -388.5t-213.5 -264t-333 -95.5zM690 207q174 0 267.5 137.5
t93.5 372.5t-93.5 372.5t-267.5 137.5t-267 -137.5t-93 -372.5t93 -372.5t267 -137.5z" />
    <glyph glyph-name="multiply" unicode="&#xd7;" 
d="M1112 989l-299 -299l293 -295l-168 -166l-293 293l-301 -301l-180 182l301 302l-295 292l168 166l293 -293l301 301z" />
    <glyph glyph-name="Oslash" unicode="&#xd8;" horiz-adv-x="1380" 
d="M1116 1290q94 -100 143.5 -246.5t49.5 -326.5q0 -220 -72.5 -388.5t-213.5 -264t-333 -95.5q-146 0 -268 58l-82 -150l-172 92l96 174q-94 100 -143 247t-49 327q0 165 42 302.5t120 236t195 153.5t261 55q148 0 268 -57l82 147l172 -90zM315 717q0 -213 74 -346l461 837
q-67 37 -160 37q-180 0 -277.5 -142t-97.5 -386zM690 188q181 0 278 142.5t97 386.5q0 213 -74 346l-461 -838q70 -37 160 -37z" />
    <glyph glyph-name="Ugrave" unicode="&#xd9;" horiz-adv-x="1445" 
d="M854 1536h-244l-264 289h318zM725 -31q-171 0 -301 62t-205.5 188t-75.5 301v914h258v-902q0 -167 85 -246t239 -79q153 0 237.5 79t84.5 246v902h256v-914q0 -263 -158.5 -407t-419.5 -144z" />
    <glyph glyph-name="Uacute" unicode="&#xda;" horiz-adv-x="1445" 
d="M571 1536l191 289h317l-264 -289h-244zM725 -31q-171 0 -301 62t-205.5 188t-75.5 301v914h258v-902q0 -167 85 -246t239 -79q153 0 237.5 79t84.5 246v902h256v-914q0 -263 -158.5 -407t-419.5 -144z" />
    <glyph glyph-name="Ucircumflex" unicode="&#xdb;" horiz-adv-x="1445" 
d="M723 1675l-141 -180l-172 127l145 182h334l145 -182l-170 -127zM1047 1434h256v-914q0 -263 -158.5 -407t-419.5 -144q-171 0 -301 62t-205.5 188t-75.5 301v914h258v-902q0 -167 85 -246t239 -79q153 0 237.5 79t84.5 246v902z" />
    <glyph glyph-name="Udieresis" unicode="&#xdc;" horiz-adv-x="1445" 
d="M354 1536v260h264v-260h-264zM827 1536v260h263v-260h-263zM725 -31q-171 0 -301 62t-205.5 188t-75.5 301v914h258v-902q0 -167 85 -246t239 -79q153 0 237.5 79t84.5 246v902h256v-914q0 -263 -158.5 -407t-419.5 -144z" />
    <glyph glyph-name="Yacute" unicode="&#xdd;" horiz-adv-x="1282" 
d="M999 1825l-264 -289h-243l190 289h317zM983 1434h295l-508 -844v-590h-256v590l-508 844h295l340 -590z" />
    <glyph glyph-name="Thorn" unicode="&#xde;" horiz-adv-x="1310" 
d="M784 1180q206 0 341 -127t135 -320q0 -190 -139 -318t-347 -128h-362v-287h-258v1434h258v-254h372zM762 524q107 0 174.5 58.5t67.5 150.5q0 95 -66.5 152t-175.5 57h-350v-418h350z" />
    <glyph glyph-name="germandbls" unicode="&#xdf;" horiz-adv-x="1228" 
d="M940 766q101 -46 159 -136t58 -204q0 -188 -134.5 -307t-344.5 -119h-158v227h144q118 0 182.5 55.5t64.5 155.5q0 101 -64.5 157t-182.5 56h-144v209h109q106 0 164.5 50t58.5 139q0 82 -62.5 135t-160.5 53q-124 0 -187 -64t-63 -188v-985h-246v997q0 210 134 338.5
t356 128.5q204 0 339.5 -117t135.5 -294q0 -95 -42 -169t-116 -118z" />
    <glyph glyph-name="agrave" unicode="&#xe0;" horiz-adv-x="1157" 
d="M678 1219h-244l-264 288h317zM1124 219l27 -209q-84 -16 -143 -16q-76 0 -130 31.5t-79 89.5q-52 -63 -137.5 -99t-190.5 -36q-178 0 -286.5 88t-108.5 233q0 135 87 213t286 119q174 38 231 66.5t57 82.5q0 56 -52 90.5t-138 34.5q-103 0 -170.5 -54t-79.5 -144l-225 34
q23 165 156 269t319 104q197 0 309.5 -96.5t112.5 -265.5v-449q0 -48 16 -72t55 -24q30 0 84 10zM737 379v176q-19 -24 -66 -44.5t-159 -53.5q-121 -35 -163 -65t-42 -81q0 -59 43 -90t125 -31q114 0 188 53t74 136z" />
    <glyph glyph-name="aacute" unicode="&#xe1;" horiz-adv-x="1157" 
d="M903 1507l-264 -288h-244l191 288h317zM1124 219l27 -209q-84 -16 -143 -16q-76 0 -130 31.5t-79 89.5q-52 -63 -137.5 -99t-190.5 -36q-178 0 -286.5 88t-108.5 233q0 135 87 213t286 119q174 38 231 66.5t57 82.5q0 56 -52 90.5t-138 34.5q-103 0 -170.5 -54
t-79.5 -144l-225 34q23 165 156 269t319 104q197 0 309.5 -96.5t112.5 -265.5v-449q0 -48 16 -72t55 -24q30 0 84 10zM737 379v176q-19 -24 -66 -44.5t-159 -53.5q-121 -35 -163 -65t-42 -81q0 -59 43 -90t125 -31q114 0 188 53t74 136z" />
    <glyph glyph-name="acircumflex" unicode="&#xe2;" horiz-adv-x="1157" 
d="M547 1358l-141 -180l-173 127l146 182h334l145 -182l-170 -127zM1124 219l27 -209q-84 -16 -143 -16q-76 0 -130 31.5t-79 89.5q-52 -63 -137.5 -99t-190.5 -36q-178 0 -286.5 88t-108.5 233q0 135 87 213t286 119q174 38 231 66.5t57 82.5q0 56 -52 90.5t-138 34.5
q-103 0 -170.5 -54t-79.5 -144l-225 34q23 165 156 269t319 104q197 0 309.5 -96.5t112.5 -265.5v-449q0 -48 16 -72t55 -24q30 0 84 10zM737 379v176q-19 -24 -66 -44.5t-159 -53.5q-121 -35 -163 -65t-42 -81q0 -59 43 -90t125 -31q114 0 188 53t74 136z" />
    <glyph glyph-name="atilde" unicode="&#xe3;" horiz-adv-x="1157" 
d="M428 1292q-56 0 -70 -73h-159q6 127 59 194.5t148 67.5q46 0 96.5 -20.5t93 -41t70.5 -20.5q57 0 69 71h160q-4 -126 -57.5 -194t-145.5 -68q-47 0 -98 21t-94 42t-72 21zM1124 219l27 -209q-84 -16 -143 -16q-76 0 -130 31.5t-79 89.5q-52 -63 -137.5 -99t-190.5 -36
q-178 0 -286.5 88t-108.5 233q0 135 87 213t286 119q174 38 231 66.5t57 82.5q0 56 -52 90.5t-138 34.5q-103 0 -170.5 -54t-79.5 -144l-225 34q23 165 156 269t319 104q197 0 309.5 -96.5t112.5 -265.5v-449q0 -48 16 -72t55 -24q30 0 84 10zM737 379v176
q-19 -24 -66 -44.5t-159 -53.5q-121 -35 -163 -65t-42 -81q0 -59 43 -90t125 -31q114 0 188 53t74 136z" />
    <glyph glyph-name="adieresis" unicode="&#xe4;" horiz-adv-x="1157" 
d="M442 1479v-260h-264v260h264zM913 1479v-260h-262v260h262zM1124 219l27 -209q-84 -16 -143 -16q-76 0 -130 31.5t-79 89.5q-52 -63 -137.5 -99t-190.5 -36q-178 0 -286.5 88t-108.5 233q0 135 87 213t286 119q174 38 231 66.5t57 82.5q0 56 -52 90.5t-138 34.5
q-103 0 -170.5 -54t-79.5 -144l-225 34q23 165 156 269t319 104q197 0 309.5 -96.5t112.5 -265.5v-449q0 -48 16 -72t55 -24q30 0 84 10zM737 379v176q-19 -24 -66 -44.5t-159 -53.5q-121 -35 -163 -65t-42 -81q0 -59 43 -90t125 -31q114 0 188 53t74 136z" />
    <glyph glyph-name="aring" unicode="&#xe5;" horiz-adv-x="1157" 
d="M1124 219l27 -209q-84 -16 -143 -16q-76 0 -130 31.5t-79 89.5q-52 -63 -137.5 -99t-190.5 -36q-178 0 -286.5 88t-108.5 233q0 135 87 213t286 119q174 38 231 66.5t57 82.5q0 56 -52 90.5t-138 34.5q-103 0 -170.5 -54t-79.5 -144l-225 34q15 109 81 194.5t169 131.5
q-56 66 -56 154q0 108 78.5 176.5t202.5 68.5q123 0 200.5 -68.5t77.5 -176.5q0 -89 -51 -152q93 -43 144 -124.5t51 -192.5v-449q0 -48 16 -72t55 -24q30 0 84 10zM442 1223q0 -46 29 -76.5t76 -30.5q45 0 73.5 30.5t28.5 76.5t-28 75t-74 29q-47 0 -76 -29t-29 -75z
M737 379v176q-19 -24 -66 -44.5t-159 -53.5q-121 -35 -163 -65t-42 -81q0 -59 43 -90t125 -31q114 0 188 53t74 136z" />
    <glyph glyph-name="ae" unicode="&#xe6;" horiz-adv-x="1806" 
d="M967 451q17 -124 83.5 -191t174.5 -67q94 0 161.5 42t131.5 138l182 -146q-77 -122 -198.5 -190t-276.5 -68q-256 0 -387 189q-51 -88 -144.5 -138.5t-216.5 -50.5q-179 0 -290 94t-111 242q0 136 86.5 213.5t286.5 118.5q115 24 170.5 43t77.5 41t22 57q0 52 -49 84.5
t-129 32.5q-97 0 -158.5 -49.5t-73.5 -138.5l-237 36q23 167 153 270t316 103q237 0 338 -141q132 141 346 141q229 0 369.5 -157t140.5 -416v-92h-768zM1225 895q-110 0 -181 -68t-77 -180h516q-12 120 -80 184t-178 64zM719 381v166q-33 -48 -203 -96
q-117 -33 -155.5 -60.5t-38.5 -81.5q0 -53 43.5 -84.5t121.5 -31.5q96 0 164 55.5t68 132.5z" />
    <glyph glyph-name="ccedilla" unicode="&#xe7;" horiz-adv-x="1134" 
d="M1083 375q-29 -177 -146 -283t-288 -121l-57 -98q32 4 51 4q95 0 157 -53.5t62 -136.5q0 -99 -68.5 -159t-183.5 -60q-91 0 -164.5 37t-115.5 102l131 96q29 -44 61 -62t80 -18q45 0 69.5 20t22.5 54q-2 30 -25.5 47.5t-64.5 17.5q-45 0 -94 -32l-121 65l105 182
q-192 34 -307 185t-115 381q0 261 145 417t377 156q186 0 319 -104.5t168 -282.5l-237 -51q-23 101 -89.5 156t-160.5 55q-131 0 -204 -92.5t-73 -253.5t73 -253.5t204 -92.5q102 0 167 59t85 168z" />
    <glyph glyph-name="egrave" unicode="&#xe8;" horiz-adv-x="1159" 
d="M709 1219h-244l-264 288h317zM311 453q17 -129 86.5 -200t180.5 -71q97 0 165.5 45.5t130.5 143.5l177 -135q-74 -125 -195.5 -196t-277.5 -71q-232 0 -369 156t-137 418q0 259 138.5 416t367.5 157q228 0 368.5 -157t140.5 -416v-90h-776zM578 903q-113 0 -186.5 -70.5
t-80.5 -189.5h533q-13 126 -82.5 193t-183.5 67z" />
    <glyph glyph-name="eacute" unicode="&#xe9;" horiz-adv-x="1159" 
d="M934 1507l-264 -288h-244l190 288h318zM311 453q17 -129 86.5 -200t180.5 -71q97 0 165.5 45.5t130.5 143.5l177 -135q-74 -125 -195.5 -196t-277.5 -71q-232 0 -369 156t-137 418q0 259 138.5 416t367.5 157q228 0 368.5 -157t140.5 -416v-90h-776zM578 903
q-113 0 -186.5 -70.5t-80.5 -189.5h533q-13 126 -82.5 193t-183.5 67z" />
    <glyph glyph-name="ecircumflex" unicode="&#xea;" horiz-adv-x="1159" 
d="M578 1358l-142 -180l-172 127l146 182h333l146 -182l-170 -127zM311 453q17 -129 86.5 -200t180.5 -71q97 0 165.5 45.5t130.5 143.5l177 -135q-74 -125 -195.5 -196t-277.5 -71q-232 0 -369 156t-137 418q0 259 138.5 416t367.5 157q228 0 368.5 -157t140.5 -416v-90
h-776zM578 903q-113 0 -186.5 -70.5t-80.5 -189.5h533q-13 126 -82.5 193t-183.5 67z" />
    <glyph glyph-name="edieresis" unicode="&#xeb;" horiz-adv-x="1159" 
d="M473 1479v-260h-264v260h264zM944 1479v-260h-262v260h262zM311 453q17 -129 86.5 -200t180.5 -71q97 0 165.5 45.5t130.5 143.5l177 -135q-74 -125 -195.5 -196t-277.5 -71q-232 0 -369 156t-137 418q0 259 138.5 416t367.5 157q228 0 368.5 -157t140.5 -416v-90h-776z
M578 903q-113 0 -186.5 -70.5t-80.5 -189.5h533q-13 126 -82.5 193t-183.5 67z" />
    <glyph glyph-name="igrave" unicode="&#xec;" horiz-adv-x="512" 
d="M418 1188h-244l-264 289h317zM133 0v1085h246v-1085h-246z" />
    <glyph glyph-name="iacute" unicode="&#xed;" horiz-adv-x="512" 
d="M104 1188l191 289h317l-264 -289h-244zM133 0v1085h246v-1085h-246z" />
    <glyph glyph-name="icircumflex" unicode="&#xee;" horiz-adv-x="512" 
d="M422 1456l145 -182l-170 -127l-141 180l-141 -180l-172 127l145 182h334zM133 0v1085h246v-1085h-246z" />
    <glyph glyph-name="idieresis" unicode="&#xef;" horiz-adv-x="512" 
d="M-41 1188v254h256v-254h-256zM297 1188v254h256v-254h-256zM133 0v1085h246v-1085h-246z" />
    <glyph glyph-name="eth" unicode="&#xf0;" horiz-adv-x="1187" 
d="M877 1235q239 -360 239 -694q0 -264 -140.5 -418t-381.5 -154q-238 0 -380 148t-142 397q0 239 137.5 390t355.5 151q108 0 187 -43q-53 97 -97 164l-239 -66l-37 113l205 55q-84 105 -125 152v6h264q36 -41 80 -99l239 64l35 -113zM594 199q132 0 204 84.5t72 238.5
q0 145 -72 225t-204 80t-204.5 -81.5t-72.5 -231.5q0 -152 71.5 -233.5t205.5 -81.5z" />
    <glyph glyph-name="ntilde" unicode="&#xf1;" horiz-adv-x="1249" 
d="M553 1292q-56 0 -70 -73h-159q6 127 58.5 194.5t147.5 67.5q46 0 96.5 -20.5t93.5 -41t71 -20.5q57 0 69 71h160q-4 -126 -57.5 -194t-145.5 -68q-47 0 -98 21t-94 42t-72 21zM698 1116q185 0 306.5 -125t121.5 -334v-657h-245v627q0 130 -62.5 196t-181.5 66
q-118 0 -188 -72.5t-70 -191.5v-625h-246v1085h240v-104q53 63 139 99t186 36z" />
    <glyph glyph-name="ograve" unicode="&#xf2;" horiz-adv-x="1187" 
d="M725 1219h-244l-264 288h318zM594 -31q-237 0 -379.5 155.5t-142.5 418.5t142.5 418t379.5 155t379.5 -155t142.5 -418t-142.5 -418.5t-379.5 -155.5zM594 197q135 0 205.5 93t70.5 253t-70.5 253t-205.5 93q-134 0 -205.5 -93.5t-71.5 -252.5t71.5 -252.5t205.5 -93.5z
" />
    <glyph glyph-name="oacute" unicode="&#xf3;" horiz-adv-x="1187" 
d="M442 1219l191 288h317l-264 -288h-244zM594 -31q-237 0 -379.5 155.5t-142.5 418.5t142.5 418t379.5 155t379.5 -155t142.5 -418t-142.5 -418.5t-379.5 -155.5zM594 197q135 0 205.5 93t70.5 253t-70.5 253t-205.5 93q-134 0 -205.5 -93.5t-71.5 -252.5t71.5 -252.5
t205.5 -93.5z" />
    <glyph glyph-name="ocircumflex" unicode="&#xf4;" horiz-adv-x="1187" 
d="M594 1358l-141 -180l-172 127l145 182h334l145 -182l-170 -127zM594 1116q237 0 379.5 -155t142.5 -418t-142.5 -418.5t-379.5 -155.5t-379.5 155.5t-142.5 418.5t142.5 418t379.5 155zM594 197q135 0 205.5 93t70.5 253t-70.5 253t-205.5 93q-134 0 -205.5 -93.5
t-71.5 -252.5t71.5 -252.5t205.5 -93.5z" />
    <glyph glyph-name="otilde" unicode="&#xf5;" horiz-adv-x="1187" 
d="M739 1208q-47 0 -98 21t-94 42t-72 21q-55 0 -69 -73h-160q6 127 59 194.5t148 67.5q46 0 96.5 -20.5t93 -41t70.5 -20.5q57 0 69 71h160q-4 -126 -57.5 -194t-145.5 -68zM594 -31q-237 0 -379.5 155.5t-142.5 418.5t142.5 418t379.5 155t379.5 -155t142.5 -418
t-142.5 -418.5t-379.5 -155.5zM594 197q135 0 205.5 93t70.5 253t-70.5 253t-205.5 93q-134 0 -205.5 -93.5t-71.5 -252.5t71.5 -252.5t205.5 -93.5z" />
    <glyph glyph-name="odieresis" unicode="&#xf6;" horiz-adv-x="1187" 
d="M225 1219v260h264v-260h-264zM698 1219v260h263v-260h-263zM594 -31q-237 0 -379.5 155.5t-142.5 418.5t142.5 418t379.5 155t379.5 -155t142.5 -418t-142.5 -418.5t-379.5 -155.5zM594 197q135 0 205.5 93t70.5 253t-70.5 253t-205.5 93q-134 0 -205.5 -93.5
t-71.5 -252.5t71.5 -252.5t205.5 -93.5z" />
    <glyph glyph-name="divide" unicode="&#xf7;" 
d="M496 1022v274h278v-274h-278zM154 569v256h962v-256h-962zM496 90v275h278v-275h-278z" />
    <glyph glyph-name="oslash" unicode="&#xf8;" horiz-adv-x="1187" 
d="M991 940q125 -153 125 -397q0 -263 -142.5 -418.5t-379.5 -155.5q-148 0 -260 62l-94 -131l-148 96l107 147q-127 152 -127 400q0 263 142.5 418t379.5 155q150 0 260 -61l94 131l148 -103zM309 543q0 -113 35 -197l379 526q-60 29 -129 29q-138 0 -211.5 -97t-73.5 -261
zM594 184q139 0 213 97.5t74 261.5q0 113 -35 194l-381 -524q60 -29 129 -29z" />
    <glyph glyph-name="ugrave" unicode="&#xf9;" horiz-adv-x="1216" 
d="M739 1188h-243l-265 289h318zM838 1085h245v-1085h-237v109q-50 -65 -129 -102.5t-166 -37.5q-192 0 -310 126t-118 333v657h246v-616q0 -135 59.5 -203.5t169.5 -68.5t175 74t65 200v614z" />
    <glyph glyph-name="uacute" unicode="&#xfa;" horiz-adv-x="1216" 
d="M965 1477l-265 -289h-243l190 289h318zM838 1085h245v-1085h-237v109q-50 -65 -129 -102.5t-166 -37.5q-192 0 -310 126t-118 333v657h246v-616q0 -135 59.5 -203.5t169.5 -68.5t175 74t65 200v614z" />
    <glyph glyph-name="ucircumflex" unicode="&#xfb;" horiz-adv-x="1216" 
d="M608 1327l-141 -180l-172 127l145 182h334l146 -182l-170 -127zM838 1085h245v-1085h-237v109q-50 -65 -129 -102.5t-166 -37.5q-192 0 -310 126t-118 333v657h246v-616q0 -135 59.5 -203.5t169.5 -68.5t175 74t65 200v614z" />
    <glyph glyph-name="udieresis" unicode="&#xfc;" horiz-adv-x="1216" 
d="M504 1448v-260h-264v260h264zM975 1448v-260h-262v260h262zM838 1085h245v-1085h-237v109q-50 -65 -129 -102.5t-166 -37.5q-192 0 -310 126t-118 333v657h246v-616q0 -135 59.5 -203.5t169.5 -68.5t175 74t65 200v614z" />
    <glyph glyph-name="yacute" unicode="&#xfd;" horiz-adv-x="1116" 
d="M920 1477l-265 -289h-243l190 289h318zM834 1085h272l-543 -1228q-44 -100 -108 -143.5t-176 -43.5q-60 0 -195 23l37 219q76 -12 141 -12q46 0 70 15t41 56l65 158l-428 956h275l272 -667z" />
    <glyph glyph-name="thorn" unicode="&#xfe;" horiz-adv-x="1218" 
d="M664 1116q218 0 350.5 -157t132.5 -416t-132.5 -416.5t-350.5 -157.5q-87 0 -162.5 29t-122.5 78v-537h-246v1895h246v-414q115 96 285 96zM637 197q120 0 192 94t72 252t-72 252t-192 94q-113 0 -185.5 -71t-72.5 -179v-190q0 -110 71.5 -181t186.5 -71z" />
    <glyph glyph-name="ydieresis" unicode="&#xff;" horiz-adv-x="1116" 
d="M459 1448v-260h-264v260h264zM930 1448v-260h-262v260h262zM834 1085h272l-543 -1228q-44 -100 -108 -143.5t-176 -43.5q-60 0 -195 23l37 219q76 -12 141 -12q46 0 70 15t41 56l65 158l-428 956h275l272 -667z" />
    <glyph glyph-name="Amacron" unicode="&#x100;" horiz-adv-x="1437" 
d="M1081 1724v-188h-716v188h716zM1165 0l-137 340h-618l-138 -340h-262l590 1434h238l589 -1434h-262zM500 563h438l-219 545z" />
    <glyph glyph-name="amacron" unicode="&#x101;" horiz-adv-x="1157" 
d="M905 1407v-188h-717v188h717zM1124 219l27 -209q-84 -16 -143 -16q-76 0 -130 31.5t-79 89.5q-52 -63 -137.5 -99t-190.5 -36q-178 0 -286.5 88t-108.5 233q0 135 87 213t286 119q174 38 231 66.5t57 82.5q0 56 -52 90.5t-138 34.5q-103 0 -170.5 -54t-79.5 -144l-225 34
q23 165 156 269t319 104q197 0 309.5 -96.5t112.5 -265.5v-449q0 -48 16 -72t55 -24q30 0 84 10zM737 379v176q-19 -24 -66 -44.5t-159 -53.5q-121 -35 -163 -65t-42 -81q0 -59 43 -90t125 -31q114 0 188 53t74 136z" />
    <glyph glyph-name="Abreve" unicode="&#x102;" horiz-adv-x="1437" 
d="M723 1516q-128 0 -210.5 78.5t-82.5 199.5h158q9 -46 44 -74t91 -28t91 28t46 74h156q0 -121 -82.5 -199.5t-210.5 -78.5zM1165 0l-137 340h-618l-138 -340h-262l590 1434h238l589 -1434h-262zM500 563h438l-219 545z" />
    <glyph glyph-name="abreve" unicode="&#x103;" horiz-adv-x="1157" 
d="M547 1198q-128 0 -210.5 79t-82.5 200h158q9 -46 44 -74.5t91 -28.5t91 28t46 75h156q0 -121 -82.5 -200t-210.5 -79zM1124 219l27 -209q-84 -16 -143 -16q-76 0 -130 31.5t-79 89.5q-52 -63 -137.5 -99t-190.5 -36q-178 0 -286.5 88t-108.5 233q0 135 87 213t286 119
q174 38 231 66.5t57 82.5q0 56 -52 90.5t-138 34.5q-103 0 -170.5 -54t-79.5 -144l-225 34q23 165 156 269t319 104q197 0 309.5 -96.5t112.5 -265.5v-449q0 -48 16 -72t55 -24q30 0 84 10zM737 379v176q-19 -24 -66 -44.5t-159 -53.5q-121 -35 -163 -65t-42 -81
q0 -59 43 -90t125 -31q114 0 188 53t74 136z" />
    <glyph glyph-name="Aogonek" unicode="&#x104;" horiz-adv-x="1437" 
d="M1163 -262q74 0 183 53l75 -172q-144 -68 -264 -68q-123 0 -195.5 54.5t-72.5 146.5q0 88 62 157t198 130l-121 301h-618l-138 -340h-262l590 1434h238l589 -1434h-135q-114 -67 -162.5 -115t-48.5 -92q0 -55 82 -55zM500 563h438l-219 545z" />
    <glyph glyph-name="aogonek" unicode="&#x105;" horiz-adv-x="1157" 
d="M1145 -209l76 -172q-144 -68 -265 -68q-123 0 -195.5 54.5t-72.5 146.5q0 80 50.5 143.5t158.5 118.5q-66 29 -98 101q-52 -63 -137.5 -99t-190.5 -36q-178 0 -286.5 88t-108.5 233q0 135 87 213t286 119q174 38 231 66.5t57 82.5q0 56 -52 90.5t-138 34.5
q-103 0 -170.5 -54t-79.5 -144l-225 34q23 165 156 269t319 104q197 0 309.5 -96.5t112.5 -265.5v-449q0 -48 16 -72t55 -24q30 0 84 10l27 -209q-54 -9 -59 -10q-114 -67 -162.5 -115t-48.5 -92q0 -55 82 -55q73 0 182 53zM737 379v176q-19 -24 -66 -44.5t-159 -53.5
q-121 -35 -163 -65t-42 -81q0 -59 43 -90t125 -31q114 0 188 53t74 136z" />
    <glyph glyph-name="Cacute" unicode="&#x106;" horiz-adv-x="1320" 
d="M539 1567l190 288h318l-265 -288h-243zM690 -31q-192 0 -333 95.5t-213 263.5t-72 389q0 165 42 302.5t120 236t195 153.5t261 55q229 0 384 -132.5t192 -358.5l-246 -43q-30 145 -117 221t-213 76q-174 0 -267 -137.5t-93 -372.5t93 -372.5t267 -137.5q128 0 217 79.5
t117 237.5l246 -41q-36 -241 -192.5 -377.5t-387.5 -136.5z" />
    <glyph glyph-name="cacute" unicode="&#x107;" horiz-adv-x="1134" 
d="M442 1219l191 288h317l-264 -288h-244zM594 -31q-231 0 -376.5 157t-145.5 417q0 261 145 417t377 156q186 0 319 -104.5t168 -282.5l-237 -51q-23 101 -89.5 156t-160.5 55q-131 0 -204 -92.5t-73 -253.5t73 -253.5t204 -92.5q102 0 167 59t85 168l237 -49
q-32 -190 -165 -298t-324 -108z" />
    <glyph glyph-name="Ccircumflex" unicode="&#x108;" horiz-adv-x="1320" 
d="M690 1706l-141 -180l-172 127l145 182h334l145 -182l-170 -127zM1024 524l246 -41q-36 -241 -192.5 -377.5t-387.5 -136.5q-192 0 -333 95.5t-213 263.5t-72 389q0 165 42 302.5t120 236t195 153.5t261 55q229 0 384 -132.5t192 -358.5l-246 -43q-30 145 -117 221
t-213 76q-174 0 -267 -137.5t-93 -372.5t93 -372.5t267 -137.5q128 0 217 79.5t117 237.5z" />
    <glyph glyph-name="ccircumflex" unicode="&#x109;" horiz-adv-x="1134" 
d="M594 1358l-141 -180l-172 127l145 182h334l145 -182l-170 -127zM846 424l237 -49q-32 -190 -165 -298t-324 -108q-231 0 -376.5 157t-145.5 417q0 261 145 417t377 156q186 0 319 -104.5t168 -282.5l-237 -51q-23 101 -89.5 156t-160.5 55q-131 0 -204 -92.5t-73 -253.5
t73 -253.5t204 -92.5q102 0 167 59t85 168z" />
    <glyph glyph-name="Cdotaccent" unicode="&#x10a;" horiz-adv-x="1320" 
d="M553 1567v268h272v-268h-272zM690 -31q-192 0 -333 95.5t-213 263.5t-72 389q0 165 42 302.5t120 236t195 153.5t261 55q229 0 384 -132.5t192 -358.5l-246 -43q-30 145 -117 221t-213 76q-174 0 -267 -137.5t-93 -372.5t93 -372.5t267 -137.5q128 0 217 79.5t117 237.5
l246 -41q-36 -241 -192.5 -377.5t-387.5 -136.5z" />
    <glyph glyph-name="cdotaccent" unicode="&#x10b;" horiz-adv-x="1134" 
d="M457 1219v268h272v-268h-272zM594 -31q-231 0 -376.5 157t-145.5 417q0 261 145 417t377 156q186 0 319 -104.5t168 -282.5l-237 -51q-23 101 -89.5 156t-160.5 55q-131 0 -204 -92.5t-73 -253.5t73 -253.5t204 -92.5q102 0 167 59t85 168l237 -49q-32 -190 -165 -298
t-324 -108z" />
    <glyph glyph-name="Ccaron" unicode="&#x10c;" horiz-adv-x="1320" 
d="M856 1567h-334l-145 182l172 127l141 -180l141 180l170 -127zM1024 524l246 -41q-36 -241 -192.5 -377.5t-387.5 -136.5q-192 0 -333 95.5t-213 263.5t-72 389q0 165 42 302.5t120 236t195 153.5t261 55q229 0 384 -132.5t192 -358.5l-246 -43q-30 145 -117 221t-213 76
q-174 0 -267 -137.5t-93 -372.5t93 -372.5t267 -137.5q128 0 217 79.5t117 237.5z" />
    <glyph glyph-name="ccaron" unicode="&#x10d;" horiz-adv-x="1134" 
d="M760 1219h-334l-145 182l172 127l141 -180l141 180l170 -127zM846 424l237 -49q-32 -190 -165 -298t-324 -108q-231 0 -376.5 157t-145.5 417q0 261 145 417t377 156q186 0 319 -104.5t168 -282.5l-237 -51q-23 101 -89.5 156t-160.5 55q-131 0 -204 -92.5t-73 -253.5
t73 -253.5t204 -92.5q102 0 167 59t85 168z" />
    <glyph glyph-name="Dcaron" unicode="&#x10e;" horiz-adv-x="1376" 
d="M821 1536h-334l-145 182l172 127l141 -180l142 180l170 -127zM631 1434q317 0 495.5 -187.5t178.5 -529.5q0 -341 -178.5 -529t-495.5 -188h-477v1434h477zM606 238q222 0 332.5 118t110.5 361q0 244 -110 361.5t-333 117.5h-196v-958h196z" />
    <glyph glyph-name="dcaron" unicode="&#x10f;" horiz-adv-x="1488" 
d="M850 1016v418h246v-1434h-240v86q-48 -54 -126 -85.5t-167 -31.5q-220 0 -355.5 158.5t-135.5 415.5q0 258 135.5 415.5t355.5 157.5q184 0 287 -100zM1212 1434h277v-211q0 -117 -66.5 -186.5t-189.5 -78.5v123q46 9 64 32t18 71h-103v250zM850 449v190q0 113 -70 181.5
t-188 68.5q-129 0 -202 -92t-73 -254t73 -254t202 -92q117 0 187.5 69.5t70.5 182.5z" />
    <glyph glyph-name="Dcroat" unicode="&#x110;" horiz-adv-x="1423" 
d="M678 1434q317 0 495.5 -187.5t178.5 -529.5q0 -341 -178.5 -529t-495.5 -188h-477v614h-191v224h191v596h477zM653 238q222 0 332.5 118t110.5 361q0 244 -110 361.5t-333 117.5h-196v-358h284v-224h-284v-376h196z" />
    <glyph glyph-name="dcroat" unicode="&#x111;" horiz-adv-x="1245" 
d="M1260 1358v-172h-164v-1186h-240v86q-48 -54 -126 -85.5t-167 -31.5q-220 0 -355.5 158.5t-135.5 415.5q0 258 135.5 415.5t355.5 157.5q184 0 287 -100v170h-268v172h268v76h246v-76h164zM850 449v190q0 113 -70 181.5t-188 68.5q-129 0 -202 -92t-73 -254t73 -254
t202 -92q117 0 187.5 69.5t70.5 182.5z" />
    <glyph glyph-name="Emacron" unicode="&#x112;" horiz-adv-x="1161" 
d="M268 1536v188h717v-188h-717zM154 0v1434h936v-238h-678v-350h510v-230h-510v-378h678v-238h-936z" />
    <glyph glyph-name="emacron" unicode="&#x113;" horiz-adv-x="1159" 
d="M936 1407v-188h-717v188h717zM311 453q17 -129 86.5 -200t180.5 -71q97 0 165.5 45.5t130.5 143.5l177 -135q-74 -125 -195.5 -196t-277.5 -71q-232 0 -369 156t-137 418q0 259 138.5 416t367.5 157q228 0 368.5 -157t140.5 -416v-90h-776zM578 903q-113 0 -186.5 -70.5
t-80.5 -189.5h533q-13 126 -82.5 193t-183.5 67z" />
    <glyph glyph-name="Ebreve" unicode="&#x114;" horiz-adv-x="1161" 
d="M627 1516q-128 0 -210.5 78.5t-82.5 199.5h158q9 -46 44 -74t91 -28t91 28t46 74h156q0 -121 -82.5 -199.5t-210.5 -78.5zM154 0v1434h936v-238h-678v-350h510v-230h-510v-378h678v-238h-936z" />
    <glyph glyph-name="ebreve" unicode="&#x115;" horiz-adv-x="1159" 
d="M578 1198q-128 0 -210.5 79t-82.5 200h157q9 -46 44.5 -74.5t91.5 -28.5t91 28t46 75h155q0 -121 -82 -200t-210 -79zM311 453q17 -129 86.5 -200t180.5 -71q97 0 165.5 45.5t130.5 143.5l177 -135q-74 -125 -195.5 -196t-277.5 -71q-232 0 -369 156t-137 418
q0 259 138.5 416t367.5 157q228 0 368.5 -157t140.5 -416v-90h-776zM578 903q-113 0 -186.5 -70.5t-80.5 -189.5h533q-13 126 -82.5 193t-183.5 67z" />
    <glyph glyph-name="Edotaccent" unicode="&#x116;" horiz-adv-x="1161" 
d="M489 1536v268h273v-268h-273zM154 0v1434h936v-238h-678v-350h510v-230h-510v-378h678v-238h-936z" />
    <glyph glyph-name="edotaccent" unicode="&#x117;" horiz-adv-x="1159" 
d="M713 1487v-268h-273v268h273zM311 453q17 -129 86.5 -200t180.5 -71q97 0 165.5 45.5t130.5 143.5l177 -135q-74 -125 -195.5 -196t-277.5 -71q-232 0 -369 156t-137 418q0 259 138.5 416t367.5 157q228 0 368.5 -157t140.5 -416v-90h-776zM578 903q-113 0 -186.5 -70.5
t-80.5 -189.5h533q-13 126 -82.5 193t-183.5 67z" />
    <glyph glyph-name="Eogonek" unicode="&#x118;" horiz-adv-x="1161" 
d="M1044 -209l76 -172q-144 -68 -264 -68q-123 0 -195.5 54.5t-72.5 146.5q0 74 43.5 134t138.5 114h-616v1434h936v-238h-678v-350h510v-230h-510v-378h678v-238h-99q-114 -67 -162.5 -115t-48.5 -92q0 -55 82 -55q73 0 182 53z" />
    <glyph glyph-name="eogonek" unicode="&#x119;" horiz-adv-x="1159" 
d="M311 453q17 -129 86.5 -200t180.5 -71q97 0 165.5 45.5t130.5 143.5l177 -135q-102 -172 -283 -236q-114 -67 -162.5 -115t-48.5 -92q0 -55 82 -55q73 0 182 53l76 -172q-144 -68 -264 -68q-123 0 -195.5 54.5t-72.5 146.5q0 130 139 221q-201 25 -316.5 177.5
t-115.5 392.5q0 259 138.5 416t367.5 157q228 0 368.5 -157t140.5 -416v-90h-776zM578 903q-113 0 -186.5 -70.5t-80.5 -189.5h533q-13 126 -82.5 193t-183.5 67z" />
    <glyph glyph-name="Ecaron" unicode="&#x11a;" horiz-adv-x="1161" 
d="M793 1536h-334l-146 182l172 127l142 -180l141 180l170 -127zM1090 1196h-678v-350h510v-230h-510v-378h678v-238h-936v1434h936v-238z" />
    <glyph glyph-name="ecaron" unicode="&#x11b;" horiz-adv-x="1159" 
d="M743 1219h-333l-146 182l172 127l142 -180l141 180l170 -127zM311 453q17 -129 86.5 -200t180.5 -71q97 0 165.5 45.5t130.5 143.5l177 -135q-74 -125 -195.5 -196t-277.5 -71q-232 0 -369 156t-137 418q0 259 138.5 416t367.5 157q228 0 368.5 -157t140.5 -416v-90h-776
zM578 903q-113 0 -186.5 -70.5t-80.5 -189.5h533q-13 126 -82.5 193t-183.5 67z" />
    <glyph glyph-name="Gcircumflex" unicode="&#x11c;" horiz-adv-x="1398" 
d="M690 1706l-141 -180l-172 127l145 182h334l145 -182l-170 -127zM627 752h649v-752h-162l-35 121q-149 -152 -389 -152q-192 0 -333 95.5t-213 263.5t-72 389q0 165 42 302.5t120 236t195 153.5t261 55q229 0 384 -132.5t192 -358.5l-246 -43q-30 145 -117 221t-213 76
q-174 0 -267 -137.5t-93 -372.5t93 -372.5t267 -137.5q150 0 241 88t91 213v10h-395v234z" />
    <glyph glyph-name="gcircumflex" unicode="&#x11d;" horiz-adv-x="1169" 
d="M549 1358l-141 -180l-172 127l145 182h334l145 -182l-170 -127zM762 139q175 -18 271.5 -95t96.5 -210q0 -160 -138 -243t-402 -83q-256 0 -397.5 83t-141.5 227q0 63 36.5 123.5t107.5 103.5q-101 72 -101 186q0 128 133 201q-114 111 -114 275q0 176 133.5 292.5
t343.5 116.5q100 0 194 -33q36 97 113.5 164t181.5 94l70 -194q-169 -32 -229 -137q70 -56 108.5 -134.5t38.5 -168.5q0 -175 -133.5 -292.5t-343.5 -117.5q-128 0 -230 45q-53 -26 -53 -74q0 -45 46 -69t151 -33zM590 903q-108 0 -174 -55.5t-66 -140.5q0 -84 66 -140.5
t174 -56.5q107 0 173 56t66 141t-66 140.5t-173 55.5zM590 -279q303 0 303 125q0 47 -43 71t-127 32l-328 31q-47 -19 -74.5 -54.5t-27.5 -77.5q0 -127 297 -127z" />
    <glyph glyph-name="Gbreve" unicode="&#x11e;" horiz-adv-x="1398" 
d="M690 1546q-128 0 -210.5 79t-82.5 200h158q9 -46 44 -74.5t91 -28.5t91 28t46 75h156q0 -121 -82.5 -200t-210.5 -79zM627 752h649v-752h-162l-35 121q-149 -152 -389 -152q-192 0 -333 95.5t-213 263.5t-72 389q0 165 42 302.5t120 236t195 153.5t261 55
q229 0 384 -132.5t192 -358.5l-246 -43q-30 145 -117 221t-213 76q-174 0 -267 -137.5t-93 -372.5t93 -372.5t267 -137.5q150 0 241 88t91 213v10h-395v234z" />
    <glyph glyph-name="gbreve" unicode="&#x11f;" horiz-adv-x="1169" 
d="M549 1198q-128 0 -210.5 79t-82.5 200h158q9 -46 44 -74.5t91 -28.5t91 28t46 75h156q0 -121 -82.5 -200t-210.5 -79zM762 139q175 -18 271.5 -95t96.5 -210q0 -160 -138 -243t-402 -83q-256 0 -397.5 83t-141.5 227q0 63 36.5 123.5t107.5 103.5q-101 72 -101 186
q0 128 133 201q-114 111 -114 275q0 176 133.5 292.5t343.5 116.5q100 0 194 -33q36 97 113.5 164t181.5 94l70 -194q-169 -32 -229 -137q70 -56 108.5 -134.5t38.5 -168.5q0 -175 -133.5 -292.5t-343.5 -117.5q-128 0 -230 45q-53 -26 -53 -74q0 -45 46 -69t151 -33z
M590 903q-108 0 -174 -55.5t-66 -140.5q0 -84 66 -140.5t174 -56.5q107 0 173 56t66 141t-66 140.5t-173 55.5zM590 -279q303 0 303 125q0 47 -43 71t-127 32l-328 31q-47 -19 -74.5 -54.5t-27.5 -77.5q0 -127 297 -127z" />
    <glyph glyph-name="Gdotaccent" unicode="&#x120;" horiz-adv-x="1398" 
d="M825 1835v-268h-272v268h272zM627 752h649v-752h-162l-35 121q-149 -152 -389 -152q-192 0 -333 95.5t-213 263.5t-72 389q0 165 42 302.5t120 236t195 153.5t261 55q229 0 384 -132.5t192 -358.5l-246 -43q-30 145 -117 221t-213 76q-174 0 -267 -137.5t-93 -372.5
t93 -372.5t267 -137.5q150 0 241 88t91 213v10h-395v234z" />
    <glyph glyph-name="gdotaccent" unicode="&#x121;" horiz-adv-x="1169" 
d="M684 1487v-268h-272v268h272zM762 139q175 -18 271.5 -95t96.5 -210q0 -160 -138 -243t-402 -83q-256 0 -397.5 83t-141.5 227q0 63 36.5 123.5t107.5 103.5q-101 72 -101 186q0 128 133 201q-114 111 -114 275q0 176 133.5 292.5t343.5 116.5q100 0 194 -33
q36 97 113.5 164t181.5 94l70 -194q-169 -32 -229 -137q70 -56 108.5 -134.5t38.5 -168.5q0 -175 -133.5 -292.5t-343.5 -117.5q-128 0 -230 45q-53 -26 -53 -74q0 -45 46 -69t151 -33zM590 903q-108 0 -174 -55.5t-66 -140.5q0 -84 66 -140.5t174 -56.5q107 0 173 56
t66 141t-66 140.5t-173 55.5zM590 -279q303 0 303 125q0 47 -43 71t-127 32l-328 31q-47 -19 -74.5 -54.5t-27.5 -77.5q0 -127 297 -127z" />
    <glyph glyph-name="Gcommaaccent" unicode="&#x122;" horiz-adv-x="1398" 
d="M627 752h649v-752h-162l-35 121q-149 -152 -389 -152q-192 0 -333 95.5t-213 263.5t-72 389q0 165 42 302.5t120 236t195 153.5t261 55q229 0 384 -132.5t192 -358.5l-246 -43q-30 145 -117 221t-213 76q-174 0 -267 -137.5t-93 -372.5t93 -372.5t267 -137.5
q150 0 241 88t91 213v10h-395v234zM551 -383v250h276v-211q0 -117 -66.5 -186t-189.5 -78v123q47 9 64.5 31.5t17.5 70.5h-102z" />
    <glyph glyph-name="gcommaaccent" unicode="&#x123;" horiz-adv-x="1169" 
d="M688 1468v-249h-276v211q0 117 66.5 186t189.5 78v-123q-46 -9 -64 -32t-18 -71h102zM762 139q175 -18 271.5 -95t96.5 -210q0 -160 -138 -243t-402 -83q-256 0 -397.5 83t-141.5 227q0 63 36.5 123.5t107.5 103.5q-101 72 -101 186q0 128 133 201q-114 111 -114 275
q0 176 133.5 292.5t343.5 116.5q100 0 194 -33q36 97 113.5 164t181.5 94l70 -194q-169 -32 -229 -137q70 -56 108.5 -134.5t38.5 -168.5q0 -175 -133.5 -292.5t-343.5 -117.5q-128 0 -230 45q-53 -26 -53 -74q0 -45 46 -69t151 -33zM590 903q-108 0 -174 -55.5t-66 -140.5
q0 -84 66 -140.5t174 -56.5q107 0 173 56t66 141t-66 140.5t-173 55.5zM590 -279q303 0 303 125q0 47 -43 71t-127 32l-328 31q-47 -19 -74.5 -54.5t-27.5 -77.5q0 -127 297 -127z" />
    <glyph glyph-name="Hcircumflex" unicode="&#x124;" horiz-adv-x="1386" 
d="M694 1675l-141 -180l-172 127l145 182h334l146 -182l-170 -127zM975 1434h258v-1434h-258v621h-563v-621h-258v1434h258v-576h563v576z" />
    <glyph glyph-name="hcircumflex" unicode="&#x125;" horiz-adv-x="1249" 
d="M672 1675l-142 -180l-172 127l146 182h334l145 -182l-170 -127zM698 1116q185 0 306.5 -125t121.5 -334v-657h-245v627q0 130 -62.5 196t-181.5 66q-118 0 -188 -72.5t-70 -191.5v-625h-246v1434h246v-447q52 61 136 95t183 34z" />
    <glyph glyph-name="Hbar" unicode="&#x126;" horiz-adv-x="1386" 
d="M1380 1243v-207h-147v-1036h-258v621h-563v-621h-258v1036h-148v207h148v191h258v-191h563v191h258v-191h147zM975 858v178h-563v-178h563z" />
    <glyph glyph-name="hbar" unicode="&#x127;" horiz-adv-x="1249" 
d="M698 1116q185 0 306.5 -125t121.5 -334v-657h-245v627q0 130 -62.5 196t-181.5 66q-118 0 -188 -72.5t-70 -191.5v-625h-246v1186h-102v172h102v76h246v-76h332v-172h-332v-199q52 61 136 95t183 34z" />
    <glyph glyph-name="Itilde" unicode="&#x128;" horiz-adv-x="565" 
d="M436 1526q-47 0 -98 21t-94 42t-72 21q-55 0 -70 -74h-159q6 127 59 194.5t148 67.5q46 0 96.5 -20.5t93 -41t70.5 -20.5q57 0 69 72h160q-4 -126 -57.5 -194t-145.5 -68zM154 0v1434h258v-1434h-258z" />
    <glyph glyph-name="itilde" unicode="&#x129;" horiz-adv-x="512" 
d="M401 1178q-47 0 -98 21t-94 42t-72 21q-54 0 -69 -74h-160q6 127 59 194.5t148 67.5q46 0 96.5 -20.5t93 -41t70.5 -20.5q57 0 69 72h160q-4 -126 -57.5 -194t-145.5 -68zM133 0v1085h246v-1085h-246z" />
    <glyph glyph-name="Imacron" unicode="&#x12a;" horiz-adv-x="565" 
d="M-68 1536v188h717v-188h-717zM154 0v1434h258v-1434h-258z" />
    <glyph glyph-name="imacron" unicode="&#x12b;" horiz-adv-x="512" 
d="M-27 1188v188h566v-188h-566zM133 0v1085h246v-1085h-246z" />
    <glyph glyph-name="Ibreve" unicode="&#x12c;" horiz-adv-x="565" 
d="M291 1516q-128 0 -210.5 78.5t-82.5 199.5h158q9 -46 44 -74t91 -28t91 28t46 74h156q0 -121 -82.5 -199.5t-210.5 -78.5zM154 0v1434h258v-1434h-258z" />
    <glyph glyph-name="ibreve" unicode="&#x12d;" horiz-adv-x="512" 
d="M256 1167q-128 0 -210.5 79t-82.5 200h158q9 -46 44 -74.5t91 -28.5t91 28t46 75h156q0 -121 -82.5 -200t-210.5 -79zM133 0v1085h246v-1085h-246z" />
    <glyph glyph-name="Iogonek" unicode="&#x12e;" horiz-adv-x="565" 
d="M463 -209l76 -172q-144 -68 -265 -68q-123 0 -195.5 54.5t-72.5 146.5q0 74 43.5 134t138.5 114h-34v1434h258v-1434h-2q-114 -67 -162.5 -115t-48.5 -92q0 -55 82 -55q73 0 182 53z" />
    <glyph glyph-name="iogonek" unicode="&#x12f;" horiz-adv-x="512" 
d="M391 1487v-268h-272v268h272zM430 -209l76 -172q-144 -68 -264 -68q-123 0 -196 54.5t-73 146.5q0 74 44 134t139 114h-23v1085h246v-1085h-2q-114 -67 -162.5 -115t-48.5 -92q0 -55 82 -55q73 0 182 53z" />
    <glyph glyph-name="Idotaccent" unicode="&#x130;" horiz-adv-x="565" 
d="M154 1536v268h272v-268h-272zM154 0v1434h258v-1434h-258z" />
    <glyph glyph-name="dotlessi" unicode="&#x131;" horiz-adv-x="512" 
d="M133 0v1085h246v-1085h-246z" />
    <glyph glyph-name="Jcircumflex" unicode="&#x134;" horiz-adv-x="952" 
d="M469 1675l-141 -180l-172 127l145 182h334l145 -182l-170 -127zM47 1434h762v-859q0 -270 -167.5 -422.5t-473.5 -152.5h-121v238h119q201 0 293 85t92 265v608h-504v238z" />
    <glyph glyph-name="jcircumflex" unicode="&#x135;" horiz-adv-x="770" 
d="M494 1327l-142 -180l-172 127l146 182h333l146 -182l-170 -127zM31 1085h606v-1065q0 -187 -110.5 -298t-290.5 -111q-150 0 -287 47l63 215q115 -35 191 -35q91 0 139.5 50.5t48.5 150.5v819h-360v227z" />
    <glyph glyph-name="Kcommaaccent" unicode="&#x136;" horiz-adv-x="1370" 
d="M762 807l602 -807h-326l-452 625l-174 -199v-426h-258v1434h258v-662l567 662h334zM586 -352v250h276v-211q0 -117 -66.5 -186.5t-189.5 -78.5v123q46 9 64 32t18 71h-102z" />
    <glyph glyph-name="kcommaaccent" unicode="&#x137;" horiz-adv-x="1132" 
d="M688 635l438 -635h-276l-320 475l-151 -170v-305h-246v1434h246v-816l399 467h314zM475 -352v250h277v-211q0 -117 -66.5 -186.5t-189.5 -78.5v123q46 9 64 32t18 71h-103z" />
    <glyph glyph-name="kgreenlandic" unicode="&#x138;" horiz-adv-x="1132" 
d="M850 0l-322 473l-149 -168v-305h-246v1085h246v-467l399 467h314l-404 -450l438 -635h-276z" />
    <glyph glyph-name="Lacute" unicode="&#x139;" horiz-adv-x="1171" 
d="M207 1536l190 289h318l-264 -289h-244zM154 1434h258v-1196h714v-238h-972v1434z" />
    <glyph glyph-name="lacute" unicode="&#x13a;" horiz-adv-x="512" 
d="M104 1536l191 289h317l-264 -289h-244zM133 0v1434h246v-1434h-246z" />
    <glyph glyph-name="Lcommaaccent" unicode="&#x13b;" horiz-adv-x="1171" 
d="M154 1434h258v-1196h714v-238h-972v1434zM561 -578v123q46 9 64 32t18 71h-102v250h276v-211q0 -117 -66.5 -186.5t-189.5 -78.5z" />
    <glyph glyph-name="lcommaaccent" unicode="&#x13c;" horiz-adv-x="512" 
d="M133 0v1434h246v-1434h-246zM137 -578v123q46 9 64 32t18 71h-102v250h276v-211q0 -117 -66.5 -186.5t-189.5 -78.5z" />
    <glyph glyph-name="Lcaron" unicode="&#x13d;" horiz-adv-x="1171" 
d="M154 1434h258v-1196h714v-238h-972v1434zM889 958v123q46 9 64 32t18 71h-103v250h277v-211q0 -117 -66.5 -186.5t-189.5 -78.5z" />
    <glyph glyph-name="lcaron" unicode="&#x13e;" horiz-adv-x="774" 
d="M133 0v1434h246v-1434h-246zM518 958v123q46 9 64 32t18 71h-102v250h276v-211q0 -117 -66.5 -186.5t-189.5 -78.5z" />
    <glyph glyph-name="Ldot" unicode="&#x13f;" horiz-adv-x="1150" 
d="M154 1434h258v-1196h714v-238h-972v1434zM713 678v268h272v-268h-272z" />
    <glyph glyph-name="ldot" unicode="&#x140;" horiz-adv-x="780" 
d="M133 0v1434h246v-1434h-246zM479 584v325h332v-325h-332z" />
    <glyph glyph-name="Lslash" unicode="&#x141;" horiz-adv-x="1292" 
d="M532 238h715v-238h-973v551l-176 -96l-84 157l260 146v676h258v-537l295 168l93 -164l-388 -219v-444z" />
    <glyph glyph-name="lslash" unicode="&#x142;" horiz-adv-x="757" 
d="M803 1004l-305 -250v-754h-246v582l-191 -158l-108 131l299 252v627h246v-451l188 158z" />
    <glyph glyph-name="Nacute" unicode="&#x143;" horiz-adv-x="1380" 
d="M1047 1825l-265 -289h-243l190 289h318zM971 1434h256v-1434h-271l-546 995v-995h-256v1434h270l547 -994v994z" />
    <glyph glyph-name="nacute" unicode="&#x144;" horiz-adv-x="1249" 
d="M1028 1507l-264 -288h-244l191 288h317zM698 1116q185 0 306.5 -125t121.5 -334v-657h-245v627q0 130 -62.5 196t-181.5 66q-118 0 -188 -72.5t-70 -191.5v-625h-246v1085h240v-104q53 63 139 99t186 36z" />
    <glyph glyph-name="Ncommaaccent" unicode="&#x145;" horiz-adv-x="1380" 
d="M971 1434h256v-1434h-271l-546 995v-995h-256v1434h270l547 -994v994zM551 -352v250h276v-211q0 -117 -66.5 -186.5t-189.5 -78.5v123q46 9 64 32t18 71h-102z" />
    <glyph glyph-name="ncommaaccent" unicode="&#x146;" horiz-adv-x="1249" 
d="M698 1116q185 0 306.5 -125t121.5 -334v-657h-245v627q0 130 -62.5 196t-181.5 66q-118 0 -188 -72.5t-70 -191.5v-625h-246v1085h240v-104q53 63 139 99t186 36zM471 -352v250h277v-211q0 -117 -66.5 -186.5t-189.5 -78.5v123q46 9 63.5 32t17.5 71h-102z" />
    <glyph glyph-name="Ncaron" unicode="&#x147;" horiz-adv-x="1380" 
d="M856 1536h-334l-145 182l172 127l141 -180l141 180l170 -127zM971 1434h256v-1434h-271l-546 995v-995h-256v1434h270l547 -994v994z" />
    <glyph glyph-name="ncaron" unicode="&#x148;" horiz-adv-x="1249" 
d="M838 1219h-334l-146 182l172 127l142 -180l141 180l170 -127zM698 1116q185 0 306.5 -125t121.5 -334v-657h-245v627q0 130 -62.5 196t-181.5 66q-118 0 -188 -72.5t-70 -191.5v-625h-246v1085h240v-104q53 63 139 99t186 36z" />
    <glyph glyph-name="Eng" unicode="&#x14a;" horiz-adv-x="1380" 
d="M971 1434h256v-1500q0 -181 -111.5 -288t-290.5 -107h-118v238h98q77 0 121.5 47t44.5 131v45l-561 997v-997h-256v1434h270l547 -969v969z" />
    <glyph glyph-name="eng" unicode="&#x14b;" horiz-adv-x="1249" 
d="M698 1116q185 0 306.5 -125t121.5 -334v-731q0 -175 -107 -281t-284 -106h-114v228h94q77 0 121.5 48.5t44.5 129.5v682q0 130 -62.5 196t-181.5 66q-118 0 -188 -72.5t-70 -191.5v-625h-246v1085h240v-104q53 63 139 99t186 36z" />
    <glyph glyph-name="Omacron" unicode="&#x14c;" horiz-adv-x="1380" 
d="M332 1567v188h717v-188h-717zM690 -31q-192 0 -333 95.5t-213 263.5t-72 389q0 165 42 302.5t120 236t195 153.5t261 55q192 0 333 -95t213.5 -263.5t72.5 -388.5t-72.5 -388.5t-213.5 -264t-333 -95.5zM690 207q174 0 267.5 137.5t93.5 372.5t-93.5 372.5t-267.5 137.5
t-267 -137.5t-93 -372.5t93 -372.5t267 -137.5z" />
    <glyph glyph-name="omacron" unicode="&#x14d;" horiz-adv-x="1187" 
d="M236 1219v188h716v-188h-716zM594 -31q-237 0 -379.5 155.5t-142.5 418.5t142.5 418t379.5 155t379.5 -155t142.5 -418t-142.5 -418.5t-379.5 -155.5zM594 197q135 0 205.5 93t70.5 253t-70.5 253t-205.5 93q-134 0 -205.5 -93.5t-71.5 -252.5t71.5 -252.5t205.5 -93.5z
" />
    <glyph glyph-name="Obreve" unicode="&#x14e;" horiz-adv-x="1380" 
d="M690 1546q-128 0 -210.5 79t-82.5 200h158q9 -46 44 -74.5t91 -28.5t91 28t46 75h156q0 -121 -82.5 -200t-210.5 -79zM690 -31q-192 0 -333 95.5t-213 263.5t-72 389q0 165 42 302.5t120 236t195 153.5t261 55q192 0 333 -95t213.5 -263.5t72.5 -388.5t-72.5 -388.5
t-213.5 -264t-333 -95.5zM690 207q174 0 267.5 137.5t93.5 372.5t-93.5 372.5t-267.5 137.5t-267 -137.5t-93 -372.5t93 -372.5t267 -137.5z" />
    <glyph glyph-name="obreve" unicode="&#x14f;" horiz-adv-x="1187" 
d="M594 1198q-128 0 -210.5 79t-82.5 200h158q9 -46 44 -74.5t91 -28.5t91 28t46 75h156q0 -121 -82.5 -200t-210.5 -79zM594 -31q-237 0 -379.5 155.5t-142.5 418.5t142.5 418t379.5 155t379.5 -155t142.5 -418t-142.5 -418.5t-379.5 -155.5zM594 197q135 0 205.5 93
t70.5 253t-70.5 253t-205.5 93q-134 0 -205.5 -93.5t-71.5 -252.5t71.5 -252.5t205.5 -93.5z" />
    <glyph glyph-name="Ohungarumlaut" unicode="&#x150;" horiz-adv-x="1380" 
d="M328 1567l182 276h303l-252 -276h-233zM733 1567l182 276h304l-252 -276h-234zM690 -31q-192 0 -333 95.5t-213 263.5t-72 389q0 165 42 302.5t120 236t195 153.5t261 55q192 0 333 -95t213.5 -263.5t72.5 -388.5t-72.5 -388.5t-213.5 -264t-333 -95.5zM690 207
q174 0 267.5 137.5t93.5 372.5t-93.5 372.5t-267.5 137.5t-267 -137.5t-93 -372.5t93 -372.5t267 -137.5z" />
    <glyph glyph-name="ohungarumlaut" unicode="&#x151;" horiz-adv-x="1187" 
d="M231 1219l183 276h303l-252 -276h-234zM637 1219l182 276h303l-252 -276h-233zM594 -31q-237 0 -379.5 155.5t-142.5 418.5t142.5 418t379.5 155t379.5 -155t142.5 -418t-142.5 -418.5t-379.5 -155.5zM594 197q135 0 205.5 93t70.5 253t-70.5 253t-205.5 93
q-134 0 -205.5 -93.5t-71.5 -252.5t71.5 -252.5t205.5 -93.5z" />
    <glyph glyph-name="OE" unicode="&#x152;" horiz-adv-x="1861" 
d="M1790 1196h-571v-330h505v-229h-505v-399h571v-238h-827v66q-123 -97 -308 -97q-124 0 -230.5 50t-185 143.5t-123 236t-44.5 318.5t44.5 319t123 236t185 142.5t230.5 49.5q183 0 308 -94v64h827v-238zM672 207q191 0 291 151v717q-100 152 -291 152q-156 0 -249 -128.5
t-93 -381.5q0 -252 93 -381t249 -129z" />
    <glyph glyph-name="oe" unicode="&#x153;" horiz-adv-x="1961" 
d="M1114 453q17 -129 86 -200t180 -71q97 0 166 45.5t131 143.5l176 -135q-74 -125 -195.5 -196t-277.5 -71q-251 0 -387 178q-142 -178 -399 -178q-237 0 -379.5 155.5t-142.5 418.5t142.5 418t379.5 155q259 0 401 -180q138 180 385 180q228 0 369 -157t141 -416v-90h-776
zM1380 903q-113 0 -186 -70.5t-80 -189.5h533q-13 126 -83 193t-184 67zM594 197q135 0 205.5 93t70.5 253t-70.5 253t-205.5 93q-134 0 -205.5 -93.5t-71.5 -252.5t71.5 -252.5t205.5 -93.5z" />
    <glyph glyph-name="Racute" unicode="&#x154;" horiz-adv-x="1312" 
d="M1014 1825l-264 -289h-244l190 289h318zM1137 356l102 -356h-305l-72 301q-34 141 -114.5 206.5t-217.5 65.5h-118v-573h-258v1434h616q204 0 334.5 -122t130.5 -311q0 -145 -80.5 -252.5t-216.5 -150.5q68 -27 120 -89t79 -153zM412 811h338q109 0 169 49t60 141
q0 94 -60.5 144.5t-168.5 50.5h-338v-385z" />
    <glyph glyph-name="racute" unicode="&#x155;" horiz-adv-x="831" 
d="M842 1507l-264 -288h-244l190 288h318zM358 989q34 58 100.5 92.5t147.5 34.5q112 0 225 -65l-104 -215q-90 53 -170 53q-84 0 -131 -56.5t-47 -158.5v-674h-246v1085h225v-96z" />
    <glyph glyph-name="Rcommaaccent" unicode="&#x156;" horiz-adv-x="1312" 
d="M1137 356l102 -356h-305l-72 301q-34 141 -114.5 206.5t-217.5 65.5h-118v-573h-258v1434h616q204 0 334.5 -122t130.5 -311q0 -145 -80.5 -252.5t-216.5 -150.5q68 -27 120 -89t79 -153zM412 811h338q109 0 169 49t60 141q0 94 -60.5 144.5t-168.5 50.5h-338v-385z
M535 -352v250h276v-211q0 -117 -66.5 -186.5t-189.5 -78.5v123q46 9 64 32t18 71h-102z" />
    <glyph glyph-name="rcommaaccent" unicode="&#x157;" horiz-adv-x="831" 
d="M606 1116q112 0 225 -65l-104 -215q-90 53 -170 53q-84 0 -131 -56.5t-47 -158.5v-674h-246v1085h225v-96q34 58 100.5 92.5t147.5 34.5zM139 -352v250h277v-211q0 -117 -66.5 -186.5t-189.5 -78.5v123q46 9 64 32t18 71h-103z" />
    <glyph glyph-name="Rcaron" unicode="&#x158;" horiz-adv-x="1312" 
d="M823 1536h-334l-145 182l172 127l141 -180l142 180l170 -127zM1137 356l102 -356h-305l-72 301q-34 141 -114.5 206.5t-217.5 65.5h-118v-573h-258v1434h616q204 0 334.5 -122t130.5 -311q0 -145 -80.5 -252.5t-216.5 -150.5q68 -27 120 -89t79 -153zM412 811h338
q109 0 169 49t60 141q0 94 -60.5 144.5t-168.5 50.5h-338v-385z" />
    <glyph glyph-name="rcaron" unicode="&#x159;" horiz-adv-x="831" 
d="M651 1219h-334l-145 182l172 127l141 -180l142 180l170 -127zM606 1116q112 0 225 -65l-104 -215q-90 53 -170 53q-84 0 -131 -56.5t-47 -158.5v-674h-246v1085h225v-96q34 58 100.5 92.5t147.5 34.5z" />
    <glyph glyph-name="Sacute" unicode="&#x15a;" horiz-adv-x="1296" 
d="M477 1567l191 288h317l-264 -288h-244zM674 -31q-258 0 -429 133.5t-208 364.5l250 45q26 -146 126.5 -225.5t260.5 -79.5q152 0 231.5 51.5t79.5 149.5q0 54 -33 90t-113 68t-239 73q-256 67 -367.5 163.5t-111.5 250.5q0 181 142 296t366 115q220 0 380 -119t197 -311
l-250 -47q-25 109 -114 174.5t-213 65.5q-112 0 -182 -47.5t-70 -124.5q0 -47 30.5 -77.5t108 -60t238.5 -71.5q258 -69 371 -170t116 -266q3 -202 -150.5 -321.5t-416.5 -119.5z" />
    <glyph glyph-name="sacute" unicode="&#x15b;" horiz-adv-x="1114" 
d="M385 1219l190 288h318l-264 -288h-244zM594 -31q-215 0 -362 105t-181 282l219 50q22 -109 106.5 -169.5t217.5 -60.5q116 0 178 33.5t62 95.5q0 59 -62.5 90t-241.5 62q-222 35 -317.5 109t-95.5 212q0 148 118.5 243t301.5 95q175 0 313.5 -94.5t173.5 -239.5l-215 -61
q-22 85 -97 137.5t-175 52.5q-79 0 -134 -37.5t-55 -91.5q0 -50 60 -77t239 -56q219 -36 317.5 -114.5t98.5 -223.5q0 -158 -125.5 -250t-343.5 -92z" />
    <glyph glyph-name="Scircumflex" unicode="&#x15c;" horiz-adv-x="1296" 
d="M629 1706l-142 -180l-172 127l146 182h334l145 -182l-170 -127zM1241 410q3 -202 -150.5 -321.5t-416.5 -119.5q-258 0 -429 133.5t-208 364.5l250 45q26 -146 126.5 -225.5t260.5 -79.5q152 0 231.5 51.5t79.5 149.5q0 54 -33 90t-113 68t-239 73q-256 67 -367.5 163.5
t-111.5 250.5q0 181 142 296t366 115q220 0 380 -119t197 -311l-250 -47q-25 109 -114 174.5t-213 65.5q-112 0 -182 -47.5t-70 -124.5q0 -47 30.5 -77.5t108 -60t238.5 -71.5q258 -69 371 -170t116 -266z" />
    <glyph glyph-name="scircumflex" unicode="&#x15d;" horiz-adv-x="1114" 
d="M537 1358l-142 -180l-172 127l146 182h333l146 -182l-170 -127zM647 649q219 -36 317.5 -114.5t98.5 -223.5q0 -158 -125.5 -250t-343.5 -92q-215 0 -362 105t-181 282l219 50q22 -109 106.5 -169.5t217.5 -60.5q116 0 178 33.5t62 95.5q0 59 -62.5 90t-241.5 62
q-222 35 -317.5 109t-95.5 212q0 148 118.5 243t301.5 95q175 0 313.5 -94.5t173.5 -239.5l-215 -61q-22 85 -97 137.5t-175 52.5q-79 0 -134 -37.5t-55 -91.5q0 -50 60 -77t239 -56z" />
    <glyph glyph-name="Scedilla" unicode="&#x15e;" horiz-adv-x="1296" 
d="M1241 410q3 -191 -135 -309t-377 -130l-57 -98q32 4 51 4q95 0 157 -53.5t62 -136.5q0 -99 -68.5 -159t-183.5 -60q-91 0 -164.5 37t-115.5 102l131 96q29 -44 61 -62t80 -18q45 0 69.5 20t22.5 54q-2 30 -25.5 47.5t-64.5 17.5q-45 0 -94 -32l-121 65l102 180
q-218 25 -359 154.5t-175 337.5l250 45q26 -146 126.5 -225.5t260.5 -79.5q152 0 231.5 51.5t79.5 149.5q0 54 -33 90t-113 68t-239 73q-256 67 -367.5 163.5t-111.5 250.5q0 181 142 296t366 115q220 0 380 -119t197 -311l-250 -47q-25 109 -114 174.5t-213 65.5
q-112 0 -182 -47.5t-70 -124.5q0 -47 30.5 -77.5t108 -60t238.5 -71.5q258 -69 371 -170t116 -266z" />
    <glyph glyph-name="scedilla" unicode="&#x15f;" horiz-adv-x="1114" 
d="M1063 311q0 -148 -110.5 -239t-303.5 -101l-57 -98q32 4 51 4q95 0 157 -53.5t62 -136.5q0 -99 -68.5 -159t-183.5 -60q-91 0 -164.5 37t-115.5 102l131 96q29 -44 61 -62t80 -18q45 0 69.5 20t22.5 54q-2 30 -25.5 47.5t-64.5 17.5q-45 0 -94 -32l-121 65l103 180
q-176 25 -294 126t-147 255l219 50q22 -109 106.5 -169.5t217.5 -60.5q116 0 178 33.5t62 95.5q0 59 -62.5 90t-241.5 62q-222 35 -317.5 109t-95.5 212q0 148 118.5 243t301.5 95q175 0 313.5 -94.5t173.5 -239.5l-215 -61q-22 85 -97 137.5t-175 52.5q-79 0 -134 -37.5
t-55 -91.5q0 -50 60 -77t239 -56q219 -36 317.5 -114.5t98.5 -223.5z" />
    <glyph glyph-name="Scaron" unicode="&#x160;" horiz-adv-x="1296" 
d="M795 1567h-334l-146 182l172 127l142 -180l141 180l170 -127zM1241 410q3 -202 -150.5 -321.5t-416.5 -119.5q-258 0 -429 133.5t-208 364.5l250 45q26 -146 126.5 -225.5t260.5 -79.5q152 0 231.5 51.5t79.5 149.5q0 54 -33 90t-113 68t-239 73q-256 67 -367.5 163.5
t-111.5 250.5q0 181 142 296t366 115q220 0 380 -119t197 -311l-250 -47q-25 109 -114 174.5t-213 65.5q-112 0 -182 -47.5t-70 -124.5q0 -47 30.5 -77.5t108 -60t238.5 -71.5q258 -69 371 -170t116 -266z" />
    <glyph glyph-name="scaron" unicode="&#x161;" horiz-adv-x="1114" 
d="M702 1219h-333l-146 182l172 127l142 -180l141 180l170 -127zM647 649q219 -36 317.5 -114.5t98.5 -223.5q0 -158 -125.5 -250t-343.5 -92q-215 0 -362 105t-181 282l219 50q22 -109 106.5 -169.5t217.5 -60.5q116 0 178 33.5t62 95.5q0 59 -62.5 90t-241.5 62
q-222 35 -317.5 109t-95.5 212q0 148 118.5 243t301.5 95q175 0 313.5 -94.5t173.5 -239.5l-215 -61q-22 85 -97 137.5t-175 52.5q-79 0 -134 -37.5t-55 -91.5q0 -50 60 -77t239 -56z" />
    <glyph glyph-name="uni0162" unicode="&#x162;" horiz-adv-x="1267" 
d="M764 0h-76l-55 -96q32 4 51 4q95 0 157 -54t62 -137q0 -99 -68.5 -159t-183.5 -60q-91 0 -164.5 37.5t-115.5 102.5l131 96q29 -44 61 -62t80 -18q45 0 69.5 20t22.5 54q-2 30 -25.5 47.5t-64.5 17.5q-44 0 -94 -33l-121 66l98 174h-22v1196h-479v238h1216v-238h-479
v-1196z" />
    <glyph glyph-name="uni0163" unicode="&#x163;" horiz-adv-x="868" 
d="M606 -123q95 0 157 -53.5t62 -136.5q0 -99 -68.5 -159t-183.5 -60q-91 0 -164.5 37t-115.5 102l131 96q29 -44 61 -62t80 -18q45 0 69.5 20t22.5 54q-2 30 -25.5 47.5t-64.5 17.5q-45 0 -94 -32l-121 65l109 193q-100 31 -157.5 111t-57.5 192v567h-240v227h240v277
l246 72v-349h327v-227h-327v-545q0 -116 110 -116q85 0 199 41l61 -220q-144 -46 -250 -49l-57 -96q32 4 51 4z" />
    <glyph glyph-name="Tcaron" unicode="&#x164;" horiz-adv-x="1267" 
d="M799 1536h-334l-146 182l173 127l141 -180l141 180l170 -127zM27 1434h1216v-238h-479v-1196h-258v1196h-479v238z" />
    <glyph glyph-name="tcaron" unicode="&#x165;" horiz-adv-x="868" 
d="M625 1194v123q47 9 64.5 31.5t17.5 70.5h-103v250h277v-211q0 -117 -66.5 -186t-189.5 -78zM246 1362l246 72v-349h327v-227h-327v-545q0 -116 110 -116q85 0 199 41l61 -220q-155 -49 -280 -49q-150 0 -243 89t-93 233v567h-240v227h240v277z" />
    <glyph glyph-name="Tbar" unicode="&#x166;" horiz-adv-x="1298" 
d="M1243 1196h-479v-369h311v-211h-311v-616h-258v616h-311v211h311v369h-479v238h1216v-238z" />
    <glyph glyph-name="tbar" unicode="&#x167;" horiz-adv-x="868" 
d="M801 238l61 -220q-155 -49 -280 -49q-150 0 -243 89t-93 233v184h-240v199h240v184h-240v227h240v277l246 72v-349h327v-227h-327v-184h325v-199h-325v-162q0 -116 110 -116q85 0 199 41z" />
    <glyph glyph-name="Utilde" unicode="&#x168;" horiz-adv-x="1445" 
d="M868 1526q-47 0 -98 21t-94 42t-72 21q-54 0 -69 -74h-160q6 127 59 194.5t148 67.5q46 0 96.5 -20.5t93 -41t70.5 -20.5q57 0 69 72h160q-4 -126 -57.5 -194t-145.5 -68zM725 -31q-171 0 -301 62t-205.5 188t-75.5 301v914h258v-902q0 -167 85 -246t239 -79
q153 0 237.5 79t84.5 246v902h256v-914q0 -263 -158.5 -407t-419.5 -144z" />
    <glyph glyph-name="utilde" unicode="&#x169;" horiz-adv-x="1216" 
d="M489 1262q-54 0 -69 -74h-160q6 127 59 194.5t148 67.5q46 0 96.5 -20.5t93 -41t70.5 -20.5q58 0 70 72h159q-4 -126 -57 -194t-145 -68q-47 0 -98 21t-94.5 42t-72.5 21zM838 1085h245v-1085h-237v109q-50 -65 -129 -102.5t-166 -37.5q-192 0 -310 126t-118 333v657h246
v-616q0 -135 59.5 -203.5t169.5 -68.5t175 74t65 200v614z" />
    <glyph glyph-name="Umacron" unicode="&#x16a;" horiz-adv-x="1445" 
d="M365 1536v188h716v-188h-716zM725 -31q-171 0 -301 62t-205.5 188t-75.5 301v914h258v-902q0 -167 85 -246t239 -79q153 0 237.5 79t84.5 246v902h256v-914q0 -263 -158.5 -407t-419.5 -144z" />
    <glyph glyph-name="umacron" unicode="&#x16b;" horiz-adv-x="1216" 
d="M967 1376v-188h-717v188h717zM838 1085h245v-1085h-237v109q-50 -65 -129 -102.5t-166 -37.5q-192 0 -310 126t-118 333v657h246v-616q0 -135 59.5 -203.5t169.5 -68.5t175 74t65 200v614z" />
    <glyph glyph-name="Ubreve" unicode="&#x16c;" horiz-adv-x="1445" 
d="M723 1516q-128 0 -210.5 78.5t-82.5 199.5h158q9 -46 44 -74t91 -28t91 28t46 74h156q0 -121 -82.5 -199.5t-210.5 -78.5zM725 -31q-171 0 -301 62t-205.5 188t-75.5 301v914h258v-902q0 -167 85 -246t239 -79q153 0 237.5 79t84.5 246v902h256v-914q0 -263 -158.5 -407
t-419.5 -144z" />
    <glyph glyph-name="ubreve" unicode="&#x16d;" horiz-adv-x="1216" 
d="M608 1167q-128 0 -210.5 79t-82.5 200h158q9 -46 44 -74.5t91 -28.5t91 28t46 75h156q0 -121 -82.5 -200t-210.5 -79zM838 1085h245v-1085h-237v109q-50 -65 -129 -102.5t-166 -37.5q-192 0 -310 126t-118 333v657h246v-616q0 -135 59.5 -203.5t169.5 -68.5t175 74
t65 200v614z" />
    <glyph glyph-name="Uring" unicode="&#x16e;" horiz-adv-x="1445" 
d="M723 1516q-124 0 -202.5 69.5t-78.5 177.5t78.5 177t202.5 69q123 0 200.5 -69t77.5 -177t-78 -177.5t-200 -69.5zM723 1657q45 0 73.5 30t28.5 76t-28.5 75.5t-73.5 29.5q-47 0 -76 -29.5t-29 -75.5t29 -76t76 -30zM725 -31q-171 0 -301 62t-205.5 188t-75.5 301v914
h258v-902q0 -167 85 -246t239 -79q153 0 237.5 79t84.5 246v902h256v-914q0 -263 -158.5 -407t-419.5 -144z" />
    <glyph glyph-name="uring" unicode="&#x16f;" horiz-adv-x="1216" 
d="M608 1167q-124 0 -202 70t-78 178t78 177t202 69q123 0 201 -69t78 -177t-78.5 -178t-200.5 -70zM608 1520q-47 0 -75.5 -29.5t-28.5 -75.5t28.5 -76t75.5 -30q45 0 74 30t29 76t-28.5 75.5t-74.5 29.5zM838 1085h245v-1085h-237v109q-50 -65 -129 -102.5t-166 -37.5
q-192 0 -310 126t-118 333v657h246v-616q0 -135 59.5 -203.5t169.5 -68.5t175 74t65 200v614z" />
    <glyph glyph-name="Uhungarumlaut" unicode="&#x170;" horiz-adv-x="1445" 
d="M360 1536l183 276h303l-252 -276h-234zM766 1536l182 276h303l-252 -276h-233zM725 -31q-171 0 -301 62t-205.5 188t-75.5 301v914h258v-902q0 -167 85 -246t239 -79q153 0 237.5 79t84.5 246v902h256v-914q0 -263 -158.5 -407t-419.5 -144z" />
    <glyph glyph-name="uhungarumlaut" unicode="&#x171;" horiz-adv-x="1216" 
d="M731 1464l-252 -276h-233l182 276h303zM885 1188h-234l183 276h303zM838 471v614h245v-1085h-237v109q-50 -65 -129 -102.5t-166 -37.5q-192 0 -310 126t-118 333v657h246v-616q0 -135 59.5 -203.5t169.5 -68.5t175 74t65 200z" />
    <glyph glyph-name="Uogonek" unicode="&#x172;" horiz-adv-x="1445" 
d="M1047 1434h256v-914q0 -204 -97.5 -337.5t-269.5 -184.5q-111 -66 -159 -113.5t-48 -91.5q0 -55 82 -55q73 0 182 53l76 -172q-144 -68 -264 -68q-123 0 -195.5 54.5t-72.5 146.5q0 129 135 219q-239 14 -384 157.5t-145 391.5v914h258v-902q0 -167 85 -246t239 -79
q153 0 237.5 79t84.5 246v902z" />
    <glyph glyph-name="uogonek" unicode="&#x173;" horiz-adv-x="1216" 
d="M1135 -209l75 -172q-144 -68 -264 -68q-123 0 -195.5 54.5t-72.5 146.5q0 74 43.5 134t138.5 114h-14v109q-50 -65 -129 -102.5t-166 -37.5q-192 0 -310 126t-118 333v657h246v-616q0 -135 59.5 -203.5t169.5 -68.5t175 74t65 200v614h245v-1085h-2q-114 -67 -162.5 -115
t-48.5 -92q0 -55 82 -55q74 0 183 53z" />
    <glyph glyph-name="Wcircumflex" unicode="&#x174;" horiz-adv-x="1636" 
d="M825 1675l-141 -180l-172 127l145 182h334l146 -182l-170 -127zM1313 1434h252l-209 -1434h-254l-283 770l-284 -770h-254l-209 1434h252l139 -1016l282 774h148l281 -774z" />
    <glyph glyph-name="wcircumflex" unicode="&#x175;" horiz-adv-x="1548" 
d="M758 1327l-142 -180l-172 127l146 182h334l145 -182l-170 -127zM1311 1085h227l-278 -1085h-265l-221 715l-219 -715h-266l-279 1085h228l196 -780l242 780h198l240 -780z" />
    <glyph glyph-name="Ycircumflex" unicode="&#x176;" horiz-adv-x="1282" 
d="M643 1675l-141 -180l-172 127l145 182h334l145 -182l-170 -127zM983 1434h295l-508 -844v-590h-256v590l-508 844h295l340 -590z" />
    <glyph glyph-name="ycircumflex" unicode="&#x177;" horiz-adv-x="1116" 
d="M563 1327l-141 -180l-172 127l145 182h334l145 -182l-169 -127zM834 1085h272l-543 -1228q-44 -100 -108 -143.5t-176 -43.5q-60 0 -195 23l37 219q76 -12 141 -12q46 0 70 15t41 56l65 158l-428 956h275l272 -667z" />
    <glyph glyph-name="Ydieresis" unicode="&#x178;" horiz-adv-x="1282" 
d="M539 1796v-260h-265v260h265zM1010 1796v-260h-262v260h262zM983 1434h295l-508 -844v-590h-256v590l-508 844h295l340 -590z" />
    <glyph glyph-name="Zacute" unicode="&#x179;" horiz-adv-x="1265" 
d="M483 1536l191 289h317l-264 -289h-244zM68 0v219l817 987h-785v228h1100v-215l-819 -990h811v-229h-1124z" />
    <glyph glyph-name="zacute" unicode="&#x17a;" horiz-adv-x="1144" 
d="M422 1188l190 289h318l-264 -289h-244zM92 0v199l629 675h-608v211h921v-198l-628 -674h647v-213h-961z" />
    <glyph glyph-name="Zdotaccent" unicode="&#x17b;" horiz-adv-x="1265" 
d="M498 1536v268h272v-268h-272zM68 0v219l817 987h-785v228h1100v-215l-819 -990h811v-229h-1124z" />
    <glyph glyph-name="zdotaccent" unicode="&#x17c;" horiz-adv-x="1144" 
d="M436 1219v268h273v-268h-273zM92 0v199l629 675h-608v211h921v-198l-628 -674h647v-213h-961z" />
    <glyph glyph-name="Zcaron" unicode="&#x17d;" horiz-adv-x="1265" 
d="M801 1536h-334l-145 182l172 127l141 -180l141 180l170 -127zM1200 1434v-215l-819 -990h811v-229h-1124v219l817 987h-785v228h1100z" />
    <glyph glyph-name="zcaron" unicode="&#x17e;" horiz-adv-x="1144" 
d="M739 1188h-333l-146 182l172 127l141 -180l142 180l170 -127zM406 213h647v-213h-961v199l629 675h-608v211h921v-198z" />
    <glyph glyph-name="longs" unicode="&#x17f;" horiz-adv-x="860" 
d="M246 0v858h-240v227h240v109q0 137 84.5 220t228.5 83q141 0 301 -92l-96 -197q-116 62 -182 62q-43 0 -66.5 -24.5t-23.5 -71.5v-1174h-246z" />
    <glyph glyph-name="uni018E" unicode="&#x18e;" horiz-adv-x="1161" 
d="M1008 0h-936v238h678v378h-510v230h510v350h-678v238h936v-1434z" />
    <glyph glyph-name="uni018F" unicode="&#x18f;" horiz-adv-x="1347" 
d="M657 1464q287 0 453 -204.5t166 -542.5q0 -222 -73.5 -390.5t-214.5 -263t-331 -94.5q-288 0 -436.5 193.5t-148.5 544.5v90h944q-15 202 -108.5 316t-250.5 114q-123 0 -207 -72t-118 -203l-246 47q42 210 194 337.5t377 127.5zM657 207q141 0 231.5 94.5t117.5 263.5
h-670q12 -169 93 -263.5t228 -94.5z" />
    <glyph glyph-name="florin" unicode="&#x192;" 
d="M928 1196q-50 0 -75 -20.5t-34 -69.5l-24 -139h362v-238h-401l-152 -850q-50 -280 -356 -280h-135v239h133q50 0 74.5 20.5t33.5 69.5l142 801h-299v238h340l32 186q25 139 115.5 210t241.5 71h231v-238h-229z" />
    <glyph glyph-name="uni01CD" unicode="&#x1cd;" horiz-adv-x="1437" 
d="M889 1536h-334l-145 182l172 127l141 -180l141 180l170 -127zM1165 0l-137 340h-618l-138 -340h-262l590 1434h238l589 -1434h-262zM500 563h438l-219 545z" />
    <glyph glyph-name="uni01CE" unicode="&#x1ce;" horiz-adv-x="1157" 
d="M713 1219h-334l-146 182l173 127l141 -180l141 180l170 -127zM1124 219l27 -209q-84 -16 -143 -16q-76 0 -130 31.5t-79 89.5q-52 -63 -137.5 -99t-190.5 -36q-178 0 -286.5 88t-108.5 233q0 135 87 213t286 119q174 38 231 66.5t57 82.5q0 56 -52 90.5t-138 34.5
q-103 0 -170.5 -54t-79.5 -144l-225 34q23 165 156 269t319 104q197 0 309.5 -96.5t112.5 -265.5v-449q0 -48 16 -72t55 -24q30 0 84 10zM737 379v176q-19 -24 -66 -44.5t-159 -53.5q-121 -35 -163 -65t-42 -81q0 -59 43 -90t125 -31q114 0 188 53t74 136z" />
    <glyph glyph-name="uni01CF" unicode="&#x1cf;" horiz-adv-x="565" 
d="M432 1845l170 -127l-145 -182h-334l-146 182l173 127l141 -180zM154 0v1434h258v-1434h-258z" />
    <glyph glyph-name="uni01D0" unicode="&#x1d0;" horiz-adv-x="512" 
d="M397 1497l170 -127l-145 -182h-334l-145 182l172 127l141 -180zM133 0v1085h246v-1085h-246z" />
    <glyph glyph-name="uni01D1" unicode="&#x1d1;" horiz-adv-x="1380" 
d="M856 1567h-334l-145 182l172 127l141 -180l141 180l170 -127zM690 1464q192 0 333 -95t213.5 -263.5t72.5 -388.5t-72.5 -388.5t-213.5 -264t-333 -95.5t-333 95.5t-213 263.5t-72 389q0 165 42 302.5t120 236t195 153.5t261 55zM690 207q174 0 267.5 137.5t93.5 372.5
t-93.5 372.5t-267.5 137.5t-267 -137.5t-93 -372.5t93 -372.5t267 -137.5z" />
    <glyph glyph-name="uni01D2" unicode="&#x1d2;" horiz-adv-x="1187" 
d="M760 1219h-334l-145 182l172 127l141 -180l141 180l170 -127zM594 1116q237 0 379.5 -155t142.5 -418t-142.5 -418.5t-379.5 -155.5t-379.5 155.5t-142.5 418.5t142.5 418t379.5 155zM594 197q135 0 205.5 93t70.5 253t-70.5 253t-205.5 93q-134 0 -205.5 -93.5
t-71.5 -252.5t71.5 -252.5t205.5 -93.5z" />
    <glyph glyph-name="uni01D3" unicode="&#x1d3;" horiz-adv-x="1445" 
d="M889 1536h-334l-145 182l172 127l141 -180l141 180l170 -127zM1047 1434h256v-914q0 -263 -158.5 -407t-419.5 -144q-171 0 -301 62t-205.5 188t-75.5 301v914h258v-902q0 -167 85 -246t239 -79q153 0 237.5 79t84.5 246v902z" />
    <glyph glyph-name="uni01D4" unicode="&#x1d4;" horiz-adv-x="1216" 
d="M774 1188h-334l-145 182l172 127l141 -180l142 180l170 -127zM838 1085h245v-1085h-237v109q-50 -65 -129 -102.5t-166 -37.5q-192 0 -310 126t-118 333v657h246v-616q0 -135 59.5 -203.5t169.5 -68.5t175 74t65 200v614z" />
    <glyph glyph-name="uni01D5" unicode="&#x1d5;" horiz-adv-x="1445" 
d="M365 1862v188h716v-188h-716zM354 1536v260h264v-260h-264zM827 1536v260h263v-260h-263zM725 -31q-171 0 -301 62t-205.5 188t-75.5 301v914h258v-902q0 -167 85 -246t239 -79q153 0 237.5 79t84.5 246v902h256v-914q0 -263 -158.5 -407t-419.5 -144z" />
    <glyph glyph-name="uni01D6" unicode="&#x1d6;" horiz-adv-x="1216" 
d="M967 1702v-189h-717v189h717zM504 1448v-260h-264v260h264zM713 1188v260h262v-260h-262zM838 1085h245v-1085h-237v109q-50 -65 -129 -102.5t-166 -37.5q-192 0 -310 126t-118 333v657h246v-616q0 -135 59.5 -203.5t169.5 -68.5t175 74t65 200v614z" />
    <glyph glyph-name="uni01D7" unicode="&#x1d7;" horiz-adv-x="1445" 
d="M571 1862l191 288h317l-264 -288h-244zM354 1536v260h264v-260h-264zM827 1536v260h263v-260h-263zM725 -31q-171 0 -301 62t-205.5 188t-75.5 301v914h258v-902q0 -167 85 -246t239 -79q153 0 237.5 79t84.5 246v902h256v-914q0 -263 -158.5 -407t-419.5 -144z" />
    <glyph glyph-name="uni01D8" unicode="&#x1d8;" horiz-adv-x="1216" 
d="M965 1802l-265 -289h-243l190 289h318zM504 1448v-260h-264v260h264zM713 1188v260h262v-260h-262zM838 1085h245v-1085h-237v109q-50 -65 -129 -102.5t-166 -37.5q-192 0 -310 126t-118 333v657h246v-616q0 -135 59.5 -203.5t169.5 -68.5t175 74t65 200v614z" />
    <glyph glyph-name="uni01D9" unicode="&#x1d9;" horiz-adv-x="1445" 
d="M889 1862h-334l-145 182l172 127l141 -180l141 180l170 -127zM618 1796v-260h-264v260h264zM827 1536v260h263v-260h-263zM1047 1434h256v-914q0 -263 -158.5 -407t-419.5 -144q-171 0 -301 62t-205.5 188t-75.5 301v914h258v-902q0 -167 85 -246t239 -79q153 0 237.5 79
t84.5 246v902z" />
    <glyph glyph-name="uni01DA" unicode="&#x1da;" horiz-adv-x="1216" 
d="M774 1513h-334l-145 183l172 127l141 -181l142 181l170 -127zM504 1448v-260h-264v260h264zM713 1188v260h262v-260h-262zM838 1085h245v-1085h-237v109q-50 -65 -129 -102.5t-166 -37.5q-192 0 -310 126t-118 333v657h246v-616q0 -135 59.5 -203.5t169.5 -68.5t175 74
t65 200v614z" />
    <glyph glyph-name="uni01DB" unicode="&#x1db;" horiz-adv-x="1445" 
d="M854 1862h-244l-264 288h318zM354 1536v260h264v-260h-264zM827 1536v260h263v-260h-263zM725 -31q-171 0 -301 62t-205.5 188t-75.5 301v914h258v-902q0 -167 85 -246t239 -79q153 0 237.5 79t84.5 246v902h256v-914q0 -263 -158.5 -407t-419.5 -144z" />
    <glyph glyph-name="uni01DC" unicode="&#x1dc;" horiz-adv-x="1216" 
d="M739 1513h-243l-265 289h318zM240 1188v260h264v-260h-264zM713 1188v260h262v-260h-262zM838 1085h245v-1085h-237v109q-50 -65 -129 -102.5t-166 -37.5q-192 0 -310 126t-118 333v657h246v-616q0 -135 59.5 -203.5t169.5 -68.5t175 74t65 200v614z" />
    <glyph glyph-name="uni01DE" unicode="&#x1de;" horiz-adv-x="1437" 
d="M1081 2050v-188h-716v188h716zM618 1796v-260h-264v260h264zM827 1536v260h263v-260h-263zM1165 0l-137 340h-618l-138 -340h-262l590 1434h238l589 -1434h-262zM500 563h438l-219 545z" />
    <glyph glyph-name="uni01DF" unicode="&#x1df;" horiz-adv-x="1157" 
d="M905 1733v-189h-717v189h717zM442 1479v-260h-264v260h264zM651 1219v260h262v-260h-262zM1124 219l27 -209q-84 -16 -143 -16q-76 0 -130 31.5t-79 89.5q-52 -63 -137.5 -99t-190.5 -36q-178 0 -286.5 88t-108.5 233q0 135 87 213t286 119q174 38 231 66.5t57 82.5
q0 56 -52 90.5t-138 34.5q-103 0 -170.5 -54t-79.5 -144l-225 34q23 165 156 269t319 104q197 0 309.5 -96.5t112.5 -265.5v-449q0 -48 16 -72t55 -24q30 0 84 10zM737 379v176q-19 -24 -66 -44.5t-159 -53.5q-121 -35 -163 -65t-42 -81q0 -59 43 -90t125 -31q114 0 188 53
t74 136z" />
    <glyph glyph-name="Aringacute" unicode="&#x1fa;" horiz-adv-x="1437" 
d="M1165 0l-137 340h-618l-138 -340h-262l549 1333q-56 34 -86.5 87.5t-30.5 119.5q0 74 39 131.5t107 87.5l174 264h317l-235 -258q73 -28 115 -88t42 -137q0 -67 -32 -121.5t-88 -87.5l546 -1331h-262zM618 1540q0 -46 29 -76t76 -30q45 0 73.5 30t28.5 76t-28.5 75.5
t-73.5 29.5q-47 0 -76 -29.5t-29 -75.5zM500 563h438l-219 545z" />
    <glyph glyph-name="aringacute" unicode="&#x1fb;" horiz-adv-x="1157" 
d="M1124 219l27 -209q-84 -16 -143 -16q-76 0 -130 31.5t-79 89.5q-52 -63 -137.5 -99t-190.5 -36q-178 0 -286.5 88t-108.5 233q0 135 87 213t286 119q174 38 231 66.5t57 82.5q0 56 -52 90.5t-138 34.5q-103 0 -170.5 -54t-79.5 -144l-225 34q15 109 81 194.5t169 131.5
q-56 66 -56 154q0 74 39 131.5t107 87.5l174 264h317l-235 -258q73 -28 115 -88t42 -137q0 -89 -51 -152q93 -43 144 -124.5t51 -192.5v-449q0 -48 16 -72t55 -24q30 0 84 10zM442 1223q0 -46 29 -76.5t76 -30.5q45 0 73.5 30.5t28.5 76.5t-28 75t-74 29q-47 0 -76 -29
t-29 -75zM737 379v176q-19 -24 -66 -44.5t-159 -53.5q-121 -35 -163 -65t-42 -81q0 -59 43 -90t125 -31q114 0 188 53t74 136z" />
    <glyph glyph-name="AEacute" unicode="&#x1fc;" horiz-adv-x="1726" 
d="M1210 1825l-264 -289h-244l191 289h317zM1655 1206h-533v-344h467v-219h-467v-416h533v-227h-781v340h-473l-125 -340h-266l543 1434h1102v-228zM481 553h393v653h-151z" />
    <glyph glyph-name="aeacute" unicode="&#x1fd;" horiz-adv-x="1806" 
d="M1266 1507l-265 -288h-243l190 288h318zM967 451q17 -124 83.5 -191t174.5 -67q94 0 161.5 42t131.5 138l182 -146q-77 -122 -198.5 -190t-276.5 -68q-256 0 -387 189q-51 -88 -144.5 -138.5t-216.5 -50.5q-179 0 -290 94t-111 242q0 136 86.5 213.5t286.5 118.5
q115 24 170.5 43t77.5 41t22 57q0 52 -49 84.5t-129 32.5q-97 0 -158.5 -49.5t-73.5 -138.5l-237 36q23 167 153 270t316 103q237 0 338 -141q132 141 346 141q229 0 369.5 -157t140.5 -416v-92h-768zM1225 895q-110 0 -181 -68t-77 -180h516q-12 120 -80 184t-178 64z
M719 381v166q-33 -48 -203 -96q-117 -33 -155.5 -60.5t-38.5 -81.5q0 -53 43.5 -84.5t121.5 -31.5q96 0 164 55.5t68 132.5z" />
    <glyph glyph-name="Oslashacute" unicode="&#x1fe;" horiz-adv-x="1380" 
d="M1047 1855l-265 -288h-243l190 288h318zM1116 1290q94 -100 143.5 -246.5t49.5 -326.5q0 -220 -72.5 -388.5t-213.5 -264t-333 -95.5q-146 0 -268 58l-82 -150l-172 92l96 174q-94 100 -143 247t-49 327q0 165 42 302.5t120 236t195 153.5t261 55q148 0 268 -57l82 147
l172 -90zM315 717q0 -213 74 -346l461 837q-67 37 -160 37q-180 0 -277.5 -142t-97.5 -386zM690 188q181 0 278 142.5t97 386.5q0 213 -74 346l-461 -838q70 -37 160 -37z" />
    <glyph glyph-name="oslashacute" unicode="&#x1ff;" horiz-adv-x="1187" 
d="M991 1507l-264 -288h-244l191 288h317zM991 940q125 -153 125 -397q0 -263 -142.5 -418.5t-379.5 -155.5q-148 0 -260 62l-94 -131l-148 96l107 147q-127 152 -127 400q0 263 142.5 418t379.5 155q150 0 260 -61l94 131l148 -103zM309 543q0 -113 35 -197l379 526
q-60 29 -129 29q-138 0 -211.5 -97t-73.5 -261zM594 184q139 0 213 97.5t74 261.5q0 113 -35 194l-381 -524q60 -29 129 -29z" />
    <glyph glyph-name="Scommaaccent" unicode="&#x218;" horiz-adv-x="1296" 
d="M674 -31q-258 0 -429 133.5t-208 364.5l250 45q26 -146 126.5 -225.5t260.5 -79.5q152 0 231.5 51.5t79.5 149.5q0 54 -33 90t-113 68t-239 73q-256 67 -367.5 163.5t-111.5 250.5q0 181 142 296t366 115q220 0 380 -119t197 -311l-250 -47q-25 109 -114 174.5t-213 65.5
q-112 0 -182 -47.5t-70 -124.5q0 -47 30.5 -77.5t108 -60t238.5 -71.5q258 -69 371 -170t116 -266q3 -202 -150.5 -321.5t-416.5 -119.5zM555 -608v123q47 9 64.5 31.5t17.5 70.5h-102v250h276v-211q0 -117 -66.5 -186t-189.5 -78z" />
    <glyph glyph-name="scommaaccent" unicode="&#x219;" horiz-adv-x="1114" 
d="M594 -31q-215 0 -362 105t-181 282l219 50q22 -109 106.5 -169.5t217.5 -60.5q116 0 178 33.5t62 95.5q0 59 -62.5 90t-241.5 62q-222 35 -317.5 109t-95.5 212q0 148 118.5 243t301.5 95q175 0 313.5 -94.5t173.5 -239.5l-215 -61q-22 85 -97 137.5t-175 52.5
q-79 0 -134 -37.5t-55 -91.5q0 -50 60 -77t239 -56q219 -36 317.5 -114.5t98.5 -223.5q0 -158 -125.5 -250t-343.5 -92zM475 -608v123q47 9 64.5 31.5t17.5 70.5h-102v250h276v-211q0 -117 -66.5 -186t-189.5 -78z" />
    <glyph glyph-name="uni021A" unicode="&#x21a;" horiz-adv-x="1267" 
d="M506 0v1196h-479v238h1216v-238h-479v-1196h-258zM516 -578v123q46 9 64 32t18 71h-102v250h276v-211q0 -117 -66.5 -186.5t-189.5 -78.5z" />
    <glyph glyph-name="uni021B" unicode="&#x21b;" horiz-adv-x="868" 
d="M246 1362l246 72v-349h327v-227h-327v-545q0 -116 110 -116q85 0 199 41l61 -220q-155 -49 -280 -49q-150 0 -243 89t-93 233v567h-240v227h240v277zM438 -608v123q47 9 64.5 31.5t17.5 70.5h-102v250h276v-211q0 -117 -66.5 -186t-189.5 -78z" />
    <glyph glyph-name="uni0228" unicode="&#x228;" horiz-adv-x="1161" 
d="M1090 1196h-678v-350h510v-230h-510v-378h678v-238h-410l-55 -96q32 4 51 4q95 0 157 -54t62 -137q0 -99 -68.5 -159t-183.5 -60q-91 0 -165 37.5t-116 102.5l132 96q29 -44 61 -62t80 -18q45 0 69.5 20t22.5 54q-2 30 -25.5 47.5t-64.5 17.5q-44 0 -94 -33l-121 66
l98 174h-366v1434h936v-238z" />
    <glyph glyph-name="uni0229" unicode="&#x229;" horiz-adv-x="1159" 
d="M311 453q17 -129 86.5 -200t180.5 -71q97 0 165.5 45.5t130.5 143.5l177 -135q-68 -114 -175 -183.5t-243 -81.5l-58 -98q32 4 52 4q95 0 157 -53.5t62 -136.5q0 -99 -68.5 -159t-183.5 -60q-92 0 -165.5 37t-115.5 102l131 96q29 -44 61.5 -62t80.5 -18q45 0 69.5 20
t22.5 54q-2 30 -25.5 47.5t-64.5 17.5q-45 0 -94 -32l-121 65l104 182q-189 34 -297 184.5t-108 381.5q0 259 138.5 416t367.5 157q228 0 368.5 -157t140.5 -416v-90h-776zM578 903q-113 0 -186.5 -70.5t-80.5 -189.5h533q-13 126 -82.5 193t-183.5 67z" />
    <glyph glyph-name="uni0237" unicode="&#x237;" horiz-adv-x="770" 
d="M637 1085v-1065q0 -187 -110.5 -298t-290.5 -111q-150 0 -287 47l63 215q115 -35 191 -35q91 0 139.5 50.5t48.5 150.5v819h-360v227h606z" />
    <glyph glyph-name="uni0258" unicode="&#x258;" horiz-adv-x="1159" 
d="M582 1116q229 0 367 -156.5t138 -416.5q0 -262 -136.5 -418t-368.5 -156q-156 0 -277.5 71t-195.5 196l176 135q62 -98 131 -143.5t166 -45.5q111 0 180 71t86 200h-776v90q0 259 141 416t369 157zM582 903q-114 0 -184 -67t-83 -193h533q-7 119 -80 189.5t-186 70.5z
" />
    <glyph glyph-name="uni0259" unicode="&#x259;" horiz-adv-x="1159" 
d="M582 1116q232 0 368.5 -155.5t136.5 -417.5q0 -260 -138 -417t-367 -157q-228 0 -369 157.5t-141 416.5v90h776q-17 129 -86 199.5t-180 70.5q-97 0 -166 -45t-131 -143l-176 135q74 125 195.5 195.5t277.5 70.5zM582 182q113 0 186 70.5t80 189.5h-533q13 -126 83 -193
t184 -67z" />
    <glyph glyph-name="circumflex" unicode="&#x2c6;" horiz-adv-x="849" 
d="M848 1274l-170 -127l-141 180l-142 -180l-172 127l146 182h333z" />
    <glyph glyph-name="caron" unicode="&#x2c7;" horiz-adv-x="849" 
d="M567 1497l170 -127l-145 -182h-334l-145 182l172 127l141 -180z" />
    <glyph glyph-name="breve" unicode="&#x2d8;" horiz-adv-x="819" 
d="M406 1167q-128 0 -210.5 79t-82.5 200h157q9 -46 44.5 -74.5t91.5 -28.5t91 28t46 75h155q0 -121 -82 -200t-210 -79z" />
    <glyph glyph-name="dotaccent" unicode="&#x2d9;" horiz-adv-x="497" 
d="M113 1188v268h272v-268h-272z" />
    <glyph glyph-name="ring" unicode="&#x2da;" horiz-adv-x="784" 
d="M393 944q-124 0 -202 70t-78 178t78 177t202 69q123 0 201 -69t78 -177t-78.5 -178t-200.5 -70zM393 1085q45 0 74 30.5t29 76.5t-28.5 75t-74.5 29q-47 0 -75.5 -29t-28.5 -75t28.5 -76.5t75.5 -30.5z" />
    <glyph glyph-name="ogonek" unicode="&#x2db;" horiz-adv-x="757" 
d="M381 -449q-123 0 -195.5 54.5t-72.5 146.5t68 163.5t218 135.5l117 -51q-114 -67 -162.5 -115t-48.5 -92q0 -55 82 -55q73 0 182 53l76 -172q-144 -68 -264 -68z" />
    <glyph glyph-name="tilde" unicode="&#x2dc;" horiz-adv-x="921" 
d="M606 1178q-47 0 -98 21t-94 42t-72 21q-55 0 -70 -74h-159q6 127 58.5 194.5t147.5 67.5q46 0 96.5 -20.5t93.5 -41t71 -20.5q57 0 69 72h160q-4 -126 -57.5 -194t-145.5 -68z" />
    <glyph glyph-name="hungarumlaut" unicode="&#x2dd;" horiz-adv-x="1159" 
d="M113 1188l182 276h303l-252 -276h-233zM518 1188l182 276h304l-252 -276h-234z" />
    <glyph glyph-name="gravecomb" unicode="&#x300;" horiz-adv-x="0" 
d="M-113 1188h-243l-265 289h318z" />
    <glyph glyph-name="acutecomb" unicode="&#x301;" horiz-adv-x="0" 
d="M-621 1188l191 289h317l-264 -289h-244z" />
    <glyph glyph-name="uni0302" unicode="&#x302;" horiz-adv-x="0" 
d="M-113 1274l-170 -127l-141 180l-141 -180l-172 127l145 182h334z" />
    <glyph glyph-name="tildecomb" unicode="&#x303;" horiz-adv-x="0" 
d="M-315 1178q-47 0 -98 21t-94.5 42t-72.5 21q-54 0 -69 -74h-160q6 127 59 194.5t148 67.5q46 0 96.5 -20.5t93 -41t70.5 -20.5q58 0 70 72h159q-4 -126 -57 -194t-145 -68z" />
    <glyph glyph-name="uni0304" unicode="&#x304;" horiz-adv-x="0" 
d="M-829 1188v188h716v-188h-716z" />
    <glyph glyph-name="uni0306" unicode="&#x306;" horiz-adv-x="0" 
d="M-406 1167q-128 0 -210 79t-82 200h157q9 -46 44 -74.5t91 -28.5t91.5 28.5t46.5 74.5h155q0 -121 -82.5 -200t-210.5 -79z" />
    <glyph glyph-name="uni0307" unicode="&#x307;" horiz-adv-x="0" 
d="M-385 1188v268h272v-268h-272z" />
    <glyph glyph-name="uni0308" unicode="&#x308;" horiz-adv-x="0" 
d="M-848 1188v260h264v-260h-264zM-375 1188v260h262v-260h-262z" />
    <glyph glyph-name="uni030A" unicode="&#x30a;" horiz-adv-x="0" 
d="M-391 944q-124 0 -202.5 70t-78.5 178t78.5 177t202.5 69q123 0 200.5 -69t77.5 -177t-78 -178t-200 -70zM-391 1085q45 0 73.5 30.5t28.5 76.5t-28 75t-74 29q-47 0 -76 -29t-29 -75t29 -76.5t76 -30.5z" />
    <glyph glyph-name="uni030B" unicode="&#x30b;" horiz-adv-x="0" 
d="M-1001 1188l182 276h303l-252 -276h-233zM-596 1188l182 276h303l-251 -276h-234z" />
    <glyph glyph-name="uni030C" unicode="&#x30c;" horiz-adv-x="0" 
d="M-283 1497l170 -127l-145 -182h-334l-145 182l172 127l141 -180z" />
    <glyph glyph-name="dotbelowcomb" unicode="&#x323;" horiz-adv-x="0" 
d="M-385 -371v269h272v-269h-272z" />
    <glyph glyph-name="uni0326" unicode="&#x326;" horiz-adv-x="0" 
d="M-369 -578v123q46 9 64 32t18 71h-102v250h276v-211q0 -117 -66.5 -186.5t-189.5 -78.5z" />
    <glyph glyph-name="uni0327" unicode="&#x327;" horiz-adv-x="0" 
d="M-332 -92q95 0 157 -54t62 -137q0 -99 -68.5 -159t-183.5 -60q-91 0 -164.5 37.5t-115.5 102.5l131 96q29 -44 61 -62t80 -18q45 0 69.5 20t22.5 54q-2 30 -25.5 47.5t-64.5 17.5q-44 0 -94 -33l-121 66l117 205h160l-74 -127q32 4 51 4z" />
    <glyph glyph-name="uni0328" unicode="&#x328;" horiz-adv-x="0" 
d="M-377 -449q-123 0 -195.5 54.5t-72.5 146.5t68 163.5t219 135.5l116 -51q-114 -67 -162.5 -115t-48.5 -92q0 -55 82 -55q74 0 183 53l75 -172q-144 -68 -264 -68z" />
    <glyph glyph-name="uni0337" unicode="&#x337;" horiz-adv-x="0" 
d="M-969 -98l-147 98l856 1190l147 -105z" />
    <glyph glyph-name="uni0338" unicode="&#x338;" horiz-adv-x="0" 
d="M-985 -123l-172 92l872 1585l172 -90z" />
    <glyph glyph-name="uni0394" unicode="&#x394;" horiz-adv-x="1437" 
d="M838 1434l589 -1434h-1417l590 1434h238zM362 223h713l-356 885z" />
    <glyph glyph-name="uni03A9" unicode="&#x3a9;" horiz-adv-x="1228" 
d="M1157 748q0 -368 -166 -510h166v-238h-465v217q209 61 209 500q0 258 -71 384t-216 126t-215.5 -126t-70.5 -384q0 -439 211 -500v-217h-467v238h166q-166 142 -166 510q0 340 141 528t401 188t401.5 -188t141.5 -528z" />
    <glyph glyph-name="uni03BC" unicode="&#x3bc;" 
d="M891 1085h246v-1085h-240v100q-47 -59 -122.5 -95t-160.5 -36q-150 0 -235 70v-500h-246v1546h246v-616q0 -135 63.5 -203.5t186.5 -68.5q120 0 191 74t71 200v614z" />
    <glyph glyph-name="pi" unicode="&#x3c0;" horiz-adv-x="1136" 
d="M1112 858h-166v-506q0 -67 37 -96t129 -29v-227q-412 0 -412 322v536h-241v-858h-246v858h-186v227h1085v-227z" />
    <glyph glyph-name="uni0E3F" unicode="&#xe3f;" horiz-adv-x="1402" 
d="M1063 768q110 -48 173.5 -139t63.5 -207q0 -185 -139 -303.5t-356 -118.5h-21v-262h-256v262h-313v1434h313v252h256v-252h9q189 0 316.5 -109t127.5 -272q0 -94 -45.5 -168t-128.5 -117zM471 1196v-330h311q97 0 149 44.5t52 127.5q0 75 -53 116.5t-148 41.5h-311z
M797 238q119 0 183 53t64 151q0 94 -65 146.5t-182 52.5h-326v-403h326z" />
    <glyph glyph-name="uni1E04" unicode="&#x1e04;" horiz-adv-x="1300" 
d="M1022 768q110 -48 174 -139t64 -207q0 -184 -139.5 -303t-356.5 -119h-610v1434h598q189 0 316.5 -109t127.5 -272q0 -94 -45.5 -168t-128.5 -117zM410 1196v-330h331q97 0 149 44.5t52 127.5q0 75 -53 116.5t-148 41.5h-331zM756 238q119 0 183.5 53t64.5 151
q0 94 -65.5 146.5t-182.5 52.5h-346v-403h346zM526 -371v269h273v-269h-273z" />
    <glyph glyph-name="uni1E05" unicode="&#x1e05;" horiz-adv-x="1228" 
d="M666 1116q220 0 355.5 -157.5t135.5 -415.5q0 -257 -135.5 -415.5t-355.5 -158.5q-89 0 -167 31.5t-126 85.5v-86h-240v1434h246v-418q103 100 287 100zM637 197q129 0 201.5 92t72.5 254t-72.5 254t-201.5 92q-118 0 -188 -68.5t-70 -181.5v-190q0 -113 70.5 -182.5
t187.5 -69.5zM528 -401v268h273v-268h-273z" />
    <glyph glyph-name="uni1E0C" unicode="&#x1e0c;" horiz-adv-x="1376" 
d="M154 1434h477q317 0 495.5 -187.5t178.5 -529.5q0 -341 -178.5 -529t-495.5 -188h-477v1434zM606 238q222 0 332.5 118t110.5 361q0 244 -110 361.5t-333 117.5h-196v-958h196zM553 -371v269h272v-269h-272z" />
    <glyph glyph-name="uni1E0D" unicode="&#x1e0d;" horiz-adv-x="1228" 
d="M850 1434h246v-1434h-240v86q-48 -54 -126 -85.5t-167 -31.5q-220 0 -355.5 158.5t-135.5 415.5q0 258 135.5 415.5t355.5 157.5q184 0 287 -100v418zM850 449v190q0 113 -70 181.5t-188 68.5q-129 0 -202 -92t-73 -254t73 -254t202 -92q117 0 187.5 69.5t70.5 182.5z
M428 -401v268h272v-268h-272z" />
    <glyph glyph-name="uni1E24" unicode="&#x1e24;" horiz-adv-x="1386" 
d="M154 1434h258v-576h563v576h258v-1434h-258v621h-563v-621h-258v1434zM557 -371v269h272v-269h-272z" />
    <glyph glyph-name="uni1E25" unicode="&#x1e25;" horiz-adv-x="1249" 
d="M698 1116q185 0 306.5 -125t121.5 -334v-657h-245v627q0 130 -62.5 196t-181.5 66q-118 0 -188 -72.5t-70 -191.5v-625h-246v1434h246v-447q52 61 136 95t183 34zM494 -371v269h272v-269h-272z" />
    <glyph glyph-name="uni1E36" unicode="&#x1e36;" horiz-adv-x="1171" 
d="M154 1434h258v-1196h714v-238h-972v1434zM543 -371v269h272v-269h-272z" />
    <glyph glyph-name="uni1E37" unicode="&#x1e37;" horiz-adv-x="512" 
d="M133 0v1434h246v-1434h-246zM119 -371v269h272v-269h-272z" />
    <glyph glyph-name="uni1E44" unicode="&#x1e44;" horiz-adv-x="1380" 
d="M825 1804v-268h-272v268h272zM971 1434h256v-1434h-271l-546 995v-995h-256v1434h270l547 -994v994z" />
    <glyph glyph-name="uni1E45" unicode="&#x1e45;" horiz-adv-x="1249" 
d="M807 1487v-268h-272v268h272zM698 1116q185 0 306.5 -125t121.5 -334v-657h-245v627q0 130 -62.5 196t-181.5 66q-118 0 -188 -72.5t-70 -191.5v-625h-246v1085h240v-104q53 63 139 99t186 36z" />
    <glyph glyph-name="uni1E46" unicode="&#x1e46;" horiz-adv-x="1380" 
d="M971 1434h256v-1434h-271l-546 995v-995h-256v1434h270l547 -994v994zM553 -371v269h272v-269h-272z" />
    <glyph glyph-name="uni1E47" unicode="&#x1e47;" horiz-adv-x="1249" 
d="M698 1116q185 0 306.5 -125t121.5 -334v-657h-245v627q0 130 -62.5 196t-181.5 66q-118 0 -188 -72.5t-70 -191.5v-625h-246v1085h240v-104q53 63 139 99t186 36zM473 -371v269h272v-269h-272z" />
    <glyph glyph-name="uni1E4C" unicode="&#x1e4c;" horiz-adv-x="1380" 
d="M539 1890l190 289h318l-265 -289h-243zM836 1556q-47 0 -98 21t-94.5 42t-72.5 21q-55 0 -69 -73h-160q6 127 59 194.5t148 67.5q46 0 96.5 -20.5t93 -41t70.5 -20.5q58 0 70 72h159q-4 -127 -57.5 -195t-144.5 -68zM690 -31q-192 0 -333 95.5t-213 263.5t-72 389
q0 165 42 302.5t120 236t195 153.5t261 55q192 0 333 -95t213.5 -263.5t72.5 -388.5t-72.5 -388.5t-213.5 -264t-333 -95.5zM690 207q174 0 267.5 137.5t93.5 372.5t-93.5 372.5t-267.5 137.5t-267 -137.5t-93 -372.5t93 -372.5t267 -137.5z" />
    <glyph glyph-name="uni1E4D" unicode="&#x1e4d;" horiz-adv-x="1187" 
d="M442 1542l191 289h317l-264 -289h-244zM739 1208q-47 0 -98 21t-94 42t-72 21q-55 0 -69 -73h-160q6 127 59 194.5t148 67.5q46 0 96.5 -20.5t93 -41t70.5 -20.5q57 0 69 71h160q-4 -126 -57.5 -194t-145.5 -68zM594 -31q-237 0 -379.5 155.5t-142.5 418.5t142.5 418
t379.5 155t379.5 -155t142.5 -418t-142.5 -418.5t-379.5 -155.5zM594 197q135 0 205.5 93t70.5 253t-70.5 253t-205.5 93q-134 0 -205.5 -93.5t-71.5 -252.5t71.5 -252.5t205.5 -93.5z" />
    <glyph glyph-name="uni1E62" unicode="&#x1e62;" horiz-adv-x="1296" 
d="M674 -31q-258 0 -429 133.5t-208 364.5l250 45q26 -146 126.5 -225.5t260.5 -79.5q152 0 231.5 51.5t79.5 149.5q0 54 -33 90t-113 68t-239 73q-256 67 -367.5 163.5t-111.5 250.5q0 181 142 296t366 115q220 0 380 -119t197 -311l-250 -47q-25 109 -114 174.5t-213 65.5
q-112 0 -182 -47.5t-70 -124.5q0 -47 30.5 -77.5t108 -60t238.5 -71.5q258 -69 371 -170t116 -266q3 -202 -150.5 -321.5t-416.5 -119.5zM537 -401v268h272v-268h-272z" />
    <glyph glyph-name="uni1E63" unicode="&#x1e63;" horiz-adv-x="1114" 
d="M594 -31q-215 0 -362 105t-181 282l219 50q22 -109 106.5 -169.5t217.5 -60.5q116 0 178 33.5t62 95.5q0 59 -62.5 90t-241.5 62q-222 35 -317.5 109t-95.5 212q0 148 118.5 243t301.5 95q175 0 313.5 -94.5t173.5 -239.5l-215 -61q-22 85 -97 137.5t-175 52.5
q-79 0 -134 -37.5t-55 -91.5q0 -50 60 -77t239 -56q219 -36 317.5 -114.5t98.5 -223.5q0 -158 -125.5 -250t-343.5 -92zM457 -401v268h272v-268h-272z" />
    <glyph glyph-name="uni1E6C" unicode="&#x1e6c;" horiz-adv-x="1267" 
d="M506 0v1196h-479v238h1216v-238h-479v-1196h-258zM498 -371v269h272v-269h-272z" />
    <glyph glyph-name="uni1E6D" unicode="&#x1e6d;" horiz-adv-x="868" 
d="M246 1362l246 72v-349h327v-227h-327v-545q0 -116 110 -116q85 0 199 41l61 -220q-155 -49 -280 -49q-150 0 -243 89t-93 233v567h-240v227h240v277zM420 -401v268h272v-268h-272z" />
    <glyph glyph-name="Wgrave" unicode="&#x1e80;" horiz-adv-x="1636" 
d="M956 1536h-243l-264 289h317zM1313 1434h252l-209 -1434h-254l-283 770l-284 -770h-254l-209 1434h252l139 -1016l282 774h148l281 -774z" />
    <glyph glyph-name="wgrave" unicode="&#x1e81;" horiz-adv-x="1548" 
d="M889 1188h-244l-264 289h317zM1311 1085h227l-278 -1085h-265l-221 715l-219 -715h-266l-279 1085h228l196 -780l242 780h198l240 -780z" />
    <glyph glyph-name="Wacute" unicode="&#x1e82;" horiz-adv-x="1636" 
d="M1182 1825l-264 -289h-244l190 289h318zM1313 1434h252l-209 -1434h-254l-283 770l-284 -770h-254l-209 1434h252l139 -1016l282 774h148l281 -774z" />
    <glyph glyph-name="wacute" unicode="&#x1e83;" horiz-adv-x="1548" 
d="M1114 1477l-264 -289h-244l191 289h317zM1311 1085h227l-278 -1085h-265l-221 715l-219 -715h-266l-279 1085h228l196 -780l242 780h198l240 -780z" />
    <glyph glyph-name="Wdieresis" unicode="&#x1e84;" horiz-adv-x="1636" 
d="M721 1796v-260h-264v260h264zM1192 1796v-260h-262v260h262zM1313 1434h252l-209 -1434h-254l-283 770l-284 -770h-254l-209 1434h252l139 -1016l282 774h148l281 -774z" />
    <glyph glyph-name="wdieresis" unicode="&#x1e85;" horiz-adv-x="1548" 
d="M653 1448v-260h-264v260h264zM1124 1448v-260h-262v260h262zM1311 1085h227l-278 -1085h-265l-221 715l-219 -715h-266l-279 1085h228l196 -780l242 780h198l240 -780z" />
    <glyph glyph-name="uni1E92" unicode="&#x1e92;" horiz-adv-x="1265" 
d="M68 0v219l817 987h-785v228h1100v-215l-819 -990h811v-229h-1124zM498 -371v269h272v-269h-272z" />
    <glyph glyph-name="uni1E93" unicode="&#x1e93;" horiz-adv-x="1144" 
d="M92 0v199l629 675h-608v211h921v-198l-628 -674h647v-213h-961zM436 -371v269h273v-269h-273z" />
    <glyph glyph-name="uni1EA0" unicode="&#x1ea0;" horiz-adv-x="1437" 
d="M1427 0h-262l-137 340h-618l-138 -340h-262l590 1434h238zM500 563h438l-219 545zM584 -371v269h272v-269h-272z" />
    <glyph glyph-name="uni1EA1" unicode="&#x1ea1;" horiz-adv-x="1157" 
d="M1124 219l27 -209q-84 -16 -143 -16q-76 0 -130 31.5t-79 89.5q-52 -63 -137.5 -99t-190.5 -36q-178 0 -286.5 88t-108.5 233q0 135 87 213t286 119q174 38 231 66.5t57 82.5q0 56 -52 90.5t-138 34.5q-103 0 -170.5 -54t-79.5 -144l-225 34q23 165 156 269t319 104
q197 0 309.5 -96.5t112.5 -265.5v-449q0 -48 16 -72t55 -24q30 0 84 10zM737 379v176q-19 -24 -66 -44.5t-159 -53.5q-121 -35 -163 -65t-42 -81q0 -59 43 -90t125 -31q114 0 188 53t74 136zM430 -401v268h272v-268h-272z" />
    <glyph glyph-name="uni1EAC" unicode="&#x1eac;" horiz-adv-x="1437" 
d="M723 1675l-141 -180l-172 127l145 182h334l145 -182l-170 -127zM1427 0h-262l-137 340h-618l-138 -340h-262l590 1434h238zM500 563h438l-219 545zM586 -371v269h272v-269h-272z" />
    <glyph glyph-name="uni1EAD" unicode="&#x1ead;" horiz-adv-x="1157" 
d="M547 1358l-141 -180l-173 127l146 182h334l145 -182l-170 -127zM1124 219l27 -209q-84 -16 -143 -16q-76 0 -130 31.5t-79 89.5q-52 -63 -137.5 -99t-190.5 -36q-178 0 -286.5 88t-108.5 233q0 135 87 213t286 119q174 38 231 66.5t57 82.5q0 56 -52 90.5t-138 34.5
q-103 0 -170.5 -54t-79.5 -144l-225 34q23 165 156 269t319 104q197 0 309.5 -96.5t112.5 -265.5v-449q0 -48 16 -72t55 -24q30 0 84 10zM737 379v176q-19 -24 -66 -44.5t-159 -53.5q-121 -35 -163 -65t-42 -81q0 -59 43 -90t125 -31q114 0 188 53t74 136zM434 -401v268h273
v-268h-273z" />
    <glyph glyph-name="uni1EB8" unicode="&#x1eb8;" horiz-adv-x="1161" 
d="M154 0v1434h936v-238h-678v-350h510v-230h-510v-378h678v-238h-936zM489 -371v269h273v-269h-273z" />
    <glyph glyph-name="uni1EB9" unicode="&#x1eb9;" horiz-adv-x="1159" 
d="M311 453q17 -129 86.5 -200t180.5 -71q97 0 165.5 45.5t130.5 143.5l177 -135q-74 -125 -195.5 -196t-277.5 -71q-232 0 -369 156t-137 418q0 259 138.5 416t367.5 157q228 0 368.5 -157t140.5 -416v-90h-776zM578 903q-113 0 -186.5 -70.5t-80.5 -189.5h533
q-13 126 -82.5 193t-183.5 67zM440 -401v268h273v-268h-273z" />
    <glyph glyph-name="uni1EBC" unicode="&#x1ebc;" horiz-adv-x="1161" 
d="M772 1526q-47 0 -98 21t-94 42t-72 21q-55 0 -70 -74h-159q6 127 58.5 194.5t147.5 67.5q46 0 96.5 -20.5t93 -41t70.5 -20.5q58 0 70 72h160q-4 -126 -57.5 -194t-145.5 -68zM154 0v1434h936v-238h-678v-350h510v-230h-510v-378h678v-238h-936z" />
    <glyph glyph-name="uni1EBD" unicode="&#x1ebd;" horiz-adv-x="1159" 
d="M459 1292q-56 0 -70 -73h-160q6 127 59 194.5t148 67.5q46 0 96.5 -20.5t93 -41t70.5 -20.5q58 0 70 71h160q-4 -126 -57.5 -194t-145.5 -68q-47 0 -98 21t-94 42t-72 21zM311 453q17 -129 86.5 -200t180.5 -71q97 0 165.5 45.5t130.5 143.5l177 -135
q-74 -125 -195.5 -196t-277.5 -71q-232 0 -369 156t-137 418q0 259 138.5 416t367.5 157q228 0 368.5 -157t140.5 -416v-90h-776zM578 903q-113 0 -186.5 -70.5t-80.5 -189.5h533q-13 126 -82.5 193t-183.5 67z" />
    <glyph glyph-name="uni1EC6" unicode="&#x1ec6;" horiz-adv-x="1161" 
d="M627 1675l-142 -180l-172 127l146 182h334l145 -182l-170 -127zM1090 1196h-678v-350h510v-230h-510v-378h678v-238h-936v1434h936v-238zM469 -371v269h272v-269h-272z" />
    <glyph glyph-name="uni1EC7" unicode="&#x1ec7;" horiz-adv-x="1159" 
d="M578 1358l-142 -180l-172 127l146 182h333l146 -182l-170 -127zM311 453q17 -129 86.5 -200t180.5 -71q97 0 165.5 45.5t130.5 143.5l177 -135q-74 -125 -195.5 -196t-277.5 -71q-232 0 -369 156t-137 418q0 259 138.5 416t367.5 157q228 0 368.5 -157t140.5 -416v-90
h-776zM578 903q-113 0 -186.5 -70.5t-80.5 -189.5h533q-13 126 -82.5 193t-183.5 67zM444 -401v268h273v-268h-273z" />
    <glyph glyph-name="uni1ECA" unicode="&#x1eca;" horiz-adv-x="565" 
d="M154 0v1434h258v-1434h-258zM154 -371v269h272v-269h-272z" />
    <glyph glyph-name="uni1ECB" unicode="&#x1ecb;" horiz-adv-x="512" 
d="M119 1219v268h272v-268h-272zM133 0v1085h246v-1085h-246zM119 -371v269h272v-269h-272z" />
    <glyph glyph-name="uni1ECC" unicode="&#x1ecc;" horiz-adv-x="1380" 
d="M690 -31q-192 0 -333 95.5t-213 263.5t-72 389q0 165 42 302.5t120 236t195 153.5t261 55q192 0 333 -95t213.5 -263.5t72.5 -388.5t-72.5 -388.5t-213.5 -264t-333 -95.5zM690 207q174 0 267.5 137.5t93.5 372.5t-93.5 372.5t-267.5 137.5t-267 -137.5t-93 -372.5
t93 -372.5t267 -137.5zM553 -401v268h272v-268h-272z" />
    <glyph glyph-name="uni1ECD" unicode="&#x1ecd;" horiz-adv-x="1187" 
d="M594 -31q-237 0 -379.5 155.5t-142.5 418.5t142.5 418t379.5 155t379.5 -155t142.5 -418t-142.5 -418.5t-379.5 -155.5zM594 197q135 0 205.5 93t70.5 253t-70.5 253t-205.5 93q-134 0 -205.5 -93.5t-71.5 -252.5t71.5 -252.5t205.5 -93.5zM457 -401v268h272v-268h-272z
" />
    <glyph glyph-name="uni1ED8" unicode="&#x1ed8;" horiz-adv-x="1380" 
d="M690 1706l-141 -180l-172 127l145 182h334l145 -182l-170 -127zM690 1464q192 0 333 -95t213.5 -263.5t72.5 -388.5t-72.5 -388.5t-213.5 -264t-333 -95.5t-333 95.5t-213 263.5t-72 389q0 165 42 302.5t120 236t195 153.5t261 55zM690 207q174 0 267.5 137.5t93.5 372.5
t-93.5 372.5t-267.5 137.5t-267 -137.5t-93 -372.5t93 -372.5t267 -137.5zM557 -401v268h272v-268h-272z" />
    <glyph glyph-name="uni1ED9" unicode="&#x1ed9;" horiz-adv-x="1187" 
d="M594 1358l-141 -180l-172 127l145 182h334l145 -182l-170 -127zM594 1116q237 0 379.5 -155t142.5 -418t-142.5 -418.5t-379.5 -155.5t-379.5 155.5t-142.5 418.5t142.5 418t379.5 155zM594 197q135 0 205.5 93t70.5 253t-70.5 253t-205.5 93q-134 0 -205.5 -93.5
t-71.5 -252.5t71.5 -252.5t205.5 -93.5zM459 -401v268h272v-268h-272z" />
    <glyph glyph-name="uni1EE4" unicode="&#x1ee4;" horiz-adv-x="1445" 
d="M725 -31q-171 0 -301 62t-205.5 188t-75.5 301v914h258v-902q0 -167 85 -246t239 -79q153 0 237.5 79t84.5 246v902h256v-914q0 -263 -158.5 -407t-419.5 -144zM588 -401v268h272v-268h-272z" />
    <glyph glyph-name="uni1EE5" unicode="&#x1ee5;" horiz-adv-x="1216" 
d="M838 1085h245v-1085h-237v109q-50 -65 -129 -102.5t-166 -37.5q-192 0 -310 126t-118 333v657h246v-616q0 -135 59.5 -203.5t169.5 -68.5t175 74t65 200v614zM414 -401v268h272v-268h-272z" />
    <glyph glyph-name="Ygrave" unicode="&#x1ef2;" horiz-adv-x="1282" 
d="M774 1536h-244l-264 289h318zM983 1434h295l-508 -844v-590h-256v590l-508 844h295l340 -590z" />
    <glyph glyph-name="ygrave" unicode="&#x1ef3;" horiz-adv-x="1116" 
d="M694 1188h-243l-265 289h318zM834 1085h272l-543 -1228q-44 -100 -108 -143.5t-176 -43.5q-60 0 -195 23l37 219q76 -12 141 -12q46 0 70 15t41 56l65 158l-428 956h275l272 -667z" />
    <glyph glyph-name="uni1EF4" unicode="&#x1ef4;" horiz-adv-x="1282" 
d="M514 0v590l-508 844h295l340 -590l342 590h295l-508 -844v-590h-256zM506 -371v269h272v-269h-272z" />
    <glyph glyph-name="uni1EF5" unicode="&#x1ef5;" horiz-adv-x="1116" 
d="M834 1085h272l-543 -1228q-44 -100 -108 -143.5t-176 -43.5q-60 0 -195 23l37 219q76 -12 141 -12q46 0 70 15t41 56l65 158l-428 956h275l272 -667zM752 -371v269h272v-269h-272z" />
    <glyph glyph-name="uni1EF8" unicode="&#x1ef8;" horiz-adv-x="1282" 
d="M524 1610q-54 0 -69 -74h-160q6 127 59 194.5t148 67.5q46 0 96.5 -20.5t93 -41t70.5 -20.5q57 0 69 72h160q-4 -126 -57.5 -194t-145.5 -68q-47 0 -98 21t-94 42t-72 21zM983 1434h295l-508 -844v-590h-256v590l-508 844h295l340 -590z" />
    <glyph glyph-name="uni1EF9" unicode="&#x1ef9;" horiz-adv-x="1116" 
d="M444 1262q-54 0 -69 -74h-160q6 127 59 194.5t148 67.5q46 0 96.5 -20.5t93 -41t70.5 -20.5q58 0 70 72h159q-4 -126 -57 -194t-145 -68q-47 0 -98 21t-94.5 42t-72.5 21zM834 1085h272l-543 -1228q-44 -100 -108 -143.5t-176 -43.5q-60 0 -195 23l37 219q76 -12 141 -12
q46 0 70 15t41 56l65 158l-428 956h275l272 -667z" />
    <glyph glyph-name="uni2002" unicode="&#x2002;" horiz-adv-x="1460" 
 />
    <glyph glyph-name="uni2003" unicode="&#x2003;" horiz-adv-x="1249" 
 />
    <glyph glyph-name="uni2004" unicode="&#x2004;" horiz-adv-x="716" 
 />
    <glyph glyph-name="uni2005" unicode="&#x2005;" horiz-adv-x="460" 
 />
    <glyph glyph-name="uni2007" unicode="&#x2007;" horiz-adv-x="1331" 
 />
    <glyph glyph-name="uni2008" unicode="&#x2008;" horiz-adv-x="557" 
 />
    <glyph glyph-name="uni2009" unicode="&#x2009;" horiz-adv-x="307" 
 />
    <glyph glyph-name="uni200A" unicode="&#x200a;" horiz-adv-x="153" 
 />
    <glyph glyph-name="uni200B" unicode="&#x200b;" horiz-adv-x="0" 
 />
    <glyph glyph-name="endash" unicode="&#x2013;" horiz-adv-x="1228" 
d="M113 506v237h1003v-237h-1003z" />
    <glyph glyph-name="emdash" unicode="&#x2014;" horiz-adv-x="1495" 
d="M113 506v237h1269v-237h-1269z" />
    <glyph glyph-name="quoteleft" unicode="&#x2018;" horiz-adv-x="577" 
d="M453 1454v-158q-65 -13 -89 -42.5t-24 -94.5h125v-325h-352v274q0 154 88 243t252 103z" />
    <glyph glyph-name="quoteright" unicode="&#x2019;" horiz-adv-x="577" 
d="M125 815v158q65 13 89 42.5t24 94.5h-125v326h352v-275q0 -154 -88 -243t-252 -103z" />
    <glyph glyph-name="quotesinglbase" unicode="&#x201a;" horiz-adv-x="577" 
d="M125 -297v158q65 13 89 42.5t24 94.5h-125v326h352v-275q0 -154 -88 -243t-252 -103z" />
    <glyph glyph-name="quotedblleft" unicode="&#x201c;" horiz-adv-x="1058" 
d="M426 1454v-145q-61 -12 -82.5 -39t-21.5 -88h114v-301h-325v254q0 141 81.5 224t233.5 95zM936 1454v-145q-61 -12 -83 -39t-22 -88h115v-301h-325v254q0 141 81.5 224t233.5 95z" />
    <glyph glyph-name="quotedblright" unicode="&#x201d;" horiz-adv-x="1058" 
d="M123 862v146q61 12 82.5 39t21.5 88h-114v301h325v-254q0 -141 -81.5 -224.5t-233.5 -95.5zM633 862v146q61 12 82.5 39t21.5 88h-114v301h325v-254q0 -141 -81.5 -224.5t-233.5 -95.5z" />
    <glyph glyph-name="quotedblbase" unicode="&#x201e;" horiz-adv-x="1058" 
d="M123 -272v145q61 12 82.5 39t21.5 88h-114v301h325v-254q0 -141 -81.5 -224t-233.5 -95zM633 -272v145q61 12 82.5 39t21.5 88h-114v301h325v-254q0 -141 -81.5 -224t-233.5 -95z" />
    <glyph glyph-name="dagger" unicode="&#x2020;" horiz-adv-x="1413" 
d="M578 -246v1094h-465v237h465v461h258v-461h464v-237h-464v-1094h-258z" />
    <glyph glyph-name="daggerdbl" unicode="&#x2021;" horiz-adv-x="1413" 
d="M1300 848h-464v-397h464v-238h-464v-459h-258v459h-465v238h465v397h-465v237h465v461h258v-461h464v-237z" />
    <glyph glyph-name="bullet" unicode="&#x2022;" horiz-adv-x="878" 
d="M440 557q-94 0 -154.5 58t-60.5 149q0 89 60.5 147t154.5 58t153.5 -58t59.5 -147q0 -91 -59.5 -149t-153.5 -58z" />
    <glyph glyph-name="ellipsis" unicode="&#x2026;" horiz-adv-x="1296" 
d="M113 0v276h280v-276h-280zM508 0v276h280v-276h-280zM903 0v276h281v-276h-281z" />
    <glyph glyph-name="perthousand" unicode="&#x2030;" horiz-adv-x="2732" 
d="M1249 1520l199 -90l-748 -1545l-200 82zM457 555q-166 0 -255 115.5t-89 333.5t89 333t255 115q165 0 253.5 -115.5t88.5 -332.5q0 -218 -88.5 -333.5t-253.5 -115.5zM457 758q65 0 94 56.5t29 189.5q0 135 -29 190t-94 55q-68 0 -96.5 -55.5t-28.5 -189.5t28.5 -190
t96.5 -56zM1507 -18q-166 0 -254 115t-88 333t88 333.5t254 115.5t254 -115.5t88 -333.5t-88 -333t-254 -115zM2277 -18q-166 0 -254 115t-88 333t88 333.5t254 115.5q165 0 253.5 -115.5t88.5 -333.5q0 -217 -88.5 -332.5t-253.5 -115.5zM1507 184q66 0 95.5 56t29.5 190
q0 135 -29.5 190.5t-95.5 55.5q-67 0 -96 -56t-29 -190q0 -133 29.5 -189.5t95.5 -56.5zM2277 184q66 0 95.5 56t29.5 190q0 135 -29.5 190.5t-95.5 55.5q-68 0 -96.5 -56t-28.5 -190t29 -190t96 -56z" />
    <glyph glyph-name="guilsinglleft" unicode="&#x2039;" horiz-adv-x="774" 
d="M662 977q-53 -195 -230 -399q177 -204 230 -402l-259 -78q-41 147 -107.5 256t-182.5 224q116 115 182.5 223.5t107.5 253.5z" />
    <glyph glyph-name="guilsinglright" unicode="&#x203a;" horiz-adv-x="774" 
d="M371 1055q41 -145 107.5 -253.5t183.5 -223.5q-117 -115 -183.5 -224.5t-107.5 -255.5l-258 78q53 200 229 402q-176 202 -229 399z" />
    <glyph glyph-name="fraction" unicode="&#x2044;" horiz-adv-x="440" 
d="M518 1511l168 -73l-766 -1547l-166 70z" />
    <glyph glyph-name="uni207A" unicode="&#x207a;" horiz-adv-x="776" 
d="M721 1319v-164h-242v-252h-178v252h-244v164h244v250h178v-250h242z" />
    <glyph glyph-name="uni207B" unicode="&#x207b;" horiz-adv-x="653" 
d="M57 1149v170h541v-170h-541z" />
    <glyph glyph-name="lira" unicode="&#x20a4;" 
d="M963 748h256q0 -340 -180.5 -544t-475.5 -204h-256v618l-162 -59l-73 193l235 86v106l-162 -59l-73 192l235 86v271h256v-179l268 99l72 -193l-340 -125v-106l268 98l72 -190l-340 -125v-473q185 0 292.5 137t107.5 371z" />
    <glyph glyph-name="uni20A8" unicode="&#x20a8;" 
d="M1214 1225h-270q60 -60 78 -142h192v-198h-184q-13 -108 -88.5 -187.5t-193.5 -113.5q134 -42 196 -242l111 -342h-303l-76 268q-42 144 -107.5 208.5t-177.5 64.5h-278v225h438q166 0 213 119h-651v198h651q-44 123 -213 123h-438v228h1101v-209z" />
    <glyph glyph-name="uni20A9" unicode="&#x20a9;" horiz-adv-x="1751" 
d="M1706 979h-221l-19 -131h240v-221h-272l-91 -627h-311l-147 627h-17l-149 -627h-309l-91 627h-272v221h240l-19 131h-221v221h189l-33 234h266l23 -234h768l24 234h266l-32 -234h188v-221zM514 979l14 -131h195l31 131h-240zM1225 848l12 131h-238l31 -131h195zM586 254
l86 373h-123zM1165 254l37 373h-123z" />
    <glyph glyph-name="Euro" unicode="&#x20ac;" horiz-adv-x="1464" 
d="M1108 524l246 -41q-36 -241 -192.5 -377.5t-387.5 -136.5q-215 0 -363.5 118t-211.5 325l-172 -17v213l133 15q-4 62 -4 94v10l-129 -12v213l151 14q50 242 205.5 382t390.5 140q229 0 384 -132.5t192 -358.5l-246 -43q-30 145 -117 221t-213 76q-119 0 -201.5 -67
t-121.5 -189l385 39v-213l-422 -43v-37q0 -47 2 -70l420 43v-213l-377 -39q42 -111 122 -171t193 -60q128 0 217 79.5t117 237.5z" />
    <glyph glyph-name="uni20BD" unicode="&#x20bd;" horiz-adv-x="1546" 
d="M958 1434q206 0 341 -127t135 -320q0 -190 -139 -318t-347 -128h-362v-92h321v-222h-321v-227h-258v227h-236v222h236v110h-236v219h236v656h630zM936 778q107 0 174.5 58.5t67.5 150.5q0 95 -66.5 152t-175.5 57h-350v-418h350z" />
    <glyph glyph-name="uni20BF" unicode="&#x20bf;" horiz-adv-x="1402" 
d="M1300 422q0 -143 -86.5 -249.5t-234.5 -149.5v-285h-256v262h-113v-262h-256v262h-139v1434h139v252h256v-252h113v252h256v-285q118 -45 188 -137.5t70 -210.5q0 -94 -45.5 -168t-128.5 -117q110 -48 173.5 -139t63.5 -207zM782 866q97 0 149 44.5t52 127.5
q0 75 -53 116.5t-148 41.5h-311v-330h311zM797 238q119 0 183 53t64 151q0 94 -65 146.5t-182 52.5h-326v-403h326z" />
    <glyph glyph-name="uni2117" unicode="&#x2117;" horiz-adv-x="1341" 
d="M672 76q-243 0 -401 164.5t-158 416.5q0 253 158 417.5t401 164.5q120 0 223.5 -43.5t176.5 -120.5t115 -185t42 -233q0 -252 -157 -416.5t-400 -164.5zM672 244q171 0 277 114t106 299q0 184 -106.5 299t-276.5 115q-172 0 -278.5 -114.5t-106.5 -299.5
q0 -184 107 -298.5t278 -114.5zM492 344v625h215q106 0 171.5 -58.5t65.5 -160.5q0 -104 -65 -161t-174 -57h-66v-188h-147zM639 655h74q84 0 84 95q0 94 -84 94h-74v-189z" />
    <glyph glyph-name="trademark" unicode="&#x2122;" horiz-adv-x="1433" 
d="M113 1300v134h501v-134h-176v-546h-149v546h-176zM1135 1434h186v-680h-141v403l-123 -403h-123l-125 405v-405h-141v680h184l143 -478z" />
    <glyph glyph-name="oneeighth" unicode="&#x215b;" horiz-adv-x="1718" 
d="M1083 1511l168 -73l-766 -1547l-166 70zM457 573h-187v629q-38 -38 -85.5 -63.5t-131.5 -53.5l-47 170q104 35 165.5 72.5t123.5 106.5h162v-861zM1544 461q60 -31 95.5 -89t35.5 -126q0 -113 -90 -188.5t-223 -75.5q-135 0 -224 75.5t-89 188.5q0 68 36 126t95 91
q-109 57 -109 174q0 101 84.5 171.5t206.5 70.5t206.5 -70.5t84.5 -171.5q0 -119 -109 -176zM1362 721q-49 0 -77 -24.5t-28 -67.5q0 -46 27 -70t78 -24q104 0 104 94q0 43 -28 67.5t-76 24.5zM1362 156q59 0 93 29.5t34 80.5q0 50 -34.5 79.5t-92.5 29.5t-92.5 -29.5
t-34.5 -79.5q0 -51 33.5 -80.5t93.5 -29.5z" />
    <glyph glyph-name="threeeighths" unicode="&#x215c;" horiz-adv-x="1871" 
d="M1237 1511l168 -73l-766 -1547l-166 70zM672 854q0 -131 -89 -215t-227 -84q-141 0 -231.5 81.5t-104.5 219.5l187 29q15 -156 149 -156q60 0 94.5 33.5t34.5 93.5q0 63 -33 92t-102 29h-145v115l235 168h-362v174h577v-187l-221 -153q110 -6 174 -70t64 -170zM1698 461
q60 -31 95.5 -89t35.5 -126q0 -113 -90 -188.5t-223 -75.5q-135 0 -224.5 75.5t-89.5 188.5q0 68 36 126t95 91q-108 57 -108 174q0 101 84.5 171.5t206.5 70.5q121 0 205.5 -70.5t84.5 -171.5q0 -119 -108 -176zM1516 721q-49 0 -77 -24.5t-28 -67.5q0 -46 27 -70t78 -24
q104 0 104 94q0 43 -28 67.5t-76 24.5zM1516 156q58 0 92 29.5t34 80.5q0 50 -34 79.5t-92 29.5t-92.5 -29.5t-34.5 -79.5q0 -51 33.5 -80.5t93.5 -29.5z" />
    <glyph glyph-name="fiveeighths" unicode="&#x215d;" horiz-adv-x="1898" 
d="M1264 1511l168 -73l-766 -1547l-166 70zM711 864q0 -134 -94 -221.5t-236 -87.5q-126 0 -214 65t-120 181l176 57q20 -67 58 -98t100 -31q63 0 102 36.5t39 98.5q0 57 -38 92t-99 35q-80 0 -147 -67l-172 39l84 471h487v-174h-330l-26 -150q56 35 137 35q125 0 209 -80.5
t84 -200.5zM1724 461q60 -31 95.5 -89t35.5 -126q0 -113 -90 -188.5t-223 -75.5q-135 0 -224 75.5t-89 188.5q0 68 36 126t95 91q-109 57 -109 174q0 101 84.5 171.5t206.5 70.5t206.5 -70.5t84.5 -171.5q0 -119 -109 -176zM1542 721q-49 0 -76.5 -24.5t-27.5 -67.5
q0 -94 104 -94q51 0 78 24t27 70q0 42 -28.5 67t-76.5 25zM1542 156q59 0 93 29.5t34 80.5q0 50 -34.5 79.5t-92.5 29.5t-92.5 -29.5t-34.5 -79.5q0 -51 33.5 -80.5t93.5 -29.5z" />
    <glyph glyph-name="arrowleft" unicode="&#x2190;" 
d="M1219 823v-231h-680q157 -112 276 -281l-190 -153q-227 320 -594 549q371 233 594 548l190 -151q-118 -167 -274 -281h678z" />
    <glyph glyph-name="arrowup" unicode="&#x2191;" 
d="M637 1339q119 -190 254 -333.5t297 -260.5l-150 -184q-180 135 -278 270v-675h-246v675q-101 -138 -281 -270l-151 184q331 238 555 594z" />
    <glyph glyph-name="arrowright" unicode="&#x2192;" 
d="M666 1255q223 -315 594 -548q-367 -229 -594 -549l-191 153q118 167 277 281h-680v231h678q-158 115 -275 281z" />
    <glyph glyph-name="arrowdown" unicode="&#x2193;" 
d="M1038 934l150 -184q-162 -117 -297 -260.5t-254 -333.5q-224 356 -555 594l151 184q180 -132 281 -270v675h246v-675q98 135 278 270z" />
    <glyph glyph-name="arrowboth" unicode="&#x2194;" 
d="M944 1251q229 -321 592 -544q-366 -228 -592 -543l-182 145q131 180 285 287h-822q152 -106 285 -287l-182 -145q-234 322 -594 543q365 226 594 544l182 -145q-131 -178 -283 -287h817q-151 105 -282 287z" />
    <glyph glyph-name="arrowupdn" unicode="&#x2195;" 
d="M754 389q109 148 280 277l144 -177q-324 -240 -541 -593q-226 363 -545 593l146 177q172 -130 280 -277v721q-108 -150 -280 -281l-146 179q324 236 545 591q227 -364 541 -591l-144 -179q-181 139 -280 279v-719z" />
    <glyph glyph-name="uni2196" unicode="&#x2196;" 
d="M1126 401l-172 -168l-489 496q26 -175 -4 -395l-236 24q66 391 -30 809q417 -97 806 -30l25 -240q-212 -29 -399 -2z" />
    <glyph glyph-name="uni2197" unicode="&#x2197;" 
d="M1075 1167q-96 -420 -31 -809l-235 -24q-30 220 -4 395l-490 -496l-172 168l500 494q-187 -27 -399 2l24 240q390 -67 807 30z" />
    <glyph glyph-name="uni2198" unicode="&#x2198;" 
d="M1044 1090q-65 -389 31 -809q-417 97 -807 30l-24 240q212 29 399 2l-500 494l172 167l490 -495q-26 175 4 395z" />
    <glyph glyph-name="uni2199" unicode="&#x2199;" 
d="M627 553q187 27 399 -2l-25 -240q-389 67 -806 -30q96 418 30 809l236 24q30 -220 4 -395l489 495l172 -167z" />
    <glyph glyph-name="uni21B3" unicode="&#x21b3;" 
d="M666 1255q223 -315 594 -548q-367 -229 -594 -549l-191 153q118 167 277 281h-680v842h243v-611h435q-158 115 -275 281z" />
    <glyph glyph-name="partialdiff" unicode="&#x2202;" 
d="M635 1464q260 2 401.5 -193t141.5 -554q0 -362 -145 -555t-419 -193q-227 0 -374.5 149t-147.5 378q0 217 142 352t366 137q158 3 309 -74q-50 319 -274 316q-63 0 -120 -29t-134 -98l-164 182q101 95 201.5 138.5t216.5 43.5zM614 207q145 0 221 107t85 329
q-149 105 -310 105q-121 0 -191.5 -68t-70.5 -188q0 -123 75.5 -204t190.5 -81z" />
    <glyph glyph-name="emptyset" unicode="&#x2205;" 
d="M1104 1098q149 -152 149 -379q0 -158 -75.5 -284.5t-209.5 -198.5t-302 -72q-176 0 -314 80l-131 -150l-119 99l127 145q-149 155 -149 381q0 157 75.5 283.5t209.5 198t301 71.5q173 0 313 -78l133 152l121 -101zM328 719q0 -116 61 -199l432 494q-67 30 -155 30
q-150 0 -244 -91.5t-94 -233.5zM666 391q150 0 245 92.5t95 235.5q0 112 -62 196l-434 -491q74 -33 156 -33z" />
    <glyph glyph-name="product" unicode="&#x220f;" 
d="M283 -246v1442h-232v238h1168v-238h-230v-1442h-256v1442h-194v-1442h-256z" />
    <glyph glyph-name="summation" unicode="&#x2211;" 
d="M133 -246v217l522 623l-522 623v217h1004v-238h-662l496 -602l-496 -602h662v-238h-1004z" />
    <glyph glyph-name="minus" unicode="&#x2212;" 
d="M195 569v256h880v-256h-880z" />
    <glyph glyph-name="radical" unicode="&#x221a;" 
d="M303 641h-272v238h450l154 -478l344 1033h260l-491 -1434h-224z" />
    <glyph glyph-name="infinity" unicode="&#x221e;" 
d="M911 1155q146 0 245 -135t99 -338q0 -204 -99 -339.5t-245 -135.5q-90 0 -162.5 57.5t-113.5 147.5q-39 -89 -112.5 -147t-162.5 -58q-147 0 -245.5 135t-98.5 340q0 203 98.5 338t245.5 135q86 0 160 -58.5t115 -154.5q41 96 115 154.5t161 58.5zM375 430q68 0 114 66.5
t58 185.5q-13 120 -61 186t-111 66t-106.5 -72t-43.5 -180q0 -109 43 -180.5t107 -71.5zM895 430q65 0 107 71t42 181q0 109 -42.5 180.5t-106.5 71.5q-62 0 -109.5 -66t-62.5 -186q13 -120 58.5 -186t113.5 -66z" />
    <glyph glyph-name="integral" unicode="&#x222b;" 
d="M956 1434h170v-238h-161q-113 0 -157 -49.5t-44 -192.5v-950q0 -235 -117.5 -350t-333.5 -115h-170v238h162q77 0 118.5 19.5t62 72t20.5 151.5l2 949q0 236 116.5 350.5t331.5 114.5z" />
    <glyph glyph-name="approxequal" unicode="&#x2248;" 
d="M295 760l-215 69q83 316 358 316q63 0 125 -24.5t102.5 -53.5t86.5 -53.5t82 -24.5q53 0 85.5 35.5t57.5 120.5l215 -72q-85 -313 -358 -313q-62 0 -124 24t-103.5 52.5t-87.5 52.5t-81 24q-51 0 -84 -35t-59 -118zM295 301l-215 70q83 315 358 315q63 0 125 -24.5
t102.5 -53.5t86.5 -53.5t82 -24.5q53 0 85.5 35.5t57.5 120.5l215 -72q-85 -313 -358 -313q-62 0 -124 24t-103.5 53t-87.5 53t-81 24q-51 0 -84 -35.5t-59 -118.5z" />
    <glyph glyph-name="notequal" unicode="&#x2260;" 
d="M1075 805h-272l-115 -217h387v-256h-522l-133 -254l-164 84l90 170h-151v256h286l115 217h-401v256h536l125 235l162 -86l-80 -149h137v-256z" />
    <glyph glyph-name="lessequal" unicode="&#x2264;" 
d="M1102 1171l-649 -321l649 -324l-115 -213l-821 416v238l823 417zM166 0v238h924v-238h-924z" />
    <glyph glyph-name="greaterequal" unicode="&#x2265;" 
d="M281 1384l823 -417v-238l-821 -416l-115 213l649 324l-649 321zM180 0v238h924v-238h-924z" />
    <glyph glyph-name="lozenge" unicode="&#x25ca;" horiz-adv-x="1392" 
d="M571 0l-458 717l458 717h252l457 -717l-457 -717h-252zM696 238l301 479l-301 479l-301 -479z" />
    <glyph glyph-name="uniF8FF" unicode="&#xf8ff;" horiz-adv-x="1404" 
d="M102 -10v866q0 127 45.5 238t125 190t190.5 124.5t237 45.5q128 0 240 -45.5t191.5 -124.5t125.5 -190t46 -238v-866h-58l-133 133l-139 -133l-129 133l-146 -133l-141 133l-129 -133l-137 133l-135 -133h-54zM442 629q60 0 103 41.5t43 101.5q0 62 -42.5 105t-103.5 43
q-60 0 -102.5 -43.5t-42.5 -104.5q0 -59 42.5 -101t102.5 -42zM963 629q60 0 103.5 42.5t43.5 100.5q0 62 -43 105t-104 43q-60 0 -102 -43t-42 -105q0 -58 42.5 -100.5t101.5 -42.5z" />
    <glyph glyph-name="uniFEFF" unicode="&#xfeff;" horiz-adv-x="0" 
 />
    <glyph glyph-name="E.ss01" horiz-adv-x="1167" 
d="M154 0v1434h942v-238h-684v-330h616v-229h-616v-399h684v-238h-942z" />
    <glyph glyph-name="Eacute.ss01" horiz-adv-x="1167" 
d="M475 1536l191 289h317l-264 -289h-244zM154 0v1434h942v-238h-684v-330h616v-229h-616v-399h684v-238h-942z" />
    <glyph glyph-name="Ebreve.ss01" horiz-adv-x="1167" 
d="M627 1516q-128 0 -210.5 78.5t-82.5 199.5h158q9 -46 44 -74t91 -28t91 28t46 74h156q0 -121 -82.5 -199.5t-210.5 -78.5zM154 0v1434h942v-238h-684v-330h616v-229h-616v-399h684v-238h-942z" />
    <glyph glyph-name="Ecaron.ss01" horiz-adv-x="1167" 
d="M793 1536h-334l-146 182l172 127l142 -180l141 180l170 -127zM1096 1196h-684v-330h616v-229h-616v-399h684v-238h-942v1434h942v-238z" />
    <glyph glyph-name="uni0228.ss01" horiz-adv-x="1167" 
d="M1096 1196h-684v-330h616v-229h-616v-399h684v-238h-416l-55 -96q32 4 51 4q95 0 157 -54t62 -137q0 -99 -68.5 -159t-183.5 -60q-91 0 -165 37.5t-116 102.5l132 96q29 -44 61 -62t80 -18q45 0 69.5 20t22.5 54q-2 30 -25.5 47.5t-64.5 17.5q-44 0 -94 -33l-121 66
l98 174h-366v1434h942v-238z" />
    <glyph glyph-name="Ecircumflex.ss01" horiz-adv-x="1167" 
d="M627 1675l-142 -180l-172 127l146 182h334l145 -182l-170 -127zM1096 1196h-684v-330h616v-229h-616v-399h684v-238h-942v1434h942v-238z" />
    <glyph glyph-name="uni1EC6.ss01" horiz-adv-x="1167" 
d="M627 1675l-142 -180l-172 127l146 182h334l145 -182l-170 -127zM1096 1196h-684v-330h616v-229h-616v-399h684v-238h-942v1434h942v-238zM489 -371v269h273v-269h-273z" />
    <glyph glyph-name="Edieresis.ss01" horiz-adv-x="1167" 
d="M258 1536v260h264v-260h-264zM731 1536v260h262v-260h-262zM154 0v1434h942v-238h-684v-330h616v-229h-616v-399h684v-238h-942z" />
    <glyph glyph-name="Edotaccent.ss01" horiz-adv-x="1167" 
d="M489 1536v268h273v-268h-273zM154 0v1434h942v-238h-684v-330h616v-229h-616v-399h684v-238h-942z" />
    <glyph glyph-name="uni1EB8.ss01" horiz-adv-x="1167" 
d="M154 0v1434h942v-238h-684v-330h616v-229h-616v-399h684v-238h-942zM489 -371v269h273v-269h-273z" />
    <glyph glyph-name="Egrave.ss01" horiz-adv-x="1167" 
d="M758 1536h-244l-264 289h317zM154 0v1434h942v-238h-684v-330h616v-229h-616v-399h684v-238h-942z" />
    <glyph glyph-name="Emacron.ss01" horiz-adv-x="1167" 
d="M268 1536v188h717v-188h-717zM154 0v1434h942v-238h-684v-330h616v-229h-616v-399h684v-238h-942z" />
    <glyph glyph-name="Eogonek.ss01" horiz-adv-x="1167" 
d="M1044 -209l76 -172q-144 -68 -264 -68q-123 0 -195.5 54.5t-72.5 146.5q0 74 43.5 134t138.5 114h-616v1434h942v-238h-684v-330h616v-229h-616v-399h684v-238h-105q-114 -67 -162.5 -115t-48.5 -92q0 -55 82 -55q73 0 182 53z" />
    <glyph glyph-name="uni018E.ss01" horiz-adv-x="1167" 
d="M1014 0h-942v238h684v399h-617v229h617v330h-684v238h942v-1434z" />
    <glyph glyph-name="uni1EBC.ss01" horiz-adv-x="1167" 
d="M772 1526q-47 0 -98 21t-94 42t-72 21q-55 0 -70 -74h-159q6 127 58.5 194.5t147.5 67.5q46 0 96.5 -20.5t93 -41t70.5 -20.5q58 0 70 72h160q-4 -126 -57.5 -194t-145.5 -68zM154 0v1434h942v-238h-684v-330h616v-229h-616v-399h684v-238h-942z" />
    <glyph glyph-name="F.ss01" horiz-adv-x="1146" 
d="M154 0v1434h942v-238h-684v-358h616v-238h-616v-600h-258z" />
    <glyph glyph-name="G.ss01" horiz-adv-x="1337" 
d="M627 752h649v-254q0 -106 -42 -202t-116.5 -168.5t-185.5 -115.5t-242 -43q-192 0 -333 95.5t-213 263.5t-72 389q0 165 42 302.5t120 236t195 153.5t261 55q229 0 384 -132.5t192 -358.5l-246 -43q-30 145 -117 221t-213 76q-174 0 -267 -137.5t-93 -372.5t93 -372.5
t267 -137.5q152 0 242 87.5t90 213.5v10h-395v234z" />
    <glyph glyph-name="Gbreve.ss01" horiz-adv-x="1337" 
d="M690 1546q-128 0 -210.5 79t-82.5 200h158q9 -46 44 -74.5t91 -28.5t91 28t46 75h156q0 -121 -82.5 -200t-210.5 -79zM627 752h649v-254q0 -106 -42 -202t-116.5 -168.5t-185.5 -115.5t-242 -43q-192 0 -333 95.5t-213 263.5t-72 389q0 165 42 302.5t120 236t195 153.5
t261 55q229 0 384 -132.5t192 -358.5l-246 -43q-30 145 -117 221t-213 76q-174 0 -267 -137.5t-93 -372.5t93 -372.5t267 -137.5q152 0 242 87.5t90 213.5v10h-395v234z" />
    <glyph glyph-name="Gcircumflex.ss01" horiz-adv-x="1337" 
d="M690 1706l-141 -180l-172 127l145 182h334l145 -182l-170 -127zM627 752h649v-254q0 -106 -42 -202t-116.5 -168.5t-185.5 -115.5t-242 -43q-192 0 -333 95.5t-213 263.5t-72 389q0 165 42 302.5t120 236t195 153.5t261 55q229 0 384 -132.5t192 -358.5l-246 -43
q-30 145 -117 221t-213 76q-174 0 -267 -137.5t-93 -372.5t93 -372.5t267 -137.5q152 0 242 87.5t90 213.5v10h-395v234z" />
    <glyph glyph-name="Gcommaaccent.ss01" horiz-adv-x="1337" 
d="M627 752h649v-254q0 -106 -42 -202t-116.5 -168.5t-185.5 -115.5t-242 -43q-192 0 -333 95.5t-213 263.5t-72 389q0 165 42 302.5t120 236t195 153.5t261 55q229 0 384 -132.5t192 -358.5l-246 -43q-30 145 -117 221t-213 76q-174 0 -267 -137.5t-93 -372.5t93 -372.5
t267 -137.5q152 0 242 87.5t90 213.5v10h-395v234zM551 -383v250h276v-211q0 -117 -66.5 -186t-189.5 -78v123q47 9 64.5 31.5t17.5 70.5h-102z" />
    <glyph glyph-name="Gdotaccent.ss01" horiz-adv-x="1337" 
d="M825 1835v-268h-272v268h272zM627 752h649v-254q0 -106 -42 -202t-116.5 -168.5t-185.5 -115.5t-242 -43q-192 0 -333 95.5t-213 263.5t-72 389q0 165 42 302.5t120 236t195 153.5t261 55q229 0 384 -132.5t192 -358.5l-246 -43q-30 145 -117 221t-213 76
q-174 0 -267 -137.5t-93 -372.5t93 -372.5t267 -137.5q152 0 242 87.5t90 213.5v10h-395v234z" />
    <glyph glyph-name="J.ss01" horiz-adv-x="1146" 
d="M260 459q19 -134 76.5 -193t167.5 -59q244 0 244 321v906h256v-918q0 -258 -134 -402.5t-362 -144.5q-219 0 -347 117t-151 342z" />
    <glyph glyph-name="Jcircumflex.ss01" horiz-adv-x="1146" 
d="M1042 1804l146 -182l-170 -127l-141 180l-142 -180l-172 127l146 182h333zM748 528v906h256v-918q0 -258 -134 -402.5t-362 -144.5q-219 0 -347 117t-151 342l250 31q19 -134 76.5 -193t167.5 -59q244 0 244 321z" />
    <glyph glyph-name="M.ss01" horiz-adv-x="1740" 
d="M1245 1434h342v-1434h-235v1061l-389 -1061h-185l-389 1061v-1061h-235v1434h344l372 -1057z" />
    <glyph glyph-name="Q.ss01" horiz-adv-x="1380" 
d="M1309 717q0 -199 -59 -356t-173.5 -257.5t-273.5 -126.5q6 -74 68 -108.5t190 -34.5v-217q-240 0 -375 97.5t-141 271.5q-224 49 -348.5 245t-124.5 486q0 165 42 302.5t120 236t195 153.5t261 55q192 0 333 -95t213.5 -263.5t72.5 -388.5zM690 207q174 0 267.5 137.5
t93.5 372.5t-93.5 372.5t-267.5 137.5t-267 -137.5t-93 -372.5t93 -372.5t267 -137.5z" />
    <glyph glyph-name="R.ss01" horiz-adv-x="1339" 
d="M1268 0h-283l-309 573h-264v-573h-258v1434h616q204 0 334.5 -122t130.5 -311q0 -141 -77.5 -247.5t-209.5 -151.5zM412 1196v-385h338q109 0 169 49t60 141q0 94 -60.5 144.5t-168.5 50.5h-338z" />
    <glyph glyph-name="Racute.ss01" horiz-adv-x="1339" 
d="M985 1825l-264 -289h-244l191 289h317zM1268 0h-283l-309 573h-264v-573h-258v1434h616q204 0 334.5 -122t130.5 -311q0 -141 -77.5 -247.5t-209.5 -151.5zM412 1196v-385h338q109 0 169 49t60 141q0 94 -60.5 144.5t-168.5 50.5h-338z" />
    <glyph glyph-name="Rcaron.ss01" horiz-adv-x="1339" 
d="M795 1536h-334l-146 182l172 127l142 -180l141 180l170 -127zM1268 0h-283l-309 573h-264v-573h-258v1434h616q204 0 334.5 -122t130.5 -311q0 -141 -77.5 -247.5t-209.5 -151.5zM412 1196v-385h338q109 0 169 49t60 141q0 94 -60.5 144.5t-168.5 50.5h-338z" />
    <glyph glyph-name="Rcommaaccent.ss01" horiz-adv-x="1339" 
d="M948 602l320 -602h-283l-309 573h-264v-573h-258v1434h616q204 0 334.5 -122t130.5 -311q0 -141 -77.5 -247.5t-209.5 -151.5zM412 1196v-385h338q109 0 169 49t60 141q0 94 -60.5 144.5t-168.5 50.5h-338zM530 -352v250h277v-211q0 -117 -66.5 -186.5t-189.5 -78.5v123
q46 9 64 32t18 71h-103z" />
    <glyph glyph-name="W.ss01" horiz-adv-x="1857" 
d="M1561 1434h245l-284 -1434h-254l-338 1018l-338 -1018h-254l-287 1434h248l203 -996l334 998h188l334 -998z" />
    <glyph glyph-name="Wacute.ss01" horiz-adv-x="1857" 
d="M1288 1825l-264 -289h-244l191 289h317zM1561 1434h245l-284 -1434h-254l-338 1018l-338 -1018h-254l-287 1434h248l203 -996l334 998h188l334 -998z" />
    <glyph glyph-name="Wcircumflex.ss01" horiz-adv-x="1857" 
d="M932 1675l-141 -180l-173 127l146 182h334l145 -182l-170 -127zM1561 1434h245l-284 -1434h-254l-338 1018l-338 -1018h-254l-287 1434h248l203 -996l334 998h188l334 -998z" />
    <glyph glyph-name="Wdieresis.ss01" horiz-adv-x="1857" 
d="M827 1796v-260h-264v260h264zM1298 1796v-260h-262v260h262zM1561 1434h245l-284 -1434h-254l-338 1018l-338 -1018h-254l-287 1434h248l203 -996l334 998h188l334 -998z" />
    <glyph glyph-name="Wgrave.ss01" horiz-adv-x="1857" 
d="M1063 1536h-244l-264 289h317zM1561 1434h245l-284 -1434h-254l-338 1018l-338 -1018h-254l-287 1434h248l203 -996l334 998h188l334 -998z" />
    <glyph glyph-name="Adieresis.ss03" horiz-adv-x="1437" 
d="M1165 0l-137 340h-618l-138 -340h-262l471 1149h62v145l57 140h238l55 -134v-151h61l473 -1149h-262zM504 1434v-246h-254v246h254zM1186 1434v-246h-254v246h254zM500 563h438l-219 543z" />
    <glyph glyph-name="Odieresis.ss03" horiz-adv-x="1380" 
d="M690 -31q-192 0 -333 95.5t-213 263.5t-72 389q0 255 96 436h213v229q133 82 309 82q173 0 311 -80v-231h211q97 -183 97 -436q0 -220 -72.5 -388.5t-213.5 -264t-333 -95.5zM94 1190v244h250v-244h-250zM1038 1190v244h250v-244h-250zM690 207q174 0 267.5 137.5
t93.5 372.5t-93.5 372.5t-267.5 137.5t-267 -137.5t-93 -372.5t93 -372.5t267 -137.5z" />
    <glyph glyph-name="Udieresis.ss03" horiz-adv-x="1445" 
d="M143 520v914h166v-281h92v-621q0 -167 85 -246t239 -79q153 0 237.5 79t84.5 246v621h94v281h162v-914q0 -263 -158.5 -407t-419.5 -144q-171 0 -301 62t-205.5 188t-75.5 301zM346 1190v244h250v-244h-250zM854 1190v244h250v-244h-250z" />
    <glyph glyph-name="i.loclTRK" horiz-adv-x="512" 
d="M119 1219v268h272v-268h-272zM133 0v1085h246v-1085h-246z" />
    <glyph glyph-name="a.ordn" horiz-adv-x="698" 
d="M680 930l16 -146q-61 -10 -90 -10q-104 0 -133 82q-62 -90 -201 -90q-104 0 -168.5 54.5t-64.5 142.5q0 79 52.5 126t168.5 72q105 22 135.5 36t30.5 42q0 29 -27.5 47.5t-70.5 18.5q-55 0 -92.5 -29t-45.5 -76l-153 23q12 98 94.5 161.5t196.5 63.5q120 0 190 -60
t70 -163v-246q0 -55 43 -55q19 0 49 6zM426 1012v86q-11 -14 -34.5 -25t-84.5 -29q-61 -19 -83.5 -34.5t-22.5 -40.5q0 -58 86 -58q59 0 99 29t40 72z" />
    <glyph glyph-name="b.ordn" horiz-adv-x="729" 
d="M397 1448q132 0 213.5 -94.5t81.5 -249.5q0 -154 -81.5 -249t-213.5 -95q-52 0 -96.5 19t-71.5 50v-51h-161v860h168v-243q59 53 161 53zM375 918q69 0 109 49.5t40 136.5q0 88 -40 138t-109 50q-61 0 -100 -36t-39 -93v-119q0 -56 39 -91t100 -35z" />
    <glyph glyph-name="c.ordn" horiz-adv-x="673" 
d="M352 760q-142 0 -228.5 93t-86.5 251t86.5 251t228.5 93q111 0 192.5 -63t102.5 -175l-164 -34q-12 57 -47 86.5t-84 29.5q-74 0 -110.5 -49.5t-36.5 -138.5q0 -88 36.5 -137t110.5 -49q55 0 89.5 32.5t43.5 89.5l164 -30q-18 -118 -100.5 -184t-196.5 -66z" />
    <glyph glyph-name="d.ordn" horiz-adv-x="729" 
d="M494 1638h168v-860h-162v51q-27 -31 -71.5 -50t-96.5 -19q-132 0 -213.5 94.5t-81.5 249.5t81.5 249.5t213.5 94.5q103 0 162 -53v243zM494 1044v119q0 56 -39.5 92.5t-100.5 36.5q-69 0 -109 -50t-40 -138q0 -87 40 -136.5t109 -49.5q61 0 100.5 36t39.5 90z" />
    <glyph glyph-name="e.ordn" horiz-adv-x="690" 
d="M199 1047q11 -68 48 -105t97 -37q54 0 94.5 24t79.5 77l113 -101q-51 -70 -124.5 -107.5t-160.5 -37.5q-142 0 -225.5 93.5t-83.5 250.5q0 154 84.5 249t222.5 95q139 0 225 -94.5t86 -249.5v-57h-456zM344 1305q-62 0 -102 -36.5t-43 -94.5h290q-9 66 -47 98.5t-98 32.5
z" />
    <glyph glyph-name="f.ordn" horiz-adv-x="524" 
d="M141 778v496h-139v156h139v59q0 88 53 140t144 52q88 0 186 -53l-61 -133q-65 33 -105 33q-47 0 -47 -55v-43h191v-156h-191v-496h-170z" />
    <glyph glyph-name="g.ordn" horiz-adv-x="706" 
d="M459 868q105 -9 164 -58.5t59 -127.5q0 -98 -84 -148.5t-244 -50.5q-158 0 -242.5 51t-84.5 138q0 36 20.5 72t61.5 61q-56 43 -56 113q0 76 80 120q-70 67 -70 164q0 105 81.5 175.5t209.5 70.5q63 0 115 -18q42 112 178 147l47 -125q-98 -30 -129 -78q78 -68 78 -172
q0 -105 -81.5 -175.5t-207.5 -70.5q-76 0 -135 27q-29 -17 -29 -41q0 -50 117 -59zM354 1311q-60 0 -97.5 -31.5t-37.5 -77.5q0 -45 37.5 -75.5t97.5 -30.5q59 0 96 30.5t37 75.5t-37 77t-96 32zM354 623q172 0 172 67q0 25 -22.5 37.5t-71.5 17.5l-196 17
q-24 -11 -38 -29.5t-14 -40.5q0 -69 170 -69z" />
    <glyph glyph-name="h.ordn" horiz-adv-x="737" 
d="M418 1448q107 0 181.5 -76.5t74.5 -204.5v-389h-168v367q0 73 -35.5 110t-97.5 37q-61 0 -99 -40t-38 -105v-369h-168v860h168v-264q65 74 182 74z" />
    <glyph glyph-name="i.ordn" horiz-adv-x="299" 
d="M61 1505v172h177v-172h-177zM66 778v652h170v-652h-170z" />
    <glyph glyph-name="j.ordn" horiz-adv-x="471" 
d="M395 1677v-172h-176v172h176zM403 1430v-635q0 -113 -68.5 -181.5t-178.5 -68.5q-88 0 -183 28l45 150q70 -21 113 -21q49 0 77 27t28 80v465h-211v156h378z" />
    <glyph glyph-name="k.ordn" horiz-adv-x="681" 
d="M492 778l-173 266l-83 -96v-170h-168v860h168v-473l219 265h211l-238 -273l252 -379h-188z" />
    <glyph glyph-name="l.ordn" horiz-adv-x="303" 
d="M68 778v860h168v-860h-168z" />
    <glyph glyph-name="m.ordn" horiz-adv-x="1081" 
d="M764 1448q121 0 188.5 -74.5t67.5 -206.5v-389h-170v393q0 58 -28 89.5t-81 31.5q-52 0 -82 -32t-30 -86v-396h-170v393q0 60 -29 90.5t-80 30.5t-82.5 -31t-31.5 -87v-396h-168v652h159v-58q56 76 170 76q113 0 181 -84q31 39 80.5 61.5t105.5 22.5z" />
    <glyph glyph-name="n.ordn" horiz-adv-x="737" 
d="M418 1448q107 0 181.5 -76.5t74.5 -204.5v-389h-168v367q0 73 -35.5 110t-97.5 37q-61 0 -99 -40t-38 -105v-369h-168v652h161v-62q32 38 82.5 59t106.5 21z" />
    <glyph glyph-name="o.ordn" horiz-adv-x="710" 
d="M354 760q-144 0 -230.5 92.5t-86.5 251.5t86.5 251.5t230.5 92.5q146 0 233 -92.5t87 -251.5q0 -158 -87.5 -251t-232.5 -93zM354 918q75 0 113.5 50.5t38.5 135.5t-38.5 136.5t-113.5 51.5q-74 0 -111.5 -50.5t-37.5 -137.5q0 -85 37.5 -135.5t111.5 -50.5z" />
    <glyph glyph-name="p.ordn" horiz-adv-x="720" 
d="M395 1448q131 0 211 -94.5t80 -249.5q0 -154 -79.5 -249t-211.5 -95q-98 0 -159 61v-319h-168v928h161v-41q62 59 166 59zM373 918q66 0 104.5 50t38.5 136q0 88 -38.5 138t-104.5 50q-60 0 -98.5 -36.5t-38.5 -92.5v-119q0 -54 38.5 -90t98.5 -36z" />
    <glyph glyph-name="q.ordn" horiz-adv-x="720" 
d="M492 1430h163v-928h-170v319q-61 -61 -159 -61q-130 0 -209.5 94.5t-79.5 249.5t79.5 249.5t209.5 94.5q102 0 166 -57v39zM348 918q61 0 99 35.5t38 90.5v119q0 56 -38.5 92.5t-98.5 36.5q-66 0 -104.5 -51t-38.5 -137t39 -136t104 -50z" />
    <glyph glyph-name="r.ordn" horiz-adv-x="505" 
d="M369 1448q69 0 137 -41l-72 -147q-51 32 -102 32q-45 0 -70.5 -29t-25.5 -81v-404h-168v652h151v-56q49 74 150 74z" />
    <glyph glyph-name="s.ordn" horiz-adv-x="671" 
d="M358 760q-128 0 -218 62.5t-113 168.5l151 37q33 -125 180 -125q127 0 127 64q0 21 -23 34.5t-60 20.5t-81.5 14t-88.5 20.5t-81 33.5t-60 58t-23 91q0 93 73 151t183 58q102 0 188.5 -55t112.5 -144l-148 -43q-15 45 -57.5 72t-95.5 27q-38 0 -66.5 -18.5t-28.5 -45.5
q0 -28 43 -42.5t104 -23.5t122 -25.5t104 -60.5t43 -116q0 -98 -77.5 -155.5t-209.5 -57.5z" />
    <glyph glyph-name="t.ordn" horiz-adv-x="530" 
d="M141 1591l170 47v-208h191v-156h-191v-293q0 -63 62 -63q52 0 114 22l41 -152q-104 -28 -172 -28q-96 0 -155.5 56.5t-59.5 148.5v309h-139v156h139v161z" />
    <glyph glyph-name="u.ordn" horiz-adv-x="720" 
d="M485 1430h168v-652h-159v66q-31 -40 -79.5 -62t-97.5 -22q-114 0 -184 75t-70 203v392h168v-367q0 -71 34 -108t93 -37q57 0 92 39.5t35 105.5v367z" />
    <glyph glyph-name="v.ordn" horiz-adv-x="686" 
d="M264 778l-258 652h187l151 -424l148 424h188l-258 -652h-158z" />
    <glyph glyph-name="w.ordn" horiz-adv-x="948" 
d="M778 1430h164l-168 -652h-186l-115 381l-113 -381h-186l-168 652h164l106 -422l127 422h142l125 -422z" />
    <glyph glyph-name="x.ordn" horiz-adv-x="651" 
d="M647 778h-192l-129 211l-129 -211h-191l215 330l-211 322h191l125 -205l125 205h190l-211 -322z" />
    <glyph glyph-name="y.ordn" horiz-adv-x="684" 
d="M494 1430h184l-322 -732q-27 -63 -67 -90.5t-111 -27.5q-50 0 -123 12l25 151q52 -6 76 -6q27 0 40.5 8.5t22.5 30.5l37 90l-250 564h187l149 -363z" />
    <glyph glyph-name="z.ordn" horiz-adv-x="679" 
d="M47 778v142l348 360h-336v150h562v-142l-349 -358h361v-152h-586z" />
    <glyph glyph-name="g.ss01" horiz-adv-x="1224" 
d="M850 1085h242v-1153q0 -181 -134 -302.5t-337 -121.5q-179 0 -307.5 90.5t-168.5 237.5l226 78q30 -88 93.5 -137t156.5 -49q100 0 162.5 64t62.5 155v131q-49 -49 -124.5 -79t-160.5 -30q-219 0 -354 158.5t-135 415.5q0 258 134.5 415.5t354.5 157.5q90 0 165.5 -28
t123.5 -76v73zM590 197q116 0 186 69.5t70 182.5v190q0 113 -69.5 181.5t-186.5 68.5q-127 0 -200 -92.5t-73 -253.5t73 -253.5t200 -92.5z" />
    <glyph glyph-name="gbreve.ss01" horiz-adv-x="1224" 
d="M561 1198q-128 0 -210.5 79t-82.5 200h158q9 -46 44 -74.5t91 -28.5t91 28t46 75h156q0 -121 -82.5 -200t-210.5 -79zM850 1085h242v-1153q0 -181 -134 -302.5t-337 -121.5q-179 0 -307.5 90.5t-168.5 237.5l226 78q30 -88 93.5 -137t156.5 -49q100 0 162.5 64t62.5 155
v131q-49 -49 -124.5 -79t-160.5 -30q-219 0 -354 158.5t-135 415.5q0 258 134.5 415.5t354.5 157.5q90 0 165.5 -28t123.5 -76v73zM590 197q116 0 186 69.5t70 182.5v190q0 113 -69.5 181.5t-186.5 68.5q-127 0 -200 -92.5t-73 -253.5t73 -253.5t200 -92.5z" />
    <glyph glyph-name="gcircumflex.ss01" horiz-adv-x="1224" 
d="M561 1358l-141 -180l-172 127l145 182h334l145 -182l-170 -127zM850 1085h242v-1153q0 -181 -134 -302.5t-337 -121.5q-179 0 -307.5 90.5t-168.5 237.5l226 78q30 -88 93.5 -137t156.5 -49q100 0 162.5 64t62.5 155v131q-49 -49 -124.5 -79t-160.5 -30
q-219 0 -354 158.5t-135 415.5q0 258 134.5 415.5t354.5 157.5q90 0 165.5 -28t123.5 -76v73zM590 197q116 0 186 69.5t70 182.5v190q0 113 -69.5 181.5t-186.5 68.5q-127 0 -200 -92.5t-73 -253.5t73 -253.5t200 -92.5z" />
    <glyph glyph-name="gcommaaccent.ss01" horiz-adv-x="1224" 
d="M700 1468v-249h-276v211q0 117 66.5 186t189.5 78v-123q-46 -9 -64 -32t-18 -71h102zM850 1085h242v-1153q0 -181 -134 -302.5t-337 -121.5q-179 0 -307.5 90.5t-168.5 237.5l226 78q30 -88 93.5 -137t156.5 -49q100 0 162.5 64t62.5 155v131q-49 -49 -124.5 -79
t-160.5 -30q-219 0 -354 158.5t-135 415.5q0 258 134.5 415.5t354.5 157.5q90 0 165.5 -28t123.5 -76v73zM590 197q116 0 186 69.5t70 182.5v190q0 113 -69.5 181.5t-186.5 68.5q-127 0 -200 -92.5t-73 -253.5t73 -253.5t200 -92.5z" />
    <glyph glyph-name="gdotaccent.ss01" horiz-adv-x="1224" 
d="M696 1487v-268h-272v268h272zM850 1085h242v-1153q0 -181 -134 -302.5t-337 -121.5q-179 0 -307.5 90.5t-168.5 237.5l226 78q30 -88 93.5 -137t156.5 -49q100 0 162.5 64t62.5 155v131q-49 -49 -124.5 -79t-160.5 -30q-219 0 -354 158.5t-135 415.5q0 258 134.5 415.5
t354.5 157.5q90 0 165.5 -28t123.5 -76v73zM590 197q116 0 186 69.5t70 182.5v190q0 113 -69.5 181.5t-186.5 68.5q-127 0 -200 -92.5t-73 -253.5t73 -253.5t200 -92.5z" />
    <glyph glyph-name="j.ss01" horiz-adv-x="892" 
d="M500 1219v268h272v-268h-272zM317 -492q-162 0 -273.5 83.5t-156.5 226.5l234 84q58 -166 192 -166q99 0 150 67t51 197v858h-469v227h715v-1101q0 -218 -120 -347t-323 -129z" />
    <glyph glyph-name="uni0237.ss01" horiz-adv-x="892" 
d="M317 -492q-162 0 -273.5 83.5t-156.5 226.5l234 84q58 -166 192 -166q99 0 150 67t51 197v858h-469v227h715v-1101q0 -218 -120 -347t-323 -129z" />
    <glyph glyph-name="jcircumflex.ss01" horiz-adv-x="892" 
d="M803 1456l145 -182l-170 -127l-141 180l-141 -180l-172 127l145 182h334zM45 858v227h715v-1101q0 -218 -120 -347t-323 -129q-162 0 -273.5 83.5t-156.5 226.5l234 84q58 -166 192 -166q99 0 150 67t51 197v858h-469z" />
    <glyph glyph-name="r.ss01" horiz-adv-x="927" 
d="M586 1116q147 0 238.5 -109.5t103.5 -299.5l-244 -31q-10 112 -48.5 162.5t-111.5 50.5q-145 0 -145 -215v-674h-246v1085h225v-96q32 57 94 92t134 35z" />
    <glyph glyph-name="racute.ss01" horiz-adv-x="927" 
d="M819 1507l-264 -288h-244l191 288h317zM586 1116q147 0 238.5 -109.5t103.5 -299.5l-244 -31q-10 112 -48.5 162.5t-111.5 50.5q-145 0 -145 -215v-674h-246v1085h225v-96q32 57 94 92t134 35z" />
    <glyph glyph-name="rcaron.ss01" horiz-adv-x="927" 
d="M629 1219h-334l-145 182l172 127l141 -180l141 180l170 -127zM586 1116q147 0 238.5 -109.5t103.5 -299.5l-244 -31q-10 112 -48.5 162.5t-111.5 50.5q-145 0 -145 -215v-674h-246v1085h225v-96q32 57 94 92t134 35z" />
    <glyph glyph-name="rcommaaccent.ss01" horiz-adv-x="927" 
d="M586 1116q147 0 238.5 -109.5t103.5 -299.5l-244 -31q-10 112 -48.5 162.5t-111.5 50.5q-145 0 -145 -215v-674h-246v1085h225v-96q32 57 94 92t134 35zM117 -352v250h276v-211q0 -117 -66.5 -186.5t-189.5 -78.5v123q46 9 64 32t18 71h-102z" />
    <glyph glyph-name="t.ss01" horiz-adv-x="868" 
d="M246 1434h246v-349h327v-227h-327v-545q0 -116 110 -116q85 0 199 41l61 -220q-155 -49 -280 -49q-150 0 -243 89t-93 233v567h-240v227h240v349z" />
    <glyph glyph-name="tbar.ss01" horiz-adv-x="868" 
d="M801 238l61 -220q-155 -49 -280 -49q-150 0 -243 89t-93 233v184h-240v199h240v184h-240v227h240v349h246v-349h327v-227h-327v-184h325v-199h-325v-162q0 -116 110 -116q85 0 199 41z" />
    <glyph glyph-name="tcaron.ss01" horiz-adv-x="868" 
d="M639 1159v123q47 9 64.5 31.5t17.5 70.5h-103v250h277v-211q0 -117 -66.5 -186t-189.5 -78zM246 1434h246v-349h327v-227h-327v-545q0 -116 110 -116q85 0 199 41l61 -220q-155 -49 -280 -49q-150 0 -243 89t-93 233v567h-240v227h240v349z" />
    <glyph glyph-name="uni0163.ss01" horiz-adv-x="868" 
d="M606 -123q95 0 157 -53.5t62 -136.5q0 -99 -68.5 -159t-183.5 -60q-91 0 -164.5 37t-115.5 102l131 96q29 -44 61 -62t80 -18q45 0 69.5 20t22.5 54q-2 30 -25.5 47.5t-64.5 17.5q-45 0 -94 -32l-121 65l109 193q-100 31 -157.5 111t-57.5 192v567h-240v227h240v349h246
v-349h327v-227h-327v-545q0 -116 110 -116q85 0 199 41l61 -220q-144 -46 -250 -49l-57 -96q32 4 51 4z" />
    <glyph glyph-name="uni021B.ss01" horiz-adv-x="868" 
d="M246 1434h246v-349h327v-227h-327v-545q0 -116 110 -116q85 0 199 41l61 -220q-155 -49 -280 -49q-150 0 -243 89t-93 233v567h-240v227h240v349zM438 -608v123q47 9 64.5 31.5t17.5 70.5h-102v250h276v-211q0 -117 -66.5 -186t-189.5 -78z" />
    <glyph glyph-name="uni1E6D.ss01" horiz-adv-x="868" 
d="M246 1434h246v-349h327v-227h-327v-545q0 -116 110 -116q85 0 199 41l61 -220q-155 -49 -280 -49q-150 0 -243 89t-93 233v567h-240v227h240v349zM420 -401v268h272v-268h-272z" />
    <glyph glyph-name="a.ss02" horiz-adv-x="1228" 
d="M856 1085h240v-1085h-240v84q-51 -53 -127.5 -84t-163.5 -31q-221 0 -357 158.5t-136 415.5q0 258 136 415.5t357 157.5q190 0 291 -106v75zM850 449v190q0 113 -69.5 181.5t-186.5 68.5q-129 0 -203 -92.5t-74 -253.5t73.5 -253.5t201.5 -92.5q118 0 188 69.5t70 182.5z
" />
    <glyph glyph-name="aacute.ss02" horiz-adv-x="1228" 
d="M956 1507l-264 -288h-243l190 288h317zM856 1085h240v-1085h-240v84q-51 -53 -127.5 -84t-163.5 -31q-221 0 -357 158.5t-136 415.5q0 258 136 415.5t357 157.5q190 0 291 -106v75zM850 449v190q0 113 -69.5 181.5t-186.5 68.5q-129 0 -203 -92.5t-74 -253.5t73.5 -253.5
t201.5 -92.5q118 0 188 69.5t70 182.5z" />
    <glyph glyph-name="abreve.ss02" horiz-adv-x="1228" 
d="M600 1198q-128 0 -210.5 79t-82.5 200h158q9 -46 44 -74.5t91 -28.5t91 28t46 75h156q0 -121 -82.5 -200t-210.5 -79zM856 1085h240v-1085h-240v84q-51 -53 -127.5 -84t-163.5 -31q-221 0 -357 158.5t-136 415.5q0 258 136 415.5t357 157.5q190 0 291 -106v75zM850 449
v190q0 113 -69.5 181.5t-186.5 68.5q-129 0 -203 -92.5t-74 -253.5t73.5 -253.5t201.5 -92.5q118 0 188 69.5t70 182.5z" />
    <glyph glyph-name="uni01CE.ss02" horiz-adv-x="1228" 
d="M766 1219h-334l-145 182l172 127l141 -180l141 180l170 -127zM856 1085h240v-1085h-240v84q-51 -53 -127.5 -84t-163.5 -31q-221 0 -357 158.5t-136 415.5q0 258 136 415.5t357 157.5q190 0 291 -106v75zM850 449v190q0 113 -69.5 181.5t-186.5 68.5q-129 0 -203 -92.5
t-74 -253.5t73.5 -253.5t201.5 -92.5q118 0 188 69.5t70 182.5z" />
    <glyph glyph-name="acircumflex.ss02" horiz-adv-x="1228" 
d="M600 1358l-141 -180l-172 127l145 182h334l145 -182l-170 -127zM856 1085h240v-1085h-240v84q-51 -53 -127.5 -84t-163.5 -31q-221 0 -357 158.5t-136 415.5q0 258 136 415.5t357 157.5q190 0 291 -106v75zM850 449v190q0 113 -69.5 181.5t-186.5 68.5q-129 0 -203 -92.5
t-74 -253.5t73.5 -253.5t201.5 -92.5q118 0 188 69.5t70 182.5z" />
    <glyph glyph-name="uni1EAD.ss02" horiz-adv-x="1228" 
d="M600 1358l-141 -180l-172 127l145 182h334l145 -182l-170 -127zM856 1085h240v-1085h-240v84q-51 -53 -127.5 -84t-163.5 -31q-221 0 -357 158.5t-136 415.5q0 258 136 415.5t357 157.5q190 0 291 -106v75zM850 449v190q0 113 -69.5 181.5t-186.5 68.5q-129 0 -203 -92.5
t-74 -253.5t73.5 -253.5t201.5 -92.5q118 0 188 69.5t70 182.5zM500 -371v269h272v-269h-272z" />
    <glyph glyph-name="adieresis.ss02" horiz-adv-x="1228" 
d="M496 1479v-260h-265v260h265zM967 1479v-260h-262v260h262zM856 1085h240v-1085h-240v84q-51 -53 -127.5 -84t-163.5 -31q-221 0 -357 158.5t-136 415.5q0 258 136 415.5t357 157.5q190 0 291 -106v75zM850 449v190q0 113 -69.5 181.5t-186.5 68.5q-129 0 -203 -92.5
t-74 -253.5t73.5 -253.5t201.5 -92.5q118 0 188 69.5t70 182.5z" />
    <glyph glyph-name="uni01DF.ss02" horiz-adv-x="1228" 
d="M958 1733v-189h-716v189h716zM496 1479v-260h-265v260h265zM705 1219v260h262v-260h-262zM856 1085h240v-1085h-240v84q-51 -53 -127.5 -84t-163.5 -31q-221 0 -357 158.5t-136 415.5q0 258 136 415.5t357 157.5q190 0 291 -106v75zM850 449v190q0 113 -69.5 181.5
t-186.5 68.5q-129 0 -203 -92.5t-74 -253.5t73.5 -253.5t201.5 -92.5q118 0 188 69.5t70 182.5z" />
    <glyph glyph-name="uni1EA1.ss02" horiz-adv-x="1228" 
d="M856 1085h240v-1085h-240v84q-51 -53 -127.5 -84t-163.5 -31q-221 0 -357 158.5t-136 415.5q0 258 136 415.5t357 157.5q190 0 291 -106v75zM850 449v190q0 113 -69.5 181.5t-186.5 68.5q-129 0 -203 -92.5t-74 -253.5t73.5 -253.5t201.5 -92.5q118 0 188 69.5t70 182.5z
M463 -401v268h272v-268h-272z" />
    <glyph glyph-name="agrave.ss02" horiz-adv-x="1228" 
d="M731 1219h-244l-264 288h318zM856 1085h240v-1085h-240v84q-51 -53 -127.5 -84t-163.5 -31q-221 0 -357 158.5t-136 415.5q0 258 136 415.5t357 157.5q190 0 291 -106v75zM850 449v190q0 113 -69.5 181.5t-186.5 68.5q-129 0 -203 -92.5t-74 -253.5t73.5 -253.5
t201.5 -92.5q118 0 188 69.5t70 182.5z" />
    <glyph glyph-name="amacron.ss02" horiz-adv-x="1228" 
d="M958 1407v-188h-716v188h716zM856 1085h240v-1085h-240v84q-51 -53 -127.5 -84t-163.5 -31q-221 0 -357 158.5t-136 415.5q0 258 136 415.5t357 157.5q190 0 291 -106v75zM850 449v190q0 113 -69.5 181.5t-186.5 68.5q-129 0 -203 -92.5t-74 -253.5t73.5 -253.5
t201.5 -92.5q118 0 188 69.5t70 182.5z" />
    <glyph glyph-name="aogonek.ss02" horiz-adv-x="1228" 
d="M1147 -209l76 -172q-144 -68 -265 -68q-123 0 -195.5 54.5t-72.5 146.5q0 74 43.5 134t138.5 114h-16v84q-51 -53 -127.5 -84t-163.5 -31q-221 0 -357 158.5t-136 415.5q0 258 136 415.5t357 157.5q190 0 291 -106v75h240v-1085h-2q-114 -67 -162.5 -115t-48.5 -92
q0 -55 82 -55q73 0 182 53zM850 449v190q0 113 -69.5 181.5t-186.5 68.5q-129 0 -203 -92.5t-74 -253.5t73.5 -253.5t201.5 -92.5q118 0 188 69.5t70 182.5z" />
    <glyph glyph-name="aring.ss02" horiz-adv-x="1228" 
d="M870 1085h226v-1085h-240v84q-51 -53 -127.5 -84t-163.5 -31q-221 0 -357 158.5t-136 415.5q0 180 68.5 314.5t191.5 201.5q-64 67 -64 164q0 108 78.5 176.5t202.5 68.5q123 0 200.5 -68.5t77.5 -176.5q0 -85 -53 -154q53 -25 96 -74v90zM549 1327q-47 0 -76 -29
t-29 -75t29 -76.5t76 -30.5q45 0 73.5 30.5t28.5 76.5t-28 75t-74 29zM850 449v190q0 113 -69.5 181.5t-186.5 68.5q-129 0 -203 -92.5t-74 -253.5t73.5 -253.5t201.5 -92.5q118 0 188 69.5t70 182.5z" />
    <glyph glyph-name="aringacute.ss02" horiz-adv-x="1228" 
d="M870 1085h226v-1085h-240v84q-51 -53 -127.5 -84t-163.5 -31q-221 0 -357 158.5t-136 415.5q0 180 68.5 314.5t191.5 201.5q-64 67 -64 164q0 81 45 140.5t123 86.5l168 256h318l-242 -264q68 -30 107.5 -87.5t39.5 -131.5q0 -85 -53 -154q53 -25 96 -74v90zM549 1327
q-47 0 -76 -29t-29 -75t29 -76.5t76 -30.5q45 0 73.5 30.5t28.5 76.5t-28 75t-74 29zM850 449v190q0 113 -69.5 181.5t-186.5 68.5q-129 0 -203 -92.5t-74 -253.5t73.5 -253.5t201.5 -92.5q118 0 188 69.5t70 182.5z" />
    <glyph glyph-name="atilde.ss02" horiz-adv-x="1228" 
d="M481 1292q-55 0 -69 -73h-160q6 127 59 194.5t148 67.5q46 0 96.5 -20.5t93 -41t70.5 -20.5q57 0 69 71h160q-4 -126 -57.5 -194t-145.5 -68q-47 0 -98 21t-94 42t-72 21zM856 1085h240v-1085h-240v84q-51 -53 -127.5 -84t-163.5 -31q-221 0 -357 158.5t-136 415.5
q0 258 136 415.5t357 157.5q190 0 291 -106v75zM850 449v190q0 113 -69.5 181.5t-186.5 68.5q-129 0 -203 -92.5t-74 -253.5t73.5 -253.5t201.5 -92.5q118 0 188 69.5t70 182.5z" />
    <glyph glyph-name="f.ss04" horiz-adv-x="798" 
d="M246 0v858h-240v227h240v109q0 137 84.5 220t228.5 83q141 0 301 -92l-94 -191q-117 60 -184 60q-43 0 -66.5 -24.5t-23.5 -71.5v-93h262v-227h-262v-858h-246z" />
    <glyph glyph-name="g.ss04" horiz-adv-x="1128" 
d="M711 139q176 -21 272 -96.5t96 -208.5q0 -158 -136 -242t-384 -84q-244 0 -381 83t-137 227q0 63 36.5 124t108.5 103q-102 70 -102 186q0 128 133 201q-115 112 -115 275q0 176 134 292.5t344 116.5q100 0 194 -33q36 97 113.5 164t181.5 94l70 -194q-170 -32 -230 -137
q70 -56 109 -134.5t39 -168.5q0 -175 -133.5 -292.5t-343.5 -117.5q-128 0 -230 45q-53 -26 -53 -74q0 -44 45 -67t152 -35zM580 903q-108 0 -174 -55.5t-66 -140.5q0 -84 66 -140.5t174 -56.5q107 0 173 56t66 141t-66 140.5t-173 55.5zM559 -279q136 0 209.5 31.5
t73.5 93.5q0 47 -42.5 70t-127.5 33l-287 31q-47 -19 -74.5 -54.5t-27.5 -77.5q0 -62 71.5 -94.5t204.5 -32.5z" />
    <glyph glyph-name="gbreve.ss04" horiz-adv-x="1128" 
d="M539 1198q-128 0 -210.5 79t-82.5 200h157q9 -46 44.5 -74.5t91.5 -28.5t91 28t46 75h155q0 -121 -82 -200t-210 -79zM711 139q176 -21 272 -96.5t96 -208.5q0 -158 -136 -242t-384 -84q-244 0 -381 83t-137 227q0 63 36.5 124t108.5 103q-102 70 -102 186q0 128 133 201
q-115 112 -115 275q0 176 134 292.5t344 116.5q100 0 194 -33q36 97 113.5 164t181.5 94l70 -194q-170 -32 -230 -137q70 -56 109 -134.5t39 -168.5q0 -175 -133.5 -292.5t-343.5 -117.5q-128 0 -230 45q-53 -26 -53 -74q0 -44 45 -67t152 -35zM580 903q-108 0 -174 -55.5
t-66 -140.5q0 -84 66 -140.5t174 -56.5q107 0 173 56t66 141t-66 140.5t-173 55.5zM559 -279q136 0 209.5 31.5t73.5 93.5q0 47 -42.5 70t-127.5 33l-287 31q-47 -19 -74.5 -54.5t-27.5 -77.5q0 -62 71.5 -94.5t204.5 -32.5z" />
    <glyph glyph-name="gcircumflex.ss04" horiz-adv-x="1128" 
d="M539 1358l-142 -180l-172 127l146 182h334l145 -182l-170 -127zM711 139q176 -21 272 -96.5t96 -208.5q0 -158 -136 -242t-384 -84q-244 0 -381 83t-137 227q0 63 36.5 124t108.5 103q-102 70 -102 186q0 128 133 201q-115 112 -115 275q0 176 134 292.5t344 116.5
q100 0 194 -33q36 97 113.5 164t181.5 94l70 -194q-170 -32 -230 -137q70 -56 109 -134.5t39 -168.5q0 -175 -133.5 -292.5t-343.5 -117.5q-128 0 -230 45q-53 -26 -53 -74q0 -44 45 -67t152 -35zM580 903q-108 0 -174 -55.5t-66 -140.5q0 -84 66 -140.5t174 -56.5
q107 0 173 56t66 141t-66 140.5t-173 55.5zM559 -279q136 0 209.5 31.5t73.5 93.5q0 47 -42.5 70t-127.5 33l-287 31q-47 -19 -74.5 -54.5t-27.5 -77.5q0 -62 71.5 -94.5t204.5 -32.5z" />
    <glyph glyph-name="gcommaaccent.ss04" horiz-adv-x="1128" 
d="M676 1468v-249h-277v211q0 117 66.5 186t189.5 78v-123q-46 -9 -64 -32t-18 -71h103zM711 139q176 -21 272 -96.5t96 -208.5q0 -158 -136 -242t-384 -84q-244 0 -381 83t-137 227q0 63 36.5 124t108.5 103q-102 70 -102 186q0 128 133 201q-115 112 -115 275
q0 176 134 292.5t344 116.5q100 0 194 -33q36 97 113.5 164t181.5 94l70 -194q-170 -32 -230 -137q70 -56 109 -134.5t39 -168.5q0 -175 -133.5 -292.5t-343.5 -117.5q-128 0 -230 45q-53 -26 -53 -74q0 -44 45 -67t152 -35zM580 903q-108 0 -174 -55.5t-66 -140.5
q0 -84 66 -140.5t174 -56.5q107 0 173 56t66 141t-66 140.5t-173 55.5zM559 -279q136 0 209.5 31.5t73.5 93.5q0 47 -42.5 70t-127.5 33l-287 31q-47 -19 -74.5 -54.5t-27.5 -77.5q0 -62 71.5 -94.5t204.5 -32.5z" />
    <glyph glyph-name="gdotaccent.ss04" horiz-adv-x="1128" 
d="M674 1487v-268h-273v268h273zM711 139q176 -21 272 -96.5t96 -208.5q0 -158 -136 -242t-384 -84q-244 0 -381 83t-137 227q0 63 36.5 124t108.5 103q-102 70 -102 186q0 128 133 201q-115 112 -115 275q0 176 134 292.5t344 116.5q100 0 194 -33q36 97 113.5 164
t181.5 94l70 -194q-170 -32 -230 -137q70 -56 109 -134.5t39 -168.5q0 -175 -133.5 -292.5t-343.5 -117.5q-128 0 -230 45q-53 -26 -53 -74q0 -44 45 -67t152 -35zM580 903q-108 0 -174 -55.5t-66 -140.5q0 -84 66 -140.5t174 -56.5q107 0 173 56t66 141t-66 140.5
t-173 55.5zM559 -279q136 0 209.5 31.5t73.5 93.5q0 47 -42.5 70t-127.5 33l-287 31q-47 -19 -74.5 -54.5t-27.5 -77.5q0 -62 71.5 -94.5t204.5 -32.5z" />
    <glyph glyph-name="j.ss04" horiz-adv-x="806" 
d="M666 1487v-268h-273v268h273zM674 1085v-1065q0 -185 -110.5 -297t-291.5 -112q-100 0 -188 16l27 223q64 -12 129 -12q92 0 140 51.5t48 149.5v819h-360v227h606z" />
    <glyph glyph-name="uni0237.ss04" horiz-adv-x="806" 
d="M674 1085v-1065q0 -185 -110.5 -297t-291.5 -112q-100 0 -188 16l27 223q64 -12 129 -12q92 0 140 51.5t48 149.5v819h-360v227h606z" />
    <glyph glyph-name="jcircumflex.ss04" horiz-adv-x="806" 
d="M530 1327l-141 -180l-172 127l145 182h334l146 -182l-170 -127zM68 1085h606v-1065q0 -185 -110.5 -297t-291.5 -112q-100 0 -188 16l27 223q64 -12 129 -12q92 0 140 51.5t48 149.5v819h-360v227z" />
    <glyph glyph-name="r.ss04" horiz-adv-x="804" 
d="M606 1116q66 0 137 -18l-47 -234q-80 25 -139 25q-83 0 -130.5 -57t-47.5 -158v-674h-246v1085h225v-96q34 57 101.5 92t146.5 35z" />
    <glyph glyph-name="racute.ss04" horiz-adv-x="804" 
d="M811 1507l-264 -288h-244l191 288h317zM358 989q34 57 101.5 92t146.5 35q66 0 137 -18l-47 -234q-80 25 -139 25q-83 0 -130.5 -57t-47.5 -158v-674h-246v1085h225v-96z" />
    <glyph glyph-name="rcaron.ss04" horiz-adv-x="804" 
d="M621 1219h-334l-146 182l172 127l142 -180l141 180l170 -127zM358 989q34 57 101.5 92t146.5 35q66 0 137 -18l-47 -234q-80 25 -139 25q-83 0 -130.5 -57t-47.5 -158v-674h-246v1085h225v-96z" />
    <glyph glyph-name="rcommaaccent.ss04" horiz-adv-x="804" 
d="M606 1116q66 0 137 -18l-47 -234q-80 25 -139 25q-83 0 -130.5 -57t-47.5 -158v-674h-246v1085h225v-96q34 57 101.5 92t146.5 35zM139 -352v250h277v-211q0 -117 -66.5 -186.5t-189.5 -78.5v123q46 9 64 32t18 71h-103z" />
    <glyph glyph-name="t.ss04" horiz-adv-x="806" 
d="M246 1362l246 72v-349h258v-227h-258v-545q0 -116 110 -116q85 0 199 41l61 -220q-155 -49 -280 -49q-150 0 -243 89t-93 233v567h-240v227h240v277z" />
    <glyph glyph-name="tbar.ss04" horiz-adv-x="868" 
d="M801 238l61 -220q-155 -49 -280 -49q-150 0 -243 89t-93 233v184h-240v199h240v184h-240v227h240v277l246 72v-349h258v-227h-258v-184h249v-199h-249v-162q0 -116 110 -116q85 0 199 41z" />
    <glyph glyph-name="tcaron.ss04" horiz-adv-x="806" 
d="M625 1194v123q47 9 64.5 31.5t17.5 70.5h-103v250h277v-211q0 -117 -66.5 -186t-189.5 -78zM246 1362l246 72v-349h258v-227h-258v-545q0 -116 110 -116q85 0 199 41l61 -220q-155 -49 -280 -49q-150 0 -243 89t-93 233v567h-240v227h240v277z" />
    <glyph glyph-name="uni0163.ss04" horiz-adv-x="806" 
d="M606 -123q95 0 157 -53.5t62 -136.5q0 -99 -68.5 -159t-183.5 -60q-91 0 -164.5 37t-115.5 102l131 96q29 -44 61 -62t80 -18q45 0 69.5 20t22.5 54q-2 30 -25.5 47.5t-64.5 17.5q-45 0 -94 -32l-121 65l109 193q-100 31 -157.5 111t-57.5 192v567h-240v227h240v277
l246 72v-349h258v-227h-258v-545q0 -116 110 -116q85 0 199 41l61 -220q-144 -46 -250 -49l-57 -96q32 4 51 4z" />
    <glyph glyph-name="uni021B.ss04" horiz-adv-x="806" 
d="M246 1362l246 72v-349h258v-227h-258v-545q0 -116 110 -116q85 0 199 41l61 -220q-155 -49 -280 -49q-150 0 -243 89t-93 233v567h-240v227h240v277zM438 -608v123q47 9 64.5 31.5t17.5 70.5h-102v250h276v-211q0 -117 -66.5 -186t-189.5 -78z" />
    <glyph glyph-name="uni1E6D.ss04" horiz-adv-x="806" 
d="M246 1362l246 72v-349h258v-227h-258v-545q0 -116 110 -116q85 0 199 41l61 -220q-155 -49 -280 -49q-150 0 -243 89t-93 233v567h-240v227h240v277zM420 -401v268h272v-268h-272z" />
    <glyph glyph-name="zero.case" horiz-adv-x="1228" 
d="M614 -31q-261 0 -401.5 194.5t-140.5 553.5q0 360 140.5 553.5t401.5 193.5t402 -193.5t141 -553.5q0 -359 -141 -553.5t-402 -194.5zM614 207q287 0 287 510t-287 510q-286 0 -286 -510t286 -510z" />
    <glyph glyph-name="one.case" horiz-adv-x="921" 
d="M451 0v1075q-70 -64 -156.5 -107.5t-216.5 -80.5l-68 231q166 47 273 118t204 198h220v-1434h-256z" />
    <glyph glyph-name="two.case" horiz-adv-x="1236" 
d="M1149 999q0 -96 -29 -176t-77 -133t-111 -99t-129.5 -76.5t-134 -63t-123 -60.5t-97.5 -67.5t-57 -85.5h721v-238h-995v141q0 119 43 210.5t111 148t151 101.5t166 82t151 78t111 102t43 141q0 100 -72.5 161.5t-189.5 61.5q-128 0 -205.5 -73.5t-77.5 -197.5
q0 -90 37 -182l-242 -74q-51 133 -51 256q0 226 151 367t388 141q225 0 371.5 -131t146.5 -334z" />
    <glyph glyph-name="three.case" horiz-adv-x="1159" 
d="M662 891q85 -5 157 -34.5t128 -82t88 -134.5t32 -185q0 -146 -69 -257.5t-185.5 -170t-259.5 -58.5q-229 0 -375 132t-168 364l252 35q29 -293 291 -293q112 0 185 65t73 187q0 123 -70.5 184.5t-203.5 61.5h-228v180l412 311h-621v238h940v-254z" />
    <glyph glyph-name="four.case" horiz-adv-x="1255" 
d="M768 0v276h-696v242q226 224 343.5 435t164.5 481h262q-80 -540 -457 -920h383v356h256v-356h180v-238h-180v-276h-256z" />
    <glyph glyph-name="five.case" horiz-adv-x="1241" 
d="M676 946q219 0 356 -137.5t137 -345.5q0 -214 -151.5 -354t-384.5 -140q-203 0 -349 112.5t-192 299.5l244 70q29 -118 105 -181t192 -63q126 0 203 71.5t77 184.5q0 115 -72.5 188.5t-195.5 73.5q-160 0 -283 -141l-233 57l141 793h781v-238h-566l-59 -317
q108 67 250 67z" />
    <glyph glyph-name="six.case" horiz-adv-x="1208" 
d="M1157 453q1 -204 -142.5 -344t-352.5 -140q-266 0 -418 164.5t-152 476.5q0 364 213 589t586 265l37 -235q-234 -27 -381 -134.5t-189 -293.5q116 119 322 119q207 0 342 -132t135 -335zM641 207q114 0 187 67.5t73 176.5q0 111 -70 177t-192 66q-113 0 -187.5 -68
t-74.5 -175q0 -105 75 -174.5t189 -69.5z" />
    <glyph glyph-name="seven.case" horiz-adv-x="1107" 
d="M31 1434h1046v-291q-265 -296 -382 -558t-132 -585h-276q9 206 70 421.5t177.5 423.5t270.5 351h-518v-217h-256v455z" />
    <glyph glyph-name="eight.case" horiz-adv-x="1181" 
d="M891 764q94 -52 151.5 -147.5t57.5 -206.5q0 -190 -144 -315.5t-364 -125.5q-222 0 -366 125t-144 316q0 111 58 206.5t153 147.5q-170 111 -170 301q0 172 134 285.5t335 113.5t334 -113.5t133 -285.5q0 -191 -168 -301zM592 1231q-97 0 -156 -52t-59 -137
q0 -89 57.5 -139.5t157.5 -50.5t156.5 50.5t56.5 139.5q0 85 -59 137t-154 52zM592 207q115 0 183.5 60.5t68.5 160.5q0 103 -67.5 164t-184.5 61t-185.5 -61t-68.5 -164q0 -100 69 -160.5t185 -60.5z" />
    <glyph glyph-name="nine.case" horiz-adv-x="1208" 
d="M569 1464q247 0 397 -164.5t150 -433.5q0 -773 -760 -897l-39 236q218 37 353.5 145t175.5 275q-115 -109 -316 -109q-214 0 -346.5 130.5t-132.5 334.5q0 209 147 346t371 137zM567 739q121 0 194 67.5t73 176.5q0 106 -75.5 175t-191.5 69q-115 0 -187.5 -67.5
t-72.5 -176.5q0 -115 67 -179.5t193 -64.5z" />
    <glyph glyph-name="one.ss01" horiz-adv-x="933" 
d="M473 0v1120l-412 -256v262l431 265h227v-1391h-246z" />
    <glyph glyph-name="two.ss01" horiz-adv-x="1202" 
d="M362 236v-11h717v-225h-960v219q0 82 26 149t69.5 113.5t100 84.5t119 67t124.5 56t118.5 56t100 62t69.5 79t26 103q0 89 -66 147t-169 58q-139 0 -218.5 -83.5t-84.5 -231.5l-242 10q3 236 154.5 384t390.5 148q206 0 342.5 -123t136.5 -309q0 -85 -26 -155.5
t-69.5 -121t-100 -92t-119 -72t-125 -58t-119 -54t-100 -54.5t-69.5 -65t-26 -81z" />
    <glyph glyph-name="three.ss01" horiz-adv-x="1132" 
d="M842 729q91 -41 144.5 -127.5t53.5 -193.5q0 -195 -131.5 -317t-343.5 -122q-215 0 -352 127t-162 350l240 41q26 -290 274 -290q107 0 169.5 58t62.5 159q0 94 -55.5 143t-163.5 49h-138v219h146q92 0 141 47.5t49 135.5q0 85 -58 135.5t-155 50.5q-106 0 -170 -63.5
t-74 -178.5l-243 23q20 206 154.5 326t332.5 120q195 0 326 -114t131 -283q0 -95 -46.5 -171t-131.5 -124z" />
    <glyph glyph-name="four.ss01" horiz-adv-x="1261" 
d="M999 496h211v-228h-211v-268h-245v268h-682v221l669 902h258v-895zM346 496h408v553z" />
    <glyph glyph-name="six.ss01" horiz-adv-x="1193" 
d="M1143 438q1 -129 -63 -237t-177 -170t-250 -62q-268 0 -414.5 182.5t-146.5 505.5q0 345 153 554.5t404 209.5q183 0 308.5 -105.5t160.5 -289.5l-231 -49q-20 104 -81.5 160.5t-156.5 56.5q-129 0 -216.5 -119t-96.5 -305q61 61 146.5 96t185.5 35q201 0 338 -134
t137 -329zM649 197q106 0 178 69t72 172t-74 172.5t-186 69.5q-113 0 -187.5 -69.5t-74.5 -172.5q0 -104 76 -172.5t196 -68.5z" />
    <glyph glyph-name="seven.ss01" horiz-adv-x="1095" 
d="M236 0l546 1163h-485v-211h-246v439h993v-240l-536 -1151h-272z" />
    <glyph glyph-name="nine.ss01" horiz-adv-x="1165" 
d="M535 1421q240 0 389 -179t149 -507q0 -377 -139 -571.5t-381 -194.5q-173 0 -297.5 105t-159.5 286l232 54q44 -217 225 -217q123 0 196 106.5t80 321.5q-106 -133 -311 -133q-86 0 -168 30.5t-149.5 86.5t-108.5 145.5t-41 197.5q0 204 135.5 336.5t348.5 132.5z
M541 713q106 0 174.5 67t68.5 174q0 104 -73 172t-179 68q-105 0 -171 -66.5t-66 -173.5q0 -112 69 -176.5t177 -64.5z" />
    <glyph glyph-name="one.ss01.case" horiz-adv-x="956" 
d="M485 0v1155l-424 -262v268l445 273h235v-1434h-256z" />
    <glyph glyph-name="two.ss01.case" horiz-adv-x="1236" 
d="M377 246v-8h735v-238h-993v229q0 84 26.5 153t71.5 117t103 87.5t122.5 69t129 57.5t122.5 57.5t103 63t71.5 80.5t26.5 104q0 92 -68 150.5t-174 58.5q-141 0 -221.5 -85.5t-85.5 -236.5l-254 10q3 245 158.5 397t402.5 152q215 0 356.5 -126.5t141.5 -319.5
q0 -87 -26.5 -160t-71.5 -124.5t-103 -94.5t-122 -74.5t-128 -59.5t-122 -55t-103 -55.5t-71.5 -66t-26.5 -82.5z" />
    <glyph glyph-name="three.ss01.case" horiz-adv-x="1167" 
d="M872 752q93 -45 148 -133t55 -199q0 -201 -136.5 -326t-354.5 -125q-225 0 -366.5 132t-166.5 360l252 43q27 -297 281 -297q109 0 172 58.5t63 160.5q0 197 -225 197h-141v229h149q95 0 145 47.5t50 136.5q0 87 -59 139t-158 52q-108 0 -172 -64t-74 -184l-256 25
q20 211 157 335.5t345 124.5q203 0 338 -117t135 -294q0 -97 -47.5 -174t-133.5 -127z" />
    <glyph glyph-name="four.ss01.case" horiz-adv-x="1298" 
d="M1032 514h215v-238h-215v-276h-258v276h-702v228l690 930h270v-920zM358 514h416v559z" />
    <glyph glyph-name="six.ss01.case" horiz-adv-x="1228" 
d="M1178 453q1 -133 -64 -244t-181.5 -175.5t-258.5 -64.5q-280 0 -431 187t-151 522q0 357 158 571.5t418 214.5q190 0 319 -108t166 -299l-244 -51q-22 108 -83.5 164.5t-157.5 56.5q-131 0 -220 -120t-100 -308q62 61 149.5 96t188.5 35q209 0 350.5 -138t141.5 -339z
M670 207q108 0 180 70t72 176q0 104 -75.5 173.5t-189.5 69.5q-116 0 -191 -69t-75 -174q0 -107 77 -176.5t202 -69.5z" />
    <glyph glyph-name="seven.ss01.case" horiz-adv-x="1128" 
d="M242 0l561 1196h-496v-217h-256v455h1026v-250l-551 -1184h-284z" />
    <glyph glyph-name="nine.ss01.case" horiz-adv-x="1200" 
d="M549 1464q122 0 223.5 -45t176.5 -131.5t117 -221t42 -304.5q0 -391 -143.5 -592t-395.5 -201q-181 0 -308.5 108t-162.5 294l244 57q22 -111 77.5 -166t149.5 -55q125 0 199.5 108t83.5 324q-107 -133 -322 -133q-89 0 -173.5 31.5t-153 89.5t-110.5 150t-42 204
q0 212 139 347.5t359 135.5zM557 739q108 0 178 68t70 176q0 106 -74 175t-184 69q-106 0 -173 -67t-67 -177q0 -114 69.5 -179t180.5 -65z" />
    <glyph glyph-name="zero.tf" 
d="M635 -31q-261 0 -402 194.5t-141 553.5q0 360 141 553.5t402 193.5t402 -193.5t141 -553.5q0 -359 -141 -553.5t-402 -194.5zM635 207q287 0 287 510t-287 510t-287 -510t287 -510z" />
    <glyph glyph-name="one.tf" 
d="M772 238h447v-238h-1168v238h465v837q-70 -64 -156.5 -107.5t-216.5 -80.5l-67 231q166 47 273 118t204 198h219v-1196z" />
    <glyph glyph-name="two.tf" 
d="M1163 999q0 -96 -29 -176t-77 -133t-111 -99t-129.5 -76.5t-133.5 -63t-122.5 -60.5t-97.5 -67.5t-57 -85.5h720v-238h-995v141q0 119 43 210.5t111 148t151 101.5t166 82t151 78t111 102t43 141q0 100 -72.5 161.5t-189.5 61.5q-128 0 -205.5 -73.5t-77.5 -197.5
q0 -90 37 -182l-241 -74q-52 136 -52 256q0 226 151 367t388 141q225 0 371.5 -131t146.5 -334z" />
    <glyph glyph-name="three.tf" 
d="M758 891q85 -5 157 -34.5t128 -82t88 -134.5t32 -185q0 -146 -69 -257.5t-185.5 -170t-259.5 -58.5q-229 0 -375 132t-168 364l252 35q29 -293 291 -293q112 0 185 65t73 187q0 123 -70.5 184.5t-203.5 61.5h-227v180l411 311h-620v238h940v-254z" />
    <glyph glyph-name="four.tf" 
d="M766 0v276h-696v242q224 224 341 435t164 481h265q-80 -540 -457 -920h383v356h256v-356h178v-238h-178v-276h-256z" />
    <glyph glyph-name="five.tf" 
d="M680 946q219 0 356.5 -137.5t137.5 -345.5q0 -214 -152 -354t-385 -140q-203 0 -349 112.5t-192 299.5l244 70q29 -118 105 -181t192 -63q127 0 204 71.5t77 184.5q0 115 -72.5 188.5t-196.5 73.5q-159 0 -282 -141l-234 57l141 793h781v-238h-566l-59 -317
q108 67 250 67z" />
    <glyph glyph-name="six.tf" 
d="M1167 453q1 -204 -142.5 -344t-352.5 -140q-266 0 -418 164.5t-152 476.5q0 364 213 589t586 265l37 -235q-234 -27 -380.5 -134.5t-188.5 -293.5q116 119 321 119q207 0 342 -132t135 -335zM651 207q114 0 187 67.5t73 176.5q0 111 -70 177t-192 66q-113 0 -187.5 -68
t-74.5 -175q0 -105 75 -174.5t189 -69.5z" />
    <glyph glyph-name="seven.tf" 
d="M111 1434h1046v-291q-265 -296 -382 -558t-132 -585h-276q9 206 70 421.5t177.5 423.5t270.5 351h-518v-217h-256v455z" />
    <glyph glyph-name="eight.tf" 
d="M934 764q94 -52 151.5 -147.5t57.5 -206.5q0 -190 -144 -315.5t-364 -125.5q-222 0 -366 125t-144 316q0 111 58 206.5t153 147.5q-170 111 -170 301q0 172 134 285.5t335 113.5t334 -113.5t133 -285.5q0 -191 -168 -301zM635 1231q-97 0 -156 -52t-59 -137
q0 -89 57.5 -139.5t157.5 -50.5t156.5 50.5t56.5 139.5q0 85 -59 137t-154 52zM635 207q115 0 183.5 60.5t68.5 160.5q0 103 -67.5 164t-184.5 61t-185.5 -61t-68.5 -164q0 -100 69 -160.5t185 -60.5z" />
    <glyph glyph-name="nine.tf" 
d="M621 1464q247 0 396.5 -164.5t149.5 -433.5q0 -773 -759 -897l-39 236q218 36 353 144.5t175 275.5q-115 -109 -315 -109q-214 0 -347 130.5t-133 334.5q0 209 147.5 346t371.5 137zM618 739q121 0 194 67.5t73 176.5q0 106 -75.5 175t-191.5 69q-115 0 -187.5 -67.5
t-72.5 -176.5q0 -115 67 -179.5t193 -64.5z" />
    <glyph glyph-name="zero.subs" horiz-adv-x="741" 
d="M371 -326q-161 0 -247.5 116t-86.5 333t86.5 332.5t247.5 115.5t247.5 -115.5t86.5 -332.5t-86.5 -333t-247.5 -116zM371 -152q76 0 111.5 65.5t35.5 209.5q0 143 -35.5 208.5t-111.5 65.5t-112 -65.5t-36 -208.5t36 -209t112 -66z" />
    <glyph glyph-name="one.subs" horiz-adv-x="565" 
d="M270 -307v629q-38 -38 -85.5 -63.5t-131.5 -53.5l-47 170q104 35 166 72t123 106h162v-860h-187z" />
    <glyph glyph-name="two.subs" horiz-adv-x="741" 
d="M698 281q0 -82 -38 -143t-96 -96.5t-118 -61.5t-115 -54.5t-75 -58.5h416v-174h-606v96q0 74 24.5 130t63.5 89.5t86.5 59t95 46t86.5 42t63.5 54.5t24.5 77q0 48 -36.5 79t-96.5 31q-66 0 -105 -37.5t-39 -99.5q0 -46 21 -102l-178 -52q-29 89 -29 154q0 136 92 223.5
t238 87.5q141 0 231 -81.5t90 -208.5z" />
    <glyph glyph-name="three.subs" horiz-adv-x="718" 
d="M434 213q110 -6 174 -70t64 -170q0 -131 -89 -215t-227 -84q-141 0 -231.5 81.5t-104.5 219.5l187 29q15 -156 149 -156q60 0 94.5 33.5t34.5 93.5q0 63 -33 92t-102 29h-145v115l235 168h-362v174h577v-186z" />
    <glyph glyph-name="four.subs" horiz-adv-x="761" 
d="M635 20h100v-174h-100v-153h-189v153h-409v177q125 130 193 253.5t92 276.5h196q-21 -157 -99 -302.5t-175 -230.5h202v187h189v-187z" />
    <glyph glyph-name="five.subs" horiz-adv-x="745" 
d="M418 264q125 0 209 -80t84 -200q0 -134 -94 -222t-236 -88q-126 0 -214 65t-120 181l176 57q20 -67 58 -98t100 -31t101.5 37t39.5 99q0 57 -38 92t-99 35q-79 0 -147 -68l-172 39l84 471h487v-174h-330l-26 -150q56 35 137 35z" />
    <glyph glyph-name="six.subs" horiz-adv-x="729" 
d="M416 246q125 0 205.5 -79t80.5 -200t-88 -207t-213 -86q-170 0 -262 103.5t-92 296.5q0 209 132 342t358 155l28 -174q-271 -27 -327 -207q72 56 178 56zM385 -152q58 0 94.5 33t36.5 86q0 52 -36 84.5t-95 32.5q-57 0 -94 -33t-37 -84q0 -52 37 -85.5t94 -33.5z" />
    <glyph glyph-name="seven.subs" horiz-adv-x="675" 
d="M16 553h646v-217q-159 -181 -221 -318t-68 -325h-211q7 176 87 372t218 314h-264v-125h-187v299z" />
    <glyph glyph-name="eight.subs" horiz-adv-x="712" 
d="M539 154q60 -31 95.5 -89t35.5 -126q0 -113 -90.5 -189t-223.5 -76q-135 0 -224 76t-89 189q0 68 36 126t95 91q-108 57 -108 174q0 101 84 171t206 70t206.5 -70t84.5 -171q0 -119 -108 -176zM356 414q-49 0 -76.5 -24.5t-27.5 -67.5q0 -46 26.5 -70.5t77.5 -24.5
t78 24.5t27 70.5q0 42 -28.5 67t-76.5 25zM356 -152q58 0 92.5 30t34.5 81q0 50 -34.5 79.5t-92.5 29.5t-92.5 -29.5t-34.5 -79.5q0 -51 33.5 -81t93.5 -30z" />
    <glyph glyph-name="nine.subs" horiz-adv-x="729" 
d="M346 571q151 0 243.5 -101t92.5 -267q0 -464 -473 -529l-23 174q247 39 306 213q-62 -59 -185 -59q-125 0 -202.5 77.5t-77.5 201.5q0 125 90.5 207.5t228.5 82.5zM344 162q58 0 93.5 33t35.5 86t-35.5 84.5t-93.5 31.5q-59 0 -95 -32t-36 -84q0 -57 34 -88t97 -31z" />
    <glyph glyph-name="zero.dnom" horiz-adv-x="741" 
d="M371 -18q-161 0 -247.5 115.5t-86.5 332.5t86.5 333t247.5 116t247.5 -116t86.5 -333t-86.5 -332.5t-247.5 -115.5zM371 156q76 0 111.5 65.5t35.5 208.5q0 144 -35.5 209.5t-111.5 65.5t-112 -66t-36 -209t36 -208.5t112 -65.5z" />
    <glyph glyph-name="one.dnom" horiz-adv-x="565" 
d="M270 0v629q-38 -38 -85.5 -63.5t-131.5 -53.5l-47 170q104 35 166 72t123 106h162v-860h-187z" />
    <glyph glyph-name="two.dnom" horiz-adv-x="741" 
d="M698 588q0 -82 -38 -143t-96 -96.5t-118 -61.5t-115 -54.5t-75 -58.5h416v-174h-606v96q0 74 24.5 130t63.5 89.5t86.5 59t95 46t86.5 42t63.5 54.5t24.5 77q0 48 -36.5 79.5t-96.5 31.5q-66 0 -105 -38t-39 -100q0 -47 21 -102l-178 -51q-29 89 -29 153q0 136 92.5 224
t237.5 88q141 0 231 -81.5t90 -209.5z" />
    <glyph glyph-name="three.dnom" horiz-adv-x="718" 
d="M434 520q111 -6 174.5 -70t63.5 -169q0 -131 -89 -215t-227 -84q-141 0 -231.5 81.5t-104.5 219.5l187 28q15 -155 149 -155q60 0 94.5 33.5t34.5 93.5q0 63 -33 91.5t-102 28.5h-145v115l235 168h-362v174h577v-186z" />
    <glyph glyph-name="four.dnom" horiz-adv-x="761" 
d="M635 328h100v-174h-100v-154h-189v154h-409v176q125 130 193 253.5t92 276.5h196q-21 -157 -99 -302t-175 -230h202v186h189v-186z" />
    <glyph glyph-name="five.dnom" horiz-adv-x="745" 
d="M418 571q125 0 209 -80t84 -200q0 -134 -94 -221.5t-236 -87.5q-126 0 -214 64.5t-120 180.5l176 58q20 -67 58 -98t100 -31q63 0 102 36.5t39 98.5q0 57 -38 92t-99 35q-79 0 -147 -68l-172 39l84 471h487v-174h-330l-26 -149q55 34 137 34z" />
    <glyph glyph-name="six.dnom" horiz-adv-x="729" 
d="M416 553q125 0 205.5 -79t80.5 -200t-88 -206.5t-213 -85.5q-171 0 -262.5 103t-91.5 296q0 209 132 342.5t358 155.5l28 -174q-271 -27 -327 -207q71 55 178 55zM385 156q58 0 94.5 32.5t36.5 85.5q0 52 -36 84.5t-95 32.5q-57 0 -94 -33t-37 -84q0 -52 37 -85t94 -33z
" />
    <glyph glyph-name="seven.dnom" horiz-adv-x="675" 
d="M16 860h646v-217q-159 -181 -221 -318t-68 -325h-211q7 176 87 372t218 314h-264v-125h-187v299z" />
    <glyph glyph-name="eight.dnom" horiz-adv-x="712" 
d="M539 461q60 -31 95.5 -89t35.5 -126q0 -112 -90 -188t-224 -76q-135 0 -224 75.5t-89 188.5q0 68 36 126t95 91q-108 57 -108 174q0 101 84.5 171.5t205.5 70.5q122 0 206.5 -70.5t84.5 -171.5q0 -119 -108 -176zM356 721q-49 0 -76.5 -24.5t-27.5 -67.5q0 -94 104 -94
q51 0 78 24t27 70q0 42 -28.5 67t-76.5 25zM356 156q59 0 93 29.5t34 80.5q0 50 -34.5 79.5t-92.5 29.5t-92.5 -29.5t-34.5 -79.5q0 -51 33.5 -80.5t93.5 -29.5z" />
    <glyph glyph-name="nine.dnom" horiz-adv-x="729" 
d="M346 879q151 0 243.5 -101.5t92.5 -267.5q0 -463 -473 -528l-23 174q247 39 306 213q-63 -60 -185 -60q-125 0 -202.5 77.5t-77.5 201.5q0 125 90.5 208t228.5 83zM344 469q58 0 93.5 33t35.5 86t-35.5 85t-93.5 32q-59 0 -95 -32.5t-36 -84.5q0 -57 34 -88t97 -31z" />
    <glyph glyph-name="zero.numr" horiz-adv-x="741" 
d="M371 555q-161 0 -247.5 116t-86.5 333t86.5 332.5t247.5 115.5t247.5 -115.5t86.5 -332.5t-86.5 -333t-247.5 -116zM371 729q76 0 111.5 65.5t35.5 209.5q0 143 -35.5 208.5t-111.5 65.5t-112 -65.5t-36 -208.5t36 -209t112 -66z" />
    <glyph glyph-name="one.numr" horiz-adv-x="565" 
d="M270 573v629q-38 -38 -85.5 -63.5t-131.5 -53.5l-47 170q104 35 165.5 72.5t123.5 106.5h162v-861h-187z" />
    <glyph glyph-name="two.numr" horiz-adv-x="741" 
d="M698 1161q0 -82 -38 -143t-96 -96.5t-118 -61t-115 -53.5t-75 -59h416v-175h-606v97q0 74 24.5 130t63.5 89t86.5 59t95 46t86.5 41.5t63.5 54.5t24.5 77q0 48 -36.5 79.5t-96.5 31.5q-66 0 -105 -37.5t-39 -99.5q0 -47 21 -103l-178 -51q-29 89 -29 154q0 136 92 223.5
t238 87.5q141 0 231 -81.5t90 -209.5z" />
    <glyph glyph-name="three.numr" horiz-adv-x="718" 
d="M434 1094q110 -6 174 -70t64 -170q0 -131 -89 -215t-227 -84q-141 0 -231.5 81.5t-104.5 219.5l187 29q15 -156 149 -156q60 0 94.5 33.5t34.5 93.5q0 63 -33 92t-102 29h-145v115l235 168h-362v174h577v-187z" />
    <glyph glyph-name="four.numr" horiz-adv-x="761" 
d="M635 901h100v-174h-100v-154h-189v154h-409v176q125 129 193 253.5t92 277.5h196q-21 -157 -99 -302.5t-175 -230.5h202v186h189v-186z" />
    <glyph glyph-name="five.numr" horiz-adv-x="745" 
d="M418 1145q125 0 209 -80.5t84 -200.5q0 -134 -94 -221.5t-236 -87.5q-126 0 -214 65t-120 181l176 57q20 -67 58 -98t100 -31q63 0 102 36.5t39 98.5q0 57 -38 92t-99 35q-80 0 -147 -67l-172 39l84 471h487v-174h-330l-26 -150q56 35 137 35z" />
    <glyph glyph-name="six.numr" horiz-adv-x="729" 
d="M416 1126q125 0 205.5 -78.5t80.5 -199.5t-88 -207t-213 -86q-171 0 -262.5 103t-91.5 296q0 209 132 342.5t358 155.5l28 -174q-271 -27 -327 -207q71 55 178 55zM385 729q58 0 94.5 33t36.5 86q0 52 -36 84.5t-95 32.5q-57 0 -94 -33t-37 -84q0 -52 37 -85.5t94 -33.5z
" />
    <glyph glyph-name="seven.numr" horiz-adv-x="675" 
d="M16 1434h646v-217q-159 -181 -221 -318.5t-68 -325.5h-211q7 176 87 372.5t218 314.5h-264v-125h-187v299z" />
    <glyph glyph-name="eight.numr" horiz-adv-x="712" 
d="M539 1034q60 -31 95.5 -89t35.5 -126q0 -112 -90 -188t-224 -76q-135 0 -224 75.5t-89 188.5q0 68 36 126t95 91q-108 57 -108 174q0 101 84.5 171.5t205.5 70.5q122 0 206.5 -70.5t84.5 -171.5q0 -119 -108 -176zM356 1294q-49 0 -76.5 -24.5t-27.5 -67.5q0 -94 104 -94
q51 0 78 24t27 70q0 42 -28.5 67t-76.5 25zM356 729q58 0 92.5 30t34.5 81q0 50 -34.5 79t-92.5 29t-92.5 -29t-34.5 -79q0 -51 33.5 -81t93.5 -30z" />
    <glyph glyph-name="nine.numr" horiz-adv-x="729" 
d="M346 1452q151 0 243.5 -101.5t92.5 -267.5q0 -463 -473 -528l-23 174q247 39 306 213q-62 -59 -185 -59q-125 0 -202.5 77t-77.5 201q0 125 90.5 208t228.5 83zM344 1042q58 0 93.5 33t35.5 86t-35.5 85t-93.5 32q-59 0 -95 -32.5t-36 -84.5q0 -57 34 -88t97 -31z" />
    <glyph glyph-name="zero.sups" horiz-adv-x="741" 
d="M371 760q-161 0 -247.5 115.5t-86.5 332.5t86.5 333t247.5 116t247.5 -116t86.5 -333t-86.5 -332.5t-247.5 -115.5zM371 934q76 0 111.5 65.5t35.5 208.5q0 144 -35.5 209.5t-111.5 65.5t-112 -66t-36 -209t36 -208.5t112 -65.5z" />
    <glyph glyph-name="one.sups" horiz-adv-x="565" 
d="M270 778v629q-38 -38 -85.5 -63.5t-131.5 -53.5l-47 170q104 35 166 72t123 106h162v-860h-187z" />
    <glyph glyph-name="two.sups" horiz-adv-x="741" 
d="M698 1366q0 -82 -38 -143t-96 -96.5t-118 -61.5t-115 -54.5t-75 -58.5h416v-174h-606v96q0 74 24.5 130t63.5 89.5t86.5 59t95 46t86.5 42t63.5 54.5t24.5 77q0 48 -36.5 79.5t-96.5 31.5q-66 0 -105 -37.5t-39 -99.5q0 -48 21 -103l-178 -51q-29 89 -29 154
q0 136 92 223.5t238 87.5q141 0 231 -81.5t90 -209.5z" />
    <glyph glyph-name="three.sups" horiz-adv-x="718" 
d="M434 1298q111 -6 174.5 -70t63.5 -169q0 -131 -89 -215t-227 -84q-141 0 -231.5 81.5t-104.5 219.5l187 29q15 -156 149 -156q60 0 94.5 33.5t34.5 93.5q0 63 -33 92t-102 29h-145v114l235 168h-362v174h577v-186z" />
    <glyph glyph-name="four.sups" horiz-adv-x="761" 
d="M635 1106h100v-174h-100v-154h-189v154h-409v176q125 130 193 253.5t92 276.5h196q-21 -157 -99 -302t-175 -230h202v186h189v-186z" />
    <glyph glyph-name="five.sups" horiz-adv-x="745" 
d="M418 1350q125 0 209 -80.5t84 -200.5q0 -134 -94 -221.5t-236 -87.5q-126 0 -214 65t-120 181l176 57q20 -67 58 -98t100 -31q63 0 102 36.5t39 98.5q0 57 -38 92t-99 35q-79 0 -147 -68l-172 39l84 471h487v-174h-330l-26 -149q56 35 137 35z" />
    <glyph glyph-name="six.sups" horiz-adv-x="729" 
d="M416 1331q125 0 205.5 -78.5t80.5 -199.5t-88 -207t-213 -86q-171 0 -262.5 103t-91.5 296q0 209 132 342.5t358 155.5l28 -174q-271 -27 -327 -207q71 55 178 55zM385 934q58 0 94.5 33t36.5 86q0 52 -36 84t-95 32q-57 0 -94 -32.5t-37 -83.5q0 -52 37 -85.5t94 -33.5z
" />
    <glyph glyph-name="seven.sups" horiz-adv-x="675" 
d="M16 1638h646v-217q-159 -181 -221 -318t-68 -325h-211q7 176 87 372t218 314h-264v-125h-187v299z" />
    <glyph glyph-name="eight.sups" horiz-adv-x="712" 
d="M539 1239q60 -31 95.5 -89t35.5 -126q0 -112 -90 -188t-224 -76q-135 0 -224 75.5t-89 188.5q0 68 36 126t95 91q-108 57 -108 174q0 101 84.5 171.5t205.5 70.5q122 0 206.5 -70.5t84.5 -171.5q0 -119 -108 -176zM356 1499q-49 0 -76.5 -24.5t-27.5 -67.5q0 -94 104 -94
q51 0 78 24t27 70q0 42 -28.5 67t-76.5 25zM356 934q59 0 93 29.5t34 80.5q0 50 -34.5 79.5t-92.5 29.5t-92.5 -29.5t-34.5 -79.5q0 -51 33.5 -80.5t93.5 -29.5z" />
    <glyph glyph-name="nine.sups" horiz-adv-x="729" 
d="M346 1657q151 0 243.5 -101.5t92.5 -267.5q0 -463 -473 -528l-23 174q247 39 306 213q-63 -60 -185 -60q-125 0 -202.5 77.5t-77.5 201.5q0 125 90.5 208t228.5 83zM344 1247q58 0 93.5 33t35.5 86t-35.5 85t-93.5 32q-59 0 -95 -32.5t-36 -84.5q0 -57 34 -88t97 -31z
" />
    <glyph glyph-name="question.ss01" horiz-adv-x="1249" 
d="M492 449v75q0 73 22.5 131.5t58.5 96t79.5 68.5t87.5 55.5t80 49.5t58.5 58.5t22.5 75.5q0 72 -70.5 120t-173.5 48q-140 0 -224.5 -78t-106.5 -231l-254 36q31 235 187.5 372.5t397.5 137.5q218 0 359 -116t141 -283q0 -79 -23 -142t-60 -102.5t-81.5 -70.5t-89 -54.5
t-81.5 -46.5t-60 -54.5t-23 -70.5v-75h-247zM461 0v293h299v-293h-299z" />
    <glyph glyph-name="questiondown.ss01" 
d="M809 1085v-292h-299v292h299zM778 637v-76q0 -73 -22.5 -131.5t-58.5 -96t-79.5 -68t-87.5 -55t-80 -49.5t-58.5 -58.5t-22.5 -75.5q0 -72 70 -120t173 -48q140 0 225 78t107 231l254 -37q-31 -235 -188 -372.5t-398 -137.5q-218 0 -358.5 116t-140.5 283q0 79 23 142
t60 102.5t81.5 70.5t88.5 54.5t81 46.5t60 54.5t23 70.5v76h248z" />
    <glyph glyph-name="braceleft.case" horiz-adv-x="788" 
d="M569 -328q-160 0 -245.5 85t-85.5 245v465q0 43 -24.5 65.5t-68.5 22.5h-94v236h94q44 0 68.5 22.5t24.5 65.5v421q0 160 85.5 245t245.5 85h189v-237h-129q-72 0 -103.5 -32t-31.5 -104v-350q0 -200 -162 -235q162 -35 162 -236v-391q0 -72 31.5 -103.5t103.5 -31.5h129
v-238h-189z" />
    <glyph glyph-name="braceright.case" horiz-adv-x="788" 
d="M219 -328h-188v238h129q72 0 103.5 31.5t31.5 103.5v391q0 201 162 236q-162 35 -162 235v350q0 72 -31.5 104t-103.5 32h-129v237h188q160 0 246 -85t86 -245v-421q0 -43 24 -65.5t68 -22.5h94v-236h-94q-44 0 -68 -22.5t-24 -65.5v-465q0 -160 -86 -245t-246 -85z" />
    <glyph glyph-name="bracketleft.case" horiz-adv-x="739" 
d="M154 -328v1956h555v-237h-299v-1481h299v-238h-555z" />
    <glyph glyph-name="bracketright.case" horiz-adv-x="739" 
d="M586 -328h-555v238h299v1481h-299v237h555v-1956z" />
    <glyph glyph-name="parenleft.case" horiz-adv-x="706" 
d="M508 -369q-395 456 -395 1049q0 591 399 1051l184 -144q-327 -402 -327 -907q0 -504 325 -905z" />
    <glyph glyph-name="parenright.case" horiz-adv-x="706" 
d="M199 -369l-187 144q326 402 326 905t-328 907l185 144q399 -460 399 -1051q0 -593 -395 -1049z" />
    <glyph glyph-name="emdash.case" horiz-adv-x="1495" 
d="M113 608v238h1269v-238h-1269z" />
    <glyph glyph-name="endash.case" horiz-adv-x="1228" 
d="M113 608v238h1003v-238h-1003z" />
    <glyph glyph-name="hyphen.case" horiz-adv-x="880" 
d="M113 608v238h655v-238h-655z" />
    <glyph glyph-name="uni00AD.case" horiz-adv-x="880" 
d="M113 608v238h655v-238h-655z" />
    <glyph glyph-name="guillemotleft.case" horiz-adv-x="1234" 
d="M662 1079q-53 -195 -230 -399q178 -204 230 -401l-259 -78q-41 146 -107 255t-183 224q116 115 182.5 223.5t107.5 253.5zM1124 1079q-53 -197 -229 -399q176 -203 229 -401l-258 -78q-41 146 -107.5 255t-183.5 224q117 115 183.5 223.5t107.5 253.5z" />
    </font>
</defs>
</svg>
