<svg viewBox="0 0 22 13" fill="none" xmlns="http://www.w3.org/2000/svg"><path d="M12.4117 6.67891C12.4166 8.33051 11.7658 9.91653 10.6022 11.0887C9.43863 12.2608 7.85744 12.9233 6.20585 12.9306C4.55426 12.9233 2.97307 12.2608 1.80951 11.0887C0.645954 9.91653 -0.00484653 8.33051 2.71775e-05 6.67891C-0.00484653 5.0273 0.645954 3.44128 1.80951 2.26913C2.97307 1.09698 4.55426 0.434525 6.20585 0.427246C7.85744 0.434525 9.43863 1.09698 10.6022 2.26913C11.7658 3.44128 12.4166 5.0273 12.4117 6.67891ZM19.2133 6.67891C19.2133 9.9239 17.8292 12.5639 16.115 12.5639C14.4008 12.5639 13.0075 9.9239 13.0075 6.67891C13.0075 3.43391 14.4008 0.793912 16.115 0.793912C17.8292 0.793912 19.2133 3.43391 19.2133 6.67891ZM22 6.67891C22 9.58473 21.5142 11.9497 20.9092 11.9497C20.3042 11.9497 19.8183 9.58473 19.8183 6.67891C19.8183 3.77308 20.3042 1.40808 20.9092 1.40808C21.5142 1.40808 22 3.77308 22 6.67891Z" fill="#646464"/></svg>