<svg xmlns="http://www.w3.org/2000/svg" viewBox="0 0 68 66" >
	<path class="st0" d="M46.1,32c1,0.6,1.4,1.8,0.8,2.9c-0.2,0.3-0.5,0.6-0.8,0.8l-17,9.6c-1,0.5-2.3,0.2-2.8-0.8 c-0.1-0.3-0.2-0.6-0.2-0.9l-1.2-19.4c-0.1-1.2,0.8-2.2,1.9-2.2c0.4,0,0.8,0.1,1.1,0.2L46.1,32z" fill="#fff"/>
	<path class="st0" d="M32.4,0.3c-3.2,0.7-3,0.2-6.6,1.8c-1,0.3-2,0.7-3,1.1C22,3.4,22,3.4,21.6,3.9c-0.5,0.2-1.1,0.2-1.6,0.5 c-3.7,1.6-7.1,3.9-10,6.8c-2.9,2.8-5.2,6.1-7,9.8c-2,4.4-3,9.2-3,14C-0.2,43,5,52.8,10.7,57.6c5.2,4.8,15,9.5,24.9,8.2 c7.3-0.9,13.2-2.3,18.4-6.3c1.6-1.4,3.2-2.7,4.5-4.1c8.6-10.4,12.9-23.1,6.1-37.2C61,11.1,54.2,5.4,46.7,2.5 C43.1,0.9,36.8-0.6,32.4,0.3z M33.3,6.4c-4.5,0.7-1.4,1.1-5,1.8c-7.9,1.6-12,4.8-16.8,10.4c-6.2,7.5-7.2,17.9-2.7,26.5 c3,5.9,4.5,7.5,9.8,10.6c1.4,0.9,3,1.7,4.5,2.3c3.6,1.6,7.6,2.2,11.6,1.8c9.1-0.9,14.3-3.4,19-8.4C64.1,40.4,65,23.8,53.2,13.4 C48.3,9.3,40.2,5,33.3,6.4z" fill="#fff" fill-rule="evenodd"/>
</svg>