<svg xmlns="http://www.w3.org/2000/svg" viewBox="0 0 67.95 66">
	<circle fill="#fff" stroke="#fff" stroke-width="8px" cx="34.31" cy="33.22" r="28"/>
	<path fill="#f9bf6f" d="M62.12,49a2.1,2.1,0,0,1,0,3.68L45.08,62.29A2.09,2.09,0,0,1,42,60.59L40.77,41.23a2.1,2.1,0,0,1,3.09-2Z" transform="translate(-16.02 -17)"/>
	<path fill="#fff" fill-rule="evenodd" d="M48.44,17.26c-3.17.68-2.95.23-6.57,1.82a15.52,15.52,0,0,0-2.95,1.13c-.9.23-.9.23-1.36.68-.45.23-1.13.23-1.58.45a31.06,31.06,0,0,0-10,6.8,35.92,35.92,0,0,0-7,9.75,31.89,31.89,0,0,0-2.95,14c-.23,8.16,5,17.91,10.65,22.67,5.22,4.75,15,9.51,24.93,8.15,7.26-.9,13.15-2.26,18.36-6.34,1.59-1.36,3.18-2.72,4.54-4.08,8.61-10.43,12.91-23.12,6.11-37.17-3.62-7-10.42-12.69-17.9-15.64C59.09,17.94,52.75,16.36,48.44,17.26Zm.91,6.12c-4.54.68-1.36,1.14-5,1.82-7.93,1.58-12,4.76-16.77,10.42a24.08,24.08,0,0,0-2.72,26.52c2.95,5.89,4.53,7.48,9.75,10.65a27.78,27.78,0,0,0,4.53,2.27,22.36,22.36,0,0,0,11.56,1.81c9.06-.91,14.28-3.4,19-8.38,10.42-11.11,11.33-27.65-.46-38.08C64.31,26.33,56.15,22,49.35,23.38Z" transform="translate(-16.02 -17)"/>
</svg>